<?xml version="1.0" encoding="utf-8" standalone="no"?>
<!DOCTYPE svg PUBLIC "-//W3C//DTD SVG 1.1//EN"
  "http://www.w3.org/Graphics/SVG/1.1/DTD/svg11.dtd">
<svg xmlns:xlink="http://www.w3.org/1999/xlink" width="853.294688pt" height="276.634219pt" viewBox="0 0 853.294688 276.634219" xmlns="http://www.w3.org/2000/svg" version="1.1">
 <metadata>
  <rdf:RDF xmlns:dc="http://purl.org/dc/elements/1.1/" xmlns:cc="http://creativecommons.org/ns#" xmlns:rdf="http://www.w3.org/1999/02/22-rdf-syntax-ns#">
   <cc:Work>
    <dc:type rdf:resource="http://purl.org/dc/dcmitype/StillImage"/>
    <dc:date>2025-07-06T15:51:55.667941</dc:date>
    <dc:format>image/svg+xml</dc:format>
    <dc:creator>
     <cc:Agent>
      <dc:title>Matplotlib v3.10.1, https://matplotlib.org/</dc:title>
     </cc:Agent>
    </dc:creator>
   </cc:Work>
  </rdf:RDF>
 </metadata>
 <defs>
  <style type="text/css">*{stroke-linejoin: round; stroke-linecap: butt}</style>
 </defs>
 <g id="figure_1">
  <g id="patch_1">
   <path d="M 0 276.634219 
L 853.294688 276.634219 
L 853.294688 0 
L 0 0 
z
" style="fill: #ffffff"/>
  </g>
  <g id="axes_1">
   <g id="patch_2">
    <path d="M 50.312344 234.9 
L 802.982344 234.9 
L 802.982344 7.2 
L 50.312344 7.2 
z
" style="fill: #ffffff"/>
   </g>
   <g id="matplotlib.axis_1">
    <g id="xtick_1">
     <g id="line2d_1">
      <defs>
       <path id="m9026ebd02f" d="M 0 0 
L 0 6 
" style="stroke: #262626; stroke-width: 1.25"/>
      </defs>
      <g>
       <use xlink:href="#m9026ebd02f" x="84.524616" y="234.9" style="fill: #262626; stroke: #262626; stroke-width: 1.25"/>
      </g>
     </g>
     <g id="text_1">
      <!-- 0 -->
      <g style="fill: #262626" transform="translate(81.466101 252.273594) scale(0.11 -0.11)">
       <defs>
        <path id="ArialMT-30" d="M 266 2259 
Q 266 3072 433 3567 
Q 600 4063 929 4331 
Q 1259 4600 1759 4600 
Q 2128 4600 2406 4451 
Q 2684 4303 2865 4023 
Q 3047 3744 3150 3342 
Q 3253 2941 3253 2259 
Q 3253 1453 3087 958 
Q 2922 463 2592 192 
Q 2263 -78 1759 -78 
Q 1097 -78 719 397 
Q 266 969 266 2259 
z
M 844 2259 
Q 844 1131 1108 757 
Q 1372 384 1759 384 
Q 2147 384 2411 759 
Q 2675 1134 2675 2259 
Q 2675 3391 2411 3762 
Q 2147 4134 1753 4134 
Q 1366 4134 1134 3806 
Q 844 3388 844 2259 
z
" transform="scale(0.015625)"/>
       </defs>
       <use xlink:href="#ArialMT-30"/>
      </g>
     </g>
    </g>
    <g id="xtick_2">
     <g id="line2d_2">
      <g>
       <use xlink:href="#m9026ebd02f" x="152.949162" y="234.9" style="fill: #262626; stroke: #262626; stroke-width: 1.25"/>
      </g>
     </g>
     <g id="text_2">
      <!-- 10 -->
      <g style="fill: #262626" transform="translate(146.832131 252.273594) scale(0.11 -0.11)">
       <defs>
        <path id="ArialMT-31" d="M 2384 0 
L 1822 0 
L 1822 3584 
Q 1619 3391 1289 3197 
Q 959 3003 697 2906 
L 697 3450 
Q 1169 3672 1522 3987 
Q 1875 4303 2022 4600 
L 2384 4600 
L 2384 0 
z
" transform="scale(0.015625)"/>
       </defs>
       <use xlink:href="#ArialMT-31"/>
       <use xlink:href="#ArialMT-30" transform="translate(55.615234 0)"/>
      </g>
     </g>
    </g>
    <g id="xtick_3">
     <g id="line2d_3">
      <g>
       <use xlink:href="#m9026ebd02f" x="221.373707" y="234.9" style="fill: #262626; stroke: #262626; stroke-width: 1.25"/>
      </g>
     </g>
     <g id="text_3">
      <!-- 20 -->
      <g style="fill: #262626" transform="translate(215.256676 252.273594) scale(0.11 -0.11)">
       <defs>
        <path id="ArialMT-32" d="M 3222 541 
L 3222 0 
L 194 0 
Q 188 203 259 391 
Q 375 700 629 1000 
Q 884 1300 1366 1694 
Q 2113 2306 2375 2664 
Q 2638 3022 2638 3341 
Q 2638 3675 2398 3904 
Q 2159 4134 1775 4134 
Q 1369 4134 1125 3890 
Q 881 3647 878 3216 
L 300 3275 
Q 359 3922 746 4261 
Q 1134 4600 1788 4600 
Q 2447 4600 2831 4234 
Q 3216 3869 3216 3328 
Q 3216 3053 3103 2787 
Q 2991 2522 2730 2228 
Q 2469 1934 1863 1422 
Q 1356 997 1212 845 
Q 1069 694 975 541 
L 3222 541 
z
" transform="scale(0.015625)"/>
       </defs>
       <use xlink:href="#ArialMT-32"/>
       <use xlink:href="#ArialMT-30" transform="translate(55.615234 0)"/>
      </g>
     </g>
    </g>
    <g id="xtick_4">
     <g id="line2d_4">
      <g>
       <use xlink:href="#m9026ebd02f" x="289.798253" y="234.9" style="fill: #262626; stroke: #262626; stroke-width: 1.25"/>
      </g>
     </g>
     <g id="text_4">
      <!-- 30 -->
      <g style="fill: #262626" transform="translate(283.681222 252.273594) scale(0.11 -0.11)">
       <defs>
        <path id="ArialMT-33" d="M 269 1209 
L 831 1284 
Q 928 806 1161 595 
Q 1394 384 1728 384 
Q 2125 384 2398 659 
Q 2672 934 2672 1341 
Q 2672 1728 2419 1979 
Q 2166 2231 1775 2231 
Q 1616 2231 1378 2169 
L 1441 2663 
Q 1497 2656 1531 2656 
Q 1891 2656 2178 2843 
Q 2466 3031 2466 3422 
Q 2466 3731 2256 3934 
Q 2047 4138 1716 4138 
Q 1388 4138 1169 3931 
Q 950 3725 888 3313 
L 325 3413 
Q 428 3978 793 4289 
Q 1159 4600 1703 4600 
Q 2078 4600 2393 4439 
Q 2709 4278 2876 4000 
Q 3044 3722 3044 3409 
Q 3044 3113 2884 2869 
Q 2725 2625 2413 2481 
Q 2819 2388 3044 2092 
Q 3269 1797 3269 1353 
Q 3269 753 2831 336 
Q 2394 -81 1725 -81 
Q 1122 -81 723 278 
Q 325 638 269 1209 
z
" transform="scale(0.015625)"/>
       </defs>
       <use xlink:href="#ArialMT-33"/>
       <use xlink:href="#ArialMT-30" transform="translate(55.615234 0)"/>
      </g>
     </g>
    </g>
    <g id="xtick_5">
     <g id="line2d_5">
      <g>
       <use xlink:href="#m9026ebd02f" x="358.222798" y="234.9" style="fill: #262626; stroke: #262626; stroke-width: 1.25"/>
      </g>
     </g>
     <g id="text_5">
      <!-- 40 -->
      <g style="fill: #262626" transform="translate(352.105767 252.273594) scale(0.11 -0.11)">
       <defs>
        <path id="ArialMT-34" d="M 2069 0 
L 2069 1097 
L 81 1097 
L 81 1613 
L 2172 4581 
L 2631 4581 
L 2631 1613 
L 3250 1613 
L 3250 1097 
L 2631 1097 
L 2631 0 
L 2069 0 
z
M 2069 1613 
L 2069 3678 
L 634 1613 
L 2069 1613 
z
" transform="scale(0.015625)"/>
       </defs>
       <use xlink:href="#ArialMT-34"/>
       <use xlink:href="#ArialMT-30" transform="translate(55.615234 0)"/>
      </g>
     </g>
    </g>
    <g id="xtick_6">
     <g id="line2d_6">
      <g>
       <use xlink:href="#m9026ebd02f" x="426.647344" y="234.9" style="fill: #262626; stroke: #262626; stroke-width: 1.25"/>
      </g>
     </g>
     <g id="text_6">
      <!-- 50 -->
      <g style="fill: #262626" transform="translate(420.530312 252.273594) scale(0.11 -0.11)">
       <defs>
        <path id="ArialMT-35" d="M 266 1200 
L 856 1250 
Q 922 819 1161 601 
Q 1400 384 1738 384 
Q 2144 384 2425 690 
Q 2706 997 2706 1503 
Q 2706 1984 2436 2262 
Q 2166 2541 1728 2541 
Q 1456 2541 1237 2417 
Q 1019 2294 894 2097 
L 366 2166 
L 809 4519 
L 3088 4519 
L 3088 3981 
L 1259 3981 
L 1013 2750 
Q 1425 3038 1878 3038 
Q 2478 3038 2890 2622 
Q 3303 2206 3303 1553 
Q 3303 931 2941 478 
Q 2500 -78 1738 -78 
Q 1113 -78 717 272 
Q 322 622 266 1200 
z
" transform="scale(0.015625)"/>
       </defs>
       <use xlink:href="#ArialMT-35"/>
       <use xlink:href="#ArialMT-30" transform="translate(55.615234 0)"/>
      </g>
     </g>
    </g>
    <g id="xtick_7">
     <g id="line2d_7">
      <g>
       <use xlink:href="#m9026ebd02f" x="495.071889" y="234.9" style="fill: #262626; stroke: #262626; stroke-width: 1.25"/>
      </g>
     </g>
     <g id="text_7">
      <!-- 60 -->
      <g style="fill: #262626" transform="translate(488.954858 252.273594) scale(0.11 -0.11)">
       <defs>
        <path id="ArialMT-36" d="M 3184 3459 
L 2625 3416 
Q 2550 3747 2413 3897 
Q 2184 4138 1850 4138 
Q 1581 4138 1378 3988 
Q 1113 3794 959 3422 
Q 806 3050 800 2363 
Q 1003 2672 1297 2822 
Q 1591 2972 1913 2972 
Q 2475 2972 2870 2558 
Q 3266 2144 3266 1488 
Q 3266 1056 3080 686 
Q 2894 316 2569 119 
Q 2244 -78 1831 -78 
Q 1128 -78 684 439 
Q 241 956 241 2144 
Q 241 3472 731 4075 
Q 1159 4600 1884 4600 
Q 2425 4600 2770 4297 
Q 3116 3994 3184 3459 
z
M 888 1484 
Q 888 1194 1011 928 
Q 1134 663 1356 523 
Q 1578 384 1822 384 
Q 2178 384 2434 671 
Q 2691 959 2691 1453 
Q 2691 1928 2437 2201 
Q 2184 2475 1800 2475 
Q 1419 2475 1153 2201 
Q 888 1928 888 1484 
z
" transform="scale(0.015625)"/>
       </defs>
       <use xlink:href="#ArialMT-36"/>
       <use xlink:href="#ArialMT-30" transform="translate(55.615234 0)"/>
      </g>
     </g>
    </g>
    <g id="xtick_8">
     <g id="line2d_8">
      <g>
       <use xlink:href="#m9026ebd02f" x="563.496435" y="234.9" style="fill: #262626; stroke: #262626; stroke-width: 1.25"/>
      </g>
     </g>
     <g id="text_8">
      <!-- 70 -->
      <g style="fill: #262626" transform="translate(557.379403 252.273594) scale(0.11 -0.11)">
       <defs>
        <path id="ArialMT-37" d="M 303 3981 
L 303 4522 
L 3269 4522 
L 3269 4084 
Q 2831 3619 2401 2847 
Q 1972 2075 1738 1259 
Q 1569 684 1522 0 
L 944 0 
Q 953 541 1156 1306 
Q 1359 2072 1739 2783 
Q 2119 3494 2547 3981 
L 303 3981 
z
" transform="scale(0.015625)"/>
       </defs>
       <use xlink:href="#ArialMT-37"/>
       <use xlink:href="#ArialMT-30" transform="translate(55.615234 0)"/>
      </g>
     </g>
    </g>
    <g id="xtick_9">
     <g id="line2d_9">
      <g>
       <use xlink:href="#m9026ebd02f" x="631.92098" y="234.9" style="fill: #262626; stroke: #262626; stroke-width: 1.25"/>
      </g>
     </g>
     <g id="text_9">
      <!-- 80 -->
      <g style="fill: #262626" transform="translate(625.803949 252.273594) scale(0.11 -0.11)">
       <defs>
        <path id="ArialMT-38" d="M 1131 2484 
Q 781 2613 612 2850 
Q 444 3088 444 3419 
Q 444 3919 803 4259 
Q 1163 4600 1759 4600 
Q 2359 4600 2725 4251 
Q 3091 3903 3091 3403 
Q 3091 3084 2923 2848 
Q 2756 2613 2416 2484 
Q 2838 2347 3058 2040 
Q 3278 1734 3278 1309 
Q 3278 722 2862 322 
Q 2447 -78 1769 -78 
Q 1091 -78 675 323 
Q 259 725 259 1325 
Q 259 1772 486 2073 
Q 713 2375 1131 2484 
z
M 1019 3438 
Q 1019 3113 1228 2906 
Q 1438 2700 1772 2700 
Q 2097 2700 2305 2904 
Q 2513 3109 2513 3406 
Q 2513 3716 2298 3927 
Q 2084 4138 1766 4138 
Q 1444 4138 1231 3931 
Q 1019 3725 1019 3438 
z
M 838 1322 
Q 838 1081 952 856 
Q 1066 631 1291 507 
Q 1516 384 1775 384 
Q 2178 384 2440 643 
Q 2703 903 2703 1303 
Q 2703 1709 2433 1975 
Q 2163 2241 1756 2241 
Q 1359 2241 1098 1978 
Q 838 1716 838 1322 
z
" transform="scale(0.015625)"/>
       </defs>
       <use xlink:href="#ArialMT-38"/>
       <use xlink:href="#ArialMT-30" transform="translate(55.615234 0)"/>
      </g>
     </g>
    </g>
    <g id="xtick_10">
     <g id="line2d_10">
      <g>
       <use xlink:href="#m9026ebd02f" x="700.345526" y="234.9" style="fill: #262626; stroke: #262626; stroke-width: 1.25"/>
      </g>
     </g>
     <g id="text_10">
      <!-- 90 -->
      <g style="fill: #262626" transform="translate(694.228494 252.273594) scale(0.11 -0.11)">
       <defs>
        <path id="ArialMT-39" d="M 350 1059 
L 891 1109 
Q 959 728 1153 556 
Q 1347 384 1650 384 
Q 1909 384 2104 503 
Q 2300 622 2425 820 
Q 2550 1019 2634 1356 
Q 2719 1694 2719 2044 
Q 2719 2081 2716 2156 
Q 2547 1888 2255 1720 
Q 1963 1553 1622 1553 
Q 1053 1553 659 1965 
Q 266 2378 266 3053 
Q 266 3750 677 4175 
Q 1088 4600 1706 4600 
Q 2153 4600 2523 4359 
Q 2894 4119 3086 3673 
Q 3278 3228 3278 2384 
Q 3278 1506 3087 986 
Q 2897 466 2520 194 
Q 2144 -78 1638 -78 
Q 1100 -78 759 220 
Q 419 519 350 1059 
z
M 2653 3081 
Q 2653 3566 2395 3850 
Q 2138 4134 1775 4134 
Q 1400 4134 1122 3828 
Q 844 3522 844 3034 
Q 844 2597 1108 2323 
Q 1372 2050 1759 2050 
Q 2150 2050 2401 2323 
Q 2653 2597 2653 3081 
z
" transform="scale(0.015625)"/>
       </defs>
       <use xlink:href="#ArialMT-39"/>
       <use xlink:href="#ArialMT-30" transform="translate(55.615234 0)"/>
      </g>
     </g>
    </g>
    <g id="xtick_11">
     <g id="line2d_11">
      <g>
       <use xlink:href="#m9026ebd02f" x="768.770071" y="234.9" style="fill: #262626; stroke: #262626; stroke-width: 1.25"/>
      </g>
     </g>
     <g id="text_11">
      <!-- 100 -->
      <g style="fill: #262626" transform="translate(759.594524 252.273594) scale(0.11 -0.11)">
       <use xlink:href="#ArialMT-31"/>
       <use xlink:href="#ArialMT-30" transform="translate(55.615234 0)"/>
       <use xlink:href="#ArialMT-30" transform="translate(111.230469 0)"/>
      </g>
     </g>
    </g>
    <g id="xtick_12">
     <g id="line2d_12">
      <defs>
       <path id="m2d62bace1e" d="M 0 0 
L 0 4 
" style="stroke: #262626"/>
      </defs>
      <g>
       <use xlink:href="#m2d62bace1e" x="118.736889" y="234.9" style="fill: #262626; stroke: #262626"/>
      </g>
     </g>
    </g>
    <g id="xtick_13">
     <g id="line2d_13">
      <g>
       <use xlink:href="#m2d62bace1e" x="187.161435" y="234.9" style="fill: #262626; stroke: #262626"/>
      </g>
     </g>
    </g>
    <g id="xtick_14">
     <g id="line2d_14">
      <g>
       <use xlink:href="#m2d62bace1e" x="255.58598" y="234.9" style="fill: #262626; stroke: #262626"/>
      </g>
     </g>
    </g>
    <g id="xtick_15">
     <g id="line2d_15">
      <g>
       <use xlink:href="#m2d62bace1e" x="324.010526" y="234.9" style="fill: #262626; stroke: #262626"/>
      </g>
     </g>
    </g>
    <g id="xtick_16">
     <g id="line2d_16">
      <g>
       <use xlink:href="#m2d62bace1e" x="392.435071" y="234.9" style="fill: #262626; stroke: #262626"/>
      </g>
     </g>
    </g>
    <g id="xtick_17">
     <g id="line2d_17">
      <g>
       <use xlink:href="#m2d62bace1e" x="460.859616" y="234.9" style="fill: #262626; stroke: #262626"/>
      </g>
     </g>
    </g>
    <g id="xtick_18">
     <g id="line2d_18">
      <g>
       <use xlink:href="#m2d62bace1e" x="529.284162" y="234.9" style="fill: #262626; stroke: #262626"/>
      </g>
     </g>
    </g>
    <g id="xtick_19">
     <g id="line2d_19">
      <g>
       <use xlink:href="#m2d62bace1e" x="597.708707" y="234.9" style="fill: #262626; stroke: #262626"/>
      </g>
     </g>
    </g>
    <g id="xtick_20">
     <g id="line2d_20">
      <g>
       <use xlink:href="#m2d62bace1e" x="666.133253" y="234.9" style="fill: #262626; stroke: #262626"/>
      </g>
     </g>
    </g>
    <g id="xtick_21">
     <g id="line2d_21">
      <g>
       <use xlink:href="#m2d62bace1e" x="734.557798" y="234.9" style="fill: #262626; stroke: #262626"/>
      </g>
     </g>
    </g>
    <g id="text_12">
     <!-- Weather index -->
     <g style="fill: #262626" transform="translate(388.068281 267.049219) scale(0.12 -0.12)">
      <defs>
       <path id="ArialMT-57" d="M 1294 0 
L 78 4581 
L 700 4581 
L 1397 1578 
Q 1509 1106 1591 641 
Q 1766 1375 1797 1488 
L 2669 4581 
L 3400 4581 
L 4056 2263 
Q 4303 1400 4413 641 
Q 4500 1075 4641 1638 
L 5359 4581 
L 5969 4581 
L 4713 0 
L 4128 0 
L 3163 3491 
Q 3041 3928 3019 4028 
Q 2947 3713 2884 3491 
L 1913 0 
L 1294 0 
z
" transform="scale(0.015625)"/>
       <path id="ArialMT-65" d="M 2694 1069 
L 3275 997 
Q 3138 488 2766 206 
Q 2394 -75 1816 -75 
Q 1088 -75 661 373 
Q 234 822 234 1631 
Q 234 2469 665 2931 
Q 1097 3394 1784 3394 
Q 2450 3394 2872 2941 
Q 3294 2488 3294 1666 
Q 3294 1616 3291 1516 
L 816 1516 
Q 847 969 1125 678 
Q 1403 388 1819 388 
Q 2128 388 2347 550 
Q 2566 713 2694 1069 
z
M 847 1978 
L 2700 1978 
Q 2663 2397 2488 2606 
Q 2219 2931 1791 2931 
Q 1403 2931 1139 2672 
Q 875 2413 847 1978 
z
" transform="scale(0.015625)"/>
       <path id="ArialMT-61" d="M 2588 409 
Q 2275 144 1986 34 
Q 1697 -75 1366 -75 
Q 819 -75 525 192 
Q 231 459 231 875 
Q 231 1119 342 1320 
Q 453 1522 633 1644 
Q 813 1766 1038 1828 
Q 1203 1872 1538 1913 
Q 2219 1994 2541 2106 
Q 2544 2222 2544 2253 
Q 2544 2597 2384 2738 
Q 2169 2928 1744 2928 
Q 1347 2928 1158 2789 
Q 969 2650 878 2297 
L 328 2372 
Q 403 2725 575 2942 
Q 747 3159 1072 3276 
Q 1397 3394 1825 3394 
Q 2250 3394 2515 3294 
Q 2781 3194 2906 3042 
Q 3031 2891 3081 2659 
Q 3109 2516 3109 2141 
L 3109 1391 
Q 3109 606 3145 398 
Q 3181 191 3288 0 
L 2700 0 
Q 2613 175 2588 409 
z
M 2541 1666 
Q 2234 1541 1622 1453 
Q 1275 1403 1131 1340 
Q 988 1278 909 1158 
Q 831 1038 831 891 
Q 831 666 1001 516 
Q 1172 366 1500 366 
Q 1825 366 2078 508 
Q 2331 650 2450 897 
Q 2541 1088 2541 1459 
L 2541 1666 
z
" transform="scale(0.015625)"/>
       <path id="ArialMT-74" d="M 1650 503 
L 1731 6 
Q 1494 -44 1306 -44 
Q 1000 -44 831 53 
Q 663 150 594 308 
Q 525 466 525 972 
L 525 2881 
L 113 2881 
L 113 3319 
L 525 3319 
L 525 4141 
L 1084 4478 
L 1084 3319 
L 1650 3319 
L 1650 2881 
L 1084 2881 
L 1084 941 
Q 1084 700 1114 631 
Q 1144 563 1211 522 
Q 1278 481 1403 481 
Q 1497 481 1650 503 
z
" transform="scale(0.015625)"/>
       <path id="ArialMT-68" d="M 422 0 
L 422 4581 
L 984 4581 
L 984 2938 
Q 1378 3394 1978 3394 
Q 2347 3394 2619 3248 
Q 2891 3103 3008 2847 
Q 3125 2591 3125 2103 
L 3125 0 
L 2563 0 
L 2563 2103 
Q 2563 2525 2380 2717 
Q 2197 2909 1863 2909 
Q 1613 2909 1392 2779 
Q 1172 2650 1078 2428 
Q 984 2206 984 1816 
L 984 0 
L 422 0 
z
" transform="scale(0.015625)"/>
       <path id="ArialMT-72" d="M 416 0 
L 416 3319 
L 922 3319 
L 922 2816 
Q 1116 3169 1280 3281 
Q 1444 3394 1641 3394 
Q 1925 3394 2219 3213 
L 2025 2691 
Q 1819 2813 1613 2813 
Q 1428 2813 1281 2702 
Q 1134 2591 1072 2394 
Q 978 2094 978 1738 
L 978 0 
L 416 0 
z
" transform="scale(0.015625)"/>
       <path id="ArialMT-20" transform="scale(0.015625)"/>
       <path id="ArialMT-69" d="M 425 3934 
L 425 4581 
L 988 4581 
L 988 3934 
L 425 3934 
z
M 425 0 
L 425 3319 
L 988 3319 
L 988 0 
L 425 0 
z
" transform="scale(0.015625)"/>
       <path id="ArialMT-6e" d="M 422 0 
L 422 3319 
L 928 3319 
L 928 2847 
Q 1294 3394 1984 3394 
Q 2284 3394 2536 3286 
Q 2788 3178 2913 3003 
Q 3038 2828 3088 2588 
Q 3119 2431 3119 2041 
L 3119 0 
L 2556 0 
L 2556 2019 
Q 2556 2363 2490 2533 
Q 2425 2703 2258 2804 
Q 2091 2906 1866 2906 
Q 1506 2906 1245 2678 
Q 984 2450 984 1813 
L 984 0 
L 422 0 
z
" transform="scale(0.015625)"/>
       <path id="ArialMT-64" d="M 2575 0 
L 2575 419 
Q 2259 -75 1647 -75 
Q 1250 -75 917 144 
Q 584 363 401 755 
Q 219 1147 219 1656 
Q 219 2153 384 2558 
Q 550 2963 881 3178 
Q 1213 3394 1622 3394 
Q 1922 3394 2156 3267 
Q 2391 3141 2538 2938 
L 2538 4581 
L 3097 4581 
L 3097 0 
L 2575 0 
z
M 797 1656 
Q 797 1019 1065 703 
Q 1334 388 1700 388 
Q 2069 388 2326 689 
Q 2584 991 2584 1609 
Q 2584 2291 2321 2609 
Q 2059 2928 1675 2928 
Q 1300 2928 1048 2622 
Q 797 2316 797 1656 
z
" transform="scale(0.015625)"/>
       <path id="ArialMT-78" d="M 47 0 
L 1259 1725 
L 138 3319 
L 841 3319 
L 1350 2541 
Q 1494 2319 1581 2169 
Q 1719 2375 1834 2534 
L 2394 3319 
L 3066 3319 
L 1919 1756 
L 3153 0 
L 2463 0 
L 1781 1031 
L 1600 1309 
L 728 0 
L 47 0 
z
" transform="scale(0.015625)"/>
      </defs>
      <use xlink:href="#ArialMT-57"/>
      <use xlink:href="#ArialMT-65" transform="translate(92.634766 0)"/>
      <use xlink:href="#ArialMT-61" transform="translate(148.25 0)"/>
      <use xlink:href="#ArialMT-74" transform="translate(203.865234 0)"/>
      <use xlink:href="#ArialMT-68" transform="translate(231.648438 0)"/>
      <use xlink:href="#ArialMT-65" transform="translate(287.263672 0)"/>
      <use xlink:href="#ArialMT-72" transform="translate(342.878906 0)"/>
      <use xlink:href="#ArialMT-20" transform="translate(376.179688 0)"/>
      <use xlink:href="#ArialMT-69" transform="translate(403.962891 0)"/>
      <use xlink:href="#ArialMT-6e" transform="translate(426.179688 0)"/>
      <use xlink:href="#ArialMT-64" transform="translate(481.794922 0)"/>
      <use xlink:href="#ArialMT-65" transform="translate(537.410156 0)"/>
      <use xlink:href="#ArialMT-78" transform="translate(593.025391 0)"/>
     </g>
    </g>
   </g>
   <g id="matplotlib.axis_2">
    <g id="ytick_1">
     <g id="line2d_22">
      <defs>
       <path id="ma67a11a09d" d="M 0 0 
L -6 0 
" style="stroke: #262626; stroke-width: 1.25"/>
      </defs>
      <g>
       <use xlink:href="#ma67a11a09d" x="50.312344" y="213.749434" style="fill: #262626; stroke: #262626; stroke-width: 1.25"/>
      </g>
     </g>
     <g id="text_13">
      <!-- 20 -->
      <g style="fill: #262626" transform="translate(28.578281 217.68623) scale(0.11 -0.11)">
       <use xlink:href="#ArialMT-32"/>
       <use xlink:href="#ArialMT-30" transform="translate(55.615234 0)"/>
      </g>
     </g>
    </g>
    <g id="ytick_2">
     <g id="line2d_23">
      <g>
       <use xlink:href="#ma67a11a09d" x="50.312344" y="168.39362" style="fill: #262626; stroke: #262626; stroke-width: 1.25"/>
      </g>
     </g>
     <g id="text_14">
      <!-- 40 -->
      <g style="fill: #262626" transform="translate(28.578281 172.330417) scale(0.11 -0.11)">
       <use xlink:href="#ArialMT-34"/>
       <use xlink:href="#ArialMT-30" transform="translate(55.615234 0)"/>
      </g>
     </g>
    </g>
    <g id="ytick_3">
     <g id="line2d_24">
      <g>
       <use xlink:href="#ma67a11a09d" x="50.312344" y="123.037806" style="fill: #262626; stroke: #262626; stroke-width: 1.25"/>
      </g>
     </g>
     <g id="text_15">
      <!-- 60 -->
      <g style="fill: #262626" transform="translate(28.578281 126.974603) scale(0.11 -0.11)">
       <use xlink:href="#ArialMT-36"/>
       <use xlink:href="#ArialMT-30" transform="translate(55.615234 0)"/>
      </g>
     </g>
    </g>
    <g id="ytick_4">
     <g id="line2d_25">
      <g>
       <use xlink:href="#ma67a11a09d" x="50.312344" y="77.681993" style="fill: #262626; stroke: #262626; stroke-width: 1.25"/>
      </g>
     </g>
     <g id="text_16">
      <!-- 80 -->
      <g style="fill: #262626" transform="translate(28.578281 81.61879) scale(0.11 -0.11)">
       <use xlink:href="#ArialMT-38"/>
       <use xlink:href="#ArialMT-30" transform="translate(55.615234 0)"/>
      </g>
     </g>
    </g>
    <g id="ytick_5">
     <g id="line2d_26">
      <g>
       <use xlink:href="#ma67a11a09d" x="50.312344" y="32.326179" style="fill: #262626; stroke: #262626; stroke-width: 1.25"/>
      </g>
     </g>
     <g id="text_17">
      <!-- 100 -->
      <g style="fill: #262626" transform="translate(22.46125 36.262976) scale(0.11 -0.11)">
       <use xlink:href="#ArialMT-31"/>
       <use xlink:href="#ArialMT-30" transform="translate(55.615234 0)"/>
       <use xlink:href="#ArialMT-30" transform="translate(111.230469 0)"/>
      </g>
     </g>
    </g>
    <g id="text_18">
     <!-- MAE (€/MWh) -->
     <g style="fill: #262626" transform="translate(15.935625 158.715937) rotate(-90) scale(0.12 -0.12)">
      <defs>
       <path id="ArialMT-4d" d="M 475 0 
L 475 4581 
L 1388 4581 
L 2472 1338 
Q 2622 884 2691 659 
Q 2769 909 2934 1394 
L 4031 4581 
L 4847 4581 
L 4847 0 
L 4263 0 
L 4263 3834 
L 2931 0 
L 2384 0 
L 1059 3900 
L 1059 0 
L 475 0 
z
" transform="scale(0.015625)"/>
       <path id="ArialMT-41" d="M -9 0 
L 1750 4581 
L 2403 4581 
L 4278 0 
L 3588 0 
L 3053 1388 
L 1138 1388 
L 634 0 
L -9 0 
z
M 1313 1881 
L 2866 1881 
L 2388 3150 
Q 2169 3728 2063 4100 
Q 1975 3659 1816 3225 
L 1313 1881 
z
" transform="scale(0.015625)"/>
       <path id="ArialMT-45" d="M 506 0 
L 506 4581 
L 3819 4581 
L 3819 4041 
L 1113 4041 
L 1113 2638 
L 3647 2638 
L 3647 2100 
L 1113 2100 
L 1113 541 
L 3925 541 
L 3925 0 
L 506 0 
z
" transform="scale(0.015625)"/>
       <path id="ArialMT-28" d="M 1497 -1347 
Q 1031 -759 709 28 
Q 388 816 388 1659 
Q 388 2403 628 3084 
Q 909 3875 1497 4659 
L 1900 4659 
Q 1522 4009 1400 3731 
Q 1209 3300 1100 2831 
Q 966 2247 966 1656 
Q 966 153 1900 -1347 
L 1497 -1347 
z
" transform="scale(0.015625)"/>
       <path id="ArialMT-20ac" d="M 2469 4141 
Q 1944 4141 1588 3888 
Q 1375 3738 1203 3463 
Q 1028 3178 997 2922 
L 3128 2922 
L 3044 2503 
L 947 2503 
Q 944 2438 944 2378 
Q 944 2138 947 2091 
L 2959 2091 
L 2872 1672 
L 1013 1672 
Q 1144 956 1644 656 
Q 2003 441 2422 441 
Q 3006 441 3334 747 
L 3334 103 
Q 2944 -78 2472 -78 
Q 1059 -78 563 1097 
Q 463 1334 391 1672 
L -88 1672 
L 0 2091 
L 328 2091 
Q 319 2222 319 2375 
Q 319 2438 322 2503 
L -88 2503 
L 0 2922 
L 363 2922 
Q 556 3941 1372 4384 
Q 1875 4659 2481 4659 
Q 3063 4659 3459 4406 
L 3334 3825 
Q 2953 4141 2469 4141 
z
" transform="scale(0.015625)"/>
       <path id="ArialMT-2f" d="M 0 -78 
L 1328 4659 
L 1778 4659 
L 453 -78 
L 0 -78 
z
" transform="scale(0.015625)"/>
       <path id="ArialMT-29" d="M 791 -1347 
L 388 -1347 
Q 1322 153 1322 1656 
Q 1322 2244 1188 2822 
Q 1081 3291 891 3722 
Q 769 4003 388 4659 
L 791 4659 
Q 1378 3875 1659 3084 
Q 1900 2403 1900 1659 
Q 1900 816 1576 28 
Q 1253 -759 791 -1347 
z
" transform="scale(0.015625)"/>
      </defs>
      <use xlink:href="#ArialMT-4d"/>
      <use xlink:href="#ArialMT-41" transform="translate(83.300781 0)"/>
      <use xlink:href="#ArialMT-45" transform="translate(150 0)"/>
      <use xlink:href="#ArialMT-20" transform="translate(216.699219 0)"/>
      <use xlink:href="#ArialMT-28" transform="translate(244.482422 0)"/>
      <use xlink:href="#ArialMT-20ac" transform="translate(277.783203 0)"/>
      <use xlink:href="#ArialMT-2f" transform="translate(333.398438 0)"/>
      <use xlink:href="#ArialMT-4d" transform="translate(361.181641 0)"/>
      <use xlink:href="#ArialMT-57" transform="translate(444.482422 0)"/>
      <use xlink:href="#ArialMT-68" transform="translate(538.867188 0)"/>
      <use xlink:href="#ArialMT-29" transform="translate(594.482422 0)"/>
     </g>
    </g>
   </g>
   <g id="FillBetweenPolyCollection_1">
    <defs>
     <path id="m3db6f0d761" d="M 84.524616 -154.372254 
L 84.524616 -83.996318 
L 91.367071 -111.341377 
L 98.209526 -81.116894 
L 105.05198 -121.548009 
L 111.894435 -160.472744 
L 118.736889 -90.966919 
L 125.579344 -114.515613 
L 132.421798 -98.665843 
L 139.264253 -106.437118 
L 146.106707 -100.13274 
L 152.949162 -96.422515 
L 159.791616 -101.04251 
L 166.634071 -98.828083 
L 173.476526 -87.28517 
L 180.31898 -94.794768 
L 187.161435 -91.844979 
L 194.003889 -96.782989 
L 200.846344 -95.519329 
L 207.688798 -88.464269 
L 214.531253 -91.816406 
L 221.373707 -96.998154 
L 228.216162 -91.167961 
L 235.058616 -99.469216 
L 241.901071 -93.159687 
L 248.743526 -93.176718 
L 255.58598 -93.49018 
L 262.428435 -93.247448 
L 269.270889 -91.146223 
L 276.113344 -95.472543 
L 282.955798 -88.806717 
L 289.798253 -91.168145 
L 296.640707 -88.529528 
L 303.483162 -88.597008 
L 310.325616 -85.776234 
L 317.168071 -87.739438 
L 324.010526 -87.005851 
L 330.85298 -88.858932 
L 337.695435 -82.330589 
L 344.537889 -89.079783 
L 351.380344 -86.737069 
L 358.222798 -84.60025 
L 365.065253 -88.319464 
L 371.907707 -88.815589 
L 378.750162 -85.620806 
L 385.592616 -90.999874 
L 392.435071 -81.420522 
L 399.277526 -79.779394 
L 406.11998 -82.682788 
L 412.962435 -77.203176 
L 419.804889 -81.773537 
L 426.647344 -84.83942 
L 433.489798 -83.483113 
L 440.332253 -78.730318 
L 447.174707 -91.920686 
L 454.017162 -78.310847 
L 460.859616 -85.145578 
L 467.702071 -88.384009 
L 474.544526 -82.370089 
L 481.38698 -78.660444 
L 488.229435 -81.785436 
L 495.071889 -89.440529 
L 501.914344 -90.397785 
L 508.756798 -87.150965 
L 515.599253 -80.703323 
L 522.441707 -84.830037 
L 529.284162 -87.769075 
L 536.126616 -91.24915 
L 542.969071 -82.463631 
L 549.811526 -82.306382 
L 556.65398 -90.367864 
L 563.496435 -96.366875 
L 570.338889 -85.905406 
L 577.181344 -95.557695 
L 584.023798 -94.142832 
L 590.866253 -95.543331 
L 597.708707 -90.097655 
L 604.551162 -91.094931 
L 611.393616 -89.347546 
L 618.236071 -99.510879 
L 625.078526 -85.228317 
L 631.92098 -86.948846 
L 638.763435 -86.424268 
L 645.605889 -91.875331 
L 652.448344 -96.023295 
L 659.290798 -72.980335 
L 666.133253 -96.087999 
L 672.975707 -114.642596 
L 679.818162 -79.30544 
L 686.660616 -86.063215 
L 693.503071 -115.111183 
L 700.345526 -65.514035 
L 707.18798 -78.532758 
L 714.030435 -60.888012 
L 720.872889 -80.798282 
L 727.715344 -79.899941 
L 734.557798 -63.926307 
L 768.770071 -67.952613 
L 768.770071 -95.73783 
L 768.770071 -95.73783 
L 734.557798 -89.562599 
L 727.715344 -123.439533 
L 720.872889 -106.404628 
L 714.030435 -79.415348 
L 707.18798 -98.558314 
L 700.345526 -88.45512 
L 693.503071 -256.610137 
L 686.660616 -104.616501 
L 679.818162 -98.51275 
L 672.975707 -250.251406 
L 666.133253 -121.718589 
L 659.290798 -88.328424 
L 652.448344 -147.393477 
L 645.605889 -107.627705 
L 638.763435 -166.483915 
L 631.92098 -99.793012 
L 625.078526 -94.991807 
L 618.236071 -147.562285 
L 611.393616 -103.282063 
L 604.551162 -121.148831 
L 597.708707 -100.485363 
L 590.866253 -133.305485 
L 584.023798 -116.929186 
L 577.181344 -120.438259 
L 570.338889 -93.350805 
L 563.496435 -121.381657 
L 556.65398 -119.937207 
L 549.811526 -92.413151 
L 542.969071 -89.167547 
L 536.126616 -107.548622 
L 529.284162 -94.477129 
L 522.441707 -90.953011 
L 515.599253 -86.348758 
L 508.756798 -102.820712 
L 501.914344 -108.605904 
L 495.071889 -107.429192 
L 488.229435 -86.755163 
L 481.38698 -83.291045 
L 474.544526 -92.365068 
L 467.702071 -93.269565 
L 460.859616 -89.926738 
L 454.017162 -82.808289 
L 447.174707 -106.098136 
L 440.332253 -83.375045 
L 433.489798 -88.119642 
L 426.647344 -96.235466 
L 419.804889 -85.683865 
L 412.962435 -80.76492 
L 406.11998 -86.861623 
L 399.277526 -87.774991 
L 392.435071 -85.671841 
L 385.592616 -99.794817 
L 378.750162 -89.578819 
L 371.907707 -93.836129 
L 365.065253 -92.480781 
L 358.222798 -88.192848 
L 351.380344 -91.438328 
L 344.537889 -98.430119 
L 337.695435 -88.788241 
L 330.85298 -96.479795 
L 324.010526 -93.635947 
L 317.168071 -90.948846 
L 310.325616 -89.603943 
L 303.483162 -92.624449 
L 296.640707 -92.169836 
L 289.798253 -96.462831 
L 282.955798 -93.896851 
L 276.113344 -98.668839 
L 269.270889 -94.319072 
L 262.428435 -99.582774 
L 255.58598 -96.566524 
L 248.743526 -96.18259 
L 241.901071 -100.477928 
L 235.058616 -106.986278 
L 228.216162 -94.323195 
L 221.373707 -104.592435 
L 214.531253 -97.61119 
L 207.688798 -91.504111 
L 200.846344 -102.018876 
L 194.003889 -102.812856 
L 187.161435 -95.910521 
L 180.31898 -100.156821 
L 173.476526 -91.357721 
L 166.634071 -106.014492 
L 159.791616 -108.619921 
L 152.949162 -103.786356 
L 146.106707 -109.032889 
L 139.264253 -118.636597 
L 132.421798 -110.663301 
L 125.579344 -130.117405 
L 118.736889 -106.231568 
L 111.894435 -195.768616 
L 105.05198 -155.226895 
L 98.209526 -96.53383 
L 91.367071 -163.263772 
L 84.524616 -154.372254 
z
" style="stroke: #840853; stroke-opacity: 0.2"/>
    </defs>
    <g clip-path="url(#p147b1a0c6b)">
     <use xlink:href="#m3db6f0d761" x="0" y="276.634219" style="fill: #840853; fill-opacity: 0.2; stroke: #840853; stroke-opacity: 0.2"/>
    </g>
   </g>
   <g id="FillBetweenPolyCollection_2">
    <defs>
     <path id="m5986e18019" d="M 84.524616 -117.592637 
L 84.524616 -52.084219 
L 91.367071 -76.650917 
L 98.209526 -66.419672 
L 105.05198 -109.617351 
L 111.894435 -145.715635 
L 118.736889 -82.801566 
L 125.579344 -108.001834 
L 132.421798 -97.655629 
L 139.264253 -102.128235 
L 146.106707 -98.048918 
L 152.949162 -93.764275 
L 159.791616 -96.784974 
L 166.634071 -94.914323 
L 173.476526 -86.424654 
L 180.31898 -91.661644 
L 187.161435 -88.663561 
L 194.003889 -92.392786 
L 200.846344 -92.176738 
L 207.688798 -86.320984 
L 214.531253 -89.343476 
L 221.373707 -93.079965 
L 228.216162 -87.365742 
L 235.058616 -94.373574 
L 241.901071 -88.826383 
L 248.743526 -87.730764 
L 255.58598 -87.633093 
L 262.428435 -88.874362 
L 269.270889 -83.548587 
L 276.113344 -88.350539 
L 282.955798 -82.819116 
L 289.798253 -86.944755 
L 296.640707 -86.197503 
L 303.483162 -84.457157 
L 310.325616 -83.389758 
L 317.168071 -83.742301 
L 324.010526 -87.221869 
L 330.85298 -86.894311 
L 337.695435 -79.919877 
L 344.537889 -87.010352 
L 351.380344 -82.013951 
L 358.222798 -82.614806 
L 365.065253 -85.784514 
L 371.907707 -86.329831 
L 378.750162 -83.481712 
L 385.592616 -88.485931 
L 392.435071 -78.46235 
L 399.277526 -76.84056 
L 406.11998 -80.011498 
L 412.962435 -75.37552 
L 419.804889 -79.432988 
L 426.647344 -83.978407 
L 433.489798 -80.726039 
L 440.332253 -78.20227 
L 447.174707 -90.91121 
L 454.017162 -78.198635 
L 460.859616 -81.868986 
L 467.702071 -83.349478 
L 474.544526 -81.076781 
L 481.38698 -78.252572 
L 488.229435 -78.127551 
L 495.071889 -86.740417 
L 501.914344 -87.939651 
L 508.756798 -84.63904 
L 515.599253 -81.128311 
L 522.441707 -84.619356 
L 529.284162 -84.968967 
L 536.126616 -89.884982 
L 542.969071 -80.555906 
L 549.811526 -78.340672 
L 556.65398 -90.997896 
L 563.496435 -93.803561 
L 570.338889 -85.909983 
L 577.181344 -95.426992 
L 584.023798 -92.469851 
L 590.866253 -91.627907 
L 597.708707 -90.08654 
L 604.551162 -89.059837 
L 611.393616 -90.317908 
L 618.236071 -98.333751 
L 625.078526 -83.076073 
L 631.92098 -82.891855 
L 638.763435 -83.521264 
L 645.605889 -89.035612 
L 652.448344 -97.522407 
L 659.290798 -67.387933 
L 666.133253 -95.035337 
L 672.975707 -116.161123 
L 679.818162 -75.29193 
L 686.660616 -83.031111 
L 693.503071 -112.821303 
L 700.345526 -65.505336 
L 707.18798 -80.494414 
L 714.030435 -59.530248 
L 720.872889 -77.898881 
L 727.715344 -77.800484 
L 734.557798 -71.110004 
L 768.770071 -57.911802 
L 768.770071 -92.135359 
L 768.770071 -92.135359 
L 734.557798 -99.452613 
L 727.715344 -122.389285 
L 720.872889 -103.681059 
L 714.030435 -79.812111 
L 707.18798 -101.443306 
L 700.345526 -88.171182 
L 693.503071 -254.124049 
L 686.660616 -104.733788 
L 679.818162 -96.543378 
L 672.975707 -254.890615 
L 666.133253 -122.727003 
L 659.290798 -81.66113 
L 652.448344 -150.766307 
L 645.605889 -105.291932 
L 638.763435 -165.007609 
L 631.92098 -96.171911 
L 625.078526 -93.550719 
L 618.236071 -146.143666 
L 611.393616 -102.915833 
L 604.551162 -119.373025 
L 597.708707 -101.755091 
L 590.866253 -128.435094 
L 584.023798 -114.9225 
L 577.181344 -118.778123 
L 570.338889 -93.573733 
L 563.496435 -118.082425 
L 556.65398 -121.960992 
L 549.811526 -88.283737 
L 542.969071 -86.868726 
L 536.126616 -106.430358 
L 529.284162 -91.249909 
L 522.441707 -91.061896 
L 515.599253 -87.015073 
L 508.756798 -100.389802 
L 501.914344 -106.79589 
L 495.071889 -104.965464 
L 488.229435 -82.783533 
L 481.38698 -82.997285 
L 474.544526 -91.079236 
L 467.702071 -88.009668 
L 460.859616 -86.720355 
L 454.017162 -82.774068 
L 447.174707 -103.707954 
L 440.332253 -83.122783 
L 433.489798 -85.292812 
L 426.647344 -96.358274 
L 419.804889 -83.450924 
L 412.962435 -79.040048 
L 406.11998 -83.871055 
L 399.277526 -85.044412 
L 392.435071 -82.695803 
L 385.592616 -97.627007 
L 378.750162 -87.532913 
L 371.907707 -91.197985 
L 365.065253 -90.147263 
L 358.222798 -86.292647 
L 351.380344 -86.274894 
L 344.537889 -96.069229 
L 337.695435 -87.001437 
L 330.85298 -93.973359 
L 324.010526 -93.383865 
L 317.168071 -86.834189 
L 310.325616 -87.133581 
L 303.483162 -88.173642 
L 296.640707 -89.953905 
L 289.798253 -92.447201 
L 282.955798 -87.918151 
L 276.113344 -91.456609 
L 269.270889 -86.345212 
L 262.428435 -95.079458 
L 255.58598 -90.460669 
L 248.743526 -90.468048 
L 241.901071 -96.201443 
L 235.058616 -101.890245 
L 228.216162 -90.426493 
L 221.373707 -101.226414 
L 214.531253 -94.796301 
L 207.688798 -89.466533 
L 200.846344 -98.77798 
L 194.003889 -98.569999 
L 187.161435 -92.360516 
L 180.31898 -96.957333 
L 173.476526 -90.204438 
L 166.634071 -101.691345 
L 159.791616 -103.291535 
L 152.949162 -100.205699 
L 146.106707 -106.305796 
L 139.264253 -112.765828 
L 132.421798 -108.049111 
L 125.579344 -122.791465 
L 118.736889 -96.78162 
L 111.894435 -175.551256 
L 105.05198 -142.354123 
L 98.209526 -79.27475 
L 91.367071 -130.031615 
L 84.524616 -117.592637 
z
" style="stroke: #3a609c; stroke-opacity: 0.2"/>
    </defs>
    <g clip-path="url(#p147b1a0c6b)">
     <use xlink:href="#m5986e18019" x="0" y="276.634219" style="fill: #3a609c; fill-opacity: 0.2; stroke: #3a609c; stroke-opacity: 0.2"/>
    </g>
   </g>
   <g id="FillBetweenPolyCollection_3">
    <defs>
     <path id="m103f072570" d="M 84.524616 -137.371852 
L 84.524616 -71.285303 
L 91.367071 -95.856558 
L 98.209526 -72.475721 
L 105.05198 -109.455401 
L 111.894435 -146.679937 
L 118.736889 -76.581943 
L 125.579344 -101.062722 
L 132.421798 -93.222532 
L 139.264253 -96.834621 
L 146.106707 -93.529906 
L 152.949162 -87.381371 
L 159.791616 -91.416842 
L 166.634071 -87.926469 
L 173.476526 -80.18623 
L 180.31898 -86.86704 
L 187.161435 -78.628356 
L 194.003889 -78.13496 
L 200.846344 -82.508778 
L 207.688798 -77.572955 
L 214.531253 -76.509534 
L 221.373707 -83.341407 
L 228.216162 -74.741753 
L 235.058616 -80.630989 
L 241.901071 -75.298014 
L 248.743526 -69.49708 
L 255.58598 -67.425634 
L 262.428435 -72.760372 
L 269.270889 -67.591507 
L 276.113344 -70.86145 
L 282.955798 -70.902811 
L 289.798253 -77.348828 
L 296.640707 -77.3021 
L 303.483162 -75.309234 
L 310.325616 -72.085099 
L 317.168071 -71.466611 
L 324.010526 -71.905045 
L 330.85298 -74.608433 
L 337.695435 -67.850852 
L 344.537889 -73.157016 
L 351.380344 -72.663544 
L 358.222798 -71.638696 
L 365.065253 -73.668329 
L 371.907707 -77.922972 
L 378.750162 -75.13397 
L 385.592616 -73.772773 
L 392.435071 -68.717786 
L 399.277526 -67.975493 
L 406.11998 -67.266975 
L 412.962435 -64.454676 
L 419.804889 -69.061598 
L 426.647344 -72.837301 
L 433.489798 -72.877808 
L 440.332253 -67.939601 
L 447.174707 -77.171722 
L 454.017162 -69.095558 
L 460.859616 -69.418985 
L 467.702071 -67.503551 
L 474.544526 -74.642405 
L 481.38698 -68.619626 
L 488.229435 -71.21398 
L 495.071889 -80.927965 
L 501.914344 -84.039719 
L 508.756798 -81.012394 
L 515.599253 -77.155078 
L 522.441707 -76.377439 
L 529.284162 -83.728148 
L 536.126616 -88.975749 
L 542.969071 -73.388703 
L 549.811526 -78.617094 
L 556.65398 -90.81295 
L 563.496435 -90.501611 
L 570.338889 -77.801498 
L 577.181344 -90.39495 
L 584.023798 -86.447711 
L 590.866253 -93.617081 
L 597.708707 -85.166419 
L 604.551162 -88.174109 
L 611.393616 -84.608728 
L 618.236071 -93.849774 
L 625.078526 -83.033785 
L 631.92098 -77.94748 
L 638.763435 -83.369426 
L 645.605889 -80.003926 
L 652.448344 -95.073762 
L 659.290798 -61.394603 
L 666.133253 -89.592443 
L 672.975707 -108.037856 
L 679.818162 -75.056835 
L 686.660616 -82.011433 
L 693.503071 -121.164254 
L 700.345526 -89.081681 
L 707.18798 -86.451631 
L 714.030435 -55.500492 
L 720.872889 -80.156045 
L 727.715344 -85.39198 
L 734.557798 -75.104506 
L 768.770071 -67.563271 
L 768.770071 -96.932477 
L 768.770071 -96.932477 
L 734.557798 -102.235362 
L 727.715344 -127.50681 
L 720.872889 -107.139226 
L 714.030435 -74.825427 
L 707.18798 -106.734143 
L 700.345526 -116.385073 
L 693.503071 -259.084219 
L 686.660616 -101.634627 
L 679.818162 -93.793085 
L 672.975707 -249.691157 
L 666.133253 -112.355421 
L 659.290798 -78.261144 
L 652.448344 -147.896086 
L 645.605889 -94.677295 
L 638.763435 -161.253612 
L 631.92098 -90.420895 
L 625.078526 -93.102055 
L 618.236071 -141.195298 
L 611.393616 -95.915804 
L 604.551162 -119.548159 
L 597.708707 -96.450755 
L 590.866253 -130.906703 
L 584.023798 -109.56376 
L 577.181344 -115.23353 
L 570.338889 -84.308546 
L 563.496435 -115.492829 
L 556.65398 -120.596543 
L 549.811526 -88.587177 
L 542.969071 -79.789634 
L 536.126616 -105.108969 
L 529.284162 -90.343528 
L 522.441707 -82.477621 
L 515.599253 -83.452913 
L 508.756798 -96.874938 
L 501.914344 -103.181385 
L 495.071889 -100.271585 
L 488.229435 -76.088792 
L 481.38698 -73.078083 
L 474.544526 -84.390445 
L 467.702071 -71.98844 
L 460.859616 -74.546573 
L 454.017162 -73.831626 
L 447.174707 -91.086751 
L 440.332253 -72.451531 
L 433.489798 -77.775586 
L 426.647344 -85.559273 
L 419.804889 -73.328846 
L 412.962435 -68.157086 
L 406.11998 -70.841816 
L 399.277526 -76.19479 
L 392.435071 -73.11434 
L 385.592616 -82.639495 
L 378.750162 -79.23427 
L 371.907707 -83.391303 
L 365.065253 -78.112045 
L 358.222798 -75.142544 
L 351.380344 -76.960692 
L 344.537889 -82.611768 
L 337.695435 -74.625016 
L 330.85298 -81.884824 
L 324.010526 -78.054015 
L 317.168071 -74.522047 
L 310.325616 -76.0597 
L 303.483162 -79.073909 
L 296.640707 -81.123647 
L 289.798253 -82.63875 
L 282.955798 -75.677019 
L 276.113344 -74.1751 
L 269.270889 -70.161399 
L 262.428435 -79.299195 
L 255.58598 -69.723789 
L 248.743526 -72.14604 
L 241.901071 -82.799715 
L 235.058616 -87.920157 
L 228.216162 -77.767277 
L 221.373707 -91.026732 
L 214.531253 -82.568371 
L 207.688798 -80.803631 
L 200.846344 -88.97595 
L 194.003889 -84.191367 
L 187.161435 -82.53577 
L 180.31898 -92.085186 
L 173.476526 -84.476386 
L 166.634071 -94.623983 
L 159.791616 -98.363357 
L 152.949162 -94.080966 
L 146.106707 -102.266448 
L 139.264253 -107.937963 
L 132.421798 -105.110471 
L 125.579344 -115.936739 
L 118.736889 -91.125545 
L 111.894435 -178.235383 
L 105.05198 -142.152683 
L 98.209526 -87.295147 
L 91.367071 -147.881785 
L 84.524616 -137.371852 
z
" style="stroke: #ffb14e; stroke-opacity: 0.2"/>
    </defs>
    <g clip-path="url(#p147b1a0c6b)">
     <use xlink:href="#m103f072570" x="0" y="276.634219" style="fill: #ffb14e; fill-opacity: 0.2; stroke: #ffb14e; stroke-opacity: 0.2"/>
    </g>
   </g>
   <g id="line2d_27">
    <path d="M 84.524616 160.064034 
L 91.367071 142.533841 
L 98.209526 188.297605 
L 105.05198 138.726565 
L 111.894435 98.834306 
L 118.736889 178.951816 
L 125.579344 154.383285 
L 132.421798 172.061827 
L 139.264253 164.364571 
L 146.106707 172.166471 
L 152.949162 176.799708 
L 159.791616 171.80158 
L 166.634071 174.271859 
L 173.476526 187.34762 
L 180.31898 179.076224 
L 187.161435 182.832191 
L 194.003889 177.101104 
L 200.846344 178.046677 
L 207.688798 186.62474 
L 214.531253 182.050528 
L 221.373707 176.083942 
L 228.216162 183.829915 
L 235.058616 173.536323 
L 241.901071 180.075638 
L 248.743526 181.918407 
L 255.58598 181.613679 
L 262.428435 180.481463 
L 269.270889 183.929652 
L 276.113344 179.528117 
L 282.955798 185.493268 
L 289.798253 182.926606 
L 296.640707 186.335825 
L 303.483162 186.019391 
L 310.325616 189.066741 
L 317.168071 187.343643 
L 324.010526 186.710378 
L 330.85298 184.346484 
L 337.695435 191.360274 
L 344.537889 183.528803 
L 351.380344 187.665927 
L 358.222798 190.226774 
L 365.065253 186.186648 
L 371.907707 185.410524 
L 378.750162 189.054446 
L 385.592616 181.728739 
L 392.435071 193.220915 
L 399.277526 193.523344 
L 406.11998 191.878609 
L 412.962435 197.677364 
L 419.804889 192.829393 
L 426.647344 186.319052 
L 433.489798 190.959279 
L 440.332253 195.642903 
L 447.174707 178.630221 
L 454.017162 196.031242 
L 460.859616 189.134101 
L 467.702071 185.942023 
L 474.544526 189.826762 
L 481.38698 195.675435 
L 488.229435 192.428232 
L 495.071889 179.411027 
L 501.914344 178.472248 
L 508.756798 182.568247 
L 515.599253 193.262852 
L 522.441707 188.730032 
L 529.284162 185.693685 
L 536.126616 177.960871 
L 542.969071 190.823642 
L 549.811526 189.518283 
L 556.65398 173.008353 
L 563.496435 169.555287 
L 570.338889 186.996025 
L 577.181344 169.721526 
L 584.023798 172.711288 
L 590.866253 165.370272 
L 597.708707 181.340991 
L 604.551162 172.501628 
L 611.393616 180.446086 
L 618.236071 157.29233 
L 625.078526 186.452436 
L 631.92098 183.249645 
L 638.763435 158.879932 
L 645.605889 176.627202 
L 652.448344 159.206989 
L 659.290798 196.233025 
L 666.133253 167.53864 
L 672.975707 106.513328 
L 679.818162 187.854185 
L 686.660616 181.541885 
L 693.503071 106.054297 
L 700.345526 200.42019 
L 707.18798 187.767709 
L 714.030435 206.907438 
L 720.872889 183.168746 
L 727.715344 175.788302 
L 734.557798 200.865156 
L 768.770071 194.495666 
" clip-path="url(#p147b1a0c6b)" style="fill: none; stroke: #840853; stroke-width: 1.5; stroke-linecap: round"/>
   </g>
   <g id="line2d_28">
    <path d="M 84.524616 196.510161 
L 91.367071 174.645941 
L 98.209526 204.22115 
L 105.05198 151.767743 
L 111.894435 115.976129 
L 118.736889 187.061701 
L 125.579344 160.996759 
L 132.421798 174.072912 
L 139.264253 169.529627 
L 146.106707 174.812575 
L 152.949162 179.804233 
L 159.791616 176.769185 
L 166.634071 178.411934 
L 173.476526 188.322937 
L 180.31898 182.465481 
L 187.161435 186.139994 
L 194.003889 181.415069 
L 200.846344 181.501388 
L 207.688798 188.747101 
L 214.531253 184.881465 
L 221.373707 179.816376 
L 228.216162 187.798381 
L 235.058616 178.826622 
L 241.901071 184.460557 
L 248.743526 187.632037 
L 255.58598 187.557016 
L 262.428435 184.947987 
L 269.270889 191.708797 
L 276.113344 186.832218 
L 282.955798 191.522562 
L 289.798253 187.179701 
L 296.640707 188.494216 
L 303.483162 190.254028 
L 310.325616 191.368361 
L 317.168071 191.401521 
L 324.010526 186.470919 
L 330.85298 186.505074 
L 337.695435 193.580098 
L 344.537889 185.515915 
L 351.380344 192.521212 
L 358.222798 192.231471 
L 365.065253 188.79698 
L 371.907707 187.915246 
L 378.750162 191.146593 
L 385.592616 183.926657 
L 392.435071 196.227888 
L 399.277526 196.158402 
L 406.11998 194.763656 
L 412.962435 199.476284 
L 419.804889 195.226474 
L 426.647344 187.166577 
L 433.489798 193.563008 
L 440.332253 195.96403 
L 447.174707 179.77084 
L 454.017162 196.129217 
L 460.859616 192.242558 
L 467.702071 190.983687 
L 474.544526 191.185071 
L 481.38698 195.982844 
L 488.229435 196.146991 
L 495.071889 182.062459 
L 501.914344 180.828153 
L 508.756798 185.060741 
L 515.599253 192.682369 
L 522.441707 188.734511 
L 529.284162 188.560195 
L 536.126616 179.126053 
L 542.969071 193.030164 
L 549.811526 193.394106 
L 556.65398 172.461315 
L 563.496435 172.545937 
L 570.338889 186.954857 
L 577.181344 170.392178 
L 584.023798 174.354407 
L 590.866253 169.745636 
L 597.708707 180.53516 
L 604.551162 174.141439 
L 611.393616 179.770782 
L 618.236071 158.108136 
L 625.078526 188.316675 
L 631.92098 187.045301 
L 638.763435 160.19557 
L 645.605889 179.4138 
L 652.448344 157.850193 
L 659.290798 202.452357 
L 666.133253 167.474305 
L 672.975707 105.242859 
L 679.818162 191.151519 
L 686.660616 182.952199 
L 693.503071 105.774939 
L 700.345526 200.250276 
L 707.18798 185.646391 
L 714.030435 207.070049 
L 720.872889 186.356427 
L 727.715344 177.285832 
L 734.557798 191.887526 
L 768.770071 201.817398 
" clip-path="url(#p147b1a0c6b)" style="fill: none; stroke: #3a609c; stroke-width: 1.5; stroke-linecap: round"/>
   </g>
   <g id="line2d_29">
    <path d="M 84.524616 175.231594 
L 91.367071 156.813366 
L 98.209526 197.397004 
L 105.05198 151.236633 
L 111.894435 114.757208 
L 118.736889 193.466017 
L 125.579344 168.16546 
L 132.421798 177.678214 
L 139.264253 174.188996 
L 146.106707 178.782456 
L 152.949162 185.955253 
L 159.791616 181.873742 
L 166.634071 185.470473 
L 173.476526 194.462732 
L 180.31898 187.075559 
L 187.161435 196.112742 
L 194.003889 195.701889 
L 200.846344 190.967871 
L 207.688798 197.455253 
L 214.531253 197.278377 
L 221.373707 189.67511 
L 228.216162 200.344574 
L 235.058616 192.659288 
L 241.901071 197.858627 
L 248.743526 205.843695 
L 255.58598 208.070757 
L 262.428435 200.96609 
L 269.270889 207.721132 
L 276.113344 204.16323 
L 282.955798 203.587156 
L 289.798253 196.708408 
L 296.640707 197.393855 
L 303.483162 199.464926 
L 310.325616 202.593155 
L 317.168071 203.649063 
L 324.010526 201.977725 
L 330.85298 198.677623 
L 337.695435 205.726148 
L 344.537889 199.281783 
L 351.380344 201.786768 
L 358.222798 203.17604 
L 365.065253 200.831459 
L 371.907707 195.950035 
L 378.750162 199.504007 
L 385.592616 198.62955 
L 392.435071 205.849447 
L 399.277526 205.237669 
L 406.11998 207.637027 
L 412.962435 210.330708 
L 419.804889 205.556108 
L 426.647344 198.246786 
L 433.489798 201.412508 
L 440.332253 206.566621 
L 447.174707 193.107141 
L 454.017162 205.185868 
L 460.859616 204.853779 
L 467.702071 206.860342 
L 474.544526 197.375532 
L 481.38698 205.764485 
L 488.229435 202.934575 
L 495.071889 187.603916 
L 501.914344 184.381579 
L 508.756798 188.743864 
L 515.599253 196.365189 
L 522.441707 197.165668 
L 529.284162 189.630523 
L 536.126616 180.419479 
L 542.969071 200.062095 
L 549.811526 193.387117 
L 556.65398 173.033379 
L 563.496435 175.429253 
L 570.338889 195.621396 
L 577.181344 175.328112 
L 584.023798 180.647492 
L 590.866253 167.883587 
L 597.708707 185.636088 
L 604.551162 175.128683 
L 611.393616 186.27761 
L 618.236071 161.923428 
L 625.078526 188.568868 
L 631.92098 192.649606 
L 638.763435 160.509007 
L 645.605889 189.422247 
L 652.448344 159.783376 
L 659.290798 206.907689 
L 666.133253 176.010627 
L 672.975707 111.785196 
L 679.818162 193.150913 
L 686.660616 185.038655 
L 693.503071 97.171075 
L 700.345526 174.4654 
L 707.18798 180.547998 
L 714.030435 210.939945 
L 720.872889 183.447887 
L 727.715344 171.889308 
L 734.557798 187.646653 
L 768.770071 194.519616 
" clip-path="url(#p147b1a0c6b)" style="fill: none; stroke: #ffb14e; stroke-width: 1.5; stroke-linecap: round"/>
   </g>
   <g id="patch_3">
    <path d="M 50.312344 234.9 
L 50.312344 7.2 
" style="fill: none; stroke: #262626; stroke-width: 1.25; stroke-linejoin: miter; stroke-linecap: square"/>
   </g>
   <g id="patch_4">
    <path d="M 802.982344 234.9 
L 802.982344 7.2 
" style="fill: none; stroke: #262626; stroke-width: 1.25; stroke-linejoin: miter; stroke-linecap: square"/>
   </g>
   <g id="patch_5">
    <path d="M 50.312344 234.9 
L 802.982344 234.9 
" style="fill: none; stroke: #262626; stroke-width: 1.25; stroke-linejoin: miter; stroke-linecap: square"/>
   </g>
   <g id="patch_6">
    <path d="M 50.312344 7.2 
L 802.982344 7.2 
" style="fill: none; stroke: #262626; stroke-width: 1.25; stroke-linejoin: miter; stroke-linecap: square"/>
   </g>
   <g id="legend_1">
    <g id="patch_7">
     <path d="M 674.512656 78.899375 
L 795.282344 78.899375 
Q 797.482344 78.899375 797.482344 76.699375 
L 797.482344 14.9 
Q 797.482344 12.7 795.282344 12.7 
L 674.512656 12.7 
Q 672.312656 12.7 672.312656 14.9 
L 672.312656 76.699375 
Q 672.312656 78.899375 674.512656 78.899375 
z
" style="fill: #ffffff; opacity: 0.8; stroke: #cccccc; stroke-linejoin: miter"/>
    </g>
    <g id="line2d_30">
     <path d="M 676.712656 21.257656 
L 687.712656 21.257656 
L 698.712656 21.257656 
" style="fill: none; stroke: #840853; stroke-width: 1.5; stroke-linecap: round"/>
    </g>
    <g id="text_19">
     <!-- LSTM (VRE only) -->
     <g style="fill: #262626" transform="translate(707.512656 25.107656) scale(0.11 -0.11)">
      <defs>
       <path id="ArialMT-4c" d="M 469 0 
L 469 4581 
L 1075 4581 
L 1075 541 
L 3331 541 
L 3331 0 
L 469 0 
z
" transform="scale(0.015625)"/>
       <path id="ArialMT-53" d="M 288 1472 
L 859 1522 
Q 900 1178 1048 958 
Q 1197 738 1509 602 
Q 1822 466 2213 466 
Q 2559 466 2825 569 
Q 3091 672 3220 851 
Q 3350 1031 3350 1244 
Q 3350 1459 3225 1620 
Q 3100 1781 2813 1891 
Q 2628 1963 1997 2114 
Q 1366 2266 1113 2400 
Q 784 2572 623 2826 
Q 463 3081 463 3397 
Q 463 3744 659 4045 
Q 856 4347 1234 4503 
Q 1613 4659 2075 4659 
Q 2584 4659 2973 4495 
Q 3363 4331 3572 4012 
Q 3781 3694 3797 3291 
L 3216 3247 
Q 3169 3681 2898 3903 
Q 2628 4125 2100 4125 
Q 1550 4125 1298 3923 
Q 1047 3722 1047 3438 
Q 1047 3191 1225 3031 
Q 1400 2872 2139 2705 
Q 2878 2538 3153 2413 
Q 3553 2228 3743 1945 
Q 3934 1663 3934 1294 
Q 3934 928 3725 604 
Q 3516 281 3123 101 
Q 2731 -78 2241 -78 
Q 1619 -78 1198 103 
Q 778 284 539 648 
Q 300 1013 288 1472 
z
" transform="scale(0.015625)"/>
       <path id="ArialMT-54" d="M 1659 0 
L 1659 4041 
L 150 4041 
L 150 4581 
L 3781 4581 
L 3781 4041 
L 2266 4041 
L 2266 0 
L 1659 0 
z
" transform="scale(0.015625)"/>
       <path id="ArialMT-56" d="M 1803 0 
L 28 4581 
L 684 4581 
L 1875 1253 
Q 2019 853 2116 503 
Q 2222 878 2363 1253 
L 3600 4581 
L 4219 4581 
L 2425 0 
L 1803 0 
z
" transform="scale(0.015625)"/>
       <path id="ArialMT-52" d="M 503 0 
L 503 4581 
L 2534 4581 
Q 3147 4581 3465 4457 
Q 3784 4334 3975 4021 
Q 4166 3709 4166 3331 
Q 4166 2844 3850 2509 
Q 3534 2175 2875 2084 
Q 3116 1969 3241 1856 
Q 3506 1613 3744 1247 
L 4541 0 
L 3778 0 
L 3172 953 
Q 2906 1366 2734 1584 
Q 2563 1803 2427 1890 
Q 2291 1978 2150 2013 
Q 2047 2034 1813 2034 
L 1109 2034 
L 1109 0 
L 503 0 
z
M 1109 2559 
L 2413 2559 
Q 2828 2559 3062 2645 
Q 3297 2731 3419 2920 
Q 3541 3109 3541 3331 
Q 3541 3656 3305 3865 
Q 3069 4075 2559 4075 
L 1109 4075 
L 1109 2559 
z
" transform="scale(0.015625)"/>
       <path id="ArialMT-6f" d="M 213 1659 
Q 213 2581 725 3025 
Q 1153 3394 1769 3394 
Q 2453 3394 2887 2945 
Q 3322 2497 3322 1706 
Q 3322 1066 3130 698 
Q 2938 331 2570 128 
Q 2203 -75 1769 -75 
Q 1072 -75 642 372 
Q 213 819 213 1659 
z
M 791 1659 
Q 791 1022 1069 705 
Q 1347 388 1769 388 
Q 2188 388 2466 706 
Q 2744 1025 2744 1678 
Q 2744 2294 2464 2611 
Q 2184 2928 1769 2928 
Q 1347 2928 1069 2612 
Q 791 2297 791 1659 
z
" transform="scale(0.015625)"/>
       <path id="ArialMT-6c" d="M 409 0 
L 409 4581 
L 972 4581 
L 972 0 
L 409 0 
z
" transform="scale(0.015625)"/>
       <path id="ArialMT-79" d="M 397 -1278 
L 334 -750 
Q 519 -800 656 -800 
Q 844 -800 956 -737 
Q 1069 -675 1141 -563 
Q 1194 -478 1313 -144 
Q 1328 -97 1363 -6 
L 103 3319 
L 709 3319 
L 1400 1397 
Q 1534 1031 1641 628 
Q 1738 1016 1872 1384 
L 2581 3319 
L 3144 3319 
L 1881 -56 
Q 1678 -603 1566 -809 
Q 1416 -1088 1222 -1217 
Q 1028 -1347 759 -1347 
Q 597 -1347 397 -1278 
z
" transform="scale(0.015625)"/>
      </defs>
      <use xlink:href="#ArialMT-4c"/>
      <use xlink:href="#ArialMT-53" transform="translate(55.615234 0)"/>
      <use xlink:href="#ArialMT-54" transform="translate(122.314453 0)"/>
      <use xlink:href="#ArialMT-4d" transform="translate(183.398438 0)"/>
      <use xlink:href="#ArialMT-20" transform="translate(266.699219 0)"/>
      <use xlink:href="#ArialMT-28" transform="translate(294.482422 0)"/>
      <use xlink:href="#ArialMT-56" transform="translate(327.783203 0)"/>
      <use xlink:href="#ArialMT-52" transform="translate(394.482422 0)"/>
      <use xlink:href="#ArialMT-45" transform="translate(466.699219 0)"/>
      <use xlink:href="#ArialMT-20" transform="translate(533.398438 0)"/>
      <use xlink:href="#ArialMT-6f" transform="translate(561.181641 0)"/>
      <use xlink:href="#ArialMT-6e" transform="translate(616.796875 0)"/>
      <use xlink:href="#ArialMT-6c" transform="translate(672.412109 0)"/>
      <use xlink:href="#ArialMT-79" transform="translate(694.628906 0)"/>
      <use xlink:href="#ArialMT-29" transform="translate(744.628906 0)"/>
     </g>
    </g>
    <g id="line2d_31">
     <path d="M 676.712656 37.080469 
L 687.712656 37.080469 
L 698.712656 37.080469 
" style="fill: none; stroke: #3a609c; stroke-width: 1.5; stroke-linecap: round"/>
    </g>
    <g id="text_20">
     <!-- GRU (VRE only) -->
     <g style="fill: #262626" transform="translate(707.512656 40.930469) scale(0.11 -0.11)">
      <defs>
       <path id="ArialMT-47" d="M 2638 1797 
L 2638 2334 
L 4578 2338 
L 4578 638 
Q 4131 281 3656 101 
Q 3181 -78 2681 -78 
Q 2006 -78 1454 211 
Q 903 500 622 1047 
Q 341 1594 341 2269 
Q 341 2938 620 3517 
Q 900 4097 1425 4378 
Q 1950 4659 2634 4659 
Q 3131 4659 3532 4498 
Q 3934 4338 4162 4050 
Q 4391 3763 4509 3300 
L 3963 3150 
Q 3859 3500 3706 3700 
Q 3553 3900 3268 4020 
Q 2984 4141 2638 4141 
Q 2222 4141 1919 4014 
Q 1616 3888 1430 3681 
Q 1244 3475 1141 3228 
Q 966 2803 966 2306 
Q 966 1694 1177 1281 
Q 1388 869 1791 669 
Q 2194 469 2647 469 
Q 3041 469 3416 620 
Q 3791 772 3984 944 
L 3984 1797 
L 2638 1797 
z
" transform="scale(0.015625)"/>
       <path id="ArialMT-55" d="M 3500 4581 
L 4106 4581 
L 4106 1934 
Q 4106 1244 3950 837 
Q 3794 431 3386 176 
Q 2978 -78 2316 -78 
Q 1672 -78 1262 144 
Q 853 366 678 786 
Q 503 1206 503 1934 
L 503 4581 
L 1109 4581 
L 1109 1938 
Q 1109 1341 1220 1058 
Q 1331 775 1601 622 
Q 1872 469 2263 469 
Q 2931 469 3215 772 
Q 3500 1075 3500 1938 
L 3500 4581 
z
" transform="scale(0.015625)"/>
      </defs>
      <use xlink:href="#ArialMT-47"/>
      <use xlink:href="#ArialMT-52" transform="translate(77.783203 0)"/>
      <use xlink:href="#ArialMT-55" transform="translate(150 0)"/>
      <use xlink:href="#ArialMT-20" transform="translate(222.216797 0)"/>
      <use xlink:href="#ArialMT-28" transform="translate(250 0)"/>
      <use xlink:href="#ArialMT-56" transform="translate(283.300781 0)"/>
      <use xlink:href="#ArialMT-52" transform="translate(350 0)"/>
      <use xlink:href="#ArialMT-45" transform="translate(422.216797 0)"/>
      <use xlink:href="#ArialMT-20" transform="translate(488.916016 0)"/>
      <use xlink:href="#ArialMT-6f" transform="translate(516.699219 0)"/>
      <use xlink:href="#ArialMT-6e" transform="translate(572.314453 0)"/>
      <use xlink:href="#ArialMT-6c" transform="translate(627.929688 0)"/>
      <use xlink:href="#ArialMT-79" transform="translate(650.146484 0)"/>
      <use xlink:href="#ArialMT-29" transform="translate(700.146484 0)"/>
     </g>
    </g>
    <g id="line2d_32">
     <path d="M 676.712656 52.769219 
L 687.712656 52.769219 
L 698.712656 52.769219 
" style="fill: none; stroke: #ffb14e; stroke-width: 1.5; stroke-linecap: round"/>
    </g>
    <g id="text_21">
     <!-- Best model -->
     <g style="fill: #262626" transform="translate(707.512656 56.619219) scale(0.11 -0.11)">
      <defs>
       <path id="ArialMT-42" d="M 469 0 
L 469 4581 
L 2188 4581 
Q 2713 4581 3030 4442 
Q 3347 4303 3526 4014 
Q 3706 3725 3706 3409 
Q 3706 3116 3547 2856 
Q 3388 2597 3066 2438 
Q 3481 2316 3704 2022 
Q 3928 1728 3928 1328 
Q 3928 1006 3792 729 
Q 3656 453 3456 303 
Q 3256 153 2954 76 
Q 2653 0 2216 0 
L 469 0 
z
M 1075 2656 
L 2066 2656 
Q 2469 2656 2644 2709 
Q 2875 2778 2992 2937 
Q 3109 3097 3109 3338 
Q 3109 3566 3000 3739 
Q 2891 3913 2687 3977 
Q 2484 4041 1991 4041 
L 1075 4041 
L 1075 2656 
z
M 1075 541 
L 2216 541 
Q 2509 541 2628 563 
Q 2838 600 2978 687 
Q 3119 775 3209 942 
Q 3300 1109 3300 1328 
Q 3300 1584 3169 1773 
Q 3038 1963 2805 2039 
Q 2572 2116 2134 2116 
L 1075 2116 
L 1075 541 
z
" transform="scale(0.015625)"/>
       <path id="ArialMT-73" d="M 197 991 
L 753 1078 
Q 800 744 1014 566 
Q 1228 388 1613 388 
Q 2000 388 2187 545 
Q 2375 703 2375 916 
Q 2375 1106 2209 1216 
Q 2094 1291 1634 1406 
Q 1016 1563 777 1677 
Q 538 1791 414 1992 
Q 291 2194 291 2438 
Q 291 2659 392 2848 
Q 494 3038 669 3163 
Q 800 3259 1026 3326 
Q 1253 3394 1513 3394 
Q 1903 3394 2198 3281 
Q 2494 3169 2634 2976 
Q 2775 2784 2828 2463 
L 2278 2388 
Q 2241 2644 2061 2787 
Q 1881 2931 1553 2931 
Q 1166 2931 1000 2803 
Q 834 2675 834 2503 
Q 834 2394 903 2306 
Q 972 2216 1119 2156 
Q 1203 2125 1616 2013 
Q 2213 1853 2448 1751 
Q 2684 1650 2818 1456 
Q 2953 1263 2953 975 
Q 2953 694 2789 445 
Q 2625 197 2315 61 
Q 2006 -75 1616 -75 
Q 969 -75 630 194 
Q 291 463 197 991 
z
" transform="scale(0.015625)"/>
       <path id="ArialMT-6d" d="M 422 0 
L 422 3319 
L 925 3319 
L 925 2853 
Q 1081 3097 1340 3245 
Q 1600 3394 1931 3394 
Q 2300 3394 2536 3241 
Q 2772 3088 2869 2813 
Q 3263 3394 3894 3394 
Q 4388 3394 4653 3120 
Q 4919 2847 4919 2278 
L 4919 0 
L 4359 0 
L 4359 2091 
Q 4359 2428 4304 2576 
Q 4250 2725 4106 2815 
Q 3963 2906 3769 2906 
Q 3419 2906 3187 2673 
Q 2956 2441 2956 1928 
L 2956 0 
L 2394 0 
L 2394 2156 
Q 2394 2531 2256 2718 
Q 2119 2906 1806 2906 
Q 1569 2906 1367 2781 
Q 1166 2656 1075 2415 
Q 984 2175 984 1722 
L 984 0 
L 422 0 
z
" transform="scale(0.015625)"/>
      </defs>
      <use xlink:href="#ArialMT-42"/>
      <use xlink:href="#ArialMT-65" transform="translate(66.699219 0)"/>
      <use xlink:href="#ArialMT-73" transform="translate(122.314453 0)"/>
      <use xlink:href="#ArialMT-74" transform="translate(172.314453 0)"/>
      <use xlink:href="#ArialMT-20" transform="translate(200.097656 0)"/>
      <use xlink:href="#ArialMT-6d" transform="translate(227.880859 0)"/>
      <use xlink:href="#ArialMT-6f" transform="translate(311.181641 0)"/>
      <use xlink:href="#ArialMT-64" transform="translate(366.796875 0)"/>
      <use xlink:href="#ArialMT-65" transform="translate(422.412109 0)"/>
      <use xlink:href="#ArialMT-6c" transform="translate(478.027344 0)"/>
     </g>
    </g>
    <g id="line2d_33">
     <path d="M 676.712656 68.463125 
L 687.712656 68.463125 
L 698.712656 68.463125 
" style="fill: none; stroke: #74953d; stroke-width: 1.5; stroke-linecap: round"/>
    </g>
    <g id="text_22">
     <!-- German prices -->
     <g style="fill: #262626" transform="translate(707.512656 72.313125) scale(0.11 -0.11)">
      <defs>
       <path id="ArialMT-70" d="M 422 -1272 
L 422 3319 
L 934 3319 
L 934 2888 
Q 1116 3141 1344 3267 
Q 1572 3394 1897 3394 
Q 2322 3394 2647 3175 
Q 2972 2956 3137 2557 
Q 3303 2159 3303 1684 
Q 3303 1175 3120 767 
Q 2938 359 2589 142 
Q 2241 -75 1856 -75 
Q 1575 -75 1351 44 
Q 1128 163 984 344 
L 984 -1272 
L 422 -1272 
z
M 931 1641 
Q 931 1000 1190 694 
Q 1450 388 1819 388 
Q 2194 388 2461 705 
Q 2728 1022 2728 1688 
Q 2728 2322 2467 2637 
Q 2206 2953 1844 2953 
Q 1484 2953 1207 2617 
Q 931 2281 931 1641 
z
" transform="scale(0.015625)"/>
       <path id="ArialMT-63" d="M 2588 1216 
L 3141 1144 
Q 3050 572 2676 248 
Q 2303 -75 1759 -75 
Q 1078 -75 664 370 
Q 250 816 250 1647 
Q 250 2184 428 2587 
Q 606 2991 970 3192 
Q 1334 3394 1763 3394 
Q 2303 3394 2647 3120 
Q 2991 2847 3088 2344 
L 2541 2259 
Q 2463 2594 2264 2762 
Q 2066 2931 1784 2931 
Q 1359 2931 1093 2626 
Q 828 2322 828 1663 
Q 828 994 1084 691 
Q 1341 388 1753 388 
Q 2084 388 2306 591 
Q 2528 794 2588 1216 
z
" transform="scale(0.015625)"/>
      </defs>
      <use xlink:href="#ArialMT-47"/>
      <use xlink:href="#ArialMT-65" transform="translate(77.783203 0)"/>
      <use xlink:href="#ArialMT-72" transform="translate(133.398438 0)"/>
      <use xlink:href="#ArialMT-6d" transform="translate(166.699219 0)"/>
      <use xlink:href="#ArialMT-61" transform="translate(250 0)"/>
      <use xlink:href="#ArialMT-6e" transform="translate(305.615234 0)"/>
      <use xlink:href="#ArialMT-20" transform="translate(361.230469 0)"/>
      <use xlink:href="#ArialMT-70" transform="translate(389.013672 0)"/>
      <use xlink:href="#ArialMT-72" transform="translate(444.628906 0)"/>
      <use xlink:href="#ArialMT-69" transform="translate(477.929688 0)"/>
      <use xlink:href="#ArialMT-63" transform="translate(500.146484 0)"/>
      <use xlink:href="#ArialMT-65" transform="translate(550.146484 0)"/>
      <use xlink:href="#ArialMT-73" transform="translate(605.761719 0)"/>
     </g>
    </g>
   </g>
  </g>
  <g id="axes_2">
   <g id="matplotlib.axis_3">
    <g id="ytick_6">
     <g id="line2d_34">
      <defs>
       <path id="mdbf0c128e5" d="M 0 0 
L 6 0 
" style="stroke: #262626; stroke-width: 1.25"/>
      </defs>
      <g>
       <use xlink:href="#mdbf0c128e5" x="802.982344" y="197.695588" style="fill: #262626; stroke: #262626; stroke-width: 1.25"/>
      </g>
     </g>
     <g id="text_23">
      <!-- 0 -->
      <g style="fill: #262626" transform="translate(812.482344 201.632385) scale(0.11 -0.11)">
       <use xlink:href="#ArialMT-30"/>
      </g>
     </g>
    </g>
    <g id="ytick_7">
     <g id="line2d_35">
      <g>
       <use xlink:href="#mdbf0c128e5" x="802.982344" y="153.011092" style="fill: #262626; stroke: #262626; stroke-width: 1.25"/>
      </g>
     </g>
     <g id="text_24">
      <!-- 200 -->
      <g style="fill: #262626" transform="translate(812.482344 156.947888) scale(0.11 -0.11)">
       <use xlink:href="#ArialMT-32"/>
       <use xlink:href="#ArialMT-30" transform="translate(55.615234 0)"/>
       <use xlink:href="#ArialMT-30" transform="translate(111.230469 0)"/>
      </g>
     </g>
    </g>
    <g id="ytick_8">
     <g id="line2d_36">
      <g>
       <use xlink:href="#mdbf0c128e5" x="802.982344" y="108.326595" style="fill: #262626; stroke: #262626; stroke-width: 1.25"/>
      </g>
     </g>
     <g id="text_25">
      <!-- 400 -->
      <g style="fill: #262626" transform="translate(812.482344 112.263392) scale(0.11 -0.11)">
       <use xlink:href="#ArialMT-34"/>
       <use xlink:href="#ArialMT-30" transform="translate(55.615234 0)"/>
       <use xlink:href="#ArialMT-30" transform="translate(111.230469 0)"/>
      </g>
     </g>
    </g>
    <g id="ytick_9">
     <g id="line2d_37">
      <g>
       <use xlink:href="#mdbf0c128e5" x="802.982344" y="63.642098" style="fill: #262626; stroke: #262626; stroke-width: 1.25"/>
      </g>
     </g>
     <g id="text_26">
      <!-- 600 -->
      <g style="fill: #262626" transform="translate(812.482344 67.578895) scale(0.11 -0.11)">
       <use xlink:href="#ArialMT-36"/>
       <use xlink:href="#ArialMT-30" transform="translate(55.615234 0)"/>
       <use xlink:href="#ArialMT-30" transform="translate(111.230469 0)"/>
      </g>
     </g>
    </g>
    <g id="ytick_10">
     <g id="line2d_38">
      <g>
       <use xlink:href="#mdbf0c128e5" x="802.982344" y="18.957601" style="fill: #262626; stroke: #262626; stroke-width: 1.25"/>
      </g>
     </g>
     <g id="text_27">
      <!-- 800 -->
      <g style="fill: #262626" transform="translate(812.482344 22.894398) scale(0.11 -0.11)">
       <use xlink:href="#ArialMT-38"/>
       <use xlink:href="#ArialMT-30" transform="translate(55.615234 0)"/>
       <use xlink:href="#ArialMT-30" transform="translate(111.230469 0)"/>
      </g>
     </g>
    </g>
    <g id="text_28">
     <!-- German prices (€) -->
     <g style="fill: #262626" transform="translate(843.569062 169.392188) rotate(-90) scale(0.12 -0.12)">
      <use xlink:href="#ArialMT-47"/>
      <use xlink:href="#ArialMT-65" transform="translate(77.783203 0)"/>
      <use xlink:href="#ArialMT-72" transform="translate(133.398438 0)"/>
      <use xlink:href="#ArialMT-6d" transform="translate(166.699219 0)"/>
      <use xlink:href="#ArialMT-61" transform="translate(250 0)"/>
      <use xlink:href="#ArialMT-6e" transform="translate(305.615234 0)"/>
      <use xlink:href="#ArialMT-20" transform="translate(361.230469 0)"/>
      <use xlink:href="#ArialMT-70" transform="translate(389.013672 0)"/>
      <use xlink:href="#ArialMT-72" transform="translate(444.628906 0)"/>
      <use xlink:href="#ArialMT-69" transform="translate(477.929688 0)"/>
      <use xlink:href="#ArialMT-63" transform="translate(500.146484 0)"/>
      <use xlink:href="#ArialMT-65" transform="translate(550.146484 0)"/>
      <use xlink:href="#ArialMT-73" transform="translate(605.761719 0)"/>
      <use xlink:href="#ArialMT-20" transform="translate(655.761719 0)"/>
      <use xlink:href="#ArialMT-28" transform="translate(683.544922 0)"/>
      <use xlink:href="#ArialMT-20ac" transform="translate(716.845703 0)"/>
      <use xlink:href="#ArialMT-29" transform="translate(772.460938 0)"/>
     </g>
    </g>
   </g>
   <g id="FillBetweenPolyCollection_4">
    <defs>
     <path id="m21157ab934" d="M 84.524616 -259.084219 
L 84.524616 -102.330925 
L 91.367071 -89.258946 
L 98.209526 -99.793209 
L 105.05198 -83.541869 
L 111.894435 -85.735468 
L 118.736889 -97.399578 
L 125.579344 -85.195672 
L 132.421798 -77.868901 
L 139.264253 -87.817343 
L 146.106707 -89.49223 
L 152.949162 -91.005358 
L 159.791616 -93.58868 
L 166.634071 -91.84622 
L 173.476526 -95.447867 
L 180.31898 -93.269927 
L 187.161435 -92.083397 
L 194.003889 -92.473204 
L 200.846344 -85.145829 
L 207.688798 -93.607666 
L 214.531253 -92.762348 
L 221.373707 -92.359133 
L 228.216162 -91.173924 
L 235.058616 -64.811438 
L 241.901071 -88.165019 
L 248.743526 -90.971568 
L 255.58598 -89.142497 
L 262.428435 -90.449105 
L 269.270889 -89.882902 
L 276.113344 -88.531122 
L 282.955798 -89.217582 
L 289.798253 -68.558624 
L 296.640707 -89.151431 
L 303.483162 -87.935996 
L 310.325616 -88.316079 
L 317.168071 -87.458117 
L 324.010526 -85.386227 
L 330.85298 -87.197982 
L 337.695435 -76.840475 
L 344.537889 -87.319771 
L 351.380344 -86.383881 
L 358.222798 -86.441095 
L 365.065253 -85.037063 
L 371.907707 -84.825883 
L 378.750162 -84.492558 
L 385.592616 -81.793516 
L 392.435071 -87.21842 
L 399.277526 -83.64583 
L 406.11998 -84.273367 
L 412.962435 -84.491942 
L 419.804889 -86.532733 
L 426.647344 -86.133069 
L 433.489798 -83.598796 
L 440.332253 -81.252884 
L 447.174707 -83.10344 
L 454.017162 -83.910279 
L 460.859616 -83.49115 
L 467.702071 -81.93248 
L 474.544526 -81.658638 
L 481.38698 -82.538979 
L 488.229435 -80.172481 
L 495.071889 -80.476596 
L 501.914344 -80.445752 
L 508.756798 -80.44237 
L 515.599253 -78.042156 
L 522.441707 -79.192812 
L 529.284162 -77.153879 
L 536.126616 -79.355192 
L 542.969071 -76.322972 
L 549.811526 -77.975086 
L 556.65398 -78.095141 
L 563.496435 -74.989982 
L 570.338889 -74.886628 
L 577.181344 -73.272868 
L 584.023798 -73.262619 
L 590.866253 -71.537463 
L 597.708707 -72.394174 
L 604.551162 -72.648162 
L 611.393616 -74.766083 
L 618.236071 -68.1462 
L 625.078526 -73.908263 
L 631.92098 -69.49201 
L 638.763435 -73.129374 
L 645.605889 -61.366929 
L 652.448344 -65.727693 
L 659.290798 -75.686286 
L 666.133253 -73.023224 
L 672.975707 -75.121807 
L 679.818162 -74.352046 
L 686.660616 -64.936864 
L 693.503071 -64.828507 
L 700.345526 -74.493716 
L 707.18798 -61.311079 
L 714.030435 -76.323983 
L 720.872889 -70.068204 
L 727.715344 -52.084219 
L 734.557798 -74.933911 
L 768.770071 -75.240988 
L 768.770071 -75.240988 
L 768.770071 -75.240988 
L 734.557798 -78.519585 
L 727.715344 -68.226786 
L 720.872889 -75.525289 
L 714.030435 -76.671497 
L 707.18798 -78.914317 
L 700.345526 -78.946374 
L 693.503071 -79.271034 
L 686.660616 -76.497247 
L 679.818162 -79.67006 
L 672.975707 -85.828258 
L 666.133253 -78.940788 
L 659.290798 -79.304356 
L 652.448344 -84.469354 
L 645.605889 -82.155438 
L 638.763435 -84.830757 
L 631.92098 -80.211769 
L 625.078526 -84.724166 
L 618.236071 -85.686121 
L 611.393616 -87.726448 
L 604.551162 -87.625677 
L 597.708707 -86.501645 
L 590.866253 -86.347841 
L 584.023798 -82.943107 
L 577.181344 -87.731443 
L 570.338889 -87.198267 
L 563.496435 -89.147289 
L 556.65398 -92.42922 
L 549.811526 -89.266705 
L 542.969071 -89.599161 
L 536.126616 -93.164358 
L 529.284162 -90.26067 
L 522.441707 -91.848601 
L 515.599253 -90.216226 
L 508.756798 -94.639687 
L 501.914344 -94.630571 
L 495.071889 -94.555579 
L 488.229435 -94.011754 
L 481.38698 -95.397353 
L 474.544526 -95.313235 
L 467.702071 -94.365119 
L 460.859616 -97.175623 
L 454.017162 -97.406134 
L 447.174707 -96.945609 
L 440.332253 -97.0097 
L 433.489798 -97.668937 
L 426.647344 -99.981429 
L 419.804889 -99.086746 
L 412.962435 -97.777557 
L 406.11998 -98.338902 
L 399.277526 -98.287769 
L 392.435071 -100.009 
L 385.592616 -102.159808 
L 378.750162 -100.193049 
L 371.907707 -99.991558 
L 365.065253 -101.034809 
L 358.222798 -102.178367 
L 351.380344 -101.607688 
L 344.537889 -101.121127 
L 337.695435 -118.17241 
L 330.85298 -102.745143 
L 324.010526 -105.676753 
L 317.168071 -102.923203 
L 310.325616 -104.3919 
L 303.483162 -104.884326 
L 296.640707 -104.095632 
L 289.798253 -132.432553 
L 282.955798 -105.436848 
L 276.113344 -105.069139 
L 269.270889 -104.839497 
L 262.428435 -105.574922 
L 255.58598 -105.766371 
L 248.743526 -106.905198 
L 241.901071 -113.882523 
L 235.058616 -141.992595 
L 228.216162 -107.792717 
L 221.373707 -109.021561 
L 214.531253 -108.826963 
L 207.688798 -108.241752 
L 200.846344 -120.517511 
L 194.003889 -110.80934 
L 187.161435 -112.597781 
L 180.31898 -114.700951 
L 173.476526 -109.806346 
L 166.634071 -119.138347 
L 159.791616 -114.937812 
L 152.949162 -118.318685 
L 146.106707 -122.323378 
L 139.264253 -118.340938 
L 132.421798 -142.351884 
L 125.579344 -133.255397 
L 118.736889 -107.024033 
L 111.894435 -128.109519 
L 105.05198 -149.601552 
L 98.209526 -111.783925 
L 91.367071 -181.337801 
L 84.524616 -259.084219 
z
" style="stroke: #74953d; stroke-opacity: 0.2"/>
    </defs>
    <g clip-path="url(#p147b1a0c6b)">
     <use xlink:href="#m21157ab934" x="0" y="276.634219" style="fill: #74953d; fill-opacity: 0.2; stroke: #74953d; stroke-opacity: 0.2"/>
    </g>
   </g>
   <g id="line2d_39">
    <path d="M 84.524616 95.926647 
L 91.367071 141.335845 
L 98.209526 170.845652 
L 105.05198 160.062508 
L 111.894435 169.711725 
L 118.736889 174.422413 
L 125.579344 167.408685 
L 132.421798 166.523827 
L 139.264253 173.555078 
L 146.106707 170.726414 
L 152.949162 171.972198 
L 159.791616 172.370973 
L 166.634071 171.141935 
L 173.476526 174.007113 
L 180.31898 172.64878 
L 187.161435 174.29363 
L 194.003889 174.992947 
L 200.846344 173.802549 
L 207.688798 175.709509 
L 214.531253 175.839563 
L 221.373707 175.943872 
L 228.216162 177.150898 
L 235.058616 173.232202 
L 241.901071 175.610448 
L 248.743526 177.695835 
L 255.58598 179.179785 
L 262.428435 178.622205 
L 269.270889 179.273019 
L 276.113344 179.834088 
L 282.955798 179.307003 
L 289.798253 176.13863 
L 296.640707 180.010687 
L 303.483162 180.224058 
L 310.325616 180.280229 
L 317.168071 181.443559 
L 324.010526 181.102729 
L 330.85298 181.662656 
L 337.695435 179.127776 
L 344.537889 182.41377 
L 351.380344 182.638434 
L 358.222798 182.324488 
L 365.065253 183.598283 
L 371.907707 184.225498 
L 378.750162 184.291415 
L 385.592616 184.657556 
L 392.435071 183.020509 
L 399.277526 185.667419 
L 406.11998 185.328084 
L 412.962435 185.499469 
L 419.804889 183.82448 
L 426.647344 183.57697 
L 433.489798 186.000352 
L 440.332253 187.502927 
L 447.174707 186.609694 
L 454.017162 185.976012 
L 460.859616 186.300832 
L 467.702071 188.485419 
L 474.544526 188.148282 
L 481.38698 187.666053 
L 488.229435 189.542102 
L 495.071889 189.118131 
L 501.914344 189.096057 
L 508.756798 189.09319 
L 515.599253 192.505028 
L 522.441707 191.113512 
L 529.284162 192.926944 
L 536.126616 190.374444 
L 542.969071 193.673152 
L 549.811526 193.013323 
L 556.65398 191.372039 
L 563.496435 194.565583 
L 570.338889 195.591772 
L 577.181344 196.132063 
L 584.023798 198.531356 
L 590.866253 197.691567 
L 597.708707 197.186309 
L 604.551162 196.497299 
L 611.393616 195.387953 
L 618.236071 199.718058 
L 625.078526 197.318004 
L 631.92098 201.782329 
L 638.763435 197.654154 
L 645.605889 204.873036 
L 652.448344 201.535695 
L 659.290798 199.138898 
L 666.133253 200.652212 
L 672.975707 196.159186 
L 679.818162 199.623166 
L 686.660616 205.917163 
L 693.503071 204.584448 
L 700.345526 199.914174 
L 707.18798 206.521521 
L 714.030435 200.136479 
L 720.872889 203.837472 
L 727.715344 216.478716 
L 734.557798 199.907471 
L 768.770071 201.39323 
" clip-path="url(#p147b1a0c6b)" style="fill: none; stroke: #74953d; stroke-width: 1.5; stroke-linecap: round"/>
   </g>
   <g id="patch_8">
    <path d="M 50.312344 234.9 
L 50.312344 7.2 
" style="fill: none; stroke: #262626; stroke-width: 1.25; stroke-linejoin: miter; stroke-linecap: square"/>
   </g>
   <g id="patch_9">
    <path d="M 802.982344 234.9 
L 802.982344 7.2 
" style="fill: none; stroke: #262626; stroke-width: 1.25; stroke-linejoin: miter; stroke-linecap: square"/>
   </g>
   <g id="patch_10">
    <path d="M 50.312344 234.9 
L 802.982344 234.9 
" style="fill: none; stroke: #262626; stroke-width: 1.25; stroke-linejoin: miter; stroke-linecap: square"/>
   </g>
   <g id="patch_11">
    <path d="M 50.312344 7.2 
L 802.982344 7.2 
" style="fill: none; stroke: #262626; stroke-width: 1.25; stroke-linejoin: miter; stroke-linecap: square"/>
   </g>
  </g>
 </g>
 <defs>
  <clipPath id="p147b1a0c6b">
   <rect x="50.312344" y="7.2" width="752.67" height="227.7"/>
  </clipPath>
 </defs>
</svg>
