<?xml version="1.0" encoding="utf-8" standalone="no"?>
<!DOCTYPE svg PUBLIC "-//W3C//DTD SVG 1.1//EN"
  "http://www.w3.org/Graphics/SVG/1.1/DTD/svg11.dtd">
<svg xmlns:xlink="http://www.w3.org/1999/xlink" width="853.297656pt" height="276.634219pt" viewBox="0 0 853.297656 276.634219" xmlns="http://www.w3.org/2000/svg" version="1.1">
 <metadata>
  <rdf:RDF xmlns:dc="http://purl.org/dc/elements/1.1/" xmlns:cc="http://creativecommons.org/ns#" xmlns:rdf="http://www.w3.org/1999/02/22-rdf-syntax-ns#">
   <cc:Work>
    <dc:type rdf:resource="http://purl.org/dc/dcmitype/StillImage"/>
    <dc:date>2025-07-06T15:52:07.602212</dc:date>
    <dc:format>image/svg+xml</dc:format>
    <dc:creator>
     <cc:Agent>
      <dc:title>Matplotlib v3.10.1, https://matplotlib.org/</dc:title>
     </cc:Agent>
    </dc:creator>
   </cc:Work>
  </rdf:RDF>
 </metadata>
 <defs>
  <style type="text/css">*{stroke-linejoin: round; stroke-linecap: butt}</style>
 </defs>
 <g id="figure_1">
  <g id="patch_1">
   <path d="M 0 276.634219 
L 853.297656 276.634219 
L 853.297656 0 
L 0 0 
z
" style="fill: #ffffff"/>
  </g>
  <g id="axes_1">
   <g id="patch_2">
    <path d="M 44.195313 234.9 
L 802.985312 234.9 
L 802.985312 7.2 
L 44.195313 7.2 
z
" style="fill: #ffffff"/>
   </g>
   <g id="matplotlib.axis_1">
    <g id="xtick_1">
     <g id="line2d_1">
      <defs>
       <path id="m43be732425" d="M 0 0 
L 0 6 
" style="stroke: #262626; stroke-width: 1.25"/>
      </defs>
      <g>
       <use xlink:href="#m43be732425" x="78.685767" y="234.9" style="fill: #262626; stroke: #262626; stroke-width: 1.25"/>
      </g>
     </g>
     <g id="text_1">
      <!-- 0 -->
      <g style="fill: #262626" transform="translate(75.627251 252.273594) scale(0.11 -0.11)">
       <defs>
        <path id="ArialMT-30" d="M 266 2259 
Q 266 3072 433 3567 
Q 600 4063 929 4331 
Q 1259 4600 1759 4600 
Q 2128 4600 2406 4451 
Q 2684 4303 2865 4023 
Q 3047 3744 3150 3342 
Q 3253 2941 3253 2259 
Q 3253 1453 3087 958 
Q 2922 463 2592 192 
Q 2263 -78 1759 -78 
Q 1097 -78 719 397 
Q 266 969 266 2259 
z
M 844 2259 
Q 844 1131 1108 757 
Q 1372 384 1759 384 
Q 2147 384 2411 759 
Q 2675 1134 2675 2259 
Q 2675 3391 2411 3762 
Q 2147 4134 1753 4134 
Q 1366 4134 1134 3806 
Q 844 3388 844 2259 
z
" transform="scale(0.015625)"/>
       </defs>
       <use xlink:href="#ArialMT-30"/>
      </g>
     </g>
    </g>
    <g id="xtick_2">
     <g id="line2d_2">
      <g>
       <use xlink:href="#m43be732425" x="183.202296" y="234.9" style="fill: #262626; stroke: #262626; stroke-width: 1.25"/>
      </g>
     </g>
     <g id="text_2">
      <!-- 10000 -->
      <g style="fill: #262626" transform="translate(167.909718 252.273594) scale(0.11 -0.11)">
       <defs>
        <path id="ArialMT-31" d="M 2384 0 
L 1822 0 
L 1822 3584 
Q 1619 3391 1289 3197 
Q 959 3003 697 2906 
L 697 3450 
Q 1169 3672 1522 3987 
Q 1875 4303 2022 4600 
L 2384 4600 
L 2384 0 
z
" transform="scale(0.015625)"/>
       </defs>
       <use xlink:href="#ArialMT-31"/>
       <use xlink:href="#ArialMT-30" transform="translate(55.615234 0)"/>
       <use xlink:href="#ArialMT-30" transform="translate(111.230469 0)"/>
       <use xlink:href="#ArialMT-30" transform="translate(166.845703 0)"/>
       <use xlink:href="#ArialMT-30" transform="translate(222.460938 0)"/>
      </g>
     </g>
    </g>
    <g id="xtick_3">
     <g id="line2d_3">
      <g>
       <use xlink:href="#m43be732425" x="287.718825" y="234.9" style="fill: #262626; stroke: #262626; stroke-width: 1.25"/>
      </g>
     </g>
     <g id="text_3">
      <!-- 20000 -->
      <g style="fill: #262626" transform="translate(272.426247 252.273594) scale(0.11 -0.11)">
       <defs>
        <path id="ArialMT-32" d="M 3222 541 
L 3222 0 
L 194 0 
Q 188 203 259 391 
Q 375 700 629 1000 
Q 884 1300 1366 1694 
Q 2113 2306 2375 2664 
Q 2638 3022 2638 3341 
Q 2638 3675 2398 3904 
Q 2159 4134 1775 4134 
Q 1369 4134 1125 3890 
Q 881 3647 878 3216 
L 300 3275 
Q 359 3922 746 4261 
Q 1134 4600 1788 4600 
Q 2447 4600 2831 4234 
Q 3216 3869 3216 3328 
Q 3216 3053 3103 2787 
Q 2991 2522 2730 2228 
Q 2469 1934 1863 1422 
Q 1356 997 1212 845 
Q 1069 694 975 541 
L 3222 541 
z
" transform="scale(0.015625)"/>
       </defs>
       <use xlink:href="#ArialMT-32"/>
       <use xlink:href="#ArialMT-30" transform="translate(55.615234 0)"/>
       <use xlink:href="#ArialMT-30" transform="translate(111.230469 0)"/>
       <use xlink:href="#ArialMT-30" transform="translate(166.845703 0)"/>
       <use xlink:href="#ArialMT-30" transform="translate(222.460938 0)"/>
      </g>
     </g>
    </g>
    <g id="xtick_4">
     <g id="line2d_4">
      <g>
       <use xlink:href="#m43be732425" x="392.235354" y="234.9" style="fill: #262626; stroke: #262626; stroke-width: 1.25"/>
      </g>
     </g>
     <g id="text_4">
      <!-- 30000 -->
      <g style="fill: #262626" transform="translate(376.942776 252.273594) scale(0.11 -0.11)">
       <defs>
        <path id="ArialMT-33" d="M 269 1209 
L 831 1284 
Q 928 806 1161 595 
Q 1394 384 1728 384 
Q 2125 384 2398 659 
Q 2672 934 2672 1341 
Q 2672 1728 2419 1979 
Q 2166 2231 1775 2231 
Q 1616 2231 1378 2169 
L 1441 2663 
Q 1497 2656 1531 2656 
Q 1891 2656 2178 2843 
Q 2466 3031 2466 3422 
Q 2466 3731 2256 3934 
Q 2047 4138 1716 4138 
Q 1388 4138 1169 3931 
Q 950 3725 888 3313 
L 325 3413 
Q 428 3978 793 4289 
Q 1159 4600 1703 4600 
Q 2078 4600 2393 4439 
Q 2709 4278 2876 4000 
Q 3044 3722 3044 3409 
Q 3044 3113 2884 2869 
Q 2725 2625 2413 2481 
Q 2819 2388 3044 2092 
Q 3269 1797 3269 1353 
Q 3269 753 2831 336 
Q 2394 -81 1725 -81 
Q 1122 -81 723 278 
Q 325 638 269 1209 
z
" transform="scale(0.015625)"/>
       </defs>
       <use xlink:href="#ArialMT-33"/>
       <use xlink:href="#ArialMT-30" transform="translate(55.615234 0)"/>
       <use xlink:href="#ArialMT-30" transform="translate(111.230469 0)"/>
       <use xlink:href="#ArialMT-30" transform="translate(166.845703 0)"/>
       <use xlink:href="#ArialMT-30" transform="translate(222.460938 0)"/>
      </g>
     </g>
    </g>
    <g id="xtick_5">
     <g id="line2d_5">
      <g>
       <use xlink:href="#m43be732425" x="496.751883" y="234.9" style="fill: #262626; stroke: #262626; stroke-width: 1.25"/>
      </g>
     </g>
     <g id="text_5">
      <!-- 40000 -->
      <g style="fill: #262626" transform="translate(481.459305 252.273594) scale(0.11 -0.11)">
       <defs>
        <path id="ArialMT-34" d="M 2069 0 
L 2069 1097 
L 81 1097 
L 81 1613 
L 2172 4581 
L 2631 4581 
L 2631 1613 
L 3250 1613 
L 3250 1097 
L 2631 1097 
L 2631 0 
L 2069 0 
z
M 2069 1613 
L 2069 3678 
L 634 1613 
L 2069 1613 
z
" transform="scale(0.015625)"/>
       </defs>
       <use xlink:href="#ArialMT-34"/>
       <use xlink:href="#ArialMT-30" transform="translate(55.615234 0)"/>
       <use xlink:href="#ArialMT-30" transform="translate(111.230469 0)"/>
       <use xlink:href="#ArialMT-30" transform="translate(166.845703 0)"/>
       <use xlink:href="#ArialMT-30" transform="translate(222.460938 0)"/>
      </g>
     </g>
    </g>
    <g id="xtick_6">
     <g id="line2d_6">
      <g>
       <use xlink:href="#m43be732425" x="601.268412" y="234.9" style="fill: #262626; stroke: #262626; stroke-width: 1.25"/>
      </g>
     </g>
     <g id="text_6">
      <!-- 50000 -->
      <g style="fill: #262626" transform="translate(585.975834 252.273594) scale(0.11 -0.11)">
       <defs>
        <path id="ArialMT-35" d="M 266 1200 
L 856 1250 
Q 922 819 1161 601 
Q 1400 384 1738 384 
Q 2144 384 2425 690 
Q 2706 997 2706 1503 
Q 2706 1984 2436 2262 
Q 2166 2541 1728 2541 
Q 1456 2541 1237 2417 
Q 1019 2294 894 2097 
L 366 2166 
L 809 4519 
L 3088 4519 
L 3088 3981 
L 1259 3981 
L 1013 2750 
Q 1425 3038 1878 3038 
Q 2478 3038 2890 2622 
Q 3303 2206 3303 1553 
Q 3303 931 2941 478 
Q 2500 -78 1738 -78 
Q 1113 -78 717 272 
Q 322 622 266 1200 
z
" transform="scale(0.015625)"/>
       </defs>
       <use xlink:href="#ArialMT-35"/>
       <use xlink:href="#ArialMT-30" transform="translate(55.615234 0)"/>
       <use xlink:href="#ArialMT-30" transform="translate(111.230469 0)"/>
       <use xlink:href="#ArialMT-30" transform="translate(166.845703 0)"/>
       <use xlink:href="#ArialMT-30" transform="translate(222.460938 0)"/>
      </g>
     </g>
    </g>
    <g id="xtick_7">
     <g id="line2d_7">
      <g>
       <use xlink:href="#m43be732425" x="705.784941" y="234.9" style="fill: #262626; stroke: #262626; stroke-width: 1.25"/>
      </g>
     </g>
     <g id="text_7">
      <!-- 60000 -->
      <g style="fill: #262626" transform="translate(690.492362 252.273594) scale(0.11 -0.11)">
       <defs>
        <path id="ArialMT-36" d="M 3184 3459 
L 2625 3416 
Q 2550 3747 2413 3897 
Q 2184 4138 1850 4138 
Q 1581 4138 1378 3988 
Q 1113 3794 959 3422 
Q 806 3050 800 2363 
Q 1003 2672 1297 2822 
Q 1591 2972 1913 2972 
Q 2475 2972 2870 2558 
Q 3266 2144 3266 1488 
Q 3266 1056 3080 686 
Q 2894 316 2569 119 
Q 2244 -78 1831 -78 
Q 1128 -78 684 439 
Q 241 956 241 2144 
Q 241 3472 731 4075 
Q 1159 4600 1884 4600 
Q 2425 4600 2770 4297 
Q 3116 3994 3184 3459 
z
M 888 1484 
Q 888 1194 1011 928 
Q 1134 663 1356 523 
Q 1578 384 1822 384 
Q 2178 384 2434 671 
Q 2691 959 2691 1453 
Q 2691 1928 2437 2201 
Q 2184 2475 1800 2475 
Q 1419 2475 1153 2201 
Q 888 1928 888 1484 
z
" transform="scale(0.015625)"/>
       </defs>
       <use xlink:href="#ArialMT-36"/>
       <use xlink:href="#ArialMT-30" transform="translate(55.615234 0)"/>
       <use xlink:href="#ArialMT-30" transform="translate(111.230469 0)"/>
       <use xlink:href="#ArialMT-30" transform="translate(166.845703 0)"/>
       <use xlink:href="#ArialMT-30" transform="translate(222.460938 0)"/>
      </g>
     </g>
    </g>
    <g id="text_8">
     <!-- VRE load -->
     <g style="fill: #262626" transform="translate(398.243125 267.049219) scale(0.12 -0.12)">
      <defs>
       <path id="ArialMT-56" d="M 1803 0 
L 28 4581 
L 684 4581 
L 1875 1253 
Q 2019 853 2116 503 
Q 2222 878 2363 1253 
L 3600 4581 
L 4219 4581 
L 2425 0 
L 1803 0 
z
" transform="scale(0.015625)"/>
       <path id="ArialMT-52" d="M 503 0 
L 503 4581 
L 2534 4581 
Q 3147 4581 3465 4457 
Q 3784 4334 3975 4021 
Q 4166 3709 4166 3331 
Q 4166 2844 3850 2509 
Q 3534 2175 2875 2084 
Q 3116 1969 3241 1856 
Q 3506 1613 3744 1247 
L 4541 0 
L 3778 0 
L 3172 953 
Q 2906 1366 2734 1584 
Q 2563 1803 2427 1890 
Q 2291 1978 2150 2013 
Q 2047 2034 1813 2034 
L 1109 2034 
L 1109 0 
L 503 0 
z
M 1109 2559 
L 2413 2559 
Q 2828 2559 3062 2645 
Q 3297 2731 3419 2920 
Q 3541 3109 3541 3331 
Q 3541 3656 3305 3865 
Q 3069 4075 2559 4075 
L 1109 4075 
L 1109 2559 
z
" transform="scale(0.015625)"/>
       <path id="ArialMT-45" d="M 506 0 
L 506 4581 
L 3819 4581 
L 3819 4041 
L 1113 4041 
L 1113 2638 
L 3647 2638 
L 3647 2100 
L 1113 2100 
L 1113 541 
L 3925 541 
L 3925 0 
L 506 0 
z
" transform="scale(0.015625)"/>
       <path id="ArialMT-20" transform="scale(0.015625)"/>
       <path id="ArialMT-6c" d="M 409 0 
L 409 4581 
L 972 4581 
L 972 0 
L 409 0 
z
" transform="scale(0.015625)"/>
       <path id="ArialMT-6f" d="M 213 1659 
Q 213 2581 725 3025 
Q 1153 3394 1769 3394 
Q 2453 3394 2887 2945 
Q 3322 2497 3322 1706 
Q 3322 1066 3130 698 
Q 2938 331 2570 128 
Q 2203 -75 1769 -75 
Q 1072 -75 642 372 
Q 213 819 213 1659 
z
M 791 1659 
Q 791 1022 1069 705 
Q 1347 388 1769 388 
Q 2188 388 2466 706 
Q 2744 1025 2744 1678 
Q 2744 2294 2464 2611 
Q 2184 2928 1769 2928 
Q 1347 2928 1069 2612 
Q 791 2297 791 1659 
z
" transform="scale(0.015625)"/>
       <path id="ArialMT-61" d="M 2588 409 
Q 2275 144 1986 34 
Q 1697 -75 1366 -75 
Q 819 -75 525 192 
Q 231 459 231 875 
Q 231 1119 342 1320 
Q 453 1522 633 1644 
Q 813 1766 1038 1828 
Q 1203 1872 1538 1913 
Q 2219 1994 2541 2106 
Q 2544 2222 2544 2253 
Q 2544 2597 2384 2738 
Q 2169 2928 1744 2928 
Q 1347 2928 1158 2789 
Q 969 2650 878 2297 
L 328 2372 
Q 403 2725 575 2942 
Q 747 3159 1072 3276 
Q 1397 3394 1825 3394 
Q 2250 3394 2515 3294 
Q 2781 3194 2906 3042 
Q 3031 2891 3081 2659 
Q 3109 2516 3109 2141 
L 3109 1391 
Q 3109 606 3145 398 
Q 3181 191 3288 0 
L 2700 0 
Q 2613 175 2588 409 
z
M 2541 1666 
Q 2234 1541 1622 1453 
Q 1275 1403 1131 1340 
Q 988 1278 909 1158 
Q 831 1038 831 891 
Q 831 666 1001 516 
Q 1172 366 1500 366 
Q 1825 366 2078 508 
Q 2331 650 2450 897 
Q 2541 1088 2541 1459 
L 2541 1666 
z
" transform="scale(0.015625)"/>
       <path id="ArialMT-64" d="M 2575 0 
L 2575 419 
Q 2259 -75 1647 -75 
Q 1250 -75 917 144 
Q 584 363 401 755 
Q 219 1147 219 1656 
Q 219 2153 384 2558 
Q 550 2963 881 3178 
Q 1213 3394 1622 3394 
Q 1922 3394 2156 3267 
Q 2391 3141 2538 2938 
L 2538 4581 
L 3097 4581 
L 3097 0 
L 2575 0 
z
M 797 1656 
Q 797 1019 1065 703 
Q 1334 388 1700 388 
Q 2069 388 2326 689 
Q 2584 991 2584 1609 
Q 2584 2291 2321 2609 
Q 2059 2928 1675 2928 
Q 1300 2928 1048 2622 
Q 797 2316 797 1656 
z
" transform="scale(0.015625)"/>
      </defs>
      <use xlink:href="#ArialMT-56"/>
      <use xlink:href="#ArialMT-52" transform="translate(66.699219 0)"/>
      <use xlink:href="#ArialMT-45" transform="translate(138.916016 0)"/>
      <use xlink:href="#ArialMT-20" transform="translate(205.615234 0)"/>
      <use xlink:href="#ArialMT-6c" transform="translate(233.398438 0)"/>
      <use xlink:href="#ArialMT-6f" transform="translate(255.615234 0)"/>
      <use xlink:href="#ArialMT-61" transform="translate(311.230469 0)"/>
      <use xlink:href="#ArialMT-64" transform="translate(366.845703 0)"/>
     </g>
    </g>
   </g>
   <g id="matplotlib.axis_2">
    <g id="ytick_1">
     <g id="line2d_8">
      <defs>
       <path id="mf85d7eae16" d="M 0 0 
L -6 0 
" style="stroke: #262626; stroke-width: 1.25"/>
      </defs>
      <g>
       <use xlink:href="#mf85d7eae16" x="44.195313" y="212.818546" style="fill: #262626; stroke: #262626; stroke-width: 1.25"/>
      </g>
     </g>
     <g id="text_9">
      <!-- 10 -->
      <g style="fill: #262626" transform="translate(22.46125 216.755343) scale(0.11 -0.11)">
       <use xlink:href="#ArialMT-31"/>
       <use xlink:href="#ArialMT-30" transform="translate(55.615234 0)"/>
      </g>
     </g>
    </g>
    <g id="ytick_2">
     <g id="line2d_9">
      <g>
       <use xlink:href="#mf85d7eae16" x="44.195313" y="180.786816" style="fill: #262626; stroke: #262626; stroke-width: 1.25"/>
      </g>
     </g>
     <g id="text_10">
      <!-- 20 -->
      <g style="fill: #262626" transform="translate(22.46125 184.723613) scale(0.11 -0.11)">
       <use xlink:href="#ArialMT-32"/>
       <use xlink:href="#ArialMT-30" transform="translate(55.615234 0)"/>
      </g>
     </g>
    </g>
    <g id="ytick_3">
     <g id="line2d_10">
      <g>
       <use xlink:href="#mf85d7eae16" x="44.195313" y="148.755086" style="fill: #262626; stroke: #262626; stroke-width: 1.25"/>
      </g>
     </g>
     <g id="text_11">
      <!-- 30 -->
      <g style="fill: #262626" transform="translate(22.46125 152.691882) scale(0.11 -0.11)">
       <use xlink:href="#ArialMT-33"/>
       <use xlink:href="#ArialMT-30" transform="translate(55.615234 0)"/>
      </g>
     </g>
    </g>
    <g id="ytick_4">
     <g id="line2d_11">
      <g>
       <use xlink:href="#mf85d7eae16" x="44.195313" y="116.723355" style="fill: #262626; stroke: #262626; stroke-width: 1.25"/>
      </g>
     </g>
     <g id="text_12">
      <!-- 40 -->
      <g style="fill: #262626" transform="translate(22.46125 120.660152) scale(0.11 -0.11)">
       <use xlink:href="#ArialMT-34"/>
       <use xlink:href="#ArialMT-30" transform="translate(55.615234 0)"/>
      </g>
     </g>
    </g>
    <g id="ytick_5">
     <g id="line2d_12">
      <g>
       <use xlink:href="#mf85d7eae16" x="44.195313" y="84.691625" style="fill: #262626; stroke: #262626; stroke-width: 1.25"/>
      </g>
     </g>
     <g id="text_13">
      <!-- 50 -->
      <g style="fill: #262626" transform="translate(22.46125 88.628422) scale(0.11 -0.11)">
       <use xlink:href="#ArialMT-35"/>
       <use xlink:href="#ArialMT-30" transform="translate(55.615234 0)"/>
      </g>
     </g>
    </g>
    <g id="ytick_6">
     <g id="line2d_13">
      <g>
       <use xlink:href="#mf85d7eae16" x="44.195313" y="52.659895" style="fill: #262626; stroke: #262626; stroke-width: 1.25"/>
      </g>
     </g>
     <g id="text_14">
      <!-- 60 -->
      <g style="fill: #262626" transform="translate(22.46125 56.596692) scale(0.11 -0.11)">
       <use xlink:href="#ArialMT-36"/>
       <use xlink:href="#ArialMT-30" transform="translate(55.615234 0)"/>
      </g>
     </g>
    </g>
    <g id="ytick_7">
     <g id="line2d_14">
      <g>
       <use xlink:href="#mf85d7eae16" x="44.195313" y="20.628164" style="fill: #262626; stroke: #262626; stroke-width: 1.25"/>
      </g>
     </g>
     <g id="text_15">
      <!-- 70 -->
      <g style="fill: #262626" transform="translate(22.46125 24.564961) scale(0.11 -0.11)">
       <defs>
        <path id="ArialMT-37" d="M 303 3981 
L 303 4522 
L 3269 4522 
L 3269 4084 
Q 2831 3619 2401 2847 
Q 1972 2075 1738 1259 
Q 1569 684 1522 0 
L 944 0 
Q 953 541 1156 1306 
Q 1359 2072 1739 2783 
Q 2119 3494 2547 3981 
L 303 3981 
z
" transform="scale(0.015625)"/>
       </defs>
       <use xlink:href="#ArialMT-37"/>
       <use xlink:href="#ArialMT-30" transform="translate(55.615234 0)"/>
      </g>
     </g>
    </g>
    <g id="text_16">
     <!-- MAE (€/MWh) -->
     <g style="fill: #262626" transform="translate(15.935625 158.715937) rotate(-90) scale(0.12 -0.12)">
      <defs>
       <path id="ArialMT-4d" d="M 475 0 
L 475 4581 
L 1388 4581 
L 2472 1338 
Q 2622 884 2691 659 
Q 2769 909 2934 1394 
L 4031 4581 
L 4847 4581 
L 4847 0 
L 4263 0 
L 4263 3834 
L 2931 0 
L 2384 0 
L 1059 3900 
L 1059 0 
L 475 0 
z
" transform="scale(0.015625)"/>
       <path id="ArialMT-41" d="M -9 0 
L 1750 4581 
L 2403 4581 
L 4278 0 
L 3588 0 
L 3053 1388 
L 1138 1388 
L 634 0 
L -9 0 
z
M 1313 1881 
L 2866 1881 
L 2388 3150 
Q 2169 3728 2063 4100 
Q 1975 3659 1816 3225 
L 1313 1881 
z
" transform="scale(0.015625)"/>
       <path id="ArialMT-28" d="M 1497 -1347 
Q 1031 -759 709 28 
Q 388 816 388 1659 
Q 388 2403 628 3084 
Q 909 3875 1497 4659 
L 1900 4659 
Q 1522 4009 1400 3731 
Q 1209 3300 1100 2831 
Q 966 2247 966 1656 
Q 966 153 1900 -1347 
L 1497 -1347 
z
" transform="scale(0.015625)"/>
       <path id="ArialMT-20ac" d="M 2469 4141 
Q 1944 4141 1588 3888 
Q 1375 3738 1203 3463 
Q 1028 3178 997 2922 
L 3128 2922 
L 3044 2503 
L 947 2503 
Q 944 2438 944 2378 
Q 944 2138 947 2091 
L 2959 2091 
L 2872 1672 
L 1013 1672 
Q 1144 956 1644 656 
Q 2003 441 2422 441 
Q 3006 441 3334 747 
L 3334 103 
Q 2944 -78 2472 -78 
Q 1059 -78 563 1097 
Q 463 1334 391 1672 
L -88 1672 
L 0 2091 
L 328 2091 
Q 319 2222 319 2375 
Q 319 2438 322 2503 
L -88 2503 
L 0 2922 
L 363 2922 
Q 556 3941 1372 4384 
Q 1875 4659 2481 4659 
Q 3063 4659 3459 4406 
L 3334 3825 
Q 2953 4141 2469 4141 
z
" transform="scale(0.015625)"/>
       <path id="ArialMT-2f" d="M 0 -78 
L 1328 4659 
L 1778 4659 
L 453 -78 
L 0 -78 
z
" transform="scale(0.015625)"/>
       <path id="ArialMT-57" d="M 1294 0 
L 78 4581 
L 700 4581 
L 1397 1578 
Q 1509 1106 1591 641 
Q 1766 1375 1797 1488 
L 2669 4581 
L 3400 4581 
L 4056 2263 
Q 4303 1400 4413 641 
Q 4500 1075 4641 1638 
L 5359 4581 
L 5969 4581 
L 4713 0 
L 4128 0 
L 3163 3491 
Q 3041 3928 3019 4028 
Q 2947 3713 2884 3491 
L 1913 0 
L 1294 0 
z
" transform="scale(0.015625)"/>
       <path id="ArialMT-68" d="M 422 0 
L 422 4581 
L 984 4581 
L 984 2938 
Q 1378 3394 1978 3394 
Q 2347 3394 2619 3248 
Q 2891 3103 3008 2847 
Q 3125 2591 3125 2103 
L 3125 0 
L 2563 0 
L 2563 2103 
Q 2563 2525 2380 2717 
Q 2197 2909 1863 2909 
Q 1613 2909 1392 2779 
Q 1172 2650 1078 2428 
Q 984 2206 984 1816 
L 984 0 
L 422 0 
z
" transform="scale(0.015625)"/>
       <path id="ArialMT-29" d="M 791 -1347 
L 388 -1347 
Q 1322 153 1322 1656 
Q 1322 2244 1188 2822 
Q 1081 3291 891 3722 
Q 769 4003 388 4659 
L 791 4659 
Q 1378 3875 1659 3084 
Q 1900 2403 1900 1659 
Q 1900 816 1576 28 
Q 1253 -759 791 -1347 
z
" transform="scale(0.015625)"/>
      </defs>
      <use xlink:href="#ArialMT-4d"/>
      <use xlink:href="#ArialMT-41" transform="translate(83.300781 0)"/>
      <use xlink:href="#ArialMT-45" transform="translate(150 0)"/>
      <use xlink:href="#ArialMT-20" transform="translate(216.699219 0)"/>
      <use xlink:href="#ArialMT-28" transform="translate(244.482422 0)"/>
      <use xlink:href="#ArialMT-20ac" transform="translate(277.783203 0)"/>
      <use xlink:href="#ArialMT-2f" transform="translate(333.398438 0)"/>
      <use xlink:href="#ArialMT-4d" transform="translate(361.181641 0)"/>
      <use xlink:href="#ArialMT-57" transform="translate(444.482422 0)"/>
      <use xlink:href="#ArialMT-68" transform="translate(538.867188 0)"/>
      <use xlink:href="#ArialMT-29" transform="translate(594.482422 0)"/>
     </g>
    </g>
   </g>
   <g id="FillBetweenPolyCollection_1">
    <defs>
     <path id="mba859ee939" d="M 78.685767 -259.084219 
L 78.685767 -206.740302 
L 89.13742 -195.881426 
L 99.589073 -207.563703 
L 110.040726 -170.458321 
L 120.492379 -124.399225 
L 130.944032 -138.855121 
L 141.395684 -138.337054 
L 151.847337 -135.92249 
L 162.29899 -137.044612 
L 172.750643 -138.285262 
L 183.202296 -134.126861 
L 193.653949 -134.889283 
L 204.105602 -138.635591 
L 214.557255 -150.894698 
L 225.008908 -145.208523 
L 235.46056 -137.405533 
L 245.912213 -135.869164 
L 256.363866 -142.764245 
L 266.815519 -131.068661 
L 277.267172 -135.30853 
L 287.718825 -137.923091 
L 298.170478 -132.73705 
L 308.622131 -136.348447 
L 319.073784 -135.76703 
L 329.525436 -132.116323 
L 339.977089 -131.873066 
L 350.428742 -130.328553 
L 360.880395 -128.434866 
L 371.332048 -125.075702 
L 381.783701 -129.427905 
L 392.235354 -135.223508 
L 402.687007 -140.768077 
L 413.13866 -133.397182 
L 423.590312 -131.170724 
L 434.041965 -126.429823 
L 444.493618 -126.065045 
L 454.945271 -126.142983 
L 465.396924 -129.474736 
L 475.848577 -124.529465 
L 486.30023 -129.726555 
L 496.751883 -129.936181 
L 507.203536 -128.565207 
L 517.655189 -126.738077 
L 528.106841 -130.411869 
L 538.558494 -138.245138 
L 549.010147 -138.517698 
L 559.4618 -128.82291 
L 569.913453 -126.501258 
L 580.365106 -131.271068 
L 590.816759 -138.426555 
L 601.268412 -130.786661 
L 611.720065 -125.643046 
L 622.171717 -141.204416 
L 632.62337 -119.558667 
L 643.075023 -118.585142 
L 653.526676 -116.595072 
L 663.978329 -115.254819 
L 674.429982 -111.278044 
L 684.881635 -115.53599 
L 695.333288 -115.450764 
L 705.784941 -104.093263 
L 716.236593 -126.921886 
L 726.688246 -87.710789 
L 737.139899 -71.941083 
L 747.591552 -107.190792 
L 758.043205 -90.820953 
L 768.494858 -117.00524 
L 768.494858 -149.854038 
L 768.494858 -149.854038 
L 758.043205 -123.82312 
L 747.591552 -133.429803 
L 737.139899 -85.14126 
L 726.688246 -114.898259 
L 716.236593 -181.430971 
L 705.784941 -121.669114 
L 695.333288 -134.351442 
L 684.881635 -131.075042 
L 674.429982 -146.626973 
L 663.978329 -126.463442 
L 653.526676 -129.082039 
L 643.075023 -130.299059 
L 632.62337 -131.964156 
L 622.171717 -195.379979 
L 611.720065 -159.241992 
L 601.268412 -155.341414 
L 590.816759 -162.899729 
L 580.365106 -147.88211 
L 569.913453 -139.157654 
L 559.4618 -144.382977 
L 549.010147 -152.135604 
L 538.558494 -150.919141 
L 528.106841 -142.114362 
L 517.655189 -132.80968 
L 507.203536 -138.162513 
L 496.751883 -135.118005 
L 486.30023 -140.672583 
L 475.848577 -137.170544 
L 465.396924 -139.454599 
L 454.945271 -130.926652 
L 444.493618 -133.504138 
L 434.041965 -130.638096 
L 423.590312 -135.759679 
L 413.13866 -138.549656 
L 402.687007 -146.118402 
L 392.235354 -145.571391 
L 381.783701 -138.788588 
L 371.332048 -129.864409 
L 360.880395 -133.754095 
L 350.428742 -134.544208 
L 339.977089 -136.479814 
L 329.525436 -136.42694 
L 319.073784 -140.089332 
L 308.622131 -143.118801 
L 298.170478 -137.377521 
L 287.718825 -148.328316 
L 277.267172 -141.831014 
L 266.815519 -135.765101 
L 256.363866 -147.427802 
L 245.912213 -140.06125 
L 235.46056 -141.854024 
L 225.008908 -157.270798 
L 214.557255 -164.159501 
L 204.105602 -149.127595 
L 193.653949 -139.516315 
L 183.202296 -141.240485 
L 172.750643 -148.081794 
L 162.29899 -145.741778 
L 151.847337 -145.070835 
L 141.395684 -145.321825 
L 130.944032 -147.249689 
L 120.492379 -129.336671 
L 110.040726 -182.833202 
L 99.589073 -228.443444 
L 89.13742 -229.205563 
L 78.685767 -259.084219 
z
" style="stroke: #840853; stroke-opacity: 0.2"/>
    </defs>
    <g clip-path="url(#pe33105d43a)">
     <use xlink:href="#mba859ee939" x="0" y="276.634219" style="fill: #840853; fill-opacity: 0.2; stroke: #840853; stroke-opacity: 0.2"/>
    </g>
   </g>
   <g id="FillBetweenPolyCollection_2">
    <defs>
     <path id="m6c2d8c63fa" d="M 78.685767 -182.595626 
L 78.685767 -133.792685 
L 89.13742 -177.955375 
L 99.589073 -196.895613 
L 110.040726 -162.672658 
L 120.492379 -124.540534 
L 130.944032 -135.117318 
L 141.395684 -131.924677 
L 151.847337 -131.716437 
L 162.29899 -131.204098 
L 172.750643 -133.635717 
L 183.202296 -129.258891 
L 193.653949 -128.433251 
L 204.105602 -137.05691 
L 214.557255 -145.281686 
L 225.008908 -139.980816 
L 235.46056 -132.654058 
L 245.912213 -129.529212 
L 256.363866 -134.189696 
L 266.815519 -125.549976 
L 277.267172 -128.185773 
L 287.718825 -131.82295 
L 298.170478 -126.329326 
L 308.622131 -128.52113 
L 319.073784 -128.31566 
L 329.525436 -127.679859 
L 339.977089 -128.549095 
L 350.428742 -126.029634 
L 360.880395 -124.154294 
L 371.332048 -121.634735 
L 381.783701 -124.86006 
L 392.235354 -129.888491 
L 402.687007 -134.316657 
L 413.13866 -125.057647 
L 423.590312 -125.1648 
L 434.041965 -122.123878 
L 444.493618 -122.362862 
L 454.945271 -122.818375 
L 465.396924 -128.061844 
L 475.848577 -123.630715 
L 486.30023 -128.975305 
L 496.751883 -128.966735 
L 507.203536 -130.325116 
L 517.655189 -124.377901 
L 528.106841 -126.779544 
L 538.558494 -134.628912 
L 549.010147 -133.817456 
L 559.4618 -129.403756 
L 569.913453 -121.295682 
L 580.365106 -130.295169 
L 590.816759 -129.497248 
L 601.268412 -131.533121 
L 611.720065 -123.681775 
L 622.171717 -137.546738 
L 632.62337 -117.300022 
L 643.075023 -113.620276 
L 653.526676 -119.14555 
L 663.978329 -113.306311 
L 674.429982 -92.531753 
L 684.881635 -113.815237 
L 695.333288 -114.734254 
L 705.784941 -101.841029 
L 716.236593 -124.978212 
L 726.688246 -86.327531 
L 737.139899 -86.777185 
L 747.591552 -95.447056 
L 758.043205 -90.434194 
L 768.494858 -106.83585 
L 768.494858 -147.515368 
L 768.494858 -147.515368 
L 758.043205 -120.118194 
L 747.591552 -123.756048 
L 737.139899 -103.30473 
L 726.688246 -116.44462 
L 716.236593 -174.522012 
L 705.784941 -119.992757 
L 695.333288 -135.960581 
L 684.881635 -130.975137 
L 674.429982 -127.537784 
L 663.978329 -125.395868 
L 653.526676 -133.237278 
L 643.075023 -126.146189 
L 632.62337 -130.48469 
L 622.171717 -190.004158 
L 611.720065 -156.861951 
L 601.268412 -158.059965 
L 590.816759 -155.276648 
L 580.365106 -147.045382 
L 569.913453 -133.771543 
L 559.4618 -144.733133 
L 549.010147 -146.622321 
L 538.558494 -147.160164 
L 528.106841 -137.25788 
L 517.655189 -130.089391 
L 507.203536 -140.34603 
L 496.751883 -134.425467 
L 486.30023 -140.540933 
L 475.848577 -135.547613 
L 465.396924 -137.643447 
L 454.945271 -127.654035 
L 444.493618 -129.256984 
L 434.041965 -126.14116 
L 423.590312 -129.710848 
L 413.13866 -130.094115 
L 402.687007 -139.377776 
L 392.235354 -140.587901 
L 381.783701 -134.348811 
L 371.332048 -126.282751 
L 360.880395 -129.675186 
L 350.428742 -130.361095 
L 339.977089 -132.807912 
L 329.525436 -132.080728 
L 319.073784 -132.224524 
L 308.622131 -135.250689 
L 298.170478 -130.916559 
L 287.718825 -141.662656 
L 277.267172 -134.496919 
L 266.815519 -130.319397 
L 256.363866 -138.894576 
L 245.912213 -133.452191 
L 235.46056 -136.922358 
L 225.008908 -151.696393 
L 214.557255 -159.286144 
L 204.105602 -147.258007 
L 193.653949 -133.019822 
L 183.202296 -137.027529 
L 172.750643 -142.963902 
L 162.29899 -140.147214 
L 151.847337 -140.995847 
L 141.395684 -139.043454 
L 130.944032 -143.02388 
L 120.492379 -129.133 
L 110.040726 -172.20388 
L 99.589073 -215.619122 
L 89.13742 -208.450455 
L 78.685767 -182.595626 
z
" style="stroke: #3a609c; stroke-opacity: 0.2"/>
    </defs>
    <g clip-path="url(#pe33105d43a)">
     <use xlink:href="#m6c2d8c63fa" x="0" y="276.634219" style="fill: #3a609c; fill-opacity: 0.2; stroke: #3a609c; stroke-opacity: 0.2"/>
    </g>
   </g>
   <g id="FillBetweenPolyCollection_3">
    <defs>
     <path id="mcef6cf5fc9" d="M 78.685767 -224.861422 
L 78.685767 -175.29225 
L 89.13742 -178.365319 
L 99.589073 -200.980558 
L 110.040726 -154.810004 
L 120.492379 -116.024404 
L 130.944032 -126.348195 
L 141.395684 -124.588481 
L 151.847337 -120.078108 
L 162.29899 -123.080876 
L 172.750643 -124.75533 
L 183.202296 -116.962514 
L 193.653949 -112.141799 
L 204.105602 -121.399562 
L 214.557255 -123.783197 
L 225.008908 -121.742088 
L 235.46056 -109.448847 
L 245.912213 -109.485294 
L 256.363866 -113.272795 
L 266.815519 -107.996511 
L 277.267172 -107.613213 
L 287.718825 -109.785015 
L 298.170478 -104.033581 
L 308.622131 -108.296589 
L 319.073784 -99.383649 
L 329.525436 -105.229413 
L 339.977089 -110.348195 
L 350.428742 -105.706525 
L 360.880395 -111.675368 
L 371.332048 -109.315005 
L 381.783701 -115.382454 
L 392.235354 -115.869875 
L 402.687007 -118.920265 
L 413.13866 -111.160179 
L 423.590312 -108.749183 
L 434.041965 -105.829196 
L 444.493618 -109.510498 
L 454.945271 -110.793371 
L 465.396924 -117.491848 
L 475.848577 -115.237804 
L 486.30023 -120.291173 
L 496.751883 -112.122887 
L 507.203536 -117.405112 
L 517.655189 -113.759011 
L 528.106841 -119.333867 
L 538.558494 -126.878175 
L 549.010147 -115.47254 
L 559.4618 -115.669723 
L 569.913453 -106.121828 
L 580.365106 -111.563258 
L 590.816759 -112.776577 
L 601.268412 -117.314092 
L 611.720065 -114.300267 
L 622.171717 -125.035551 
L 632.62337 -104.555742 
L 643.075023 -112.044419 
L 653.526676 -106.878914 
L 663.978329 -101.414344 
L 674.429982 -95.212609 
L 684.881635 -101.622283 
L 695.333288 -103.147 
L 705.784941 -115.98866 
L 716.236593 -118.94429 
L 726.688246 -117.315864 
L 737.139899 -102.485726 
L 747.591552 -77.435891 
L 758.043205 -52.084219 
L 768.494858 -111.354225 
L 768.494858 -146.117984 
L 768.494858 -146.117984 
L 758.043205 -66.253333 
L 747.591552 -104.975797 
L 737.139899 -128.01384 
L 726.688246 -142.638559 
L 716.236593 -177.630726 
L 705.784941 -134.869559 
L 695.333288 -124.43375 
L 684.881635 -117.519396 
L 674.429982 -123.467186 
L 663.978329 -112.895137 
L 653.526676 -119.327615 
L 643.075023 -126.005205 
L 632.62337 -116.309069 
L 622.171717 -177.355732 
L 611.720065 -148.88822 
L 601.268412 -143.737595 
L 590.816759 -137.290916 
L 580.365106 -127.664361 
L 569.913453 -118.042083 
L 559.4618 -130.397613 
L 549.010147 -128.817644 
L 538.558494 -139.496061 
L 528.106841 -130.454485 
L 517.655189 -119.955998 
L 507.203536 -126.243248 
L 496.751883 -117.15544 
L 486.30023 -131.175689 
L 475.848577 -127.858923 
L 465.396924 -127.140583 
L 454.945271 -115.905666 
L 444.493618 -117.153996 
L 434.041965 -109.878609 
L 423.590312 -113.385172 
L 413.13866 -116.178082 
L 402.687007 -124.385101 
L 392.235354 -126.622049 
L 381.783701 -124.829243 
L 371.332048 -113.870106 
L 360.880395 -116.783562 
L 350.428742 -109.90794 
L 339.977089 -114.729215 
L 329.525436 -109.256619 
L 319.073784 -102.737554 
L 308.622131 -115.264603 
L 298.170478 -108.138251 
L 287.718825 -120.025594 
L 277.267172 -114.040371 
L 266.815519 -112.133861 
L 256.363866 -117.422354 
L 245.912213 -113.611652 
L 235.46056 -113.675384 
L 225.008908 -133.615102 
L 214.557255 -137.181116 
L 204.105602 -131.483947 
L 193.653949 -116.657537 
L 183.202296 -124.573136 
L 172.750643 -134.817962 
L 162.29899 -132.328577 
L 151.847337 -129.515875 
L 141.395684 -131.670638 
L 130.944032 -134.245462 
L 120.492379 -120.647584 
L 110.040726 -165.283749 
L 99.589073 -220.663006 
L 89.13742 -211.012957 
L 78.685767 -224.861422 
z
" style="stroke: #ffb14e; stroke-opacity: 0.2"/>
    </defs>
    <g clip-path="url(#pe33105d43a)">
     <use xlink:href="#mcef6cf5fc9" x="0" y="276.634219" style="fill: #ffb14e; fill-opacity: 0.2; stroke: #ffb14e; stroke-opacity: 0.2"/>
    </g>
   </g>
   <g id="line2d_15">
    <path d="M 78.685767 46.161452 
L 89.13742 65.097393 
L 99.589073 58.250006 
L 110.040726 100.098305 
L 120.492379 149.790035 
L 130.944032 133.759531 
L 141.395684 134.62313 
L 151.847337 136.432096 
L 162.29899 135.411879 
L 172.750643 133.641275 
L 183.202296 139.210094 
L 193.653949 139.505811 
L 204.105602 133.117668 
L 214.557255 119.556787 
L 225.008908 125.606043 
L 235.46056 136.990377 
L 245.912213 138.709682 
L 256.363866 131.546504 
L 266.815519 143.311963 
L 277.267172 138.378559 
L 287.718825 134.20025 
L 298.170478 141.561387 
L 308.622131 137.211373 
L 319.073784 138.702487 
L 329.525436 142.402513 
L 339.977089 142.454514 
L 350.428742 144.20802 
L 360.880395 145.592295 
L 371.332048 149.300563 
L 381.783701 142.836043 
L 392.235354 136.646137 
L 402.687007 133.157589 
L 413.13866 140.64709 
L 423.590312 143.138307 
L 434.041965 148.075339 
L 444.493618 147.337088 
L 454.945271 148.297323 
L 465.396924 142.624125 
L 475.848577 146.659608 
L 486.30023 141.991523 
L 496.751883 144.048427 
L 507.203536 143.913166 
L 517.655189 146.761693 
L 528.106841 140.966894 
L 538.558494 133.189454 
L 549.010147 132.210088 
L 559.4618 140.940189 
L 569.913453 144.218958 
L 580.365106 137.644671 
L 590.816759 127.847274 
L 601.268412 135.268696 
L 611.720065 136.448328 
L 622.171717 113.515181 
L 632.62337 150.680965 
L 643.075023 152.34938 
L 653.526676 153.775388 
L 663.978329 155.694234 
L 674.429982 147.274815 
L 684.881635 152.933988 
L 695.333288 152.389207 
L 705.784941 164.183988 
L 716.236593 123.285094 
L 726.688246 175.434922 
L 737.139899 198.333831 
L 747.591552 155.813776 
L 758.043205 169.587829 
L 768.494858 142.948794 
" clip-path="url(#pe33105d43a)" style="fill: none; stroke: #840853; stroke-width: 1.5; stroke-linecap: round"/>
   </g>
   <g id="line2d_16">
    <path d="M 78.685767 118.393691 
L 89.13742 83.527883 
L 99.589073 70.632225 
L 110.040726 109.203053 
L 120.492379 149.675245 
L 130.944032 137.558684 
L 141.395684 141.05314 
L 151.847337 140.545175 
L 162.29899 141.093801 
L 172.750643 138.481697 
L 183.202296 143.765648 
L 193.653949 145.915746 
L 204.105602 134.816814 
L 214.557255 124.644211 
L 225.008908 130.932345 
L 235.46056 141.957459 
L 245.912213 145.074095 
L 256.363866 140.142776 
L 266.815519 148.679076 
L 277.267172 145.57049 
L 287.718825 140.383925 
L 298.170478 148.12584 
L 308.622131 144.992808 
L 319.073784 146.327281 
L 329.525436 146.728239 
L 339.977089 145.982335 
L 350.428742 148.405437 
L 360.880395 149.703487 
L 371.332048 152.613503 
L 381.783701 147.308385 
L 392.235354 142.040143 
L 402.687007 139.711128 
L 413.13866 148.982774 
L 423.590312 149.158975 
L 434.041965 152.522895 
L 444.493618 151.033446 
L 454.945271 151.477515 
L 465.396924 144.087994 
L 475.848577 147.53939 
L 486.30023 142.929369 
L 496.751883 144.968597 
L 507.203536 141.880334 
L 517.655189 149.475528 
L 528.106841 145.155481 
L 538.558494 136.501767 
L 549.010147 137.343625 
L 559.4618 140.59685 
L 569.913453 149.407058 
L 580.365106 138.820445 
L 590.816759 136.344924 
L 601.268412 133.766998 
L 611.720065 139.129576 
L 622.171717 117.642553 
L 632.62337 152.974491 
L 643.075023 156.693356 
L 653.526676 150.893554 
L 663.978329 157.239446 
L 674.429982 166.919795 
L 684.881635 154.277768 
L 695.333288 152.007636 
L 705.784941 165.472161 
L 716.236593 127.619395 
L 726.688246 175.443682 
L 737.139899 181.845576 
L 747.591552 166.346171 
L 758.043205 171.14492 
L 768.494858 150.81283 
" clip-path="url(#pe33105d43a)" style="fill: none; stroke: #3a609c; stroke-width: 1.5; stroke-linecap: round"/>
   </g>
   <g id="line2d_17">
    <path d="M 78.685767 78.094432 
L 89.13742 82.558264 
L 99.589073 66.291657 
L 110.040726 116.826351 
L 120.492379 158.202885 
L 130.944032 146.523975 
L 141.395684 148.717529 
L 151.847337 152.07323 
L 162.29899 149.083152 
L 172.750643 147.38068 
L 183.202296 155.883018 
L 193.653949 162.243909 
L 204.105602 150.595268 
L 214.557255 146.333421 
L 225.008908 149.409106 
L 235.46056 164.997815 
L 245.912213 165.189959 
L 256.363866 161.331359 
L 266.815519 166.600166 
L 277.267172 165.945227 
L 287.718825 162.243492 
L 298.170478 170.427759 
L 308.622131 165.170147 
L 319.073784 175.539269 
L 329.525436 169.398423 
L 339.977089 163.99324 
L 350.428742 168.82962 
L 360.880395 162.380223 
L 371.332048 165.112381 
L 381.783701 156.800694 
L 392.235354 156.17284 
L 402.687007 154.988266 
L 413.13866 162.964728 
L 423.590312 165.740781 
L 434.041965 168.830066 
L 444.493618 163.802208 
L 454.945271 163.40131 
L 465.396924 154.533384 
L 475.848577 155.559576 
L 486.30023 151.52987 
L 496.751883 161.90428 
L 507.203536 155.155406 
L 517.655189 159.915642 
L 528.106841 152.039952 
L 538.558494 144.136013 
L 549.010147 154.869082 
L 559.4618 154.554152 
L 569.913453 164.622239 
L 580.365106 157.766356 
L 590.816759 152.739626 
L 601.268412 148.114035 
L 611.720065 148.398447 
L 622.171717 129.839442 
L 632.62337 166.113264 
L 643.075023 157.755314 
L 653.526676 163.747133 
L 663.978329 169.742651 
L 674.429982 167.101036 
L 684.881635 167.318294 
L 695.333288 163.201854 
L 705.784941 151.516256 
L 716.236593 128.528779 
L 726.688246 146.832841 
L 737.139899 161.804224 
L 747.591552 185.380556 
L 758.043205 217.541505 
L 768.494858 148.304054 
" clip-path="url(#pe33105d43a)" style="fill: none; stroke: #ffb14e; stroke-width: 1.5; stroke-linecap: round"/>
   </g>
   <g id="line2d_18"/>
   <g id="line2d_19"/>
   <g id="line2d_20"/>
   <g id="patch_3">
    <path d="M 44.195313 234.9 
L 44.195313 7.2 
" style="fill: none; stroke: #262626; stroke-width: 1.25; stroke-linejoin: miter; stroke-linecap: square"/>
   </g>
   <g id="patch_4">
    <path d="M 802.985312 234.9 
L 802.985312 7.2 
" style="fill: none; stroke: #262626; stroke-width: 1.25; stroke-linejoin: miter; stroke-linecap: square"/>
   </g>
   <g id="patch_5">
    <path d="M 44.195313 234.9 
L 802.985312 234.9 
" style="fill: none; stroke: #262626; stroke-width: 1.25; stroke-linejoin: miter; stroke-linecap: square"/>
   </g>
   <g id="patch_6">
    <path d="M 44.195313 7.2 
L 802.985312 7.2 
" style="fill: none; stroke: #262626; stroke-width: 1.25; stroke-linejoin: miter; stroke-linecap: square"/>
   </g>
   <g id="legend_1">
    <g id="patch_7">
     <path d="M 674.515625 78.899375 
L 795.285312 78.899375 
Q 797.485312 78.899375 797.485312 76.699375 
L 797.485312 14.9 
Q 797.485312 12.7 795.285312 12.7 
L 674.515625 12.7 
Q 672.315625 12.7 672.315625 14.9 
L 672.315625 76.699375 
Q 672.315625 78.899375 674.515625 78.899375 
z
" style="fill: #ffffff; opacity: 0.8; stroke: #cccccc; stroke-linejoin: miter"/>
    </g>
    <g id="line2d_21">
     <path d="M 676.715625 21.257656 
L 687.715625 21.257656 
L 698.715625 21.257656 
" style="fill: none; stroke: #840853; stroke-width: 1.5; stroke-linecap: round"/>
    </g>
    <g id="text_17">
     <!-- LSTM (VRE only) -->
     <g style="fill: #262626" transform="translate(707.515625 25.107656) scale(0.11 -0.11)">
      <defs>
       <path id="ArialMT-4c" d="M 469 0 
L 469 4581 
L 1075 4581 
L 1075 541 
L 3331 541 
L 3331 0 
L 469 0 
z
" transform="scale(0.015625)"/>
       <path id="ArialMT-53" d="M 288 1472 
L 859 1522 
Q 900 1178 1048 958 
Q 1197 738 1509 602 
Q 1822 466 2213 466 
Q 2559 466 2825 569 
Q 3091 672 3220 851 
Q 3350 1031 3350 1244 
Q 3350 1459 3225 1620 
Q 3100 1781 2813 1891 
Q 2628 1963 1997 2114 
Q 1366 2266 1113 2400 
Q 784 2572 623 2826 
Q 463 3081 463 3397 
Q 463 3744 659 4045 
Q 856 4347 1234 4503 
Q 1613 4659 2075 4659 
Q 2584 4659 2973 4495 
Q 3363 4331 3572 4012 
Q 3781 3694 3797 3291 
L 3216 3247 
Q 3169 3681 2898 3903 
Q 2628 4125 2100 4125 
Q 1550 4125 1298 3923 
Q 1047 3722 1047 3438 
Q 1047 3191 1225 3031 
Q 1400 2872 2139 2705 
Q 2878 2538 3153 2413 
Q 3553 2228 3743 1945 
Q 3934 1663 3934 1294 
Q 3934 928 3725 604 
Q 3516 281 3123 101 
Q 2731 -78 2241 -78 
Q 1619 -78 1198 103 
Q 778 284 539 648 
Q 300 1013 288 1472 
z
" transform="scale(0.015625)"/>
       <path id="ArialMT-54" d="M 1659 0 
L 1659 4041 
L 150 4041 
L 150 4581 
L 3781 4581 
L 3781 4041 
L 2266 4041 
L 2266 0 
L 1659 0 
z
" transform="scale(0.015625)"/>
       <path id="ArialMT-6e" d="M 422 0 
L 422 3319 
L 928 3319 
L 928 2847 
Q 1294 3394 1984 3394 
Q 2284 3394 2536 3286 
Q 2788 3178 2913 3003 
Q 3038 2828 3088 2588 
Q 3119 2431 3119 2041 
L 3119 0 
L 2556 0 
L 2556 2019 
Q 2556 2363 2490 2533 
Q 2425 2703 2258 2804 
Q 2091 2906 1866 2906 
Q 1506 2906 1245 2678 
Q 984 2450 984 1813 
L 984 0 
L 422 0 
z
" transform="scale(0.015625)"/>
       <path id="ArialMT-79" d="M 397 -1278 
L 334 -750 
Q 519 -800 656 -800 
Q 844 -800 956 -737 
Q 1069 -675 1141 -563 
Q 1194 -478 1313 -144 
Q 1328 -97 1363 -6 
L 103 3319 
L 709 3319 
L 1400 1397 
Q 1534 1031 1641 628 
Q 1738 1016 1872 1384 
L 2581 3319 
L 3144 3319 
L 1881 -56 
Q 1678 -603 1566 -809 
Q 1416 -1088 1222 -1217 
Q 1028 -1347 759 -1347 
Q 597 -1347 397 -1278 
z
" transform="scale(0.015625)"/>
      </defs>
      <use xlink:href="#ArialMT-4c"/>
      <use xlink:href="#ArialMT-53" transform="translate(55.615234 0)"/>
      <use xlink:href="#ArialMT-54" transform="translate(122.314453 0)"/>
      <use xlink:href="#ArialMT-4d" transform="translate(183.398438 0)"/>
      <use xlink:href="#ArialMT-20" transform="translate(266.699219 0)"/>
      <use xlink:href="#ArialMT-28" transform="translate(294.482422 0)"/>
      <use xlink:href="#ArialMT-56" transform="translate(327.783203 0)"/>
      <use xlink:href="#ArialMT-52" transform="translate(394.482422 0)"/>
      <use xlink:href="#ArialMT-45" transform="translate(466.699219 0)"/>
      <use xlink:href="#ArialMT-20" transform="translate(533.398438 0)"/>
      <use xlink:href="#ArialMT-6f" transform="translate(561.181641 0)"/>
      <use xlink:href="#ArialMT-6e" transform="translate(616.796875 0)"/>
      <use xlink:href="#ArialMT-6c" transform="translate(672.412109 0)"/>
      <use xlink:href="#ArialMT-79" transform="translate(694.628906 0)"/>
      <use xlink:href="#ArialMT-29" transform="translate(744.628906 0)"/>
     </g>
    </g>
    <g id="line2d_22">
     <path d="M 676.715625 37.080469 
L 687.715625 37.080469 
L 698.715625 37.080469 
" style="fill: none; stroke: #3a609c; stroke-width: 1.5; stroke-linecap: round"/>
    </g>
    <g id="text_18">
     <!-- GRU (VRE only) -->
     <g style="fill: #262626" transform="translate(707.515625 40.930469) scale(0.11 -0.11)">
      <defs>
       <path id="ArialMT-47" d="M 2638 1797 
L 2638 2334 
L 4578 2338 
L 4578 638 
Q 4131 281 3656 101 
Q 3181 -78 2681 -78 
Q 2006 -78 1454 211 
Q 903 500 622 1047 
Q 341 1594 341 2269 
Q 341 2938 620 3517 
Q 900 4097 1425 4378 
Q 1950 4659 2634 4659 
Q 3131 4659 3532 4498 
Q 3934 4338 4162 4050 
Q 4391 3763 4509 3300 
L 3963 3150 
Q 3859 3500 3706 3700 
Q 3553 3900 3268 4020 
Q 2984 4141 2638 4141 
Q 2222 4141 1919 4014 
Q 1616 3888 1430 3681 
Q 1244 3475 1141 3228 
Q 966 2803 966 2306 
Q 966 1694 1177 1281 
Q 1388 869 1791 669 
Q 2194 469 2647 469 
Q 3041 469 3416 620 
Q 3791 772 3984 944 
L 3984 1797 
L 2638 1797 
z
" transform="scale(0.015625)"/>
       <path id="ArialMT-55" d="M 3500 4581 
L 4106 4581 
L 4106 1934 
Q 4106 1244 3950 837 
Q 3794 431 3386 176 
Q 2978 -78 2316 -78 
Q 1672 -78 1262 144 
Q 853 366 678 786 
Q 503 1206 503 1934 
L 503 4581 
L 1109 4581 
L 1109 1938 
Q 1109 1341 1220 1058 
Q 1331 775 1601 622 
Q 1872 469 2263 469 
Q 2931 469 3215 772 
Q 3500 1075 3500 1938 
L 3500 4581 
z
" transform="scale(0.015625)"/>
      </defs>
      <use xlink:href="#ArialMT-47"/>
      <use xlink:href="#ArialMT-52" transform="translate(77.783203 0)"/>
      <use xlink:href="#ArialMT-55" transform="translate(150 0)"/>
      <use xlink:href="#ArialMT-20" transform="translate(222.216797 0)"/>
      <use xlink:href="#ArialMT-28" transform="translate(250 0)"/>
      <use xlink:href="#ArialMT-56" transform="translate(283.300781 0)"/>
      <use xlink:href="#ArialMT-52" transform="translate(350 0)"/>
      <use xlink:href="#ArialMT-45" transform="translate(422.216797 0)"/>
      <use xlink:href="#ArialMT-20" transform="translate(488.916016 0)"/>
      <use xlink:href="#ArialMT-6f" transform="translate(516.699219 0)"/>
      <use xlink:href="#ArialMT-6e" transform="translate(572.314453 0)"/>
      <use xlink:href="#ArialMT-6c" transform="translate(627.929688 0)"/>
      <use xlink:href="#ArialMT-79" transform="translate(650.146484 0)"/>
      <use xlink:href="#ArialMT-29" transform="translate(700.146484 0)"/>
     </g>
    </g>
    <g id="line2d_23">
     <path d="M 676.715625 52.769219 
L 687.715625 52.769219 
L 698.715625 52.769219 
" style="fill: none; stroke: #ffb14e; stroke-width: 1.5; stroke-linecap: round"/>
    </g>
    <g id="text_19">
     <!-- Best model -->
     <g style="fill: #262626" transform="translate(707.515625 56.619219) scale(0.11 -0.11)">
      <defs>
       <path id="ArialMT-42" d="M 469 0 
L 469 4581 
L 2188 4581 
Q 2713 4581 3030 4442 
Q 3347 4303 3526 4014 
Q 3706 3725 3706 3409 
Q 3706 3116 3547 2856 
Q 3388 2597 3066 2438 
Q 3481 2316 3704 2022 
Q 3928 1728 3928 1328 
Q 3928 1006 3792 729 
Q 3656 453 3456 303 
Q 3256 153 2954 76 
Q 2653 0 2216 0 
L 469 0 
z
M 1075 2656 
L 2066 2656 
Q 2469 2656 2644 2709 
Q 2875 2778 2992 2937 
Q 3109 3097 3109 3338 
Q 3109 3566 3000 3739 
Q 2891 3913 2687 3977 
Q 2484 4041 1991 4041 
L 1075 4041 
L 1075 2656 
z
M 1075 541 
L 2216 541 
Q 2509 541 2628 563 
Q 2838 600 2978 687 
Q 3119 775 3209 942 
Q 3300 1109 3300 1328 
Q 3300 1584 3169 1773 
Q 3038 1963 2805 2039 
Q 2572 2116 2134 2116 
L 1075 2116 
L 1075 541 
z
" transform="scale(0.015625)"/>
       <path id="ArialMT-65" d="M 2694 1069 
L 3275 997 
Q 3138 488 2766 206 
Q 2394 -75 1816 -75 
Q 1088 -75 661 373 
Q 234 822 234 1631 
Q 234 2469 665 2931 
Q 1097 3394 1784 3394 
Q 2450 3394 2872 2941 
Q 3294 2488 3294 1666 
Q 3294 1616 3291 1516 
L 816 1516 
Q 847 969 1125 678 
Q 1403 388 1819 388 
Q 2128 388 2347 550 
Q 2566 713 2694 1069 
z
M 847 1978 
L 2700 1978 
Q 2663 2397 2488 2606 
Q 2219 2931 1791 2931 
Q 1403 2931 1139 2672 
Q 875 2413 847 1978 
z
" transform="scale(0.015625)"/>
       <path id="ArialMT-73" d="M 197 991 
L 753 1078 
Q 800 744 1014 566 
Q 1228 388 1613 388 
Q 2000 388 2187 545 
Q 2375 703 2375 916 
Q 2375 1106 2209 1216 
Q 2094 1291 1634 1406 
Q 1016 1563 777 1677 
Q 538 1791 414 1992 
Q 291 2194 291 2438 
Q 291 2659 392 2848 
Q 494 3038 669 3163 
Q 800 3259 1026 3326 
Q 1253 3394 1513 3394 
Q 1903 3394 2198 3281 
Q 2494 3169 2634 2976 
Q 2775 2784 2828 2463 
L 2278 2388 
Q 2241 2644 2061 2787 
Q 1881 2931 1553 2931 
Q 1166 2931 1000 2803 
Q 834 2675 834 2503 
Q 834 2394 903 2306 
Q 972 2216 1119 2156 
Q 1203 2125 1616 2013 
Q 2213 1853 2448 1751 
Q 2684 1650 2818 1456 
Q 2953 1263 2953 975 
Q 2953 694 2789 445 
Q 2625 197 2315 61 
Q 2006 -75 1616 -75 
Q 969 -75 630 194 
Q 291 463 197 991 
z
" transform="scale(0.015625)"/>
       <path id="ArialMT-74" d="M 1650 503 
L 1731 6 
Q 1494 -44 1306 -44 
Q 1000 -44 831 53 
Q 663 150 594 308 
Q 525 466 525 972 
L 525 2881 
L 113 2881 
L 113 3319 
L 525 3319 
L 525 4141 
L 1084 4478 
L 1084 3319 
L 1650 3319 
L 1650 2881 
L 1084 2881 
L 1084 941 
Q 1084 700 1114 631 
Q 1144 563 1211 522 
Q 1278 481 1403 481 
Q 1497 481 1650 503 
z
" transform="scale(0.015625)"/>
       <path id="ArialMT-6d" d="M 422 0 
L 422 3319 
L 925 3319 
L 925 2853 
Q 1081 3097 1340 3245 
Q 1600 3394 1931 3394 
Q 2300 3394 2536 3241 
Q 2772 3088 2869 2813 
Q 3263 3394 3894 3394 
Q 4388 3394 4653 3120 
Q 4919 2847 4919 2278 
L 4919 0 
L 4359 0 
L 4359 2091 
Q 4359 2428 4304 2576 
Q 4250 2725 4106 2815 
Q 3963 2906 3769 2906 
Q 3419 2906 3187 2673 
Q 2956 2441 2956 1928 
L 2956 0 
L 2394 0 
L 2394 2156 
Q 2394 2531 2256 2718 
Q 2119 2906 1806 2906 
Q 1569 2906 1367 2781 
Q 1166 2656 1075 2415 
Q 984 2175 984 1722 
L 984 0 
L 422 0 
z
" transform="scale(0.015625)"/>
      </defs>
      <use xlink:href="#ArialMT-42"/>
      <use xlink:href="#ArialMT-65" transform="translate(66.699219 0)"/>
      <use xlink:href="#ArialMT-73" transform="translate(122.314453 0)"/>
      <use xlink:href="#ArialMT-74" transform="translate(172.314453 0)"/>
      <use xlink:href="#ArialMT-20" transform="translate(200.097656 0)"/>
      <use xlink:href="#ArialMT-6d" transform="translate(227.880859 0)"/>
      <use xlink:href="#ArialMT-6f" transform="translate(311.181641 0)"/>
      <use xlink:href="#ArialMT-64" transform="translate(366.796875 0)"/>
      <use xlink:href="#ArialMT-65" transform="translate(422.412109 0)"/>
      <use xlink:href="#ArialMT-6c" transform="translate(478.027344 0)"/>
     </g>
    </g>
    <g id="line2d_24">
     <path d="M 676.715625 68.463125 
L 687.715625 68.463125 
L 698.715625 68.463125 
" style="fill: none; stroke: #74953d; stroke-width: 1.5; stroke-linecap: round"/>
    </g>
    <g id="text_20">
     <!-- German prices -->
     <g style="fill: #262626" transform="translate(707.515625 72.313125) scale(0.11 -0.11)">
      <defs>
       <path id="ArialMT-72" d="M 416 0 
L 416 3319 
L 922 3319 
L 922 2816 
Q 1116 3169 1280 3281 
Q 1444 3394 1641 3394 
Q 1925 3394 2219 3213 
L 2025 2691 
Q 1819 2813 1613 2813 
Q 1428 2813 1281 2702 
Q 1134 2591 1072 2394 
Q 978 2094 978 1738 
L 978 0 
L 416 0 
z
" transform="scale(0.015625)"/>
       <path id="ArialMT-70" d="M 422 -1272 
L 422 3319 
L 934 3319 
L 934 2888 
Q 1116 3141 1344 3267 
Q 1572 3394 1897 3394 
Q 2322 3394 2647 3175 
Q 2972 2956 3137 2557 
Q 3303 2159 3303 1684 
Q 3303 1175 3120 767 
Q 2938 359 2589 142 
Q 2241 -75 1856 -75 
Q 1575 -75 1351 44 
Q 1128 163 984 344 
L 984 -1272 
L 422 -1272 
z
M 931 1641 
Q 931 1000 1190 694 
Q 1450 388 1819 388 
Q 2194 388 2461 705 
Q 2728 1022 2728 1688 
Q 2728 2322 2467 2637 
Q 2206 2953 1844 2953 
Q 1484 2953 1207 2617 
Q 931 2281 931 1641 
z
" transform="scale(0.015625)"/>
       <path id="ArialMT-69" d="M 425 3934 
L 425 4581 
L 988 4581 
L 988 3934 
L 425 3934 
z
M 425 0 
L 425 3319 
L 988 3319 
L 988 0 
L 425 0 
z
" transform="scale(0.015625)"/>
       <path id="ArialMT-63" d="M 2588 1216 
L 3141 1144 
Q 3050 572 2676 248 
Q 2303 -75 1759 -75 
Q 1078 -75 664 370 
Q 250 816 250 1647 
Q 250 2184 428 2587 
Q 606 2991 970 3192 
Q 1334 3394 1763 3394 
Q 2303 3394 2647 3120 
Q 2991 2847 3088 2344 
L 2541 2259 
Q 2463 2594 2264 2762 
Q 2066 2931 1784 2931 
Q 1359 2931 1093 2626 
Q 828 2322 828 1663 
Q 828 994 1084 691 
Q 1341 388 1753 388 
Q 2084 388 2306 591 
Q 2528 794 2588 1216 
z
" transform="scale(0.015625)"/>
      </defs>
      <use xlink:href="#ArialMT-47"/>
      <use xlink:href="#ArialMT-65" transform="translate(77.783203 0)"/>
      <use xlink:href="#ArialMT-72" transform="translate(133.398438 0)"/>
      <use xlink:href="#ArialMT-6d" transform="translate(166.699219 0)"/>
      <use xlink:href="#ArialMT-61" transform="translate(250 0)"/>
      <use xlink:href="#ArialMT-6e" transform="translate(305.615234 0)"/>
      <use xlink:href="#ArialMT-20" transform="translate(361.230469 0)"/>
      <use xlink:href="#ArialMT-70" transform="translate(389.013672 0)"/>
      <use xlink:href="#ArialMT-72" transform="translate(444.628906 0)"/>
      <use xlink:href="#ArialMT-69" transform="translate(477.929688 0)"/>
      <use xlink:href="#ArialMT-63" transform="translate(500.146484 0)"/>
      <use xlink:href="#ArialMT-65" transform="translate(550.146484 0)"/>
      <use xlink:href="#ArialMT-73" transform="translate(605.761719 0)"/>
     </g>
    </g>
   </g>
  </g>
  <g id="axes_2">
   <g id="matplotlib.axis_3">
    <g id="ytick_8">
     <g id="line2d_25">
      <defs>
       <path id="m206e3baac1" d="M 0 0 
L 6 0 
" style="stroke: #262626; stroke-width: 1.25"/>
      </defs>
      <g>
       <use xlink:href="#m206e3baac1" x="802.985312" y="199.813459" style="fill: #262626; stroke: #262626; stroke-width: 1.25"/>
      </g>
     </g>
     <g id="text_21">
      <!-- 0 -->
      <g style="fill: #262626" transform="translate(812.485312 203.750256) scale(0.11 -0.11)">
       <use xlink:href="#ArialMT-30"/>
      </g>
     </g>
    </g>
    <g id="ytick_9">
     <g id="line2d_26">
      <g>
       <use xlink:href="#m206e3baac1" x="802.985312" y="158.052871" style="fill: #262626; stroke: #262626; stroke-width: 1.25"/>
      </g>
     </g>
     <g id="text_22">
      <!-- 100 -->
      <g style="fill: #262626" transform="translate(812.485312 161.989668) scale(0.11 -0.11)">
       <use xlink:href="#ArialMT-31"/>
       <use xlink:href="#ArialMT-30" transform="translate(55.615234 0)"/>
       <use xlink:href="#ArialMT-30" transform="translate(111.230469 0)"/>
      </g>
     </g>
    </g>
    <g id="ytick_10">
     <g id="line2d_27">
      <g>
       <use xlink:href="#m206e3baac1" x="802.985312" y="116.292284" style="fill: #262626; stroke: #262626; stroke-width: 1.25"/>
      </g>
     </g>
     <g id="text_23">
      <!-- 200 -->
      <g style="fill: #262626" transform="translate(812.485312 120.229081) scale(0.11 -0.11)">
       <use xlink:href="#ArialMT-32"/>
       <use xlink:href="#ArialMT-30" transform="translate(55.615234 0)"/>
       <use xlink:href="#ArialMT-30" transform="translate(111.230469 0)"/>
      </g>
     </g>
    </g>
    <g id="ytick_11">
     <g id="line2d_28">
      <g>
       <use xlink:href="#m206e3baac1" x="802.985312" y="74.531696" style="fill: #262626; stroke: #262626; stroke-width: 1.25"/>
      </g>
     </g>
     <g id="text_24">
      <!-- 300 -->
      <g style="fill: #262626" transform="translate(812.485312 78.468493) scale(0.11 -0.11)">
       <use xlink:href="#ArialMT-33"/>
       <use xlink:href="#ArialMT-30" transform="translate(55.615234 0)"/>
       <use xlink:href="#ArialMT-30" transform="translate(111.230469 0)"/>
      </g>
     </g>
    </g>
    <g id="ytick_12">
     <g id="line2d_29">
      <g>
       <use xlink:href="#m206e3baac1" x="802.985312" y="32.771109" style="fill: #262626; stroke: #262626; stroke-width: 1.25"/>
      </g>
     </g>
     <g id="text_25">
      <!-- 400 -->
      <g style="fill: #262626" transform="translate(812.485312 36.707905) scale(0.11 -0.11)">
       <use xlink:href="#ArialMT-34"/>
       <use xlink:href="#ArialMT-30" transform="translate(55.615234 0)"/>
       <use xlink:href="#ArialMT-30" transform="translate(111.230469 0)"/>
      </g>
     </g>
    </g>
    <g id="text_26">
     <!-- German prices (€) -->
     <g style="fill: #262626" transform="translate(843.572031 169.392187) rotate(-90) scale(0.12 -0.12)">
      <use xlink:href="#ArialMT-47"/>
      <use xlink:href="#ArialMT-65" transform="translate(77.783203 0)"/>
      <use xlink:href="#ArialMT-72" transform="translate(133.398438 0)"/>
      <use xlink:href="#ArialMT-6d" transform="translate(166.699219 0)"/>
      <use xlink:href="#ArialMT-61" transform="translate(250 0)"/>
      <use xlink:href="#ArialMT-6e" transform="translate(305.615234 0)"/>
      <use xlink:href="#ArialMT-20" transform="translate(361.230469 0)"/>
      <use xlink:href="#ArialMT-70" transform="translate(389.013672 0)"/>
      <use xlink:href="#ArialMT-72" transform="translate(444.628906 0)"/>
      <use xlink:href="#ArialMT-69" transform="translate(477.929688 0)"/>
      <use xlink:href="#ArialMT-63" transform="translate(500.146484 0)"/>
      <use xlink:href="#ArialMT-65" transform="translate(550.146484 0)"/>
      <use xlink:href="#ArialMT-73" transform="translate(605.761719 0)"/>
      <use xlink:href="#ArialMT-20" transform="translate(655.761719 0)"/>
      <use xlink:href="#ArialMT-28" transform="translate(683.544922 0)"/>
      <use xlink:href="#ArialMT-20ac" transform="translate(716.845703 0)"/>
      <use xlink:href="#ArialMT-29" transform="translate(772.460938 0)"/>
     </g>
    </g>
   </g>
   <g id="FillBetweenPolyCollection_4">
    <defs>
     <path id="ma75b04a55d" d="M 78.685767 -259.084219 
L 78.685767 -80.651667 
L 89.13742 -77.6984 
L 99.589073 -90.618557 
L 110.040726 -102.978411 
L 120.492379 -102.98077 
L 130.944032 -103.648671 
L 141.395684 -106.138618 
L 151.847337 -98.035769 
L 162.29899 -94.662289 
L 172.750643 -52.084219 
L 183.202296 -105.374952 
L 193.653949 -105.431648 
L 204.105602 -104.457422 
L 214.557255 -91.563405 
L 225.008908 -91.249191 
L 235.46056 -103.141256 
L 245.912213 -103.742461 
L 256.363866 -102.839336 
L 266.815519 -101.500646 
L 277.267172 -99.011033 
L 287.718825 -100.845619 
L 298.170478 -99.277258 
L 308.622131 -94.844692 
L 319.073784 -97.659376 
L 329.525436 -96.223422 
L 339.977089 -94.019345 
L 350.428742 -95.32865 
L 360.880395 -92.475025 
L 371.332048 -93.937763 
L 381.783701 -91.629129 
L 392.235354 -90.184579 
L 402.687007 -89.252283 
L 413.13866 -87.419828 
L 423.590312 -90.574806 
L 434.041965 -87.195723 
L 444.493618 -86.928892 
L 454.945271 -85.761961 
L 465.396924 -85.271395 
L 475.848577 -84.471571 
L 486.30023 -78.743489 
L 496.751883 -79.463383 
L 507.203536 -75.465437 
L 517.655189 -79.118189 
L 528.106841 -73.144153 
L 538.558494 -70.502081 
L 549.010147 -72.419993 
L 559.4618 -68.09353 
L 569.913453 -73.850155 
L 580.365106 -74.520098 
L 590.816759 -66.870186 
L 601.268412 -67.708482 
L 611.720065 -69.090079 
L 622.171717 -68.966798 
L 632.62337 -70.746902 
L 643.075023 -69.53682 
L 653.526676 -70.62133 
L 663.978329 -69.406964 
L 674.429982 -71.377927 
L 684.881635 -70.245999 
L 695.333288 -68.182575 
L 705.784941 -68.728291 
L 716.236593 -58.884588 
L 726.688246 -72.575457 
L 737.139899 -76.155765 
L 747.591552 -69.89367 
L 758.043205 -77.27595 
L 768.494858 -70.418825 
L 768.494858 -72.841012 
L 768.494858 -72.841012 
L 758.043205 -77.27595 
L 747.591552 -78.928678 
L 737.139899 -79.158962 
L 726.688246 -76.372173 
L 716.236593 -58.884588 
L 705.784941 -79.188449 
L 695.333288 -91.449501 
L 684.881635 -88.495881 
L 674.429982 -77.001759 
L 663.978329 -85.655735 
L 653.526676 -84.790421 
L 643.075023 -92.073111 
L 632.62337 -92.050816 
L 622.171717 -87.359579 
L 611.720065 -94.235061 
L 601.268412 -99.157167 
L 590.816759 -97.984052 
L 580.365106 -100.265093 
L 569.913453 -100.122705 
L 559.4618 -96.625244 
L 549.010147 -100.454251 
L 538.558494 -100.377353 
L 528.106841 -103.525572 
L 517.655189 -103.880872 
L 507.203536 -106.544113 
L 496.751883 -106.874466 
L 486.30023 -105.721238 
L 475.848577 -109.67923 
L 465.396924 -109.918872 
L 454.945271 -112.237967 
L 444.493618 -113.698734 
L 434.041965 -114.948373 
L 423.590312 -115.956293 
L 413.13866 -115.474566 
L 402.687007 -114.706123 
L 392.235354 -115.442969 
L 381.783701 -118.691501 
L 371.332048 -117.739373 
L 360.880395 -118.188426 
L 350.428742 -120.24101 
L 339.977089 -120.551438 
L 329.525436 -120.460796 
L 319.073784 -119.911921 
L 308.622131 -126.500078 
L 298.170478 -123.465356 
L 287.718825 -123.167584 
L 277.267172 -128.506467 
L 266.815519 -125.820355 
L 256.363866 -127.276404 
L 245.912213 -126.32445 
L 235.46056 -127.951306 
L 225.008908 -147.951603 
L 214.557255 -148.036809 
L 204.105602 -134.052773 
L 193.653949 -132.037905 
L 183.202296 -134.69622 
L 172.750643 -205.77668 
L 162.29899 -153.263333 
L 151.847337 -154.67742 
L 141.395684 -142.231889 
L 130.944032 -150.697806 
L 120.492379 -146.997232 
L 110.040726 -157.027369 
L 99.589073 -201.620581 
L 89.13742 -225.61878 
L 78.685767 -259.084219 
z
" style="stroke: #74953d; stroke-opacity: 0.2"/>
    </defs>
    <g clip-path="url(#pe33105d43a)">
     <use xlink:href="#ma75b04a55d" x="0" y="276.634219" style="fill: #74953d; fill-opacity: 0.2; stroke: #74953d; stroke-opacity: 0.2"/>
    </g>
   </g>
   <g id="line2d_30">
    <path d="M 78.685767 106.766276 
L 89.13742 124.975629 
L 99.589073 130.51465 
L 110.040726 146.631329 
L 120.492379 151.645218 
L 130.944032 149.46098 
L 141.395684 152.448965 
L 151.847337 150.277625 
L 162.29899 152.671407 
L 172.750643 147.703769 
L 183.202296 156.598633 
L 193.653949 157.899443 
L 204.105602 157.379122 
L 214.557255 156.834112 
L 225.008908 157.033822 
L 235.46056 161.087938 
L 245.912213 161.600763 
L 256.363866 161.576349 
L 266.815519 162.973718 
L 277.267172 162.875469 
L 287.718825 164.627617 
L 298.170478 165.262912 
L 308.622131 165.961834 
L 319.073784 167.84857 
L 329.525436 168.29211 
L 339.977089 169.348827 
L 350.428742 168.849389 
L 360.880395 171.302493 
L 371.332048 170.795651 
L 381.783701 171.473903 
L 392.235354 173.820445 
L 402.687007 174.655016 
L 413.13866 175.187022 
L 423.590312 173.368669 
L 434.041965 175.562171 
L 444.493618 176.320406 
L 454.945271 177.634255 
L 465.396924 179.039085 
L 475.848577 179.558818 
L 486.30023 184.401855 
L 496.751883 183.465294 
L 507.203536 185.629444 
L 517.655189 185.134688 
L 528.106841 188.299356 
L 538.558494 191.194502 
L 549.010147 190.197097 
L 559.4618 194.274832 
L 569.913453 189.647789 
L 580.365106 189.241623 
L 590.816759 194.2071 
L 601.268412 193.201394 
L 611.720065 194.971648 
L 622.171717 198.47103 
L 632.62337 195.23536 
L 643.075023 195.829253 
L 653.526676 198.928343 
L 663.978329 199.102869 
L 674.429982 202.444376 
L 684.881635 197.263279 
L 695.333288 196.818181 
L 705.784941 202.675849 
L 716.236593 217.749631 
L 726.688246 202.160404 
L 737.139899 198.976855 
L 747.591552 202.223045 
L 758.043205 199.358268 
L 768.494858 205.0043 
" clip-path="url(#pe33105d43a)" style="fill: none; stroke: #74953d; stroke-width: 1.5; stroke-linecap: round"/>
   </g>
   <g id="patch_8">
    <path d="M 44.195313 234.9 
L 44.195313 7.2 
" style="fill: none; stroke: #262626; stroke-width: 1.25; stroke-linejoin: miter; stroke-linecap: square"/>
   </g>
   <g id="patch_9">
    <path d="M 802.985312 234.9 
L 802.985312 7.2 
" style="fill: none; stroke: #262626; stroke-width: 1.25; stroke-linejoin: miter; stroke-linecap: square"/>
   </g>
   <g id="patch_10">
    <path d="M 44.195313 234.9 
L 802.985312 234.9 
" style="fill: none; stroke: #262626; stroke-width: 1.25; stroke-linejoin: miter; stroke-linecap: square"/>
   </g>
   <g id="patch_11">
    <path d="M 44.195313 7.2 
L 802.985312 7.2 
" style="fill: none; stroke: #262626; stroke-width: 1.25; stroke-linejoin: miter; stroke-linecap: square"/>
   </g>
  </g>
 </g>
 <defs>
  <clipPath id="pe33105d43a">
   <rect x="44.195313" y="7.2" width="758.79" height="227.7"/>
  </clipPath>
 </defs>
</svg>
