<?xml version="1.0" encoding="utf-8" standalone="no"?>
<!DOCTYPE svg PUBLIC "-//W3C//DTD SVG 1.1//EN"
  "http://www.w3.org/Graphics/SVG/1.1/DTD/svg11.dtd">
<svg xmlns:xlink="http://www.w3.org/1999/xlink" width="853.387656pt" height="276.634219pt" viewBox="0 0 853.387656 276.634219" xmlns="http://www.w3.org/2000/svg" version="1.1">
 <metadata>
  <rdf:RDF xmlns:dc="http://purl.org/dc/elements/1.1/" xmlns:cc="http://creativecommons.org/ns#" xmlns:rdf="http://www.w3.org/1999/02/22-rdf-syntax-ns#">
   <cc:Work>
    <dc:type rdf:resource="http://purl.org/dc/dcmitype/StillImage"/>
    <dc:date>2025-07-06T15:54:24.314018</dc:date>
    <dc:format>image/svg+xml</dc:format>
    <dc:creator>
     <cc:Agent>
      <dc:title>Matplotlib v3.10.1, https://matplotlib.org/</dc:title>
     </cc:Agent>
    </dc:creator>
   </cc:Work>
  </rdf:RDF>
 </metadata>
 <defs>
  <style type="text/css">*{stroke-linejoin: round; stroke-linecap: butt}</style>
 </defs>
 <g id="figure_1">
  <g id="patch_1">
   <path d="M 0 276.634219 
L 853.387656 276.634219 
L 853.387656 0 
L 0 0 
z
" style="fill: #ffffff"/>
  </g>
  <g id="axes_1">
   <g id="patch_2">
    <path d="M 44.195313 234.9 
L 803.075312 234.9 
L 803.075312 7.2 
L 44.195313 7.2 
z
" style="fill: #ffffff"/>
   </g>
   <g id="matplotlib.axis_1">
    <g id="xtick_1">
     <g id="line2d_1">
      <defs>
       <path id="m86ef0d3296" d="M 0 0 
L 0 6 
" style="stroke: #262626; stroke-width: 1.25"/>
      </defs>
      <g>
       <use xlink:href="#m86ef0d3296" x="78.689858" y="234.9" style="fill: #262626; stroke: #262626; stroke-width: 1.25"/>
      </g>
     </g>
     <g id="text_1">
      <!-- 0 -->
      <g style="fill: #262626" transform="translate(75.631342 252.273594) scale(0.11 -0.11)">
       <defs>
        <path id="ArialMT-30" d="M 266 2259 
Q 266 3072 433 3567 
Q 600 4063 929 4331 
Q 1259 4600 1759 4600 
Q 2128 4600 2406 4451 
Q 2684 4303 2865 4023 
Q 3047 3744 3150 3342 
Q 3253 2941 3253 2259 
Q 3253 1453 3087 958 
Q 2922 463 2592 192 
Q 2263 -78 1759 -78 
Q 1097 -78 719 397 
Q 266 969 266 2259 
z
M 844 2259 
Q 844 1131 1108 757 
Q 1372 384 1759 384 
Q 2147 384 2411 759 
Q 2675 1134 2675 2259 
Q 2675 3391 2411 3762 
Q 2147 4134 1753 4134 
Q 1366 4134 1134 3806 
Q 844 3388 844 2259 
z
" transform="scale(0.015625)"/>
       </defs>
       <use xlink:href="#ArialMT-30"/>
      </g>
     </g>
    </g>
    <g id="xtick_2">
     <g id="line2d_2">
      <g>
       <use xlink:href="#m86ef0d3296" x="183.218784" y="234.9" style="fill: #262626; stroke: #262626; stroke-width: 1.25"/>
      </g>
     </g>
     <g id="text_2">
      <!-- 10000 -->
      <g style="fill: #262626" transform="translate(167.926205 252.273594) scale(0.11 -0.11)">
       <defs>
        <path id="ArialMT-31" d="M 2384 0 
L 1822 0 
L 1822 3584 
Q 1619 3391 1289 3197 
Q 959 3003 697 2906 
L 697 3450 
Q 1169 3672 1522 3987 
Q 1875 4303 2022 4600 
L 2384 4600 
L 2384 0 
z
" transform="scale(0.015625)"/>
       </defs>
       <use xlink:href="#ArialMT-31"/>
       <use xlink:href="#ArialMT-30" transform="translate(55.615234 0)"/>
       <use xlink:href="#ArialMT-30" transform="translate(111.230469 0)"/>
       <use xlink:href="#ArialMT-30" transform="translate(166.845703 0)"/>
       <use xlink:href="#ArialMT-30" transform="translate(222.460938 0)"/>
      </g>
     </g>
    </g>
    <g id="xtick_3">
     <g id="line2d_3">
      <g>
       <use xlink:href="#m86ef0d3296" x="287.747709" y="234.9" style="fill: #262626; stroke: #262626; stroke-width: 1.25"/>
      </g>
     </g>
     <g id="text_3">
      <!-- 20000 -->
      <g style="fill: #262626" transform="translate(272.455131 252.273594) scale(0.11 -0.11)">
       <defs>
        <path id="ArialMT-32" d="M 3222 541 
L 3222 0 
L 194 0 
Q 188 203 259 391 
Q 375 700 629 1000 
Q 884 1300 1366 1694 
Q 2113 2306 2375 2664 
Q 2638 3022 2638 3341 
Q 2638 3675 2398 3904 
Q 2159 4134 1775 4134 
Q 1369 4134 1125 3890 
Q 881 3647 878 3216 
L 300 3275 
Q 359 3922 746 4261 
Q 1134 4600 1788 4600 
Q 2447 4600 2831 4234 
Q 3216 3869 3216 3328 
Q 3216 3053 3103 2787 
Q 2991 2522 2730 2228 
Q 2469 1934 1863 1422 
Q 1356 997 1212 845 
Q 1069 694 975 541 
L 3222 541 
z
" transform="scale(0.015625)"/>
       </defs>
       <use xlink:href="#ArialMT-32"/>
       <use xlink:href="#ArialMT-30" transform="translate(55.615234 0)"/>
       <use xlink:href="#ArialMT-30" transform="translate(111.230469 0)"/>
       <use xlink:href="#ArialMT-30" transform="translate(166.845703 0)"/>
       <use xlink:href="#ArialMT-30" transform="translate(222.460938 0)"/>
      </g>
     </g>
    </g>
    <g id="xtick_4">
     <g id="line2d_4">
      <g>
       <use xlink:href="#m86ef0d3296" x="392.276635" y="234.9" style="fill: #262626; stroke: #262626; stroke-width: 1.25"/>
      </g>
     </g>
     <g id="text_4">
      <!-- 30000 -->
      <g style="fill: #262626" transform="translate(376.984057 252.273594) scale(0.11 -0.11)">
       <defs>
        <path id="ArialMT-33" d="M 269 1209 
L 831 1284 
Q 928 806 1161 595 
Q 1394 384 1728 384 
Q 2125 384 2398 659 
Q 2672 934 2672 1341 
Q 2672 1728 2419 1979 
Q 2166 2231 1775 2231 
Q 1616 2231 1378 2169 
L 1441 2663 
Q 1497 2656 1531 2656 
Q 1891 2656 2178 2843 
Q 2466 3031 2466 3422 
Q 2466 3731 2256 3934 
Q 2047 4138 1716 4138 
Q 1388 4138 1169 3931 
Q 950 3725 888 3313 
L 325 3413 
Q 428 3978 793 4289 
Q 1159 4600 1703 4600 
Q 2078 4600 2393 4439 
Q 2709 4278 2876 4000 
Q 3044 3722 3044 3409 
Q 3044 3113 2884 2869 
Q 2725 2625 2413 2481 
Q 2819 2388 3044 2092 
Q 3269 1797 3269 1353 
Q 3269 753 2831 336 
Q 2394 -81 1725 -81 
Q 1122 -81 723 278 
Q 325 638 269 1209 
z
" transform="scale(0.015625)"/>
       </defs>
       <use xlink:href="#ArialMT-33"/>
       <use xlink:href="#ArialMT-30" transform="translate(55.615234 0)"/>
       <use xlink:href="#ArialMT-30" transform="translate(111.230469 0)"/>
       <use xlink:href="#ArialMT-30" transform="translate(166.845703 0)"/>
       <use xlink:href="#ArialMT-30" transform="translate(222.460938 0)"/>
      </g>
     </g>
    </g>
    <g id="xtick_5">
     <g id="line2d_5">
      <g>
       <use xlink:href="#m86ef0d3296" x="496.80556" y="234.9" style="fill: #262626; stroke: #262626; stroke-width: 1.25"/>
      </g>
     </g>
     <g id="text_5">
      <!-- 40000 -->
      <g style="fill: #262626" transform="translate(481.512982 252.273594) scale(0.11 -0.11)">
       <defs>
        <path id="ArialMT-34" d="M 2069 0 
L 2069 1097 
L 81 1097 
L 81 1613 
L 2172 4581 
L 2631 4581 
L 2631 1613 
L 3250 1613 
L 3250 1097 
L 2631 1097 
L 2631 0 
L 2069 0 
z
M 2069 1613 
L 2069 3678 
L 634 1613 
L 2069 1613 
z
" transform="scale(0.015625)"/>
       </defs>
       <use xlink:href="#ArialMT-34"/>
       <use xlink:href="#ArialMT-30" transform="translate(55.615234 0)"/>
       <use xlink:href="#ArialMT-30" transform="translate(111.230469 0)"/>
       <use xlink:href="#ArialMT-30" transform="translate(166.845703 0)"/>
       <use xlink:href="#ArialMT-30" transform="translate(222.460938 0)"/>
      </g>
     </g>
    </g>
    <g id="xtick_6">
     <g id="line2d_6">
      <g>
       <use xlink:href="#m86ef0d3296" x="601.334486" y="234.9" style="fill: #262626; stroke: #262626; stroke-width: 1.25"/>
      </g>
     </g>
     <g id="text_6">
      <!-- 50000 -->
      <g style="fill: #262626" transform="translate(586.041908 252.273594) scale(0.11 -0.11)">
       <defs>
        <path id="ArialMT-35" d="M 266 1200 
L 856 1250 
Q 922 819 1161 601 
Q 1400 384 1738 384 
Q 2144 384 2425 690 
Q 2706 997 2706 1503 
Q 2706 1984 2436 2262 
Q 2166 2541 1728 2541 
Q 1456 2541 1237 2417 
Q 1019 2294 894 2097 
L 366 2166 
L 809 4519 
L 3088 4519 
L 3088 3981 
L 1259 3981 
L 1013 2750 
Q 1425 3038 1878 3038 
Q 2478 3038 2890 2622 
Q 3303 2206 3303 1553 
Q 3303 931 2941 478 
Q 2500 -78 1738 -78 
Q 1113 -78 717 272 
Q 322 622 266 1200 
z
" transform="scale(0.015625)"/>
       </defs>
       <use xlink:href="#ArialMT-35"/>
       <use xlink:href="#ArialMT-30" transform="translate(55.615234 0)"/>
       <use xlink:href="#ArialMT-30" transform="translate(111.230469 0)"/>
       <use xlink:href="#ArialMT-30" transform="translate(166.845703 0)"/>
       <use xlink:href="#ArialMT-30" transform="translate(222.460938 0)"/>
      </g>
     </g>
    </g>
    <g id="xtick_7">
     <g id="line2d_7">
      <g>
       <use xlink:href="#m86ef0d3296" x="705.863412" y="234.9" style="fill: #262626; stroke: #262626; stroke-width: 1.25"/>
      </g>
     </g>
     <g id="text_7">
      <!-- 60000 -->
      <g style="fill: #262626" transform="translate(690.570834 252.273594) scale(0.11 -0.11)">
       <defs>
        <path id="ArialMT-36" d="M 3184 3459 
L 2625 3416 
Q 2550 3747 2413 3897 
Q 2184 4138 1850 4138 
Q 1581 4138 1378 3988 
Q 1113 3794 959 3422 
Q 806 3050 800 2363 
Q 1003 2672 1297 2822 
Q 1591 2972 1913 2972 
Q 2475 2972 2870 2558 
Q 3266 2144 3266 1488 
Q 3266 1056 3080 686 
Q 2894 316 2569 119 
Q 2244 -78 1831 -78 
Q 1128 -78 684 439 
Q 241 956 241 2144 
Q 241 3472 731 4075 
Q 1159 4600 1884 4600 
Q 2425 4600 2770 4297 
Q 3116 3994 3184 3459 
z
M 888 1484 
Q 888 1194 1011 928 
Q 1134 663 1356 523 
Q 1578 384 1822 384 
Q 2178 384 2434 671 
Q 2691 959 2691 1453 
Q 2691 1928 2437 2201 
Q 2184 2475 1800 2475 
Q 1419 2475 1153 2201 
Q 888 1928 888 1484 
z
" transform="scale(0.015625)"/>
       </defs>
       <use xlink:href="#ArialMT-36"/>
       <use xlink:href="#ArialMT-30" transform="translate(55.615234 0)"/>
       <use xlink:href="#ArialMT-30" transform="translate(111.230469 0)"/>
       <use xlink:href="#ArialMT-30" transform="translate(166.845703 0)"/>
       <use xlink:href="#ArialMT-30" transform="translate(222.460938 0)"/>
      </g>
     </g>
    </g>
    <g id="text_8">
     <!-- VRE load -->
     <g style="fill: #262626" transform="translate(398.288125 267.049219) scale(0.12 -0.12)">
      <defs>
       <path id="ArialMT-56" d="M 1803 0 
L 28 4581 
L 684 4581 
L 1875 1253 
Q 2019 853 2116 503 
Q 2222 878 2363 1253 
L 3600 4581 
L 4219 4581 
L 2425 0 
L 1803 0 
z
" transform="scale(0.015625)"/>
       <path id="ArialMT-52" d="M 503 0 
L 503 4581 
L 2534 4581 
Q 3147 4581 3465 4457 
Q 3784 4334 3975 4021 
Q 4166 3709 4166 3331 
Q 4166 2844 3850 2509 
Q 3534 2175 2875 2084 
Q 3116 1969 3241 1856 
Q 3506 1613 3744 1247 
L 4541 0 
L 3778 0 
L 3172 953 
Q 2906 1366 2734 1584 
Q 2563 1803 2427 1890 
Q 2291 1978 2150 2013 
Q 2047 2034 1813 2034 
L 1109 2034 
L 1109 0 
L 503 0 
z
M 1109 2559 
L 2413 2559 
Q 2828 2559 3062 2645 
Q 3297 2731 3419 2920 
Q 3541 3109 3541 3331 
Q 3541 3656 3305 3865 
Q 3069 4075 2559 4075 
L 1109 4075 
L 1109 2559 
z
" transform="scale(0.015625)"/>
       <path id="ArialMT-45" d="M 506 0 
L 506 4581 
L 3819 4581 
L 3819 4041 
L 1113 4041 
L 1113 2638 
L 3647 2638 
L 3647 2100 
L 1113 2100 
L 1113 541 
L 3925 541 
L 3925 0 
L 506 0 
z
" transform="scale(0.015625)"/>
       <path id="ArialMT-20" transform="scale(0.015625)"/>
       <path id="ArialMT-6c" d="M 409 0 
L 409 4581 
L 972 4581 
L 972 0 
L 409 0 
z
" transform="scale(0.015625)"/>
       <path id="ArialMT-6f" d="M 213 1659 
Q 213 2581 725 3025 
Q 1153 3394 1769 3394 
Q 2453 3394 2887 2945 
Q 3322 2497 3322 1706 
Q 3322 1066 3130 698 
Q 2938 331 2570 128 
Q 2203 -75 1769 -75 
Q 1072 -75 642 372 
Q 213 819 213 1659 
z
M 791 1659 
Q 791 1022 1069 705 
Q 1347 388 1769 388 
Q 2188 388 2466 706 
Q 2744 1025 2744 1678 
Q 2744 2294 2464 2611 
Q 2184 2928 1769 2928 
Q 1347 2928 1069 2612 
Q 791 2297 791 1659 
z
" transform="scale(0.015625)"/>
       <path id="ArialMT-61" d="M 2588 409 
Q 2275 144 1986 34 
Q 1697 -75 1366 -75 
Q 819 -75 525 192 
Q 231 459 231 875 
Q 231 1119 342 1320 
Q 453 1522 633 1644 
Q 813 1766 1038 1828 
Q 1203 1872 1538 1913 
Q 2219 1994 2541 2106 
Q 2544 2222 2544 2253 
Q 2544 2597 2384 2738 
Q 2169 2928 1744 2928 
Q 1347 2928 1158 2789 
Q 969 2650 878 2297 
L 328 2372 
Q 403 2725 575 2942 
Q 747 3159 1072 3276 
Q 1397 3394 1825 3394 
Q 2250 3394 2515 3294 
Q 2781 3194 2906 3042 
Q 3031 2891 3081 2659 
Q 3109 2516 3109 2141 
L 3109 1391 
Q 3109 606 3145 398 
Q 3181 191 3288 0 
L 2700 0 
Q 2613 175 2588 409 
z
M 2541 1666 
Q 2234 1541 1622 1453 
Q 1275 1403 1131 1340 
Q 988 1278 909 1158 
Q 831 1038 831 891 
Q 831 666 1001 516 
Q 1172 366 1500 366 
Q 1825 366 2078 508 
Q 2331 650 2450 897 
Q 2541 1088 2541 1459 
L 2541 1666 
z
" transform="scale(0.015625)"/>
       <path id="ArialMT-64" d="M 2575 0 
L 2575 419 
Q 2259 -75 1647 -75 
Q 1250 -75 917 144 
Q 584 363 401 755 
Q 219 1147 219 1656 
Q 219 2153 384 2558 
Q 550 2963 881 3178 
Q 1213 3394 1622 3394 
Q 1922 3394 2156 3267 
Q 2391 3141 2538 2938 
L 2538 4581 
L 3097 4581 
L 3097 0 
L 2575 0 
z
M 797 1656 
Q 797 1019 1065 703 
Q 1334 388 1700 388 
Q 2069 388 2326 689 
Q 2584 991 2584 1609 
Q 2584 2291 2321 2609 
Q 2059 2928 1675 2928 
Q 1300 2928 1048 2622 
Q 797 2316 797 1656 
z
" transform="scale(0.015625)"/>
      </defs>
      <use xlink:href="#ArialMT-56"/>
      <use xlink:href="#ArialMT-52" transform="translate(66.699219 0)"/>
      <use xlink:href="#ArialMT-45" transform="translate(138.916016 0)"/>
      <use xlink:href="#ArialMT-20" transform="translate(205.615234 0)"/>
      <use xlink:href="#ArialMT-6c" transform="translate(233.398438 0)"/>
      <use xlink:href="#ArialMT-6f" transform="translate(255.615234 0)"/>
      <use xlink:href="#ArialMT-61" transform="translate(311.230469 0)"/>
      <use xlink:href="#ArialMT-64" transform="translate(366.845703 0)"/>
     </g>
    </g>
   </g>
   <g id="matplotlib.axis_2">
    <g id="ytick_1">
     <g id="line2d_8">
      <defs>
       <path id="m5fe67fe9b9" d="M 0 0 
L -6 0 
" style="stroke: #262626; stroke-width: 1.25"/>
      </defs>
      <g>
       <use xlink:href="#m5fe67fe9b9" x="44.195313" y="218.646427" style="fill: #262626; stroke: #262626; stroke-width: 1.25"/>
      </g>
     </g>
     <g id="text_9">
      <!-- 10 -->
      <g style="fill: #262626" transform="translate(22.46125 222.583224) scale(0.11 -0.11)">
       <use xlink:href="#ArialMT-31"/>
       <use xlink:href="#ArialMT-30" transform="translate(55.615234 0)"/>
      </g>
     </g>
    </g>
    <g id="ytick_2">
     <g id="line2d_9">
      <g>
       <use xlink:href="#m5fe67fe9b9" x="44.195313" y="176.323901" style="fill: #262626; stroke: #262626; stroke-width: 1.25"/>
      </g>
     </g>
     <g id="text_10">
      <!-- 20 -->
      <g style="fill: #262626" transform="translate(22.46125 180.260698) scale(0.11 -0.11)">
       <use xlink:href="#ArialMT-32"/>
       <use xlink:href="#ArialMT-30" transform="translate(55.615234 0)"/>
      </g>
     </g>
    </g>
    <g id="ytick_3">
     <g id="line2d_10">
      <g>
       <use xlink:href="#m5fe67fe9b9" x="44.195313" y="134.001375" style="fill: #262626; stroke: #262626; stroke-width: 1.25"/>
      </g>
     </g>
     <g id="text_11">
      <!-- 30 -->
      <g style="fill: #262626" transform="translate(22.46125 137.938172) scale(0.11 -0.11)">
       <use xlink:href="#ArialMT-33"/>
       <use xlink:href="#ArialMT-30" transform="translate(55.615234 0)"/>
      </g>
     </g>
    </g>
    <g id="ytick_4">
     <g id="line2d_11">
      <g>
       <use xlink:href="#m5fe67fe9b9" x="44.195313" y="91.678848" style="fill: #262626; stroke: #262626; stroke-width: 1.25"/>
      </g>
     </g>
     <g id="text_12">
      <!-- 40 -->
      <g style="fill: #262626" transform="translate(22.46125 95.615645) scale(0.11 -0.11)">
       <use xlink:href="#ArialMT-34"/>
       <use xlink:href="#ArialMT-30" transform="translate(55.615234 0)"/>
      </g>
     </g>
    </g>
    <g id="ytick_5">
     <g id="line2d_12">
      <g>
       <use xlink:href="#m5fe67fe9b9" x="44.195313" y="49.356322" style="fill: #262626; stroke: #262626; stroke-width: 1.25"/>
      </g>
     </g>
     <g id="text_13">
      <!-- 50 -->
      <g style="fill: #262626" transform="translate(22.46125 53.293119) scale(0.11 -0.11)">
       <use xlink:href="#ArialMT-35"/>
       <use xlink:href="#ArialMT-30" transform="translate(55.615234 0)"/>
      </g>
     </g>
    </g>
    <g id="text_14">
     <!-- MAE (€/MWh) -->
     <g style="fill: #262626" transform="translate(15.935625 158.715938) rotate(-90) scale(0.12 -0.12)">
      <defs>
       <path id="ArialMT-4d" d="M 475 0 
L 475 4581 
L 1388 4581 
L 2472 1338 
Q 2622 884 2691 659 
Q 2769 909 2934 1394 
L 4031 4581 
L 4847 4581 
L 4847 0 
L 4263 0 
L 4263 3834 
L 2931 0 
L 2384 0 
L 1059 3900 
L 1059 0 
L 475 0 
z
" transform="scale(0.015625)"/>
       <path id="ArialMT-41" d="M -9 0 
L 1750 4581 
L 2403 4581 
L 4278 0 
L 3588 0 
L 3053 1388 
L 1138 1388 
L 634 0 
L -9 0 
z
M 1313 1881 
L 2866 1881 
L 2388 3150 
Q 2169 3728 2063 4100 
Q 1975 3659 1816 3225 
L 1313 1881 
z
" transform="scale(0.015625)"/>
       <path id="ArialMT-28" d="M 1497 -1347 
Q 1031 -759 709 28 
Q 388 816 388 1659 
Q 388 2403 628 3084 
Q 909 3875 1497 4659 
L 1900 4659 
Q 1522 4009 1400 3731 
Q 1209 3300 1100 2831 
Q 966 2247 966 1656 
Q 966 153 1900 -1347 
L 1497 -1347 
z
" transform="scale(0.015625)"/>
       <path id="ArialMT-20ac" d="M 2469 4141 
Q 1944 4141 1588 3888 
Q 1375 3738 1203 3463 
Q 1028 3178 997 2922 
L 3128 2922 
L 3044 2503 
L 947 2503 
Q 944 2438 944 2378 
Q 944 2138 947 2091 
L 2959 2091 
L 2872 1672 
L 1013 1672 
Q 1144 956 1644 656 
Q 2003 441 2422 441 
Q 3006 441 3334 747 
L 3334 103 
Q 2944 -78 2472 -78 
Q 1059 -78 563 1097 
Q 463 1334 391 1672 
L -88 1672 
L 0 2091 
L 328 2091 
Q 319 2222 319 2375 
Q 319 2438 322 2503 
L -88 2503 
L 0 2922 
L 363 2922 
Q 556 3941 1372 4384 
Q 1875 4659 2481 4659 
Q 3063 4659 3459 4406 
L 3334 3825 
Q 2953 4141 2469 4141 
z
" transform="scale(0.015625)"/>
       <path id="ArialMT-2f" d="M 0 -78 
L 1328 4659 
L 1778 4659 
L 453 -78 
L 0 -78 
z
" transform="scale(0.015625)"/>
       <path id="ArialMT-57" d="M 1294 0 
L 78 4581 
L 700 4581 
L 1397 1578 
Q 1509 1106 1591 641 
Q 1766 1375 1797 1488 
L 2669 4581 
L 3400 4581 
L 4056 2263 
Q 4303 1400 4413 641 
Q 4500 1075 4641 1638 
L 5359 4581 
L 5969 4581 
L 4713 0 
L 4128 0 
L 3163 3491 
Q 3041 3928 3019 4028 
Q 2947 3713 2884 3491 
L 1913 0 
L 1294 0 
z
" transform="scale(0.015625)"/>
       <path id="ArialMT-68" d="M 422 0 
L 422 4581 
L 984 4581 
L 984 2938 
Q 1378 3394 1978 3394 
Q 2347 3394 2619 3248 
Q 2891 3103 3008 2847 
Q 3125 2591 3125 2103 
L 3125 0 
L 2563 0 
L 2563 2103 
Q 2563 2525 2380 2717 
Q 2197 2909 1863 2909 
Q 1613 2909 1392 2779 
Q 1172 2650 1078 2428 
Q 984 2206 984 1816 
L 984 0 
L 422 0 
z
" transform="scale(0.015625)"/>
       <path id="ArialMT-29" d="M 791 -1347 
L 388 -1347 
Q 1322 153 1322 1656 
Q 1322 2244 1188 2822 
Q 1081 3291 891 3722 
Q 769 4003 388 4659 
L 791 4659 
Q 1378 3875 1659 3084 
Q 1900 2403 1900 1659 
Q 1900 816 1576 28 
Q 1253 -759 791 -1347 
z
" transform="scale(0.015625)"/>
      </defs>
      <use xlink:href="#ArialMT-4d"/>
      <use xlink:href="#ArialMT-41" transform="translate(83.300781 0)"/>
      <use xlink:href="#ArialMT-45" transform="translate(150 0)"/>
      <use xlink:href="#ArialMT-20" transform="translate(216.699219 0)"/>
      <use xlink:href="#ArialMT-28" transform="translate(244.482422 0)"/>
      <use xlink:href="#ArialMT-20ac" transform="translate(277.783203 0)"/>
      <use xlink:href="#ArialMT-2f" transform="translate(333.398438 0)"/>
      <use xlink:href="#ArialMT-4d" transform="translate(361.181641 0)"/>
      <use xlink:href="#ArialMT-57" transform="translate(444.482422 0)"/>
      <use xlink:href="#ArialMT-68" transform="translate(538.867188 0)"/>
      <use xlink:href="#ArialMT-29" transform="translate(594.482422 0)"/>
     </g>
    </g>
   </g>
   <g id="FillBetweenPolyCollection_1">
    <defs>
     <path id="mb434b96e7d" d="M 78.689858 -251.128127 
L 78.689858 -183.370857 
L 89.142751 -208.908951 
L 99.595643 -234.996747 
L 110.048536 -190.036867 
L 120.501428 -136.575702 
L 130.954321 -155.073177 
L 141.407213 -153.891664 
L 151.860106 -153.771112 
L 162.312998 -153.38438 
L 172.765891 -156.736957 
L 183.218784 -150.463257 
L 193.671676 -153.960873 
L 204.124569 -160.132047 
L 214.577461 -178.382717 
L 225.030354 -168.719459 
L 235.483246 -157.777382 
L 245.936139 -155.004205 
L 256.389032 -166.895696 
L 266.841924 -152.565208 
L 277.294817 -158.311536 
L 287.747709 -162.809857 
L 298.200602 -154.554392 
L 308.653494 -159.183674 
L 319.106387 -161.778626 
L 329.559279 -154.218429 
L 340.012172 -156.825366 
L 350.465065 -153.953826 
L 360.917957 -151.252499 
L 371.37085 -145.829709 
L 381.823742 -153.445308 
L 392.276635 -164.200904 
L 402.729527 -169.223822 
L 413.18242 -157.303503 
L 423.635312 -157.507525 
L 434.088205 -150.514056 
L 444.541098 -149.352826 
L 454.99399 -150.284504 
L 465.446883 -152.425873 
L 475.899775 -151.214124 
L 486.352668 -153.15363 
L 496.80556 -156.312039 
L 507.258453 -151.822339 
L 517.711346 -147.12261 
L 528.164238 -150.93846 
L 538.617131 -163.700585 
L 549.070023 -163.064013 
L 559.522916 -155.966185 
L 569.975808 -148.366623 
L 580.428701 -157.284916 
L 590.881593 -161.927179 
L 601.334486 -154.523811 
L 611.787379 -151.253777 
L 622.240271 -168.448321 
L 632.693164 -133.488648 
L 643.146056 -134.033294 
L 653.598949 -137.655336 
L 664.051841 -136.205576 
L 674.504734 -98.437522 
L 684.957627 -127.926614 
L 695.410519 -128.232098 
L 705.863412 -122.889874 
L 716.316304 -175.966328 
L 726.769197 -87.60584 
L 737.222089 -70.497905 
L 747.674982 -89.650273 
L 758.127874 -59.623115 
L 768.580767 -119.707966 
L 768.580767 -167.230018 
L 768.580767 -167.230018 
L 758.127874 -99.01349 
L 747.674982 -130.214552 
L 737.222089 -87.960815 
L 726.769197 -124.157339 
L 716.316304 -247.883822 
L 705.863412 -148.62667 
L 695.410519 -153.96002 
L 684.957627 -149.475006 
L 674.504734 -133.600103 
L 664.051841 -153.250326 
L 653.598949 -155.420333 
L 643.146056 -151.330405 
L 632.693164 -151.224838 
L 622.240271 -234.319864 
L 611.787379 -196.519248 
L 601.334486 -188.90232 
L 590.881593 -194.158899 
L 580.428701 -178.07712 
L 569.975808 -166.095451 
L 559.522916 -175.3006 
L 549.070023 -180.826907 
L 538.617131 -180.539424 
L 528.164238 -165.572333 
L 517.711346 -155.165621 
L 507.258453 -164.678983 
L 496.80556 -163.221478 
L 486.352668 -167.129168 
L 475.899775 -167.352916 
L 465.446883 -164.809705 
L 454.99399 -156.960755 
L 444.541098 -159.237774 
L 434.088205 -156.117372 
L 423.635312 -164.056882 
L 413.18242 -164.572285 
L 402.729527 -175.860469 
L 392.276635 -178.049821 
L 381.823742 -165.846811 
L 371.37085 -152.168234 
L 360.917957 -158.58667 
L 350.465065 -159.80317 
L 340.012172 -163.149595 
L 329.559279 -160.225159 
L 319.106387 -167.358597 
L 308.653494 -168.739099 
L 298.200602 -160.870977 
L 287.747709 -175.007547 
L 277.294817 -167.472453 
L 266.841924 -159.198989 
L 256.389032 -173.434887 
L 245.936139 -160.628272 
L 235.483246 -163.708337 
L 225.030354 -183.665775 
L 214.577461 -196.451116 
L 204.124569 -173.949214 
L 193.671676 -160.248254 
L 183.218784 -160.055035 
L 172.765891 -169.588634 
L 162.312998 -166.069702 
L 151.860106 -165.664914 
L 141.407213 -162.672247 
L 130.954321 -164.824633 
L 120.501428 -143.026809 
L 110.048536 -203.305133 
L 99.595643 -259.084219 
L 89.142751 -250.740034 
L 78.689858 -251.128127 
z
" style="stroke: #840853; stroke-opacity: 0.2"/>
    </defs>
    <g clip-path="url(#p2c4394a075)">
     <use xlink:href="#mb434b96e7d" x="0" y="276.634219" style="fill: #840853; fill-opacity: 0.2; stroke: #840853; stroke-opacity: 0.2"/>
    </g>
   </g>
   <g id="FillBetweenPolyCollection_2">
    <defs>
     <path id="m14112c7610" d="M 78.689858 -218.419334 
L 78.689858 -153.782196 
L 89.142751 -202.101769 
L 99.595643 -227.481715 
L 110.048536 -185.449252 
L 120.501428 -140.229711 
L 130.954321 -151.972237 
L 141.407213 -150.96499 
L 151.860106 -149.356448 
L 162.312998 -148.778953 
L 172.765891 -152.123529 
L 183.218784 -146.285778 
L 193.671676 -143.632596 
L 204.124569 -155.011186 
L 214.577461 -166.939566 
L 225.030354 -159.245841 
L 235.483246 -148.188691 
L 245.936139 -145.272469 
L 256.389032 -151.190391 
L 266.841924 -141.151202 
L 277.294817 -144.761874 
L 287.747709 -151.088098 
L 298.200602 -141.859614 
L 308.653494 -146.297467 
L 319.106387 -145.196991 
L 329.559279 -143.122132 
L 340.012172 -144.648682 
L 350.465065 -140.143092 
L 360.917957 -138.955034 
L 371.37085 -137.466925 
L 381.823742 -140.077181 
L 392.276635 -147.63535 
L 402.729527 -154.706806 
L 413.18242 -143.599494 
L 423.635312 -141.083798 
L 434.088205 -136.252876 
L 444.541098 -136.235742 
L 454.99399 -135.82353 
L 465.446883 -141.621207 
L 475.899775 -140.961452 
L 486.352668 -140.577063 
L 496.80556 -142.777014 
L 507.258453 -143.075586 
L 517.711346 -137.180324 
L 528.164238 -139.039214 
L 538.617131 -150.098043 
L 549.070023 -147.200427 
L 559.522916 -142.619828 
L 569.975808 -131.778528 
L 580.428701 -142.984808 
L 590.881593 -147.334266 
L 601.334486 -141.64613 
L 611.787379 -144.81187 
L 622.240271 -164.418907 
L 632.693164 -129.211138 
L 643.146056 -126.871524 
L 653.598949 -125.204629 
L 664.051841 -127.106414 
L 674.504734 -95.953011 
L 684.957627 -125.372427 
L 695.410519 -125.591072 
L 705.863412 -112.168647 
L 716.316304 -135.087362 
L 726.769197 -76.900979 
L 737.222089 -62.800568 
L 747.674982 -99.00217 
L 758.127874 -73.407894 
L 768.580767 -114.595681 
L 768.580767 -163.655278 
L 768.580767 -163.655278 
L 758.127874 -118.44898 
L 747.674982 -136.343467 
L 737.222089 -81.697853 
L 726.769197 -113.983697 
L 716.316304 -200.505402 
L 705.863412 -137.075288 
L 695.410519 -150.676706 
L 684.957627 -146.914276 
L 674.504734 -138.564242 
L 664.051841 -142.99044 
L 653.598949 -141.394371 
L 643.146056 -143.613517 
L 632.693164 -146.244946 
L 622.240271 -231.479206 
L 611.787379 -190.005425 
L 601.334486 -176.431674 
L 590.881593 -182.08098 
L 580.428701 -164.357189 
L 569.975808 -148.714668 
L 559.522916 -162.19112 
L 549.070023 -164.718452 
L 538.617131 -166.908031 
L 528.164238 -154.025259 
L 517.711346 -145.368145 
L 507.258453 -155.995156 
L 496.80556 -149.556003 
L 486.352668 -154.512767 
L 475.899775 -158.161522 
L 465.446883 -155.143628 
L 454.99399 -142.216224 
L 444.541098 -145.654121 
L 434.088205 -141.813464 
L 423.635312 -147.25959 
L 413.18242 -150.215372 
L 402.729527 -161.789717 
L 392.276635 -161.852223 
L 381.823742 -152.529082 
L 371.37085 -143.743606 
L 360.917957 -145.829057 
L 350.465065 -145.8336 
L 340.012172 -150.322384 
L 329.559279 -148.550253 
L 319.106387 -150.361221 
L 308.653494 -155.557774 
L 298.200602 -147.392474 
L 287.747709 -164.883774 
L 277.294817 -152.886671 
L 266.841924 -147.258289 
L 256.389032 -157.171709 
L 245.936139 -150.21317 
L 235.483246 -153.396491 
L 225.030354 -174.47251 
L 214.577461 -185.413559 
L 204.124569 -168.903115 
L 193.671676 -149.78706 
L 183.218784 -156.413057 
L 172.765891 -164.520815 
L 162.312998 -160.684826 
L 151.860106 -161.159689 
L 141.407213 -160.229508 
L 130.954321 -161.657181 
L 120.501428 -146.291748 
L 110.048536 -197.577598 
L 99.595643 -250.292124 
L 89.142751 -240.174653 
L 78.689858 -218.419334 
z
" style="stroke: #3a609c; stroke-opacity: 0.2"/>
    </defs>
    <g clip-path="url(#p2c4394a075)">
     <use xlink:href="#m14112c7610" x="0" y="276.634219" style="fill: #3a609c; fill-opacity: 0.2; stroke: #3a609c; stroke-opacity: 0.2"/>
    </g>
   </g>
   <g id="FillBetweenPolyCollection_3">
    <defs>
     <path id="m5caa209bb2" d="M 78.689858 -256.305201 
L 78.689858 -189.761072 
L 89.142751 -206.492299 
L 99.595643 -231.8012 
L 110.048536 -174.825344 
L 120.501428 -127.863813 
L 130.954321 -137.722035 
L 141.407213 -134.780219 
L 151.860106 -128.297778 
L 162.312998 -131.910319 
L 172.765891 -135.300137 
L 183.218784 -126.377067 
L 193.671676 -118.112624 
L 204.124569 -130.496602 
L 214.577461 -134.431513 
L 225.030354 -131.297214 
L 235.483246 -116.206789 
L 245.936139 -114.712561 
L 256.389032 -118.821568 
L 266.841924 -114.777308 
L 277.294817 -112.265985 
L 287.747709 -117.878384 
L 298.200602 -109.608396 
L 308.653494 -113.879255 
L 319.106387 -102.725354 
L 329.559279 -110.54607 
L 340.012172 -115.989116 
L 350.465065 -111.224556 
L 360.917957 -118.211313 
L 371.37085 -114.93033 
L 381.823742 -122.482932 
L 392.276635 -123.06295 
L 402.729527 -128.851335 
L 413.18242 -117.455506 
L 423.635312 -114.346313 
L 434.088205 -111.370018 
L 444.541098 -115.555809 
L 454.99399 -117.018621 
L 465.446883 -125.678453 
L 475.899775 -123.041248 
L 486.352668 -130.32218 
L 496.80556 -121.794666 
L 507.258453 -128.322885 
L 517.711346 -120.413919 
L 528.164238 -127.012678 
L 538.617131 -137.745781 
L 549.070023 -125.311308 
L 559.522916 -125.787731 
L 569.975808 -112.582942 
L 580.428701 -121.036393 
L 590.881593 -122.13015 
L 601.334486 -127.389928 
L 611.787379 -122.939751 
L 622.240271 -136.371606 
L 632.693164 -110.617536 
L 643.146056 -117.893876 
L 653.598949 -115.756618 
L 664.051841 -106.50453 
L 674.504734 -98.771953 
L 684.957627 -110.064323 
L 695.410519 -111.264743 
L 705.863412 -121.592985 
L 716.316304 -118.971804 
L 726.769197 -123.553052 
L 737.222089 -115.309138 
L 747.674982 -80.950768 
L 758.127874 -52.084219 
L 768.580767 -111.032321 
L 768.580767 -160.480129 
L 768.580767 -160.480129 
L 758.127874 -83.771856 
L 747.674982 -118.273366 
L 737.222089 -150.066919 
L 726.769197 -164.246784 
L 716.316304 -211.045073 
L 705.863412 -147.01049 
L 695.410519 -139.521972 
L 684.957627 -129.949098 
L 674.504734 -140.384854 
L 664.051841 -121.787454 
L 653.598949 -133.32833 
L 643.146056 -137.088022 
L 632.693164 -126.003013 
L 622.240271 -209.024066 
L 611.787379 -166.960483 
L 601.334486 -163.262882 
L 590.881593 -152.361059 
L 580.428701 -143.250828 
L 569.975808 -129.132515 
L 559.522916 -145.342727 
L 549.070023 -142.442044 
L 538.617131 -155.367948 
L 528.164238 -141.87672 
L 517.711346 -128.810621 
L 507.258453 -141.0554 
L 496.80556 -128.30252 
L 486.352668 -144.914498 
L 475.899775 -139.8251 
L 465.446883 -138.903005 
L 454.99399 -123.873765 
L 444.541098 -125.228801 
L 434.088205 -117.042504 
L 423.635312 -120.074191 
L 413.18242 -124.109729 
L 402.729527 -136.087597 
L 392.276635 -136.752886 
L 381.823742 -134.2228 
L 371.37085 -120.646761 
L 360.917957 -125.372806 
L 350.465065 -116.410494 
L 340.012172 -121.89269 
L 329.559279 -115.655286 
L 319.106387 -107.26146 
L 308.653494 -122.605967 
L 298.200602 -114.802271 
L 287.747709 -130.708932 
L 277.294817 -120.560788 
L 266.841924 -120.395853 
L 256.389032 -124.3483 
L 245.936139 -119.709593 
L 235.483246 -121.466625 
L 225.030354 -147.307106 
L 214.577461 -152.606176 
L 204.124569 -144.834282 
L 193.671676 -123.92786 
L 183.218784 -136.343396 
L 172.765891 -147.749217 
L 162.312998 -144.568953 
L 151.860106 -139.411731 
L 141.407213 -143.540401 
L 130.954321 -148.019686 
L 120.501428 -133.808839 
L 110.048536 -187.801157 
L 99.595643 -255.361806 
L 89.142751 -247.810662 
L 78.689858 -256.305201 
z
" style="stroke: #ffb14e; stroke-opacity: 0.2"/>
    </defs>
    <g clip-path="url(#p2c4394a075)">
     <use xlink:href="#m5caa209bb2" x="0" y="276.634219" style="fill: #ffb14e; fill-opacity: 0.2; stroke: #ffb14e; stroke-opacity: 0.2"/>
    </g>
   </g>
   <g id="line2d_13">
    <path d="M 78.689858 62.449184 
L 89.142751 47.146196 
L 99.595643 29.940053 
L 110.048536 80.056866 
L 120.501428 136.935742 
L 130.954321 116.599423 
L 141.407213 118.323976 
L 151.860106 117.489176 
L 162.312998 117.071606 
L 172.765891 114.168872 
L 183.218784 121.618576 
L 193.671676 119.711423 
L 204.124569 109.666299 
L 214.577461 89.382583 
L 225.030354 101.251702 
L 235.483246 115.842991 
L 245.936139 118.736125 
L 256.389032 106.63012 
L 266.841924 120.757919 
L 277.294817 114.162216 
L 287.747709 108.197166 
L 298.200602 118.901153 
L 308.653494 113.134729 
L 319.106387 112.190598 
L 329.559279 119.376108 
L 340.012172 116.683903 
L 350.465065 119.879386 
L 360.917957 121.984219 
L 371.37085 127.789536 
L 381.823742 117.410229 
L 392.276635 106.05624 
L 402.729527 104.237104 
L 413.18242 115.907296 
L 423.635312 115.740515 
L 434.088205 123.199296 
L 444.541098 123.0059 
L 454.99399 123.092505 
L 465.446883 118.272997 
L 475.899775 118.562906 
L 486.352668 117.319555 
L 496.80556 116.838352 
L 507.258453 119.132209 
L 517.711346 125.705484 
L 528.164238 119.00997 
L 538.617131 105.286133 
L 549.070023 105.591601 
L 559.522916 112.683497 
L 569.975808 120.436131 
L 580.428701 109.775141 
L 590.881593 101.000612 
L 601.334486 108.194845 
L 611.787379 106.320561 
L 622.240271 80.005115 
L 632.693164 134.580815 
L 643.146056 134.388072 
L 653.598949 130.372758 
L 664.051841 132.630703 
L 674.504734 161.195547 
L 684.957627 137.957448 
L 695.410519 135.631358 
L 705.863412 141.215235 
L 716.316304 66.66931 
L 726.769197 171.305182 
L 737.222089 197.449015 
L 747.674982 168.270574 
L 758.127874 198.199502 
L 768.580767 133.416156 
" clip-path="url(#p2c4394a075)" style="fill: none; stroke: #840853; stroke-width: 1.5; stroke-linecap: round"/>
   </g>
   <g id="line2d_14">
    <path d="M 78.689858 92.49784 
L 89.142751 55.324769 
L 99.595643 38.099009 
L 110.048536 85.021955 
L 120.501428 133.429387 
L 130.954321 119.977892 
L 141.407213 121.065463 
L 151.860106 121.522061 
L 162.312998 122.23429 
L 172.765891 118.656447 
L 183.218784 125.899995 
L 193.671676 129.963084 
L 204.124569 115.244971 
L 214.577461 100.808952 
L 225.030354 110.104242 
L 235.483246 125.778075 
L 245.936139 129.10636 
L 256.389032 122.569555 
L 266.841924 132.629606 
L 277.294817 128.065461 
L 287.747709 119.381311 
L 298.200602 132.040857 
L 308.653494 126.108979 
L 319.106387 128.749717 
L 329.559279 130.882624 
L 340.012172 129.228041 
L 350.465065 133.667721 
L 360.917957 134.42192 
L 371.37085 136.311653 
L 381.823742 130.628768 
L 392.276635 122.575821 
L 402.729527 118.405597 
L 413.18242 129.744411 
L 423.635312 132.492783 
L 434.088205 137.592751 
L 444.541098 136.128345 
L 454.99399 137.88432 
L 465.446883 128.869239 
L 475.899775 128.219525 
L 486.352668 129.736931 
L 496.80556 130.447129 
L 507.258453 127.767609 
L 517.711346 135.450616 
L 528.164238 131.018871 
L 538.617131 119.047271 
L 549.070023 121.533149 
L 559.522916 125.474636 
L 569.975808 137.581188 
L 580.428701 124.496211 
L 590.881593 115.318776 
L 601.334486 119.876669 
L 611.787379 113.813563 
L 622.240271 83.070675 
L 632.693164 138.879831 
L 643.146056 141.449343 
L 653.598949 143.428736 
L 664.051841 141.717769 
L 674.504734 159.45595 
L 684.957627 141.0278 
L 695.410519 138.551483 
L 705.863412 152.34757 
L 716.316304 109.325063 
L 726.769197 182.291598 
L 737.222089 205.335167 
L 747.674982 158.902919 
L 758.127874 181.104475 
L 768.580767 137.366079 
" clip-path="url(#p2c4394a075)" style="fill: none; stroke: #3a609c; stroke-width: 1.5; stroke-linecap: round"/>
   </g>
   <g id="line2d_15">
    <path d="M 78.689858 56.648685 
L 89.142751 50.4371 
L 99.595643 33.786681 
L 110.048536 95.164824 
L 120.501428 145.869424 
L 130.954321 133.717333 
L 141.407213 137.472204 
L 151.860106 142.93695 
L 162.312998 138.699182 
L 172.765891 135.227522 
L 183.218784 145.608608 
L 193.671676 155.56411 
L 204.124569 139.237281 
L 214.577461 133.810751 
L 225.030354 137.853307 
L 235.483246 157.673179 
L 245.936139 159.544958 
L 256.389032 154.936344 
L 266.841924 159.146545 
L 277.294817 160.508276 
L 287.747709 153.290489 
L 298.200602 164.372719 
L 308.653494 158.612088 
L 319.106387 171.532573 
L 329.559279 163.529053 
L 340.012172 157.607913 
L 350.465065 162.761317 
L 360.917957 154.900943 
L 371.37085 158.733255 
L 381.823742 148.757032 
L 392.276635 147.257902 
L 402.729527 144.257599 
L 413.18242 155.872981 
L 423.635312 159.457922 
L 434.088205 162.428623 
L 444.541098 156.680161 
L 454.99399 156.323943 
L 465.446883 144.991461 
L 475.899775 146.114842 
L 486.352668 139.656462 
L 496.80556 151.78107 
L 507.258453 142.378501 
L 517.711346 152.010606 
L 528.164238 142.41835 
L 538.617131 131.08287 
L 549.070023 143.34989 
L 559.522916 142.201641 
L 569.975808 156.915232 
L 580.428701 145.788271 
L 590.881593 141.289417 
L 601.334486 134.685702 
L 611.787379 134.840409 
L 622.240271 111.062069 
L 632.693164 158.694409 
L 643.146056 149.764761 
L 653.598949 151.836376 
L 664.051841 162.242714 
L 674.504734 158.530248 
L 684.957627 156.822752 
L 695.410519 151.139036 
L 705.863412 142.352268 
L 716.316304 113.770049 
L 726.769197 132.142941 
L 737.222089 144.275594 
L 747.674982 177.498951 
L 758.127874 208.993943 
L 768.580767 140.642578 
" clip-path="url(#p2c4394a075)" style="fill: none; stroke: #ffb14e; stroke-width: 1.5; stroke-linecap: round"/>
   </g>
   <g id="line2d_16"/>
   <g id="line2d_17"/>
   <g id="line2d_18"/>
   <g id="patch_3">
    <path d="M 44.195313 234.9 
L 44.195313 7.2 
" style="fill: none; stroke: #262626; stroke-width: 1.25; stroke-linejoin: miter; stroke-linecap: square"/>
   </g>
   <g id="patch_4">
    <path d="M 803.075312 234.9 
L 803.075312 7.2 
" style="fill: none; stroke: #262626; stroke-width: 1.25; stroke-linejoin: miter; stroke-linecap: square"/>
   </g>
   <g id="patch_5">
    <path d="M 44.195313 234.9 
L 803.075312 234.9 
" style="fill: none; stroke: #262626; stroke-width: 1.25; stroke-linejoin: miter; stroke-linecap: square"/>
   </g>
   <g id="patch_6">
    <path d="M 44.195313 7.2 
L 803.075312 7.2 
" style="fill: none; stroke: #262626; stroke-width: 1.25; stroke-linejoin: miter; stroke-linecap: square"/>
   </g>
   <g id="legend_1">
    <g id="patch_7">
     <path d="M 674.605625 78.899375 
L 795.375312 78.899375 
Q 797.575312 78.899375 797.575312 76.699375 
L 797.575312 14.9 
Q 797.575312 12.7 795.375312 12.7 
L 674.605625 12.7 
Q 672.405625 12.7 672.405625 14.9 
L 672.405625 76.699375 
Q 672.405625 78.899375 674.605625 78.899375 
z
" style="fill: #ffffff; opacity: 0.8; stroke: #cccccc; stroke-linejoin: miter"/>
    </g>
    <g id="line2d_19">
     <path d="M 676.805625 21.257656 
L 687.805625 21.257656 
L 698.805625 21.257656 
" style="fill: none; stroke: #840853; stroke-width: 1.5; stroke-linecap: round"/>
    </g>
    <g id="text_15">
     <!-- LSTM (VRE only) -->
     <g style="fill: #262626" transform="translate(707.605625 25.107656) scale(0.11 -0.11)">
      <defs>
       <path id="ArialMT-4c" d="M 469 0 
L 469 4581 
L 1075 4581 
L 1075 541 
L 3331 541 
L 3331 0 
L 469 0 
z
" transform="scale(0.015625)"/>
       <path id="ArialMT-53" d="M 288 1472 
L 859 1522 
Q 900 1178 1048 958 
Q 1197 738 1509 602 
Q 1822 466 2213 466 
Q 2559 466 2825 569 
Q 3091 672 3220 851 
Q 3350 1031 3350 1244 
Q 3350 1459 3225 1620 
Q 3100 1781 2813 1891 
Q 2628 1963 1997 2114 
Q 1366 2266 1113 2400 
Q 784 2572 623 2826 
Q 463 3081 463 3397 
Q 463 3744 659 4045 
Q 856 4347 1234 4503 
Q 1613 4659 2075 4659 
Q 2584 4659 2973 4495 
Q 3363 4331 3572 4012 
Q 3781 3694 3797 3291 
L 3216 3247 
Q 3169 3681 2898 3903 
Q 2628 4125 2100 4125 
Q 1550 4125 1298 3923 
Q 1047 3722 1047 3438 
Q 1047 3191 1225 3031 
Q 1400 2872 2139 2705 
Q 2878 2538 3153 2413 
Q 3553 2228 3743 1945 
Q 3934 1663 3934 1294 
Q 3934 928 3725 604 
Q 3516 281 3123 101 
Q 2731 -78 2241 -78 
Q 1619 -78 1198 103 
Q 778 284 539 648 
Q 300 1013 288 1472 
z
" transform="scale(0.015625)"/>
       <path id="ArialMT-54" d="M 1659 0 
L 1659 4041 
L 150 4041 
L 150 4581 
L 3781 4581 
L 3781 4041 
L 2266 4041 
L 2266 0 
L 1659 0 
z
" transform="scale(0.015625)"/>
       <path id="ArialMT-6e" d="M 422 0 
L 422 3319 
L 928 3319 
L 928 2847 
Q 1294 3394 1984 3394 
Q 2284 3394 2536 3286 
Q 2788 3178 2913 3003 
Q 3038 2828 3088 2588 
Q 3119 2431 3119 2041 
L 3119 0 
L 2556 0 
L 2556 2019 
Q 2556 2363 2490 2533 
Q 2425 2703 2258 2804 
Q 2091 2906 1866 2906 
Q 1506 2906 1245 2678 
Q 984 2450 984 1813 
L 984 0 
L 422 0 
z
" transform="scale(0.015625)"/>
       <path id="ArialMT-79" d="M 397 -1278 
L 334 -750 
Q 519 -800 656 -800 
Q 844 -800 956 -737 
Q 1069 -675 1141 -563 
Q 1194 -478 1313 -144 
Q 1328 -97 1363 -6 
L 103 3319 
L 709 3319 
L 1400 1397 
Q 1534 1031 1641 628 
Q 1738 1016 1872 1384 
L 2581 3319 
L 3144 3319 
L 1881 -56 
Q 1678 -603 1566 -809 
Q 1416 -1088 1222 -1217 
Q 1028 -1347 759 -1347 
Q 597 -1347 397 -1278 
z
" transform="scale(0.015625)"/>
      </defs>
      <use xlink:href="#ArialMT-4c"/>
      <use xlink:href="#ArialMT-53" transform="translate(55.615234 0)"/>
      <use xlink:href="#ArialMT-54" transform="translate(122.314453 0)"/>
      <use xlink:href="#ArialMT-4d" transform="translate(183.398438 0)"/>
      <use xlink:href="#ArialMT-20" transform="translate(266.699219 0)"/>
      <use xlink:href="#ArialMT-28" transform="translate(294.482422 0)"/>
      <use xlink:href="#ArialMT-56" transform="translate(327.783203 0)"/>
      <use xlink:href="#ArialMT-52" transform="translate(394.482422 0)"/>
      <use xlink:href="#ArialMT-45" transform="translate(466.699219 0)"/>
      <use xlink:href="#ArialMT-20" transform="translate(533.398438 0)"/>
      <use xlink:href="#ArialMT-6f" transform="translate(561.181641 0)"/>
      <use xlink:href="#ArialMT-6e" transform="translate(616.796875 0)"/>
      <use xlink:href="#ArialMT-6c" transform="translate(672.412109 0)"/>
      <use xlink:href="#ArialMT-79" transform="translate(694.628906 0)"/>
      <use xlink:href="#ArialMT-29" transform="translate(744.628906 0)"/>
     </g>
    </g>
    <g id="line2d_20">
     <path d="M 676.805625 37.080469 
L 687.805625 37.080469 
L 698.805625 37.080469 
" style="fill: none; stroke: #3a609c; stroke-width: 1.5; stroke-linecap: round"/>
    </g>
    <g id="text_16">
     <!-- GRU (VRE only) -->
     <g style="fill: #262626" transform="translate(707.605625 40.930469) scale(0.11 -0.11)">
      <defs>
       <path id="ArialMT-47" d="M 2638 1797 
L 2638 2334 
L 4578 2338 
L 4578 638 
Q 4131 281 3656 101 
Q 3181 -78 2681 -78 
Q 2006 -78 1454 211 
Q 903 500 622 1047 
Q 341 1594 341 2269 
Q 341 2938 620 3517 
Q 900 4097 1425 4378 
Q 1950 4659 2634 4659 
Q 3131 4659 3532 4498 
Q 3934 4338 4162 4050 
Q 4391 3763 4509 3300 
L 3963 3150 
Q 3859 3500 3706 3700 
Q 3553 3900 3268 4020 
Q 2984 4141 2638 4141 
Q 2222 4141 1919 4014 
Q 1616 3888 1430 3681 
Q 1244 3475 1141 3228 
Q 966 2803 966 2306 
Q 966 1694 1177 1281 
Q 1388 869 1791 669 
Q 2194 469 2647 469 
Q 3041 469 3416 620 
Q 3791 772 3984 944 
L 3984 1797 
L 2638 1797 
z
" transform="scale(0.015625)"/>
       <path id="ArialMT-55" d="M 3500 4581 
L 4106 4581 
L 4106 1934 
Q 4106 1244 3950 837 
Q 3794 431 3386 176 
Q 2978 -78 2316 -78 
Q 1672 -78 1262 144 
Q 853 366 678 786 
Q 503 1206 503 1934 
L 503 4581 
L 1109 4581 
L 1109 1938 
Q 1109 1341 1220 1058 
Q 1331 775 1601 622 
Q 1872 469 2263 469 
Q 2931 469 3215 772 
Q 3500 1075 3500 1938 
L 3500 4581 
z
" transform="scale(0.015625)"/>
      </defs>
      <use xlink:href="#ArialMT-47"/>
      <use xlink:href="#ArialMT-52" transform="translate(77.783203 0)"/>
      <use xlink:href="#ArialMT-55" transform="translate(150 0)"/>
      <use xlink:href="#ArialMT-20" transform="translate(222.216797 0)"/>
      <use xlink:href="#ArialMT-28" transform="translate(250 0)"/>
      <use xlink:href="#ArialMT-56" transform="translate(283.300781 0)"/>
      <use xlink:href="#ArialMT-52" transform="translate(350 0)"/>
      <use xlink:href="#ArialMT-45" transform="translate(422.216797 0)"/>
      <use xlink:href="#ArialMT-20" transform="translate(488.916016 0)"/>
      <use xlink:href="#ArialMT-6f" transform="translate(516.699219 0)"/>
      <use xlink:href="#ArialMT-6e" transform="translate(572.314453 0)"/>
      <use xlink:href="#ArialMT-6c" transform="translate(627.929688 0)"/>
      <use xlink:href="#ArialMT-79" transform="translate(650.146484 0)"/>
      <use xlink:href="#ArialMT-29" transform="translate(700.146484 0)"/>
     </g>
    </g>
    <g id="line2d_21">
     <path d="M 676.805625 52.769219 
L 687.805625 52.769219 
L 698.805625 52.769219 
" style="fill: none; stroke: #ffb14e; stroke-width: 1.5; stroke-linecap: round"/>
    </g>
    <g id="text_17">
     <!-- Best model -->
     <g style="fill: #262626" transform="translate(707.605625 56.619219) scale(0.11 -0.11)">
      <defs>
       <path id="ArialMT-42" d="M 469 0 
L 469 4581 
L 2188 4581 
Q 2713 4581 3030 4442 
Q 3347 4303 3526 4014 
Q 3706 3725 3706 3409 
Q 3706 3116 3547 2856 
Q 3388 2597 3066 2438 
Q 3481 2316 3704 2022 
Q 3928 1728 3928 1328 
Q 3928 1006 3792 729 
Q 3656 453 3456 303 
Q 3256 153 2954 76 
Q 2653 0 2216 0 
L 469 0 
z
M 1075 2656 
L 2066 2656 
Q 2469 2656 2644 2709 
Q 2875 2778 2992 2937 
Q 3109 3097 3109 3338 
Q 3109 3566 3000 3739 
Q 2891 3913 2687 3977 
Q 2484 4041 1991 4041 
L 1075 4041 
L 1075 2656 
z
M 1075 541 
L 2216 541 
Q 2509 541 2628 563 
Q 2838 600 2978 687 
Q 3119 775 3209 942 
Q 3300 1109 3300 1328 
Q 3300 1584 3169 1773 
Q 3038 1963 2805 2039 
Q 2572 2116 2134 2116 
L 1075 2116 
L 1075 541 
z
" transform="scale(0.015625)"/>
       <path id="ArialMT-65" d="M 2694 1069 
L 3275 997 
Q 3138 488 2766 206 
Q 2394 -75 1816 -75 
Q 1088 -75 661 373 
Q 234 822 234 1631 
Q 234 2469 665 2931 
Q 1097 3394 1784 3394 
Q 2450 3394 2872 2941 
Q 3294 2488 3294 1666 
Q 3294 1616 3291 1516 
L 816 1516 
Q 847 969 1125 678 
Q 1403 388 1819 388 
Q 2128 388 2347 550 
Q 2566 713 2694 1069 
z
M 847 1978 
L 2700 1978 
Q 2663 2397 2488 2606 
Q 2219 2931 1791 2931 
Q 1403 2931 1139 2672 
Q 875 2413 847 1978 
z
" transform="scale(0.015625)"/>
       <path id="ArialMT-73" d="M 197 991 
L 753 1078 
Q 800 744 1014 566 
Q 1228 388 1613 388 
Q 2000 388 2187 545 
Q 2375 703 2375 916 
Q 2375 1106 2209 1216 
Q 2094 1291 1634 1406 
Q 1016 1563 777 1677 
Q 538 1791 414 1992 
Q 291 2194 291 2438 
Q 291 2659 392 2848 
Q 494 3038 669 3163 
Q 800 3259 1026 3326 
Q 1253 3394 1513 3394 
Q 1903 3394 2198 3281 
Q 2494 3169 2634 2976 
Q 2775 2784 2828 2463 
L 2278 2388 
Q 2241 2644 2061 2787 
Q 1881 2931 1553 2931 
Q 1166 2931 1000 2803 
Q 834 2675 834 2503 
Q 834 2394 903 2306 
Q 972 2216 1119 2156 
Q 1203 2125 1616 2013 
Q 2213 1853 2448 1751 
Q 2684 1650 2818 1456 
Q 2953 1263 2953 975 
Q 2953 694 2789 445 
Q 2625 197 2315 61 
Q 2006 -75 1616 -75 
Q 969 -75 630 194 
Q 291 463 197 991 
z
" transform="scale(0.015625)"/>
       <path id="ArialMT-74" d="M 1650 503 
L 1731 6 
Q 1494 -44 1306 -44 
Q 1000 -44 831 53 
Q 663 150 594 308 
Q 525 466 525 972 
L 525 2881 
L 113 2881 
L 113 3319 
L 525 3319 
L 525 4141 
L 1084 4478 
L 1084 3319 
L 1650 3319 
L 1650 2881 
L 1084 2881 
L 1084 941 
Q 1084 700 1114 631 
Q 1144 563 1211 522 
Q 1278 481 1403 481 
Q 1497 481 1650 503 
z
" transform="scale(0.015625)"/>
       <path id="ArialMT-6d" d="M 422 0 
L 422 3319 
L 925 3319 
L 925 2853 
Q 1081 3097 1340 3245 
Q 1600 3394 1931 3394 
Q 2300 3394 2536 3241 
Q 2772 3088 2869 2813 
Q 3263 3394 3894 3394 
Q 4388 3394 4653 3120 
Q 4919 2847 4919 2278 
L 4919 0 
L 4359 0 
L 4359 2091 
Q 4359 2428 4304 2576 
Q 4250 2725 4106 2815 
Q 3963 2906 3769 2906 
Q 3419 2906 3187 2673 
Q 2956 2441 2956 1928 
L 2956 0 
L 2394 0 
L 2394 2156 
Q 2394 2531 2256 2718 
Q 2119 2906 1806 2906 
Q 1569 2906 1367 2781 
Q 1166 2656 1075 2415 
Q 984 2175 984 1722 
L 984 0 
L 422 0 
z
" transform="scale(0.015625)"/>
      </defs>
      <use xlink:href="#ArialMT-42"/>
      <use xlink:href="#ArialMT-65" transform="translate(66.699219 0)"/>
      <use xlink:href="#ArialMT-73" transform="translate(122.314453 0)"/>
      <use xlink:href="#ArialMT-74" transform="translate(172.314453 0)"/>
      <use xlink:href="#ArialMT-20" transform="translate(200.097656 0)"/>
      <use xlink:href="#ArialMT-6d" transform="translate(227.880859 0)"/>
      <use xlink:href="#ArialMT-6f" transform="translate(311.181641 0)"/>
      <use xlink:href="#ArialMT-64" transform="translate(366.796875 0)"/>
      <use xlink:href="#ArialMT-65" transform="translate(422.412109 0)"/>
      <use xlink:href="#ArialMT-6c" transform="translate(478.027344 0)"/>
     </g>
    </g>
    <g id="line2d_22">
     <path d="M 676.805625 68.463125 
L 687.805625 68.463125 
L 698.805625 68.463125 
" style="fill: none; stroke: #74953d; stroke-width: 1.5; stroke-linecap: round"/>
    </g>
    <g id="text_18">
     <!-- German prices -->
     <g style="fill: #262626" transform="translate(707.605625 72.313125) scale(0.11 -0.11)">
      <defs>
       <path id="ArialMT-72" d="M 416 0 
L 416 3319 
L 922 3319 
L 922 2816 
Q 1116 3169 1280 3281 
Q 1444 3394 1641 3394 
Q 1925 3394 2219 3213 
L 2025 2691 
Q 1819 2813 1613 2813 
Q 1428 2813 1281 2702 
Q 1134 2591 1072 2394 
Q 978 2094 978 1738 
L 978 0 
L 416 0 
z
" transform="scale(0.015625)"/>
       <path id="ArialMT-70" d="M 422 -1272 
L 422 3319 
L 934 3319 
L 934 2888 
Q 1116 3141 1344 3267 
Q 1572 3394 1897 3394 
Q 2322 3394 2647 3175 
Q 2972 2956 3137 2557 
Q 3303 2159 3303 1684 
Q 3303 1175 3120 767 
Q 2938 359 2589 142 
Q 2241 -75 1856 -75 
Q 1575 -75 1351 44 
Q 1128 163 984 344 
L 984 -1272 
L 422 -1272 
z
M 931 1641 
Q 931 1000 1190 694 
Q 1450 388 1819 388 
Q 2194 388 2461 705 
Q 2728 1022 2728 1688 
Q 2728 2322 2467 2637 
Q 2206 2953 1844 2953 
Q 1484 2953 1207 2617 
Q 931 2281 931 1641 
z
" transform="scale(0.015625)"/>
       <path id="ArialMT-69" d="M 425 3934 
L 425 4581 
L 988 4581 
L 988 3934 
L 425 3934 
z
M 425 0 
L 425 3319 
L 988 3319 
L 988 0 
L 425 0 
z
" transform="scale(0.015625)"/>
       <path id="ArialMT-63" d="M 2588 1216 
L 3141 1144 
Q 3050 572 2676 248 
Q 2303 -75 1759 -75 
Q 1078 -75 664 370 
Q 250 816 250 1647 
Q 250 2184 428 2587 
Q 606 2991 970 3192 
Q 1334 3394 1763 3394 
Q 2303 3394 2647 3120 
Q 2991 2847 3088 2344 
L 2541 2259 
Q 2463 2594 2264 2762 
Q 2066 2931 1784 2931 
Q 1359 2931 1093 2626 
Q 828 2322 828 1663 
Q 828 994 1084 691 
Q 1341 388 1753 388 
Q 2084 388 2306 591 
Q 2528 794 2588 1216 
z
" transform="scale(0.015625)"/>
      </defs>
      <use xlink:href="#ArialMT-47"/>
      <use xlink:href="#ArialMT-65" transform="translate(77.783203 0)"/>
      <use xlink:href="#ArialMT-72" transform="translate(133.398438 0)"/>
      <use xlink:href="#ArialMT-6d" transform="translate(166.699219 0)"/>
      <use xlink:href="#ArialMT-61" transform="translate(250 0)"/>
      <use xlink:href="#ArialMT-6e" transform="translate(305.615234 0)"/>
      <use xlink:href="#ArialMT-20" transform="translate(361.230469 0)"/>
      <use xlink:href="#ArialMT-70" transform="translate(389.013672 0)"/>
      <use xlink:href="#ArialMT-72" transform="translate(444.628906 0)"/>
      <use xlink:href="#ArialMT-69" transform="translate(477.929688 0)"/>
      <use xlink:href="#ArialMT-63" transform="translate(500.146484 0)"/>
      <use xlink:href="#ArialMT-65" transform="translate(550.146484 0)"/>
      <use xlink:href="#ArialMT-73" transform="translate(605.761719 0)"/>
     </g>
    </g>
   </g>
  </g>
  <g id="axes_2">
   <g id="matplotlib.axis_3">
    <g id="ytick_6">
     <g id="line2d_23">
      <defs>
       <path id="mea34702b97" d="M 0 0 
L 6 0 
" style="stroke: #262626; stroke-width: 1.25"/>
      </defs>
      <g>
       <use xlink:href="#mea34702b97" x="803.075312" y="199.813459" style="fill: #262626; stroke: #262626; stroke-width: 1.25"/>
      </g>
     </g>
     <g id="text_19">
      <!-- 0 -->
      <g style="fill: #262626" transform="translate(812.575312 203.750256) scale(0.11 -0.11)">
       <use xlink:href="#ArialMT-30"/>
      </g>
     </g>
    </g>
    <g id="ytick_7">
     <g id="line2d_24">
      <g>
       <use xlink:href="#mea34702b97" x="803.075312" y="158.052871" style="fill: #262626; stroke: #262626; stroke-width: 1.25"/>
      </g>
     </g>
     <g id="text_20">
      <!-- 100 -->
      <g style="fill: #262626" transform="translate(812.575312 161.989668) scale(0.11 -0.11)">
       <use xlink:href="#ArialMT-31"/>
       <use xlink:href="#ArialMT-30" transform="translate(55.615234 0)"/>
       <use xlink:href="#ArialMT-30" transform="translate(111.230469 0)"/>
      </g>
     </g>
    </g>
    <g id="ytick_8">
     <g id="line2d_25">
      <g>
       <use xlink:href="#mea34702b97" x="803.075312" y="116.292284" style="fill: #262626; stroke: #262626; stroke-width: 1.25"/>
      </g>
     </g>
     <g id="text_21">
      <!-- 200 -->
      <g style="fill: #262626" transform="translate(812.575312 120.229081) scale(0.11 -0.11)">
       <use xlink:href="#ArialMT-32"/>
       <use xlink:href="#ArialMT-30" transform="translate(55.615234 0)"/>
       <use xlink:href="#ArialMT-30" transform="translate(111.230469 0)"/>
      </g>
     </g>
    </g>
    <g id="ytick_9">
     <g id="line2d_26">
      <g>
       <use xlink:href="#mea34702b97" x="803.075312" y="74.531696" style="fill: #262626; stroke: #262626; stroke-width: 1.25"/>
      </g>
     </g>
     <g id="text_22">
      <!-- 300 -->
      <g style="fill: #262626" transform="translate(812.575312 78.468493) scale(0.11 -0.11)">
       <use xlink:href="#ArialMT-33"/>
       <use xlink:href="#ArialMT-30" transform="translate(55.615234 0)"/>
       <use xlink:href="#ArialMT-30" transform="translate(111.230469 0)"/>
      </g>
     </g>
    </g>
    <g id="ytick_10">
     <g id="line2d_27">
      <g>
       <use xlink:href="#mea34702b97" x="803.075312" y="32.771109" style="fill: #262626; stroke: #262626; stroke-width: 1.25"/>
      </g>
     </g>
     <g id="text_23">
      <!-- 400 -->
      <g style="fill: #262626" transform="translate(812.575312 36.707905) scale(0.11 -0.11)">
       <use xlink:href="#ArialMT-34"/>
       <use xlink:href="#ArialMT-30" transform="translate(55.615234 0)"/>
       <use xlink:href="#ArialMT-30" transform="translate(111.230469 0)"/>
      </g>
     </g>
    </g>
    <g id="text_24">
     <!-- German prices (€) -->
     <g style="fill: #262626" transform="translate(843.662031 169.392188) rotate(-90) scale(0.12 -0.12)">
      <use xlink:href="#ArialMT-47"/>
      <use xlink:href="#ArialMT-65" transform="translate(77.783203 0)"/>
      <use xlink:href="#ArialMT-72" transform="translate(133.398438 0)"/>
      <use xlink:href="#ArialMT-6d" transform="translate(166.699219 0)"/>
      <use xlink:href="#ArialMT-61" transform="translate(250 0)"/>
      <use xlink:href="#ArialMT-6e" transform="translate(305.615234 0)"/>
      <use xlink:href="#ArialMT-20" transform="translate(361.230469 0)"/>
      <use xlink:href="#ArialMT-70" transform="translate(389.013672 0)"/>
      <use xlink:href="#ArialMT-72" transform="translate(444.628906 0)"/>
      <use xlink:href="#ArialMT-69" transform="translate(477.929688 0)"/>
      <use xlink:href="#ArialMT-63" transform="translate(500.146484 0)"/>
      <use xlink:href="#ArialMT-65" transform="translate(550.146484 0)"/>
      <use xlink:href="#ArialMT-73" transform="translate(605.761719 0)"/>
      <use xlink:href="#ArialMT-20" transform="translate(655.761719 0)"/>
      <use xlink:href="#ArialMT-28" transform="translate(683.544922 0)"/>
      <use xlink:href="#ArialMT-20ac" transform="translate(716.845703 0)"/>
      <use xlink:href="#ArialMT-29" transform="translate(772.460938 0)"/>
     </g>
    </g>
   </g>
   <g id="FillBetweenPolyCollection_4">
    <defs>
     <path id="m9122c98c62" d="M 78.689858 -259.084219 
L 78.689858 -80.651667 
L 89.142751 -77.6984 
L 99.595643 -90.618557 
L 110.048536 -102.978411 
L 120.501428 -102.98077 
L 130.954321 -103.648671 
L 141.407213 -106.138618 
L 151.860106 -98.035769 
L 162.312998 -94.662289 
L 172.765891 -52.084219 
L 183.218784 -105.374952 
L 193.671676 -105.431648 
L 204.124569 -104.457422 
L 214.577461 -91.563405 
L 225.030354 -91.249191 
L 235.483246 -103.141256 
L 245.936139 -103.742461 
L 256.389032 -102.839336 
L 266.841924 -101.500646 
L 277.294817 -99.011033 
L 287.747709 -100.845619 
L 298.200602 -99.277258 
L 308.653494 -94.844692 
L 319.106387 -97.659376 
L 329.559279 -96.223422 
L 340.012172 -94.019345 
L 350.465065 -95.32865 
L 360.917957 -92.475025 
L 371.37085 -93.937763 
L 381.823742 -91.629129 
L 392.276635 -90.184579 
L 402.729527 -89.252283 
L 413.18242 -87.419828 
L 423.635312 -90.574806 
L 434.088205 -87.195723 
L 444.541098 -86.928892 
L 454.99399 -85.761961 
L 465.446883 -85.271395 
L 475.899775 -84.471571 
L 486.352668 -78.743489 
L 496.80556 -79.463383 
L 507.258453 -75.465437 
L 517.711346 -79.118189 
L 528.164238 -73.144153 
L 538.617131 -70.502081 
L 549.070023 -72.419993 
L 559.522916 -68.09353 
L 569.975808 -73.850155 
L 580.428701 -74.520098 
L 590.881593 -66.870186 
L 601.334486 -67.708482 
L 611.787379 -69.090079 
L 622.240271 -68.966798 
L 632.693164 -70.746902 
L 643.146056 -69.53682 
L 653.598949 -70.62133 
L 664.051841 -69.406964 
L 674.504734 -71.377927 
L 684.957627 -70.245999 
L 695.410519 -68.182575 
L 705.863412 -68.728291 
L 716.316304 -58.884588 
L 726.769197 -72.575457 
L 737.222089 -76.155765 
L 747.674982 -69.89367 
L 758.127874 -77.27595 
L 768.580767 -70.418825 
L 768.580767 -72.841012 
L 768.580767 -72.841012 
L 758.127874 -77.27595 
L 747.674982 -78.928678 
L 737.222089 -79.158962 
L 726.769197 -76.372173 
L 716.316304 -58.884588 
L 705.863412 -79.188449 
L 695.410519 -91.449501 
L 684.957627 -88.495881 
L 674.504734 -77.001759 
L 664.051841 -85.655735 
L 653.598949 -84.790421 
L 643.146056 -92.073111 
L 632.693164 -92.050816 
L 622.240271 -87.359579 
L 611.787379 -94.235061 
L 601.334486 -99.157167 
L 590.881593 -97.984052 
L 580.428701 -100.265093 
L 569.975808 -100.122705 
L 559.522916 -96.625244 
L 549.070023 -100.454251 
L 538.617131 -100.377353 
L 528.164238 -103.525572 
L 517.711346 -103.880872 
L 507.258453 -106.544113 
L 496.80556 -106.874466 
L 486.352668 -105.721238 
L 475.899775 -109.67923 
L 465.446883 -109.918872 
L 454.99399 -112.237967 
L 444.541098 -113.698734 
L 434.088205 -114.948373 
L 423.635312 -115.956293 
L 413.18242 -115.474566 
L 402.729527 -114.706123 
L 392.276635 -115.442969 
L 381.823742 -118.691501 
L 371.37085 -117.739373 
L 360.917957 -118.188426 
L 350.465065 -120.24101 
L 340.012172 -120.551438 
L 329.559279 -120.460796 
L 319.106387 -119.911921 
L 308.653494 -126.500078 
L 298.200602 -123.465356 
L 287.747709 -123.167584 
L 277.294817 -128.506467 
L 266.841924 -125.820355 
L 256.389032 -127.276404 
L 245.936139 -126.32445 
L 235.483246 -127.951306 
L 225.030354 -147.951603 
L 214.577461 -148.036809 
L 204.124569 -134.052773 
L 193.671676 -132.037905 
L 183.218784 -134.69622 
L 172.765891 -205.77668 
L 162.312998 -153.263333 
L 151.860106 -154.67742 
L 141.407213 -142.231889 
L 130.954321 -150.697806 
L 120.501428 -146.997232 
L 110.048536 -157.027369 
L 99.595643 -201.620581 
L 89.142751 -225.61878 
L 78.689858 -259.084219 
z
" style="stroke: #74953d; stroke-opacity: 0.2"/>
    </defs>
    <g clip-path="url(#p2c4394a075)">
     <use xlink:href="#m9122c98c62" x="0" y="276.634219" style="fill: #74953d; fill-opacity: 0.2; stroke: #74953d; stroke-opacity: 0.2"/>
    </g>
   </g>
   <g id="line2d_28">
    <path d="M 78.689858 106.766276 
L 89.142751 124.975629 
L 99.595643 130.51465 
L 110.048536 146.631329 
L 120.501428 151.645218 
L 130.954321 149.46098 
L 141.407213 152.448965 
L 151.860106 150.277625 
L 162.312998 152.671407 
L 172.765891 147.703769 
L 183.218784 156.598633 
L 193.671676 157.899443 
L 204.124569 157.379122 
L 214.577461 156.834112 
L 225.030354 157.033822 
L 235.483246 161.087938 
L 245.936139 161.600763 
L 256.389032 161.576349 
L 266.841924 162.973718 
L 277.294817 162.875469 
L 287.747709 164.627617 
L 298.200602 165.262912 
L 308.653494 165.961834 
L 319.106387 167.84857 
L 329.559279 168.29211 
L 340.012172 169.348827 
L 350.465065 168.849389 
L 360.917957 171.302493 
L 371.37085 170.795651 
L 381.823742 171.473903 
L 392.276635 173.820445 
L 402.729527 174.655016 
L 413.18242 175.187022 
L 423.635312 173.368669 
L 434.088205 175.562171 
L 444.541098 176.320406 
L 454.99399 177.634255 
L 465.446883 179.039085 
L 475.899775 179.558818 
L 486.352668 184.401855 
L 496.80556 183.465294 
L 507.258453 185.629444 
L 517.711346 185.134688 
L 528.164238 188.299356 
L 538.617131 191.194502 
L 549.070023 190.197097 
L 559.522916 194.274832 
L 569.975808 189.647789 
L 580.428701 189.241623 
L 590.881593 194.2071 
L 601.334486 193.201394 
L 611.787379 194.971648 
L 622.240271 198.47103 
L 632.693164 195.23536 
L 643.146056 195.829253 
L 653.598949 198.928343 
L 664.051841 199.102869 
L 674.504734 202.444376 
L 684.957627 197.263279 
L 695.410519 196.818181 
L 705.863412 202.675849 
L 716.316304 217.749631 
L 726.769197 202.160404 
L 737.222089 198.976855 
L 747.674982 202.223045 
L 758.127874 199.358268 
L 768.580767 205.0043 
" clip-path="url(#p2c4394a075)" style="fill: none; stroke: #74953d; stroke-width: 1.5; stroke-linecap: round"/>
   </g>
   <g id="patch_8">
    <path d="M 44.195313 234.9 
L 44.195313 7.2 
" style="fill: none; stroke: #262626; stroke-width: 1.25; stroke-linejoin: miter; stroke-linecap: square"/>
   </g>
   <g id="patch_9">
    <path d="M 803.075312 234.9 
L 803.075312 7.2 
" style="fill: none; stroke: #262626; stroke-width: 1.25; stroke-linejoin: miter; stroke-linecap: square"/>
   </g>
   <g id="patch_10">
    <path d="M 44.195313 234.9 
L 803.075312 234.9 
" style="fill: none; stroke: #262626; stroke-width: 1.25; stroke-linejoin: miter; stroke-linecap: square"/>
   </g>
   <g id="patch_11">
    <path d="M 44.195313 7.2 
L 803.075312 7.2 
" style="fill: none; stroke: #262626; stroke-width: 1.25; stroke-linejoin: miter; stroke-linecap: square"/>
   </g>
  </g>
 </g>
 <defs>
  <clipPath id="p2c4394a075">
   <rect x="44.195313" y="7.2" width="758.88" height="227.7"/>
  </clipPath>
 </defs>
</svg>
