<?xml version="1.0" encoding="utf-8" standalone="no"?>
<!DOCTYPE svg PUBLIC "-//W3C//DTD SVG 1.1//EN"
  "http://www.w3.org/Graphics/SVG/1.1/DTD/svg11.dtd">
<svg xmlns:xlink="http://www.w3.org/1999/xlink" width="853.294688pt" height="276.634219pt" viewBox="0 0 853.294688 276.634219" xmlns="http://www.w3.org/2000/svg" version="1.1">
 <metadata>
  <rdf:RDF xmlns:dc="http://purl.org/dc/elements/1.1/" xmlns:cc="http://creativecommons.org/ns#" xmlns:rdf="http://www.w3.org/1999/02/22-rdf-syntax-ns#">
   <cc:Work>
    <dc:type rdf:resource="http://purl.org/dc/dcmitype/StillImage"/>
    <dc:date>2025-07-06T15:54:07.170519</dc:date>
    <dc:format>image/svg+xml</dc:format>
    <dc:creator>
     <cc:Agent>
      <dc:title>Matplotlib v3.10.1, https://matplotlib.org/</dc:title>
     </cc:Agent>
    </dc:creator>
   </cc:Work>
  </rdf:RDF>
 </metadata>
 <defs>
  <style type="text/css">*{stroke-linejoin: round; stroke-linecap: butt}</style>
 </defs>
 <g id="figure_1">
  <g id="patch_1">
   <path d="M 0 276.634219 
L 853.294688 276.634219 
L 853.294688 0 
L 0 0 
z
" style="fill: #ffffff"/>
  </g>
  <g id="axes_1">
   <g id="patch_2">
    <path d="M 50.312344 234.9 
L 802.982344 234.9 
L 802.982344 7.2 
L 50.312344 7.2 
z
" style="fill: #ffffff"/>
   </g>
   <g id="matplotlib.axis_1">
    <g id="xtick_1">
     <g id="line2d_1">
      <defs>
       <path id="m12b367b060" d="M 0 0 
L 0 6 
" style="stroke: #262626; stroke-width: 1.25"/>
      </defs>
      <g>
       <use xlink:href="#m12b367b060" x="84.524616" y="234.9" style="fill: #262626; stroke: #262626; stroke-width: 1.25"/>
      </g>
     </g>
     <g id="text_1">
      <!-- 0 -->
      <g style="fill: #262626" transform="translate(81.466101 252.273594) scale(0.11 -0.11)">
       <defs>
        <path id="ArialMT-30" d="M 266 2259 
Q 266 3072 433 3567 
Q 600 4063 929 4331 
Q 1259 4600 1759 4600 
Q 2128 4600 2406 4451 
Q 2684 4303 2865 4023 
Q 3047 3744 3150 3342 
Q 3253 2941 3253 2259 
Q 3253 1453 3087 958 
Q 2922 463 2592 192 
Q 2263 -78 1759 -78 
Q 1097 -78 719 397 
Q 266 969 266 2259 
z
M 844 2259 
Q 844 1131 1108 757 
Q 1372 384 1759 384 
Q 2147 384 2411 759 
Q 2675 1134 2675 2259 
Q 2675 3391 2411 3762 
Q 2147 4134 1753 4134 
Q 1366 4134 1134 3806 
Q 844 3388 844 2259 
z
" transform="scale(0.015625)"/>
       </defs>
       <use xlink:href="#ArialMT-30"/>
      </g>
     </g>
    </g>
    <g id="xtick_2">
     <g id="line2d_2">
      <g>
       <use xlink:href="#m12b367b060" x="152.949162" y="234.9" style="fill: #262626; stroke: #262626; stroke-width: 1.25"/>
      </g>
     </g>
     <g id="text_2">
      <!-- 10 -->
      <g style="fill: #262626" transform="translate(146.832131 252.273594) scale(0.11 -0.11)">
       <defs>
        <path id="ArialMT-31" d="M 2384 0 
L 1822 0 
L 1822 3584 
Q 1619 3391 1289 3197 
Q 959 3003 697 2906 
L 697 3450 
Q 1169 3672 1522 3987 
Q 1875 4303 2022 4600 
L 2384 4600 
L 2384 0 
z
" transform="scale(0.015625)"/>
       </defs>
       <use xlink:href="#ArialMT-31"/>
       <use xlink:href="#ArialMT-30" transform="translate(55.615234 0)"/>
      </g>
     </g>
    </g>
    <g id="xtick_3">
     <g id="line2d_3">
      <g>
       <use xlink:href="#m12b367b060" x="221.373707" y="234.9" style="fill: #262626; stroke: #262626; stroke-width: 1.25"/>
      </g>
     </g>
     <g id="text_3">
      <!-- 20 -->
      <g style="fill: #262626" transform="translate(215.256676 252.273594) scale(0.11 -0.11)">
       <defs>
        <path id="ArialMT-32" d="M 3222 541 
L 3222 0 
L 194 0 
Q 188 203 259 391 
Q 375 700 629 1000 
Q 884 1300 1366 1694 
Q 2113 2306 2375 2664 
Q 2638 3022 2638 3341 
Q 2638 3675 2398 3904 
Q 2159 4134 1775 4134 
Q 1369 4134 1125 3890 
Q 881 3647 878 3216 
L 300 3275 
Q 359 3922 746 4261 
Q 1134 4600 1788 4600 
Q 2447 4600 2831 4234 
Q 3216 3869 3216 3328 
Q 3216 3053 3103 2787 
Q 2991 2522 2730 2228 
Q 2469 1934 1863 1422 
Q 1356 997 1212 845 
Q 1069 694 975 541 
L 3222 541 
z
" transform="scale(0.015625)"/>
       </defs>
       <use xlink:href="#ArialMT-32"/>
       <use xlink:href="#ArialMT-30" transform="translate(55.615234 0)"/>
      </g>
     </g>
    </g>
    <g id="xtick_4">
     <g id="line2d_4">
      <g>
       <use xlink:href="#m12b367b060" x="289.798253" y="234.9" style="fill: #262626; stroke: #262626; stroke-width: 1.25"/>
      </g>
     </g>
     <g id="text_4">
      <!-- 30 -->
      <g style="fill: #262626" transform="translate(283.681222 252.273594) scale(0.11 -0.11)">
       <defs>
        <path id="ArialMT-33" d="M 269 1209 
L 831 1284 
Q 928 806 1161 595 
Q 1394 384 1728 384 
Q 2125 384 2398 659 
Q 2672 934 2672 1341 
Q 2672 1728 2419 1979 
Q 2166 2231 1775 2231 
Q 1616 2231 1378 2169 
L 1441 2663 
Q 1497 2656 1531 2656 
Q 1891 2656 2178 2843 
Q 2466 3031 2466 3422 
Q 2466 3731 2256 3934 
Q 2047 4138 1716 4138 
Q 1388 4138 1169 3931 
Q 950 3725 888 3313 
L 325 3413 
Q 428 3978 793 4289 
Q 1159 4600 1703 4600 
Q 2078 4600 2393 4439 
Q 2709 4278 2876 4000 
Q 3044 3722 3044 3409 
Q 3044 3113 2884 2869 
Q 2725 2625 2413 2481 
Q 2819 2388 3044 2092 
Q 3269 1797 3269 1353 
Q 3269 753 2831 336 
Q 2394 -81 1725 -81 
Q 1122 -81 723 278 
Q 325 638 269 1209 
z
" transform="scale(0.015625)"/>
       </defs>
       <use xlink:href="#ArialMT-33"/>
       <use xlink:href="#ArialMT-30" transform="translate(55.615234 0)"/>
      </g>
     </g>
    </g>
    <g id="xtick_5">
     <g id="line2d_5">
      <g>
       <use xlink:href="#m12b367b060" x="358.222798" y="234.9" style="fill: #262626; stroke: #262626; stroke-width: 1.25"/>
      </g>
     </g>
     <g id="text_5">
      <!-- 40 -->
      <g style="fill: #262626" transform="translate(352.105767 252.273594) scale(0.11 -0.11)">
       <defs>
        <path id="ArialMT-34" d="M 2069 0 
L 2069 1097 
L 81 1097 
L 81 1613 
L 2172 4581 
L 2631 4581 
L 2631 1613 
L 3250 1613 
L 3250 1097 
L 2631 1097 
L 2631 0 
L 2069 0 
z
M 2069 1613 
L 2069 3678 
L 634 1613 
L 2069 1613 
z
" transform="scale(0.015625)"/>
       </defs>
       <use xlink:href="#ArialMT-34"/>
       <use xlink:href="#ArialMT-30" transform="translate(55.615234 0)"/>
      </g>
     </g>
    </g>
    <g id="xtick_6">
     <g id="line2d_6">
      <g>
       <use xlink:href="#m12b367b060" x="426.647344" y="234.9" style="fill: #262626; stroke: #262626; stroke-width: 1.25"/>
      </g>
     </g>
     <g id="text_6">
      <!-- 50 -->
      <g style="fill: #262626" transform="translate(420.530312 252.273594) scale(0.11 -0.11)">
       <defs>
        <path id="ArialMT-35" d="M 266 1200 
L 856 1250 
Q 922 819 1161 601 
Q 1400 384 1738 384 
Q 2144 384 2425 690 
Q 2706 997 2706 1503 
Q 2706 1984 2436 2262 
Q 2166 2541 1728 2541 
Q 1456 2541 1237 2417 
Q 1019 2294 894 2097 
L 366 2166 
L 809 4519 
L 3088 4519 
L 3088 3981 
L 1259 3981 
L 1013 2750 
Q 1425 3038 1878 3038 
Q 2478 3038 2890 2622 
Q 3303 2206 3303 1553 
Q 3303 931 2941 478 
Q 2500 -78 1738 -78 
Q 1113 -78 717 272 
Q 322 622 266 1200 
z
" transform="scale(0.015625)"/>
       </defs>
       <use xlink:href="#ArialMT-35"/>
       <use xlink:href="#ArialMT-30" transform="translate(55.615234 0)"/>
      </g>
     </g>
    </g>
    <g id="xtick_7">
     <g id="line2d_7">
      <g>
       <use xlink:href="#m12b367b060" x="495.071889" y="234.9" style="fill: #262626; stroke: #262626; stroke-width: 1.25"/>
      </g>
     </g>
     <g id="text_7">
      <!-- 60 -->
      <g style="fill: #262626" transform="translate(488.954858 252.273594) scale(0.11 -0.11)">
       <defs>
        <path id="ArialMT-36" d="M 3184 3459 
L 2625 3416 
Q 2550 3747 2413 3897 
Q 2184 4138 1850 4138 
Q 1581 4138 1378 3988 
Q 1113 3794 959 3422 
Q 806 3050 800 2363 
Q 1003 2672 1297 2822 
Q 1591 2972 1913 2972 
Q 2475 2972 2870 2558 
Q 3266 2144 3266 1488 
Q 3266 1056 3080 686 
Q 2894 316 2569 119 
Q 2244 -78 1831 -78 
Q 1128 -78 684 439 
Q 241 956 241 2144 
Q 241 3472 731 4075 
Q 1159 4600 1884 4600 
Q 2425 4600 2770 4297 
Q 3116 3994 3184 3459 
z
M 888 1484 
Q 888 1194 1011 928 
Q 1134 663 1356 523 
Q 1578 384 1822 384 
Q 2178 384 2434 671 
Q 2691 959 2691 1453 
Q 2691 1928 2437 2201 
Q 2184 2475 1800 2475 
Q 1419 2475 1153 2201 
Q 888 1928 888 1484 
z
" transform="scale(0.015625)"/>
       </defs>
       <use xlink:href="#ArialMT-36"/>
       <use xlink:href="#ArialMT-30" transform="translate(55.615234 0)"/>
      </g>
     </g>
    </g>
    <g id="xtick_8">
     <g id="line2d_8">
      <g>
       <use xlink:href="#m12b367b060" x="563.496435" y="234.9" style="fill: #262626; stroke: #262626; stroke-width: 1.25"/>
      </g>
     </g>
     <g id="text_8">
      <!-- 70 -->
      <g style="fill: #262626" transform="translate(557.379403 252.273594) scale(0.11 -0.11)">
       <defs>
        <path id="ArialMT-37" d="M 303 3981 
L 303 4522 
L 3269 4522 
L 3269 4084 
Q 2831 3619 2401 2847 
Q 1972 2075 1738 1259 
Q 1569 684 1522 0 
L 944 0 
Q 953 541 1156 1306 
Q 1359 2072 1739 2783 
Q 2119 3494 2547 3981 
L 303 3981 
z
" transform="scale(0.015625)"/>
       </defs>
       <use xlink:href="#ArialMT-37"/>
       <use xlink:href="#ArialMT-30" transform="translate(55.615234 0)"/>
      </g>
     </g>
    </g>
    <g id="xtick_9">
     <g id="line2d_9">
      <g>
       <use xlink:href="#m12b367b060" x="631.92098" y="234.9" style="fill: #262626; stroke: #262626; stroke-width: 1.25"/>
      </g>
     </g>
     <g id="text_9">
      <!-- 80 -->
      <g style="fill: #262626" transform="translate(625.803949 252.273594) scale(0.11 -0.11)">
       <defs>
        <path id="ArialMT-38" d="M 1131 2484 
Q 781 2613 612 2850 
Q 444 3088 444 3419 
Q 444 3919 803 4259 
Q 1163 4600 1759 4600 
Q 2359 4600 2725 4251 
Q 3091 3903 3091 3403 
Q 3091 3084 2923 2848 
Q 2756 2613 2416 2484 
Q 2838 2347 3058 2040 
Q 3278 1734 3278 1309 
Q 3278 722 2862 322 
Q 2447 -78 1769 -78 
Q 1091 -78 675 323 
Q 259 725 259 1325 
Q 259 1772 486 2073 
Q 713 2375 1131 2484 
z
M 1019 3438 
Q 1019 3113 1228 2906 
Q 1438 2700 1772 2700 
Q 2097 2700 2305 2904 
Q 2513 3109 2513 3406 
Q 2513 3716 2298 3927 
Q 2084 4138 1766 4138 
Q 1444 4138 1231 3931 
Q 1019 3725 1019 3438 
z
M 838 1322 
Q 838 1081 952 856 
Q 1066 631 1291 507 
Q 1516 384 1775 384 
Q 2178 384 2440 643 
Q 2703 903 2703 1303 
Q 2703 1709 2433 1975 
Q 2163 2241 1756 2241 
Q 1359 2241 1098 1978 
Q 838 1716 838 1322 
z
" transform="scale(0.015625)"/>
       </defs>
       <use xlink:href="#ArialMT-38"/>
       <use xlink:href="#ArialMT-30" transform="translate(55.615234 0)"/>
      </g>
     </g>
    </g>
    <g id="xtick_10">
     <g id="line2d_10">
      <g>
       <use xlink:href="#m12b367b060" x="700.345526" y="234.9" style="fill: #262626; stroke: #262626; stroke-width: 1.25"/>
      </g>
     </g>
     <g id="text_10">
      <!-- 90 -->
      <g style="fill: #262626" transform="translate(694.228494 252.273594) scale(0.11 -0.11)">
       <defs>
        <path id="ArialMT-39" d="M 350 1059 
L 891 1109 
Q 959 728 1153 556 
Q 1347 384 1650 384 
Q 1909 384 2104 503 
Q 2300 622 2425 820 
Q 2550 1019 2634 1356 
Q 2719 1694 2719 2044 
Q 2719 2081 2716 2156 
Q 2547 1888 2255 1720 
Q 1963 1553 1622 1553 
Q 1053 1553 659 1965 
Q 266 2378 266 3053 
Q 266 3750 677 4175 
Q 1088 4600 1706 4600 
Q 2153 4600 2523 4359 
Q 2894 4119 3086 3673 
Q 3278 3228 3278 2384 
Q 3278 1506 3087 986 
Q 2897 466 2520 194 
Q 2144 -78 1638 -78 
Q 1100 -78 759 220 
Q 419 519 350 1059 
z
M 2653 3081 
Q 2653 3566 2395 3850 
Q 2138 4134 1775 4134 
Q 1400 4134 1122 3828 
Q 844 3522 844 3034 
Q 844 2597 1108 2323 
Q 1372 2050 1759 2050 
Q 2150 2050 2401 2323 
Q 2653 2597 2653 3081 
z
" transform="scale(0.015625)"/>
       </defs>
       <use xlink:href="#ArialMT-39"/>
       <use xlink:href="#ArialMT-30" transform="translate(55.615234 0)"/>
      </g>
     </g>
    </g>
    <g id="xtick_11">
     <g id="line2d_11">
      <g>
       <use xlink:href="#m12b367b060" x="768.770071" y="234.9" style="fill: #262626; stroke: #262626; stroke-width: 1.25"/>
      </g>
     </g>
     <g id="text_11">
      <!-- 100 -->
      <g style="fill: #262626" transform="translate(759.594524 252.273594) scale(0.11 -0.11)">
       <use xlink:href="#ArialMT-31"/>
       <use xlink:href="#ArialMT-30" transform="translate(55.615234 0)"/>
       <use xlink:href="#ArialMT-30" transform="translate(111.230469 0)"/>
      </g>
     </g>
    </g>
    <g id="xtick_12">
     <g id="line2d_12">
      <defs>
       <path id="m462462b20e" d="M 0 0 
L 0 4 
" style="stroke: #262626"/>
      </defs>
      <g>
       <use xlink:href="#m462462b20e" x="118.736889" y="234.9" style="fill: #262626; stroke: #262626"/>
      </g>
     </g>
    </g>
    <g id="xtick_13">
     <g id="line2d_13">
      <g>
       <use xlink:href="#m462462b20e" x="187.161435" y="234.9" style="fill: #262626; stroke: #262626"/>
      </g>
     </g>
    </g>
    <g id="xtick_14">
     <g id="line2d_14">
      <g>
       <use xlink:href="#m462462b20e" x="255.58598" y="234.9" style="fill: #262626; stroke: #262626"/>
      </g>
     </g>
    </g>
    <g id="xtick_15">
     <g id="line2d_15">
      <g>
       <use xlink:href="#m462462b20e" x="324.010526" y="234.9" style="fill: #262626; stroke: #262626"/>
      </g>
     </g>
    </g>
    <g id="xtick_16">
     <g id="line2d_16">
      <g>
       <use xlink:href="#m462462b20e" x="392.435071" y="234.9" style="fill: #262626; stroke: #262626"/>
      </g>
     </g>
    </g>
    <g id="xtick_17">
     <g id="line2d_17">
      <g>
       <use xlink:href="#m462462b20e" x="460.859616" y="234.9" style="fill: #262626; stroke: #262626"/>
      </g>
     </g>
    </g>
    <g id="xtick_18">
     <g id="line2d_18">
      <g>
       <use xlink:href="#m462462b20e" x="529.284162" y="234.9" style="fill: #262626; stroke: #262626"/>
      </g>
     </g>
    </g>
    <g id="xtick_19">
     <g id="line2d_19">
      <g>
       <use xlink:href="#m462462b20e" x="597.708707" y="234.9" style="fill: #262626; stroke: #262626"/>
      </g>
     </g>
    </g>
    <g id="xtick_20">
     <g id="line2d_20">
      <g>
       <use xlink:href="#m462462b20e" x="666.133253" y="234.9" style="fill: #262626; stroke: #262626"/>
      </g>
     </g>
    </g>
    <g id="xtick_21">
     <g id="line2d_21">
      <g>
       <use xlink:href="#m462462b20e" x="734.557798" y="234.9" style="fill: #262626; stroke: #262626"/>
      </g>
     </g>
    </g>
    <g id="text_12">
     <!-- Weather index -->
     <g style="fill: #262626" transform="translate(388.068281 267.049219) scale(0.12 -0.12)">
      <defs>
       <path id="ArialMT-57" d="M 1294 0 
L 78 4581 
L 700 4581 
L 1397 1578 
Q 1509 1106 1591 641 
Q 1766 1375 1797 1488 
L 2669 4581 
L 3400 4581 
L 4056 2263 
Q 4303 1400 4413 641 
Q 4500 1075 4641 1638 
L 5359 4581 
L 5969 4581 
L 4713 0 
L 4128 0 
L 3163 3491 
Q 3041 3928 3019 4028 
Q 2947 3713 2884 3491 
L 1913 0 
L 1294 0 
z
" transform="scale(0.015625)"/>
       <path id="ArialMT-65" d="M 2694 1069 
L 3275 997 
Q 3138 488 2766 206 
Q 2394 -75 1816 -75 
Q 1088 -75 661 373 
Q 234 822 234 1631 
Q 234 2469 665 2931 
Q 1097 3394 1784 3394 
Q 2450 3394 2872 2941 
Q 3294 2488 3294 1666 
Q 3294 1616 3291 1516 
L 816 1516 
Q 847 969 1125 678 
Q 1403 388 1819 388 
Q 2128 388 2347 550 
Q 2566 713 2694 1069 
z
M 847 1978 
L 2700 1978 
Q 2663 2397 2488 2606 
Q 2219 2931 1791 2931 
Q 1403 2931 1139 2672 
Q 875 2413 847 1978 
z
" transform="scale(0.015625)"/>
       <path id="ArialMT-61" d="M 2588 409 
Q 2275 144 1986 34 
Q 1697 -75 1366 -75 
Q 819 -75 525 192 
Q 231 459 231 875 
Q 231 1119 342 1320 
Q 453 1522 633 1644 
Q 813 1766 1038 1828 
Q 1203 1872 1538 1913 
Q 2219 1994 2541 2106 
Q 2544 2222 2544 2253 
Q 2544 2597 2384 2738 
Q 2169 2928 1744 2928 
Q 1347 2928 1158 2789 
Q 969 2650 878 2297 
L 328 2372 
Q 403 2725 575 2942 
Q 747 3159 1072 3276 
Q 1397 3394 1825 3394 
Q 2250 3394 2515 3294 
Q 2781 3194 2906 3042 
Q 3031 2891 3081 2659 
Q 3109 2516 3109 2141 
L 3109 1391 
Q 3109 606 3145 398 
Q 3181 191 3288 0 
L 2700 0 
Q 2613 175 2588 409 
z
M 2541 1666 
Q 2234 1541 1622 1453 
Q 1275 1403 1131 1340 
Q 988 1278 909 1158 
Q 831 1038 831 891 
Q 831 666 1001 516 
Q 1172 366 1500 366 
Q 1825 366 2078 508 
Q 2331 650 2450 897 
Q 2541 1088 2541 1459 
L 2541 1666 
z
" transform="scale(0.015625)"/>
       <path id="ArialMT-74" d="M 1650 503 
L 1731 6 
Q 1494 -44 1306 -44 
Q 1000 -44 831 53 
Q 663 150 594 308 
Q 525 466 525 972 
L 525 2881 
L 113 2881 
L 113 3319 
L 525 3319 
L 525 4141 
L 1084 4478 
L 1084 3319 
L 1650 3319 
L 1650 2881 
L 1084 2881 
L 1084 941 
Q 1084 700 1114 631 
Q 1144 563 1211 522 
Q 1278 481 1403 481 
Q 1497 481 1650 503 
z
" transform="scale(0.015625)"/>
       <path id="ArialMT-68" d="M 422 0 
L 422 4581 
L 984 4581 
L 984 2938 
Q 1378 3394 1978 3394 
Q 2347 3394 2619 3248 
Q 2891 3103 3008 2847 
Q 3125 2591 3125 2103 
L 3125 0 
L 2563 0 
L 2563 2103 
Q 2563 2525 2380 2717 
Q 2197 2909 1863 2909 
Q 1613 2909 1392 2779 
Q 1172 2650 1078 2428 
Q 984 2206 984 1816 
L 984 0 
L 422 0 
z
" transform="scale(0.015625)"/>
       <path id="ArialMT-72" d="M 416 0 
L 416 3319 
L 922 3319 
L 922 2816 
Q 1116 3169 1280 3281 
Q 1444 3394 1641 3394 
Q 1925 3394 2219 3213 
L 2025 2691 
Q 1819 2813 1613 2813 
Q 1428 2813 1281 2702 
Q 1134 2591 1072 2394 
Q 978 2094 978 1738 
L 978 0 
L 416 0 
z
" transform="scale(0.015625)"/>
       <path id="ArialMT-20" transform="scale(0.015625)"/>
       <path id="ArialMT-69" d="M 425 3934 
L 425 4581 
L 988 4581 
L 988 3934 
L 425 3934 
z
M 425 0 
L 425 3319 
L 988 3319 
L 988 0 
L 425 0 
z
" transform="scale(0.015625)"/>
       <path id="ArialMT-6e" d="M 422 0 
L 422 3319 
L 928 3319 
L 928 2847 
Q 1294 3394 1984 3394 
Q 2284 3394 2536 3286 
Q 2788 3178 2913 3003 
Q 3038 2828 3088 2588 
Q 3119 2431 3119 2041 
L 3119 0 
L 2556 0 
L 2556 2019 
Q 2556 2363 2490 2533 
Q 2425 2703 2258 2804 
Q 2091 2906 1866 2906 
Q 1506 2906 1245 2678 
Q 984 2450 984 1813 
L 984 0 
L 422 0 
z
" transform="scale(0.015625)"/>
       <path id="ArialMT-64" d="M 2575 0 
L 2575 419 
Q 2259 -75 1647 -75 
Q 1250 -75 917 144 
Q 584 363 401 755 
Q 219 1147 219 1656 
Q 219 2153 384 2558 
Q 550 2963 881 3178 
Q 1213 3394 1622 3394 
Q 1922 3394 2156 3267 
Q 2391 3141 2538 2938 
L 2538 4581 
L 3097 4581 
L 3097 0 
L 2575 0 
z
M 797 1656 
Q 797 1019 1065 703 
Q 1334 388 1700 388 
Q 2069 388 2326 689 
Q 2584 991 2584 1609 
Q 2584 2291 2321 2609 
Q 2059 2928 1675 2928 
Q 1300 2928 1048 2622 
Q 797 2316 797 1656 
z
" transform="scale(0.015625)"/>
       <path id="ArialMT-78" d="M 47 0 
L 1259 1725 
L 138 3319 
L 841 3319 
L 1350 2541 
Q 1494 2319 1581 2169 
Q 1719 2375 1834 2534 
L 2394 3319 
L 3066 3319 
L 1919 1756 
L 3153 0 
L 2463 0 
L 1781 1031 
L 1600 1309 
L 728 0 
L 47 0 
z
" transform="scale(0.015625)"/>
      </defs>
      <use xlink:href="#ArialMT-57"/>
      <use xlink:href="#ArialMT-65" transform="translate(92.634766 0)"/>
      <use xlink:href="#ArialMT-61" transform="translate(148.25 0)"/>
      <use xlink:href="#ArialMT-74" transform="translate(203.865234 0)"/>
      <use xlink:href="#ArialMT-68" transform="translate(231.648438 0)"/>
      <use xlink:href="#ArialMT-65" transform="translate(287.263672 0)"/>
      <use xlink:href="#ArialMT-72" transform="translate(342.878906 0)"/>
      <use xlink:href="#ArialMT-20" transform="translate(376.179688 0)"/>
      <use xlink:href="#ArialMT-69" transform="translate(403.962891 0)"/>
      <use xlink:href="#ArialMT-6e" transform="translate(426.179688 0)"/>
      <use xlink:href="#ArialMT-64" transform="translate(481.794922 0)"/>
      <use xlink:href="#ArialMT-65" transform="translate(537.410156 0)"/>
      <use xlink:href="#ArialMT-78" transform="translate(593.025391 0)"/>
     </g>
    </g>
   </g>
   <g id="matplotlib.axis_2">
    <g id="ytick_1">
     <g id="line2d_22">
      <defs>
       <path id="m57f25c29e9" d="M 0 0 
L -6 0 
" style="stroke: #262626; stroke-width: 1.25"/>
      </defs>
      <g>
       <use xlink:href="#m57f25c29e9" x="50.312344" y="215.965661" style="fill: #262626; stroke: #262626; stroke-width: 1.25"/>
      </g>
     </g>
     <g id="text_13">
      <!-- 20 -->
      <g style="fill: #262626" transform="translate(28.578281 219.902458) scale(0.11 -0.11)">
       <use xlink:href="#ArialMT-32"/>
       <use xlink:href="#ArialMT-30" transform="translate(55.615234 0)"/>
      </g>
     </g>
    </g>
    <g id="ytick_2">
     <g id="line2d_23">
      <g>
       <use xlink:href="#m57f25c29e9" x="50.312344" y="171.816329" style="fill: #262626; stroke: #262626; stroke-width: 1.25"/>
      </g>
     </g>
     <g id="text_14">
      <!-- 40 -->
      <g style="fill: #262626" transform="translate(28.578281 175.753126) scale(0.11 -0.11)">
       <use xlink:href="#ArialMT-34"/>
       <use xlink:href="#ArialMT-30" transform="translate(55.615234 0)"/>
      </g>
     </g>
    </g>
    <g id="ytick_3">
     <g id="line2d_24">
      <g>
       <use xlink:href="#m57f25c29e9" x="50.312344" y="127.666998" style="fill: #262626; stroke: #262626; stroke-width: 1.25"/>
      </g>
     </g>
     <g id="text_15">
      <!-- 60 -->
      <g style="fill: #262626" transform="translate(28.578281 131.603795) scale(0.11 -0.11)">
       <use xlink:href="#ArialMT-36"/>
       <use xlink:href="#ArialMT-30" transform="translate(55.615234 0)"/>
      </g>
     </g>
    </g>
    <g id="ytick_4">
     <g id="line2d_25">
      <g>
       <use xlink:href="#m57f25c29e9" x="50.312344" y="83.517667" style="fill: #262626; stroke: #262626; stroke-width: 1.25"/>
      </g>
     </g>
     <g id="text_16">
      <!-- 80 -->
      <g style="fill: #262626" transform="translate(28.578281 87.454464) scale(0.11 -0.11)">
       <use xlink:href="#ArialMT-38"/>
       <use xlink:href="#ArialMT-30" transform="translate(55.615234 0)"/>
      </g>
     </g>
    </g>
    <g id="ytick_5">
     <g id="line2d_26">
      <g>
       <use xlink:href="#m57f25c29e9" x="50.312344" y="39.368335" style="fill: #262626; stroke: #262626; stroke-width: 1.25"/>
      </g>
     </g>
     <g id="text_17">
      <!-- 100 -->
      <g style="fill: #262626" transform="translate(22.46125 43.305132) scale(0.11 -0.11)">
       <use xlink:href="#ArialMT-31"/>
       <use xlink:href="#ArialMT-30" transform="translate(55.615234 0)"/>
       <use xlink:href="#ArialMT-30" transform="translate(111.230469 0)"/>
      </g>
     </g>
    </g>
    <g id="text_18">
     <!-- MAE (€/MWh) -->
     <g style="fill: #262626" transform="translate(15.935625 158.715937) rotate(-90) scale(0.12 -0.12)">
      <defs>
       <path id="ArialMT-4d" d="M 475 0 
L 475 4581 
L 1388 4581 
L 2472 1338 
Q 2622 884 2691 659 
Q 2769 909 2934 1394 
L 4031 4581 
L 4847 4581 
L 4847 0 
L 4263 0 
L 4263 3834 
L 2931 0 
L 2384 0 
L 1059 3900 
L 1059 0 
L 475 0 
z
" transform="scale(0.015625)"/>
       <path id="ArialMT-41" d="M -9 0 
L 1750 4581 
L 2403 4581 
L 4278 0 
L 3588 0 
L 3053 1388 
L 1138 1388 
L 634 0 
L -9 0 
z
M 1313 1881 
L 2866 1881 
L 2388 3150 
Q 2169 3728 2063 4100 
Q 1975 3659 1816 3225 
L 1313 1881 
z
" transform="scale(0.015625)"/>
       <path id="ArialMT-45" d="M 506 0 
L 506 4581 
L 3819 4581 
L 3819 4041 
L 1113 4041 
L 1113 2638 
L 3647 2638 
L 3647 2100 
L 1113 2100 
L 1113 541 
L 3925 541 
L 3925 0 
L 506 0 
z
" transform="scale(0.015625)"/>
       <path id="ArialMT-28" d="M 1497 -1347 
Q 1031 -759 709 28 
Q 388 816 388 1659 
Q 388 2403 628 3084 
Q 909 3875 1497 4659 
L 1900 4659 
Q 1522 4009 1400 3731 
Q 1209 3300 1100 2831 
Q 966 2247 966 1656 
Q 966 153 1900 -1347 
L 1497 -1347 
z
" transform="scale(0.015625)"/>
       <path id="ArialMT-20ac" d="M 2469 4141 
Q 1944 4141 1588 3888 
Q 1375 3738 1203 3463 
Q 1028 3178 997 2922 
L 3128 2922 
L 3044 2503 
L 947 2503 
Q 944 2438 944 2378 
Q 944 2138 947 2091 
L 2959 2091 
L 2872 1672 
L 1013 1672 
Q 1144 956 1644 656 
Q 2003 441 2422 441 
Q 3006 441 3334 747 
L 3334 103 
Q 2944 -78 2472 -78 
Q 1059 -78 563 1097 
Q 463 1334 391 1672 
L -88 1672 
L 0 2091 
L 328 2091 
Q 319 2222 319 2375 
Q 319 2438 322 2503 
L -88 2503 
L 0 2922 
L 363 2922 
Q 556 3941 1372 4384 
Q 1875 4659 2481 4659 
Q 3063 4659 3459 4406 
L 3334 3825 
Q 2953 4141 2469 4141 
z
" transform="scale(0.015625)"/>
       <path id="ArialMT-2f" d="M 0 -78 
L 1328 4659 
L 1778 4659 
L 453 -78 
L 0 -78 
z
" transform="scale(0.015625)"/>
       <path id="ArialMT-29" d="M 791 -1347 
L 388 -1347 
Q 1322 153 1322 1656 
Q 1322 2244 1188 2822 
Q 1081 3291 891 3722 
Q 769 4003 388 4659 
L 791 4659 
Q 1378 3875 1659 3084 
Q 1900 2403 1900 1659 
Q 1900 816 1576 28 
Q 1253 -759 791 -1347 
z
" transform="scale(0.015625)"/>
      </defs>
      <use xlink:href="#ArialMT-4d"/>
      <use xlink:href="#ArialMT-41" transform="translate(83.300781 0)"/>
      <use xlink:href="#ArialMT-45" transform="translate(150 0)"/>
      <use xlink:href="#ArialMT-20" transform="translate(216.699219 0)"/>
      <use xlink:href="#ArialMT-28" transform="translate(244.482422 0)"/>
      <use xlink:href="#ArialMT-20ac" transform="translate(277.783203 0)"/>
      <use xlink:href="#ArialMT-2f" transform="translate(333.398438 0)"/>
      <use xlink:href="#ArialMT-4d" transform="translate(361.181641 0)"/>
      <use xlink:href="#ArialMT-57" transform="translate(444.482422 0)"/>
      <use xlink:href="#ArialMT-68" transform="translate(538.867188 0)"/>
      <use xlink:href="#ArialMT-29" transform="translate(594.482422 0)"/>
     </g>
    </g>
   </g>
   <g id="FillBetweenPolyCollection_1">
    <defs>
     <path id="m1852480726" d="M 84.524616 -129.64136 
L 84.524616 -62.932182 
L 91.367071 -85.254871 
L 98.209526 -68.331355 
L 105.05198 -104.099681 
L 111.894435 -143.066057 
L 118.736889 -84.870678 
L 125.579344 -110.398584 
L 132.421798 -94.119217 
L 139.264253 -99.711668 
L 146.106707 -93.77911 
L 152.949162 -91.988809 
L 159.791616 -94.431319 
L 166.634071 -93.904363 
L 173.476526 -84.603741 
L 180.31898 -89.930711 
L 187.161435 -88.618403 
L 194.003889 -94.173253 
L 200.846344 -92.957248 
L 207.688798 -85.906799 
L 214.531253 -90.731219 
L 221.373707 -95.33163 
L 228.216162 -91.861649 
L 235.058616 -97.955532 
L 241.901071 -92.304534 
L 248.743526 -94.435189 
L 255.58598 -93.959425 
L 262.428435 -92.456177 
L 269.270889 -89.543104 
L 276.113344 -97.06406 
L 282.955798 -88.51021 
L 289.798253 -91.336735 
L 296.640707 -89.543769 
L 303.483162 -89.116 
L 310.325616 -87.648097 
L 317.168071 -88.757482 
L 324.010526 -90.972558 
L 330.85298 -89.785045 
L 337.695435 -84.129157 
L 344.537889 -91.034046 
L 351.380344 -87.321423 
L 358.222798 -85.884394 
L 365.065253 -90.296644 
L 371.907707 -90.565956 
L 378.750162 -86.617249 
L 385.592616 -92.582838 
L 392.435071 -82.27052 
L 399.277526 -80.083186 
L 406.11998 -84.544503 
L 412.962435 -80.383257 
L 419.804889 -83.125504 
L 426.647344 -87.180412 
L 433.489798 -84.837424 
L 440.332253 -80.4781 
L 447.174707 -94.085134 
L 454.017162 -79.821654 
L 460.859616 -84.016867 
L 467.702071 -90.832466 
L 474.544526 -83.396072 
L 481.38698 -79.76244 
L 488.229435 -81.94934 
L 495.071889 -90.737838 
L 501.914344 -90.950469 
L 508.756798 -87.440613 
L 515.599253 -81.986749 
L 522.441707 -85.650784 
L 529.284162 -87.813687 
L 536.126616 -91.400355 
L 542.969071 -83.089957 
L 549.811526 -83.37674 
L 556.65398 -90.661417 
L 563.496435 -95.394416 
L 570.338889 -89.054931 
L 577.181344 -97.880226 
L 584.023798 -94.551386 
L 590.866253 -93.147404 
L 597.708707 -88.241439 
L 604.551162 -91.168722 
L 611.393616 -90.02989 
L 618.236071 -99.20509 
L 625.078526 -86.569539 
L 631.92098 -88.305877 
L 638.763435 -87.195348 
L 645.605889 -89.807949 
L 652.448344 -98.345953 
L 659.290798 -71.428691 
L 666.133253 -97.052139 
L 672.975707 -111.826874 
L 679.818162 -78.724718 
L 686.660616 -85.256353 
L 693.503071 -121.236579 
L 700.345526 -68.232746 
L 707.18798 -84.05201 
L 714.030435 -62.23935 
L 720.872889 -85.058667 
L 727.715344 -89.17082 
L 734.557798 -69.867371 
L 768.770071 -60.292431 
L 768.770071 -91.319323 
L 768.770071 -91.319323 
L 734.557798 -93.670986 
L 727.715344 -137.786851 
L 720.872889 -110.31166 
L 714.030435 -82.527228 
L 707.18798 -105.349493 
L 700.345526 -93.046445 
L 693.503071 -259.084219 
L 686.660616 -105.11494 
L 679.818162 -99.419057 
L 672.975707 -253.090528 
L 666.133253 -121.531573 
L 659.290798 -86.163126 
L 652.448344 -150.71927 
L 645.605889 -105.220005 
L 638.763435 -168.194507 
L 631.92098 -101.53943 
L 625.078526 -97.786643 
L 618.236071 -148.453065 
L 611.393616 -103.41527 
L 604.551162 -122.551976 
L 597.708707 -98.824714 
L 590.866253 -129.18845 
L 584.023798 -116.895418 
L 577.181344 -122.142717 
L 570.338889 -96.526944 
L 563.496435 -120.283312 
L 556.65398 -121.319437 
L 549.811526 -93.912038 
L 542.969071 -89.56734 
L 536.126616 -107.255209 
L 529.284162 -94.268786 
L 522.441707 -92.033548 
L 515.599253 -87.816002 
L 508.756798 -101.640025 
L 501.914344 -109.058423 
L 495.071889 -109.037761 
L 488.229435 -86.799657 
L 481.38698 -84.758844 
L 474.544526 -92.543863 
L 467.702071 -95.40715 
L 460.859616 -88.921657 
L 454.017162 -84.425554 
L 447.174707 -108.052585 
L 440.332253 -85.133132 
L 433.489798 -89.59542 
L 426.647344 -98.977979 
L 419.804889 -87.236293 
L 412.962435 -84.027312 
L 406.11998 -88.568266 
L 399.277526 -88.088915 
L 392.435071 -86.6292 
L 385.592616 -101.529811 
L 378.750162 -90.708247 
L 371.907707 -95.533957 
L 365.065253 -94.566802 
L 358.222798 -89.472198 
L 351.380344 -91.711939 
L 344.537889 -99.56969 
L 337.695435 -90.708625 
L 330.85298 -97.004096 
L 324.010526 -97.529653 
L 317.168071 -92.045958 
L 310.325616 -91.528899 
L 303.483162 -92.773478 
L 296.640707 -93.274078 
L 289.798253 -96.516336 
L 282.955798 -93.751383 
L 276.113344 -100.272991 
L 269.270889 -92.474393 
L 262.428435 -98.642104 
L 255.58598 -97.132242 
L 248.743526 -97.44409 
L 241.901071 -99.42211 
L 235.058616 -105.157964 
L 228.216162 -94.957217 
L 221.373707 -103.168457 
L 214.531253 -96.721132 
L 207.688798 -88.97137 
L 200.846344 -99.382716 
L 194.003889 -100.186489 
L 187.161435 -92.303045 
L 180.31898 -95.155546 
L 173.476526 -88.420113 
L 166.634071 -100.376218 
L 159.791616 -100.792927 
L 152.949162 -98.389259 
L 146.106707 -101.47284 
L 139.264253 -110.399063 
L 132.421798 -104.553819 
L 125.579344 -124.567457 
L 118.736889 -99.045243 
L 111.894435 -173.151867 
L 105.05198 -133.286032 
L 98.209526 -81.597452 
L 91.367071 -134.14252 
L 84.524616 -129.64136 
z
" style="stroke: #840853; stroke-opacity: 0.2"/>
    </defs>
    <g clip-path="url(#p79da301eec)">
     <use xlink:href="#m1852480726" x="0" y="276.634219" style="fill: #840853; fill-opacity: 0.2; stroke: #840853; stroke-opacity: 0.2"/>
    </g>
   </g>
   <g id="FillBetweenPolyCollection_2">
    <defs>
     <path id="mc432afa839" d="M 84.524616 -115.627599 
L 84.524616 -53.61667 
L 91.367071 -73.675515 
L 98.209526 -63.773664 
L 105.05198 -101.759628 
L 111.894435 -138.183608 
L 118.736889 -79.434631 
L 125.579344 -102.544729 
L 132.421798 -93.088681 
L 139.264253 -98.897465 
L 146.106707 -94.351439 
L 152.949162 -91.532193 
L 159.791616 -93.925841 
L 166.634071 -90.904366 
L 173.476526 -83.284436 
L 180.31898 -88.271655 
L 187.161435 -85.291916 
L 194.003889 -90.360722 
L 200.846344 -89.023597 
L 207.688798 -84.572219 
L 214.531253 -87.23814 
L 221.373707 -91.118733 
L 228.216162 -85.624871 
L 235.058616 -91.58306 
L 241.901071 -85.528075 
L 248.743526 -84.913815 
L 255.58598 -84.280494 
L 262.428435 -85.348762 
L 269.270889 -82.599172 
L 276.113344 -86.576645 
L 282.955798 -81.420862 
L 289.798253 -86.120735 
L 296.640707 -84.324191 
L 303.483162 -83.437917 
L 310.325616 -81.76108 
L 317.168071 -82.052632 
L 324.010526 -83.551679 
L 330.85298 -82.83759 
L 337.695435 -78.037692 
L 344.537889 -83.362084 
L 351.380344 -80.415463 
L 358.222798 -78.072168 
L 365.065253 -82.540907 
L 371.907707 -83.45597 
L 378.750162 -80.071261 
L 385.592616 -84.889304 
L 392.435071 -75.199716 
L 399.277526 -74.38579 
L 406.11998 -73.7472 
L 412.962435 -73.183744 
L 419.804889 -76.691762 
L 426.647344 -81.904291 
L 433.489798 -78.49117 
L 440.332253 -76.133037 
L 447.174707 -90.138334 
L 454.017162 -75.82006 
L 460.859616 -78.980574 
L 467.702071 -83.064236 
L 474.544526 -80.499443 
L 481.38698 -75.586211 
L 488.229435 -76.55855 
L 495.071889 -85.666871 
L 501.914344 -87.597265 
L 508.756798 -84.115471 
L 515.599253 -80.686103 
L 522.441707 -82.231768 
L 529.284162 -82.95668 
L 536.126616 -88.985951 
L 542.969071 -79.962991 
L 549.811526 -78.803564 
L 556.65398 -85.537074 
L 563.496435 -95.244736 
L 570.338889 -83.263715 
L 577.181344 -92.99726 
L 584.023798 -89.835353 
L 590.866253 -91.77672 
L 597.708707 -86.403089 
L 604.551162 -84.717034 
L 611.393616 -83.263234 
L 618.236071 -93.333317 
L 625.078526 -82.474525 
L 631.92098 -83.03432 
L 638.763435 -84.728432 
L 645.605889 -90.70738 
L 652.448344 -90.268018 
L 659.290798 -65.445014 
L 666.133253 -95.866722 
L 672.975707 -104.975887 
L 679.818162 -78.347756 
L 686.660616 -74.970486 
L 693.503071 -109.513726 
L 700.345526 -55.463079 
L 707.18798 -73.990364 
L 714.030435 -60.067677 
L 720.872889 -73.169416 
L 727.715344 -82.622335 
L 734.557798 -64.836469 
L 768.770071 -57.331824 
L 768.770071 -89.565158 
L 768.770071 -89.565158 
L 734.557798 -90.071333 
L 727.715344 -128.48358 
L 720.872889 -96.691986 
L 714.030435 -80.774637 
L 707.18798 -96.541102 
L 700.345526 -78.671388 
L 693.503071 -256.46992 
L 686.660616 -94.569863 
L 679.818162 -98.930352 
L 672.975707 -238.727801 
L 666.133253 -121.82862 
L 659.290798 -79.799702 
L 652.448344 -141.229263 
L 645.605889 -105.705589 
L 638.763435 -162.323947 
L 631.92098 -96.545007 
L 625.078526 -92.919324 
L 618.236071 -139.081493 
L 611.393616 -97.130016 
L 604.551162 -115.447974 
L 597.708707 -97.492404 
L 590.866253 -128.237546 
L 584.023798 -112.625438 
L 577.181344 -116.775234 
L 570.338889 -90.805946 
L 563.496435 -118.308592 
L 556.65398 -115.645962 
L 549.811526 -88.543334 
L 542.969071 -86.444594 
L 536.126616 -105.755902 
L 529.284162 -89.376276 
L 522.441707 -88.157465 
L 515.599253 -86.204289 
L 508.756798 -98.645145 
L 501.914344 -105.649848 
L 495.071889 -103.126869 
L 488.229435 -81.523692 
L 481.38698 -80.275997 
L 474.544526 -90.241777 
L 467.702071 -87.529537 
L 460.859616 -83.596174 
L 454.017162 -80.203651 
L 447.174707 -103.819708 
L 440.332253 -80.500493 
L 433.489798 -82.915652 
L 426.647344 -94.266713 
L 419.804889 -80.519554 
L 412.962435 -76.630032 
L 406.11998 -77.457952 
L 399.277526 -82.068367 
L 392.435071 -79.349459 
L 385.592616 -93.256742 
L 378.750162 -83.816403 
L 371.907707 -88.366541 
L 365.065253 -86.718627 
L 358.222798 -81.463195 
L 351.380344 -84.723838 
L 344.537889 -92.416979 
L 337.695435 -84.689612 
L 330.85298 -90.063597 
L 324.010526 -89.590994 
L 317.168071 -85.134177 
L 310.325616 -85.489603 
L 303.483162 -87.062386 
L 296.640707 -87.892256 
L 289.798253 -91.264539 
L 282.955798 -86.199657 
L 276.113344 -89.687128 
L 269.270889 -85.472584 
L 262.428435 -91.401897 
L 255.58598 -86.96075 
L 248.743526 -87.500094 
L 241.901071 -92.83859 
L 235.058616 -99.173716 
L 228.216162 -88.513575 
L 221.373707 -98.251699 
L 214.531253 -92.694489 
L 207.688798 -87.569251 
L 200.846344 -95.131198 
L 194.003889 -95.924128 
L 187.161435 -88.909393 
L 180.31898 -93.086836 
L 173.476526 -87.335474 
L 166.634071 -97.290978 
L 159.791616 -99.586059 
L 152.949162 -97.501729 
L 146.106707 -101.699802 
L 139.264253 -109.219422 
L 132.421798 -103.863695 
L 125.579344 -115.828951 
L 118.736889 -93.335521 
L 111.894435 -165.256128 
L 105.05198 -130.346023 
L 98.209526 -76.182637 
L 91.367071 -125.813861 
L 84.524616 -115.627599 
z
" style="stroke: #3a609c; stroke-opacity: 0.2"/>
    </defs>
    <g clip-path="url(#p79da301eec)">
     <use xlink:href="#mc432afa839" x="0" y="276.634219" style="fill: #3a609c; fill-opacity: 0.2; stroke: #3a609c; stroke-opacity: 0.2"/>
    </g>
   </g>
   <g id="FillBetweenPolyCollection_3">
    <defs>
     <path id="m9f542ad194" d="M 84.524616 -128.647989 
L 84.524616 -68.032397 
L 91.367071 -89.022928 
L 98.209526 -70.199318 
L 105.05198 -105.609554 
L 111.894435 -138.053961 
L 118.736889 -73.01049 
L 125.579344 -95.972241 
L 132.421798 -90.719687 
L 139.264253 -92.541117 
L 146.106707 -90.167141 
L 152.949162 -83.348802 
L 159.791616 -86.588286 
L 166.634071 -82.793166 
L 173.476526 -75.37442 
L 180.31898 -82.079236 
L 187.161435 -74.465545 
L 194.003889 -73.636243 
L 200.846344 -77.916386 
L 207.688798 -73.103408 
L 214.531253 -72.817916 
L 221.373707 -78.624449 
L 228.216162 -70.821841 
L 235.058616 -76.015005 
L 241.901071 -71.14452 
L 248.743526 -65.352421 
L 255.58598 -64.630938 
L 262.428435 -69.241136 
L 269.270889 -63.907252 
L 276.113344 -67.650182 
L 282.955798 -66.872882 
L 289.798253 -73.485403 
L 296.640707 -73.841413 
L 303.483162 -71.390825 
L 310.325616 -67.690184 
L 317.168071 -67.491564 
L 324.010526 -68.302559 
L 330.85298 -71.638409 
L 337.695435 -64.872247 
L 344.537889 -69.122173 
L 351.380344 -68.03617 
L 358.222798 -68.138923 
L 365.065253 -71.045574 
L 371.907707 -74.36837 
L 378.750162 -70.757419 
L 385.592616 -70.344083 
L 392.435071 -64.762871 
L 399.277526 -63.837777 
L 406.11998 -63.515796 
L 412.962435 -61.198367 
L 419.804889 -65.017356 
L 426.647344 -69.863748 
L 433.489798 -68.350695 
L 440.332253 -65.222779 
L 447.174707 -74.481872 
L 454.017162 -64.889171 
L 460.859616 -65.758199 
L 467.702071 -64.912644 
L 474.544526 -71.042191 
L 481.38698 -65.562642 
L 488.229435 -67.302181 
L 495.071889 -77.699241 
L 501.914344 -79.189416 
L 508.756798 -75.355802 
L 515.599253 -73.696093 
L 522.441707 -73.47414 
L 529.284162 -77.92793 
L 536.126616 -83.617974 
L 542.969071 -70.696559 
L 549.811526 -73.868428 
L 556.65398 -84.108969 
L 563.496435 -86.384092 
L 570.338889 -74.703754 
L 577.181344 -85.233373 
L 584.023798 -82.488576 
L 590.866253 -87.205349 
L 597.708707 -82.616892 
L 604.551162 -81.838772 
L 611.393616 -80.274207 
L 618.236071 -86.594748 
L 625.078526 -79.079252 
L 631.92098 -72.27298 
L 638.763435 -77.55031 
L 645.605889 -76.018392 
L 652.448344 -89.595586 
L 659.290798 -55.683505 
L 666.133253 -87.233717 
L 672.975707 -101.862558 
L 679.818162 -68.229314 
L 686.660616 -78.512421 
L 693.503071 -115.143483 
L 700.345526 -82.68469 
L 707.18798 -82.349108 
L 714.030435 -52.084219 
L 720.872889 -70.549065 
L 727.715344 -77.333223 
L 734.557798 -75.609402 
L 768.770071 -60.081994 
L 768.770071 -90.816218 
L 768.770071 -90.816218 
L 734.557798 -103.874209 
L 727.715344 -118.305419 
L 720.872889 -101.79844 
L 714.030435 -72.444709 
L 707.18798 -102.182374 
L 700.345526 -110.905869 
L 693.503071 -254.407909 
L 686.660616 -97.562812 
L 679.818162 -87.061145 
L 672.975707 -240.853747 
L 666.133253 -108.495185 
L 659.290798 -73.106981 
L 652.448344 -139.799701 
L 645.605889 -90.503523 
L 638.763435 -156.43887 
L 631.92098 -83.813477 
L 625.078526 -88.938248 
L 618.236071 -134.805565 
L 611.393616 -90.88225 
L 604.551162 -112.367472 
L 597.708707 -93.439297 
L 590.866253 -125.147902 
L 584.023798 -105.165614 
L 577.181344 -111.165251 
L 570.338889 -81.078027 
L 563.496435 -110.051025 
L 556.65398 -115.636527 
L 549.811526 -83.492126 
L 542.969071 -76.405981 
L 536.126616 -100.261915 
L 529.284162 -84.595136 
L 522.441707 -79.142813 
L 515.599253 -79.346684 
L 508.756798 -92.034765 
L 501.914344 -98.341162 
L 495.071889 -96.165852 
L 488.229435 -71.956067 
L 481.38698 -69.965546 
L 474.544526 -80.699044 
L 467.702071 -68.991276 
L 460.859616 -70.340837 
L 454.017162 -69.488546 
L 447.174707 -88.100827 
L 440.332253 -69.701689 
L 433.489798 -73.056668 
L 426.647344 -82.199246 
L 419.804889 -68.965088 
L 412.962435 -64.46586 
L 406.11998 -67.071022 
L 399.277526 -71.477685 
L 392.435071 -68.99214 
L 385.592616 -79.19448 
L 378.750162 -74.658399 
L 371.907707 -79.489275 
L 365.065253 -75.542007 
L 358.222798 -71.556631 
L 351.380344 -72.113172 
L 344.537889 -78.519918 
L 337.695435 -71.493178 
L 330.85298 -78.926824 
L 324.010526 -74.56139 
L 317.168071 -70.360335 
L 310.325616 -71.381356 
L 303.483162 -75.083692 
L 296.640707 -77.377948 
L 289.798253 -78.955339 
L 282.955798 -71.732346 
L 276.113344 -70.711371 
L 269.270889 -66.379432 
L 262.428435 -75.229034 
L 255.58598 -66.845129 
L 248.743526 -67.782993 
L 241.901071 -78.276736 
L 235.058616 -83.242233 
L 228.216162 -73.612055 
L 221.373707 -86.311934 
L 214.531253 -78.664542 
L 207.688798 -76.136789 
L 200.846344 -84.030252 
L 194.003889 -79.291992 
L 187.161435 -77.906731 
L 180.31898 -87.447096 
L 173.476526 -79.528993 
L 166.634071 -89.371737 
L 159.791616 -93.093333 
L 152.949162 -89.567248 
L 146.106707 -97.976018 
L 139.264253 -103.513555 
L 132.421798 -101.901599 
L 125.579344 -109.84249 
L 118.736889 -86.962329 
L 111.894435 -168.459507 
L 105.05198 -137.052504 
L 98.209526 -83.186833 
L 91.367071 -139.578366 
L 84.524616 -128.647989 
z
" style="stroke: #ffb14e; stroke-opacity: 0.2"/>
    </defs>
    <g clip-path="url(#p79da301eec)">
     <use xlink:href="#m9f542ad194" x="0" y="276.634219" style="fill: #ffb14e; fill-opacity: 0.2; stroke: #ffb14e; stroke-opacity: 0.2"/>
    </g>
   </g>
   <g id="line2d_27">
    <path d="M 84.524616 184.693312 
L 91.367071 168.350173 
L 98.209526 201.953606 
L 105.05198 158.923828 
L 111.894435 119.450278 
L 118.736889 185.071152 
L 125.579344 159.09412 
L 132.421798 177.512624 
L 139.264253 171.761461 
L 146.106707 178.866149 
L 152.949162 181.603734 
L 159.791616 179.037461 
L 166.634071 179.566568 
L 173.476526 190.20249 
L 180.31898 184.14521 
L 187.161435 186.113069 
L 194.003889 179.681517 
L 200.846344 180.727087 
L 207.688798 189.16822 
L 214.531253 183.335961 
L 221.373707 177.605268 
L 228.216162 183.177096 
L 235.058616 175.147339 
L 241.901071 180.988078 
L 248.743526 180.751232 
L 255.58598 181.118067 
L 262.428435 181.293682 
L 269.270889 185.691351 
L 276.113344 177.970431 
L 282.955798 185.764626 
L 289.798253 182.804402 
L 296.640707 185.297915 
L 303.483162 185.673344 
L 310.325616 187.066562 
L 317.168071 186.143978 
L 324.010526 182.55713 
L 330.85298 183.754976 
L 337.695435 189.410499 
L 344.537889 181.818452 
L 351.380344 187.203064 
L 358.222798 188.987285 
L 365.065253 184.227001 
L 371.907707 183.574254 
L 378.750162 187.849826 
L 385.592616 179.722994 
L 392.435071 192.248248 
L 399.277526 193.007468 
L 406.11998 190.161392 
L 412.962435 194.51983 
L 419.804889 191.485578 
L 426.647344 184.08148 
L 433.489798 189.539371 
L 440.332253 193.865778 
L 447.174707 176.309871 
L 454.017162 194.505692 
L 460.859616 190.067407 
L 467.702071 183.637671 
L 474.544526 189.217302 
L 481.38698 194.54447 
L 488.229435 192.349781 
L 495.071889 178.112405 
L 501.914344 178.260858 
L 508.756798 183.003046 
L 515.599253 191.720477 
L 522.441707 187.772483 
L 529.284162 185.553806 
L 536.126616 178.258987 
L 542.969071 190.12591 
L 549.811526 188.278067 
L 556.65398 173.660695 
L 563.496435 170.271679 
L 570.338889 183.889531 
L 577.181344 168.10457 
L 584.023798 172.629169 
L 590.866253 167.639373 
L 597.708707 183.383664 
L 604.551162 172.363963 
L 611.393616 179.842972 
L 618.236071 157.09632 
L 625.078526 184.522019 
L 631.92098 181.748121 
L 638.763435 156.721015 
L 645.605889 179.120001 
L 652.448344 157.553984 
L 659.290798 198.118963 
L 666.133253 167.435722 
L 672.975707 108.420708 
L 679.818162 187.513478 
L 686.660616 181.751364 
L 693.503071 102.844202 
L 700.345526 196.535829 
L 707.18798 182.697259 
L 714.030435 204.34592 
L 720.872889 179.182004 
L 727.715344 164.87988 
L 734.557798 195.711364 
L 768.770071 200.507386 
" clip-path="url(#p79da301eec)" style="fill: none; stroke: #840853; stroke-width: 1.5; stroke-linecap: round"/>
   </g>
   <g id="line2d_28">
    <path d="M 84.524616 197.944693 
L 91.367071 178.502864 
L 98.209526 207.123118 
L 105.05198 160.695752 
L 111.894435 125.655421 
L 118.736889 190.567862 
L 125.579344 167.625354 
L 132.421798 178.282371 
L 139.264253 172.699247 
L 146.106707 178.759156 
L 152.949162 182.118871 
L 159.791616 180.055595 
L 166.634071 182.610414 
L 173.476526 191.299983 
L 180.31898 186.031272 
L 187.161435 189.471651 
L 194.003889 183.688854 
L 200.846344 184.707272 
L 207.688798 190.567247 
L 214.531253 186.972972 
L 221.373707 182.257298 
L 228.216162 189.615301 
L 235.058616 181.541359 
L 241.901071 187.627504 
L 248.743526 190.475574 
L 255.58598 191.033332 
L 262.428435 188.358321 
L 269.270889 192.565834 
L 276.113344 188.357122 
L 282.955798 192.920326 
L 289.798253 188.084805 
L 296.640707 190.565448 
L 303.483162 191.409823 
L 310.325616 193.097628 
L 317.168071 193.107026 
L 324.010526 190.289652 
L 330.85298 190.499211 
L 337.695435 195.772994 
L 344.537889 189.069026 
L 351.380344 194.13612 
L 358.222798 196.925823 
L 365.065253 192.058683 
L 371.907707 190.773658 
L 378.750162 194.754937 
L 385.592616 187.828763 
L 392.435071 199.343859 
L 399.277526 198.842539 
L 406.11998 201.060625 
L 412.962435 201.776365 
L 419.804889 198.074006 
L 426.647344 189.399042 
L 433.489798 196.011232 
L 440.332253 198.290686 
L 447.174707 180.197562 
L 454.017162 198.623224 
L 460.859616 195.436352 
L 467.702071 191.373086 
L 474.544526 191.792569 
L 481.38698 198.811436 
L 488.229435 197.406006 
L 495.071889 183.788283 
L 501.914344 181.343761 
L 508.756798 185.985557 
L 515.599253 193.178598 
L 522.441707 191.471236 
L 529.284162 190.334085 
L 536.126616 180.409512 
L 542.969071 193.354619 
L 549.811526 193.3628 
L 556.65398 178.984936 
L 563.496435 170.860693 
L 570.338889 189.839555 
L 577.181344 172.940855 
L 584.023798 177.345928 
L 590.866253 168.970237 
L 597.708707 184.782523 
L 604.551162 178.242004 
L 611.393616 186.138053 
L 618.236071 163.746188 
L 625.078526 189.237344 
L 631.92098 186.735811 
L 638.763435 160.138759 
L 645.605889 178.827713 
L 652.448344 165.284289 
L 659.290798 203.964824 
L 666.133253 168.244369 
L 672.975707 115.433124 
L 679.818162 187.338855 
L 686.660616 192.158812 
L 693.503071 110.39869 
L 700.345526 209.25024 
L 707.18798 192.009088 
L 714.030435 206.262405 
L 720.872889 191.198167 
L 727.715344 171.430039 
L 734.557798 199.625071 
L 768.770071 202.847321 
" clip-path="url(#p79da301eec)" style="fill: none; stroke: #3a609c; stroke-width: 1.5; stroke-linecap: round"/>
   </g>
   <g id="line2d_29">
    <path d="M 84.524616 181.223223 
L 91.367071 163.37903 
L 98.209526 200.295709 
L 105.05198 156.38097 
L 111.894435 124.369704 
L 118.736889 196.99168 
L 125.579344 173.760733 
L 132.421798 180.099516 
L 139.264253 178.84952 
L 146.106707 182.577291 
L 152.949162 190.105391 
L 159.791616 186.789291 
L 166.634071 190.572182 
L 173.476526 199.252661 
L 180.31898 191.997131 
L 187.161435 200.481754 
L 194.003889 200.159488 
L 200.846344 195.884533 
L 207.688798 202.029064 
L 214.531253 201.265323 
L 221.373707 194.445641 
L 228.216162 204.424758 
L 235.058616 197.371115 
L 241.901071 202.180351 
L 248.743526 210.062214 
L 255.58598 210.942531 
L 262.428435 204.705604 
L 269.270889 211.433788 
L 276.113344 207.490264 
L 282.955798 207.595357 
L 289.798253 200.64475 
L 296.640707 201.057861 
L 303.483162 203.38505 
L 310.325616 207.105985 
L 317.168071 207.723728 
L 324.010526 205.45802 
L 330.85298 201.920416 
L 337.695435 208.824323 
L 344.537889 203.24387 
L 351.380344 206.583194 
L 358.222798 206.769497 
L 365.065253 203.497907 
L 371.907707 199.746027 
L 378.750162 203.954454 
L 385.592616 202.231259 
L 392.435071 209.834625 
L 399.277526 209.198303 
L 406.11998 211.336838 
L 412.962435 213.824523 
L 419.804889 209.631696 
L 426.647344 201.68962 
L 433.489798 205.943617 
L 440.332253 209.286378 
L 447.174707 196.027781 
L 454.017162 209.450025 
L 460.859616 208.669498 
L 467.702071 209.740788 
L 474.544526 201.007225 
L 481.38698 208.882914 
L 488.229435 207.058432 
L 495.071889 191.003811 
L 501.914344 189.710721 
L 508.756798 194.228701 
L 515.599253 200.095918 
L 522.441707 200.354423 
L 529.284162 195.278435 
L 536.126616 185.306827 
L 542.969071 203.125914 
L 549.811526 198.255043 
L 556.65398 179.621227 
L 563.496435 179.963519 
L 570.338889 198.866434 
L 577.181344 180.701584 
L 584.023798 185.045114 
L 590.866253 173.479994 
L 597.708707 188.745427 
L 604.551162 181.137715 
L 611.393616 191.115069 
L 618.236071 169.874133 
L 625.078526 192.641146 
L 631.92098 198.667623 
L 638.763435 166.501899 
L 645.605889 193.662965 
L 652.448344 166.328605 
L 659.290798 212.322098 
L 666.133253 178.346031 
L 672.975707 118.810409 
L 679.818162 199.305937 
L 686.660616 188.847645 
L 693.503071 105.976084 
L 700.345526 180.181894 
L 707.18798 184.645088 
L 714.030435 214.090286 
L 720.872889 190.195711 
L 727.715344 180.140663 
L 734.557798 186.976089 
L 768.770071 201.455528 
" clip-path="url(#p79da301eec)" style="fill: none; stroke: #ffb14e; stroke-width: 1.5; stroke-linecap: round"/>
   </g>
   <g id="patch_3">
    <path d="M 50.312344 234.9 
L 50.312344 7.2 
" style="fill: none; stroke: #262626; stroke-width: 1.25; stroke-linejoin: miter; stroke-linecap: square"/>
   </g>
   <g id="patch_4">
    <path d="M 802.982344 234.9 
L 802.982344 7.2 
" style="fill: none; stroke: #262626; stroke-width: 1.25; stroke-linejoin: miter; stroke-linecap: square"/>
   </g>
   <g id="patch_5">
    <path d="M 50.312344 234.9 
L 802.982344 234.9 
" style="fill: none; stroke: #262626; stroke-width: 1.25; stroke-linejoin: miter; stroke-linecap: square"/>
   </g>
   <g id="patch_6">
    <path d="M 50.312344 7.2 
L 802.982344 7.2 
" style="fill: none; stroke: #262626; stroke-width: 1.25; stroke-linejoin: miter; stroke-linecap: square"/>
   </g>
   <g id="legend_1">
    <g id="patch_7">
     <path d="M 674.512656 78.899375 
L 795.282344 78.899375 
Q 797.482344 78.899375 797.482344 76.699375 
L 797.482344 14.9 
Q 797.482344 12.7 795.282344 12.7 
L 674.512656 12.7 
Q 672.312656 12.7 672.312656 14.9 
L 672.312656 76.699375 
Q 672.312656 78.899375 674.512656 78.899375 
z
" style="fill: #ffffff; opacity: 0.8; stroke: #cccccc; stroke-linejoin: miter"/>
    </g>
    <g id="line2d_30">
     <path d="M 676.712656 21.257656 
L 687.712656 21.257656 
L 698.712656 21.257656 
" style="fill: none; stroke: #840853; stroke-width: 1.5; stroke-linecap: round"/>
    </g>
    <g id="text_19">
     <!-- LSTM (VRE only) -->
     <g style="fill: #262626" transform="translate(707.512656 25.107656) scale(0.11 -0.11)">
      <defs>
       <path id="ArialMT-4c" d="M 469 0 
L 469 4581 
L 1075 4581 
L 1075 541 
L 3331 541 
L 3331 0 
L 469 0 
z
" transform="scale(0.015625)"/>
       <path id="ArialMT-53" d="M 288 1472 
L 859 1522 
Q 900 1178 1048 958 
Q 1197 738 1509 602 
Q 1822 466 2213 466 
Q 2559 466 2825 569 
Q 3091 672 3220 851 
Q 3350 1031 3350 1244 
Q 3350 1459 3225 1620 
Q 3100 1781 2813 1891 
Q 2628 1963 1997 2114 
Q 1366 2266 1113 2400 
Q 784 2572 623 2826 
Q 463 3081 463 3397 
Q 463 3744 659 4045 
Q 856 4347 1234 4503 
Q 1613 4659 2075 4659 
Q 2584 4659 2973 4495 
Q 3363 4331 3572 4012 
Q 3781 3694 3797 3291 
L 3216 3247 
Q 3169 3681 2898 3903 
Q 2628 4125 2100 4125 
Q 1550 4125 1298 3923 
Q 1047 3722 1047 3438 
Q 1047 3191 1225 3031 
Q 1400 2872 2139 2705 
Q 2878 2538 3153 2413 
Q 3553 2228 3743 1945 
Q 3934 1663 3934 1294 
Q 3934 928 3725 604 
Q 3516 281 3123 101 
Q 2731 -78 2241 -78 
Q 1619 -78 1198 103 
Q 778 284 539 648 
Q 300 1013 288 1472 
z
" transform="scale(0.015625)"/>
       <path id="ArialMT-54" d="M 1659 0 
L 1659 4041 
L 150 4041 
L 150 4581 
L 3781 4581 
L 3781 4041 
L 2266 4041 
L 2266 0 
L 1659 0 
z
" transform="scale(0.015625)"/>
       <path id="ArialMT-56" d="M 1803 0 
L 28 4581 
L 684 4581 
L 1875 1253 
Q 2019 853 2116 503 
Q 2222 878 2363 1253 
L 3600 4581 
L 4219 4581 
L 2425 0 
L 1803 0 
z
" transform="scale(0.015625)"/>
       <path id="ArialMT-52" d="M 503 0 
L 503 4581 
L 2534 4581 
Q 3147 4581 3465 4457 
Q 3784 4334 3975 4021 
Q 4166 3709 4166 3331 
Q 4166 2844 3850 2509 
Q 3534 2175 2875 2084 
Q 3116 1969 3241 1856 
Q 3506 1613 3744 1247 
L 4541 0 
L 3778 0 
L 3172 953 
Q 2906 1366 2734 1584 
Q 2563 1803 2427 1890 
Q 2291 1978 2150 2013 
Q 2047 2034 1813 2034 
L 1109 2034 
L 1109 0 
L 503 0 
z
M 1109 2559 
L 2413 2559 
Q 2828 2559 3062 2645 
Q 3297 2731 3419 2920 
Q 3541 3109 3541 3331 
Q 3541 3656 3305 3865 
Q 3069 4075 2559 4075 
L 1109 4075 
L 1109 2559 
z
" transform="scale(0.015625)"/>
       <path id="ArialMT-6f" d="M 213 1659 
Q 213 2581 725 3025 
Q 1153 3394 1769 3394 
Q 2453 3394 2887 2945 
Q 3322 2497 3322 1706 
Q 3322 1066 3130 698 
Q 2938 331 2570 128 
Q 2203 -75 1769 -75 
Q 1072 -75 642 372 
Q 213 819 213 1659 
z
M 791 1659 
Q 791 1022 1069 705 
Q 1347 388 1769 388 
Q 2188 388 2466 706 
Q 2744 1025 2744 1678 
Q 2744 2294 2464 2611 
Q 2184 2928 1769 2928 
Q 1347 2928 1069 2612 
Q 791 2297 791 1659 
z
" transform="scale(0.015625)"/>
       <path id="ArialMT-6c" d="M 409 0 
L 409 4581 
L 972 4581 
L 972 0 
L 409 0 
z
" transform="scale(0.015625)"/>
       <path id="ArialMT-79" d="M 397 -1278 
L 334 -750 
Q 519 -800 656 -800 
Q 844 -800 956 -737 
Q 1069 -675 1141 -563 
Q 1194 -478 1313 -144 
Q 1328 -97 1363 -6 
L 103 3319 
L 709 3319 
L 1400 1397 
Q 1534 1031 1641 628 
Q 1738 1016 1872 1384 
L 2581 3319 
L 3144 3319 
L 1881 -56 
Q 1678 -603 1566 -809 
Q 1416 -1088 1222 -1217 
Q 1028 -1347 759 -1347 
Q 597 -1347 397 -1278 
z
" transform="scale(0.015625)"/>
      </defs>
      <use xlink:href="#ArialMT-4c"/>
      <use xlink:href="#ArialMT-53" transform="translate(55.615234 0)"/>
      <use xlink:href="#ArialMT-54" transform="translate(122.314453 0)"/>
      <use xlink:href="#ArialMT-4d" transform="translate(183.398438 0)"/>
      <use xlink:href="#ArialMT-20" transform="translate(266.699219 0)"/>
      <use xlink:href="#ArialMT-28" transform="translate(294.482422 0)"/>
      <use xlink:href="#ArialMT-56" transform="translate(327.783203 0)"/>
      <use xlink:href="#ArialMT-52" transform="translate(394.482422 0)"/>
      <use xlink:href="#ArialMT-45" transform="translate(466.699219 0)"/>
      <use xlink:href="#ArialMT-20" transform="translate(533.398438 0)"/>
      <use xlink:href="#ArialMT-6f" transform="translate(561.181641 0)"/>
      <use xlink:href="#ArialMT-6e" transform="translate(616.796875 0)"/>
      <use xlink:href="#ArialMT-6c" transform="translate(672.412109 0)"/>
      <use xlink:href="#ArialMT-79" transform="translate(694.628906 0)"/>
      <use xlink:href="#ArialMT-29" transform="translate(744.628906 0)"/>
     </g>
    </g>
    <g id="line2d_31">
     <path d="M 676.712656 37.080469 
L 687.712656 37.080469 
L 698.712656 37.080469 
" style="fill: none; stroke: #3a609c; stroke-width: 1.5; stroke-linecap: round"/>
    </g>
    <g id="text_20">
     <!-- GRU (VRE only) -->
     <g style="fill: #262626" transform="translate(707.512656 40.930469) scale(0.11 -0.11)">
      <defs>
       <path id="ArialMT-47" d="M 2638 1797 
L 2638 2334 
L 4578 2338 
L 4578 638 
Q 4131 281 3656 101 
Q 3181 -78 2681 -78 
Q 2006 -78 1454 211 
Q 903 500 622 1047 
Q 341 1594 341 2269 
Q 341 2938 620 3517 
Q 900 4097 1425 4378 
Q 1950 4659 2634 4659 
Q 3131 4659 3532 4498 
Q 3934 4338 4162 4050 
Q 4391 3763 4509 3300 
L 3963 3150 
Q 3859 3500 3706 3700 
Q 3553 3900 3268 4020 
Q 2984 4141 2638 4141 
Q 2222 4141 1919 4014 
Q 1616 3888 1430 3681 
Q 1244 3475 1141 3228 
Q 966 2803 966 2306 
Q 966 1694 1177 1281 
Q 1388 869 1791 669 
Q 2194 469 2647 469 
Q 3041 469 3416 620 
Q 3791 772 3984 944 
L 3984 1797 
L 2638 1797 
z
" transform="scale(0.015625)"/>
       <path id="ArialMT-55" d="M 3500 4581 
L 4106 4581 
L 4106 1934 
Q 4106 1244 3950 837 
Q 3794 431 3386 176 
Q 2978 -78 2316 -78 
Q 1672 -78 1262 144 
Q 853 366 678 786 
Q 503 1206 503 1934 
L 503 4581 
L 1109 4581 
L 1109 1938 
Q 1109 1341 1220 1058 
Q 1331 775 1601 622 
Q 1872 469 2263 469 
Q 2931 469 3215 772 
Q 3500 1075 3500 1938 
L 3500 4581 
z
" transform="scale(0.015625)"/>
      </defs>
      <use xlink:href="#ArialMT-47"/>
      <use xlink:href="#ArialMT-52" transform="translate(77.783203 0)"/>
      <use xlink:href="#ArialMT-55" transform="translate(150 0)"/>
      <use xlink:href="#ArialMT-20" transform="translate(222.216797 0)"/>
      <use xlink:href="#ArialMT-28" transform="translate(250 0)"/>
      <use xlink:href="#ArialMT-56" transform="translate(283.300781 0)"/>
      <use xlink:href="#ArialMT-52" transform="translate(350 0)"/>
      <use xlink:href="#ArialMT-45" transform="translate(422.216797 0)"/>
      <use xlink:href="#ArialMT-20" transform="translate(488.916016 0)"/>
      <use xlink:href="#ArialMT-6f" transform="translate(516.699219 0)"/>
      <use xlink:href="#ArialMT-6e" transform="translate(572.314453 0)"/>
      <use xlink:href="#ArialMT-6c" transform="translate(627.929688 0)"/>
      <use xlink:href="#ArialMT-79" transform="translate(650.146484 0)"/>
      <use xlink:href="#ArialMT-29" transform="translate(700.146484 0)"/>
     </g>
    </g>
    <g id="line2d_32">
     <path d="M 676.712656 52.769219 
L 687.712656 52.769219 
L 698.712656 52.769219 
" style="fill: none; stroke: #ffb14e; stroke-width: 1.5; stroke-linecap: round"/>
    </g>
    <g id="text_21">
     <!-- Best model -->
     <g style="fill: #262626" transform="translate(707.512656 56.619219) scale(0.11 -0.11)">
      <defs>
       <path id="ArialMT-42" d="M 469 0 
L 469 4581 
L 2188 4581 
Q 2713 4581 3030 4442 
Q 3347 4303 3526 4014 
Q 3706 3725 3706 3409 
Q 3706 3116 3547 2856 
Q 3388 2597 3066 2438 
Q 3481 2316 3704 2022 
Q 3928 1728 3928 1328 
Q 3928 1006 3792 729 
Q 3656 453 3456 303 
Q 3256 153 2954 76 
Q 2653 0 2216 0 
L 469 0 
z
M 1075 2656 
L 2066 2656 
Q 2469 2656 2644 2709 
Q 2875 2778 2992 2937 
Q 3109 3097 3109 3338 
Q 3109 3566 3000 3739 
Q 2891 3913 2687 3977 
Q 2484 4041 1991 4041 
L 1075 4041 
L 1075 2656 
z
M 1075 541 
L 2216 541 
Q 2509 541 2628 563 
Q 2838 600 2978 687 
Q 3119 775 3209 942 
Q 3300 1109 3300 1328 
Q 3300 1584 3169 1773 
Q 3038 1963 2805 2039 
Q 2572 2116 2134 2116 
L 1075 2116 
L 1075 541 
z
" transform="scale(0.015625)"/>
       <path id="ArialMT-73" d="M 197 991 
L 753 1078 
Q 800 744 1014 566 
Q 1228 388 1613 388 
Q 2000 388 2187 545 
Q 2375 703 2375 916 
Q 2375 1106 2209 1216 
Q 2094 1291 1634 1406 
Q 1016 1563 777 1677 
Q 538 1791 414 1992 
Q 291 2194 291 2438 
Q 291 2659 392 2848 
Q 494 3038 669 3163 
Q 800 3259 1026 3326 
Q 1253 3394 1513 3394 
Q 1903 3394 2198 3281 
Q 2494 3169 2634 2976 
Q 2775 2784 2828 2463 
L 2278 2388 
Q 2241 2644 2061 2787 
Q 1881 2931 1553 2931 
Q 1166 2931 1000 2803 
Q 834 2675 834 2503 
Q 834 2394 903 2306 
Q 972 2216 1119 2156 
Q 1203 2125 1616 2013 
Q 2213 1853 2448 1751 
Q 2684 1650 2818 1456 
Q 2953 1263 2953 975 
Q 2953 694 2789 445 
Q 2625 197 2315 61 
Q 2006 -75 1616 -75 
Q 969 -75 630 194 
Q 291 463 197 991 
z
" transform="scale(0.015625)"/>
       <path id="ArialMT-6d" d="M 422 0 
L 422 3319 
L 925 3319 
L 925 2853 
Q 1081 3097 1340 3245 
Q 1600 3394 1931 3394 
Q 2300 3394 2536 3241 
Q 2772 3088 2869 2813 
Q 3263 3394 3894 3394 
Q 4388 3394 4653 3120 
Q 4919 2847 4919 2278 
L 4919 0 
L 4359 0 
L 4359 2091 
Q 4359 2428 4304 2576 
Q 4250 2725 4106 2815 
Q 3963 2906 3769 2906 
Q 3419 2906 3187 2673 
Q 2956 2441 2956 1928 
L 2956 0 
L 2394 0 
L 2394 2156 
Q 2394 2531 2256 2718 
Q 2119 2906 1806 2906 
Q 1569 2906 1367 2781 
Q 1166 2656 1075 2415 
Q 984 2175 984 1722 
L 984 0 
L 422 0 
z
" transform="scale(0.015625)"/>
      </defs>
      <use xlink:href="#ArialMT-42"/>
      <use xlink:href="#ArialMT-65" transform="translate(66.699219 0)"/>
      <use xlink:href="#ArialMT-73" transform="translate(122.314453 0)"/>
      <use xlink:href="#ArialMT-74" transform="translate(172.314453 0)"/>
      <use xlink:href="#ArialMT-20" transform="translate(200.097656 0)"/>
      <use xlink:href="#ArialMT-6d" transform="translate(227.880859 0)"/>
      <use xlink:href="#ArialMT-6f" transform="translate(311.181641 0)"/>
      <use xlink:href="#ArialMT-64" transform="translate(366.796875 0)"/>
      <use xlink:href="#ArialMT-65" transform="translate(422.412109 0)"/>
      <use xlink:href="#ArialMT-6c" transform="translate(478.027344 0)"/>
     </g>
    </g>
    <g id="line2d_33">
     <path d="M 676.712656 68.463125 
L 687.712656 68.463125 
L 698.712656 68.463125 
" style="fill: none; stroke: #74953d; stroke-width: 1.5; stroke-linecap: round"/>
    </g>
    <g id="text_22">
     <!-- German prices -->
     <g style="fill: #262626" transform="translate(707.512656 72.313125) scale(0.11 -0.11)">
      <defs>
       <path id="ArialMT-70" d="M 422 -1272 
L 422 3319 
L 934 3319 
L 934 2888 
Q 1116 3141 1344 3267 
Q 1572 3394 1897 3394 
Q 2322 3394 2647 3175 
Q 2972 2956 3137 2557 
Q 3303 2159 3303 1684 
Q 3303 1175 3120 767 
Q 2938 359 2589 142 
Q 2241 -75 1856 -75 
Q 1575 -75 1351 44 
Q 1128 163 984 344 
L 984 -1272 
L 422 -1272 
z
M 931 1641 
Q 931 1000 1190 694 
Q 1450 388 1819 388 
Q 2194 388 2461 705 
Q 2728 1022 2728 1688 
Q 2728 2322 2467 2637 
Q 2206 2953 1844 2953 
Q 1484 2953 1207 2617 
Q 931 2281 931 1641 
z
" transform="scale(0.015625)"/>
       <path id="ArialMT-63" d="M 2588 1216 
L 3141 1144 
Q 3050 572 2676 248 
Q 2303 -75 1759 -75 
Q 1078 -75 664 370 
Q 250 816 250 1647 
Q 250 2184 428 2587 
Q 606 2991 970 3192 
Q 1334 3394 1763 3394 
Q 2303 3394 2647 3120 
Q 2991 2847 3088 2344 
L 2541 2259 
Q 2463 2594 2264 2762 
Q 2066 2931 1784 2931 
Q 1359 2931 1093 2626 
Q 828 2322 828 1663 
Q 828 994 1084 691 
Q 1341 388 1753 388 
Q 2084 388 2306 591 
Q 2528 794 2588 1216 
z
" transform="scale(0.015625)"/>
      </defs>
      <use xlink:href="#ArialMT-47"/>
      <use xlink:href="#ArialMT-65" transform="translate(77.783203 0)"/>
      <use xlink:href="#ArialMT-72" transform="translate(133.398438 0)"/>
      <use xlink:href="#ArialMT-6d" transform="translate(166.699219 0)"/>
      <use xlink:href="#ArialMT-61" transform="translate(250 0)"/>
      <use xlink:href="#ArialMT-6e" transform="translate(305.615234 0)"/>
      <use xlink:href="#ArialMT-20" transform="translate(361.230469 0)"/>
      <use xlink:href="#ArialMT-70" transform="translate(389.013672 0)"/>
      <use xlink:href="#ArialMT-72" transform="translate(444.628906 0)"/>
      <use xlink:href="#ArialMT-69" transform="translate(477.929688 0)"/>
      <use xlink:href="#ArialMT-63" transform="translate(500.146484 0)"/>
      <use xlink:href="#ArialMT-65" transform="translate(550.146484 0)"/>
      <use xlink:href="#ArialMT-73" transform="translate(605.761719 0)"/>
     </g>
    </g>
   </g>
  </g>
  <g id="axes_2">
   <g id="matplotlib.axis_3">
    <g id="ytick_6">
     <g id="line2d_34">
      <defs>
       <path id="m38f41accab" d="M 0 0 
L 6 0 
" style="stroke: #262626; stroke-width: 1.25"/>
      </defs>
      <g>
       <use xlink:href="#m38f41accab" x="802.982344" y="197.695588" style="fill: #262626; stroke: #262626; stroke-width: 1.25"/>
      </g>
     </g>
     <g id="text_23">
      <!-- 0 -->
      <g style="fill: #262626" transform="translate(812.482344 201.632385) scale(0.11 -0.11)">
       <use xlink:href="#ArialMT-30"/>
      </g>
     </g>
    </g>
    <g id="ytick_7">
     <g id="line2d_35">
      <g>
       <use xlink:href="#m38f41accab" x="802.982344" y="153.011092" style="fill: #262626; stroke: #262626; stroke-width: 1.25"/>
      </g>
     </g>
     <g id="text_24">
      <!-- 200 -->
      <g style="fill: #262626" transform="translate(812.482344 156.947888) scale(0.11 -0.11)">
       <use xlink:href="#ArialMT-32"/>
       <use xlink:href="#ArialMT-30" transform="translate(55.615234 0)"/>
       <use xlink:href="#ArialMT-30" transform="translate(111.230469 0)"/>
      </g>
     </g>
    </g>
    <g id="ytick_8">
     <g id="line2d_36">
      <g>
       <use xlink:href="#m38f41accab" x="802.982344" y="108.326595" style="fill: #262626; stroke: #262626; stroke-width: 1.25"/>
      </g>
     </g>
     <g id="text_25">
      <!-- 400 -->
      <g style="fill: #262626" transform="translate(812.482344 112.263392) scale(0.11 -0.11)">
       <use xlink:href="#ArialMT-34"/>
       <use xlink:href="#ArialMT-30" transform="translate(55.615234 0)"/>
       <use xlink:href="#ArialMT-30" transform="translate(111.230469 0)"/>
      </g>
     </g>
    </g>
    <g id="ytick_9">
     <g id="line2d_37">
      <g>
       <use xlink:href="#m38f41accab" x="802.982344" y="63.642098" style="fill: #262626; stroke: #262626; stroke-width: 1.25"/>
      </g>
     </g>
     <g id="text_26">
      <!-- 600 -->
      <g style="fill: #262626" transform="translate(812.482344 67.578895) scale(0.11 -0.11)">
       <use xlink:href="#ArialMT-36"/>
       <use xlink:href="#ArialMT-30" transform="translate(55.615234 0)"/>
       <use xlink:href="#ArialMT-30" transform="translate(111.230469 0)"/>
      </g>
     </g>
    </g>
    <g id="ytick_10">
     <g id="line2d_38">
      <g>
       <use xlink:href="#m38f41accab" x="802.982344" y="18.957601" style="fill: #262626; stroke: #262626; stroke-width: 1.25"/>
      </g>
     </g>
     <g id="text_27">
      <!-- 800 -->
      <g style="fill: #262626" transform="translate(812.482344 22.894398) scale(0.11 -0.11)">
       <use xlink:href="#ArialMT-38"/>
       <use xlink:href="#ArialMT-30" transform="translate(55.615234 0)"/>
       <use xlink:href="#ArialMT-30" transform="translate(111.230469 0)"/>
      </g>
     </g>
    </g>
    <g id="text_28">
     <!-- German prices (€) -->
     <g style="fill: #262626" transform="translate(843.569062 169.392187) rotate(-90) scale(0.12 -0.12)">
      <use xlink:href="#ArialMT-47"/>
      <use xlink:href="#ArialMT-65" transform="translate(77.783203 0)"/>
      <use xlink:href="#ArialMT-72" transform="translate(133.398438 0)"/>
      <use xlink:href="#ArialMT-6d" transform="translate(166.699219 0)"/>
      <use xlink:href="#ArialMT-61" transform="translate(250 0)"/>
      <use xlink:href="#ArialMT-6e" transform="translate(305.615234 0)"/>
      <use xlink:href="#ArialMT-20" transform="translate(361.230469 0)"/>
      <use xlink:href="#ArialMT-70" transform="translate(389.013672 0)"/>
      <use xlink:href="#ArialMT-72" transform="translate(444.628906 0)"/>
      <use xlink:href="#ArialMT-69" transform="translate(477.929688 0)"/>
      <use xlink:href="#ArialMT-63" transform="translate(500.146484 0)"/>
      <use xlink:href="#ArialMT-65" transform="translate(550.146484 0)"/>
      <use xlink:href="#ArialMT-73" transform="translate(605.761719 0)"/>
      <use xlink:href="#ArialMT-20" transform="translate(655.761719 0)"/>
      <use xlink:href="#ArialMT-28" transform="translate(683.544922 0)"/>
      <use xlink:href="#ArialMT-20ac" transform="translate(716.845703 0)"/>
      <use xlink:href="#ArialMT-29" transform="translate(772.460938 0)"/>
     </g>
    </g>
   </g>
   <g id="FillBetweenPolyCollection_4">
    <defs>
     <path id="m0572ced6f2" d="M 84.524616 -259.084219 
L 84.524616 -102.330925 
L 91.367071 -89.258946 
L 98.209526 -99.793209 
L 105.05198 -83.541869 
L 111.894435 -85.735468 
L 118.736889 -97.399578 
L 125.579344 -85.195672 
L 132.421798 -77.868901 
L 139.264253 -87.817343 
L 146.106707 -89.49223 
L 152.949162 -91.005358 
L 159.791616 -93.58868 
L 166.634071 -91.84622 
L 173.476526 -95.447867 
L 180.31898 -93.269927 
L 187.161435 -92.083397 
L 194.003889 -92.473204 
L 200.846344 -85.145829 
L 207.688798 -93.607666 
L 214.531253 -92.762348 
L 221.373707 -92.359133 
L 228.216162 -91.173924 
L 235.058616 -64.811438 
L 241.901071 -88.165019 
L 248.743526 -90.971568 
L 255.58598 -89.142497 
L 262.428435 -90.449105 
L 269.270889 -89.882902 
L 276.113344 -88.531122 
L 282.955798 -89.217582 
L 289.798253 -68.558624 
L 296.640707 -89.151431 
L 303.483162 -87.935996 
L 310.325616 -88.316079 
L 317.168071 -87.458117 
L 324.010526 -85.386227 
L 330.85298 -87.197982 
L 337.695435 -76.840475 
L 344.537889 -87.319771 
L 351.380344 -86.383881 
L 358.222798 -86.441095 
L 365.065253 -85.037063 
L 371.907707 -84.825883 
L 378.750162 -84.492558 
L 385.592616 -81.793516 
L 392.435071 -87.21842 
L 399.277526 -83.64583 
L 406.11998 -84.273367 
L 412.962435 -84.491942 
L 419.804889 -86.532733 
L 426.647344 -86.133069 
L 433.489798 -83.598796 
L 440.332253 -81.252884 
L 447.174707 -83.10344 
L 454.017162 -83.910279 
L 460.859616 -83.49115 
L 467.702071 -81.93248 
L 474.544526 -81.658638 
L 481.38698 -82.538979 
L 488.229435 -80.172481 
L 495.071889 -80.476596 
L 501.914344 -80.445752 
L 508.756798 -80.44237 
L 515.599253 -78.042156 
L 522.441707 -79.192812 
L 529.284162 -77.153879 
L 536.126616 -79.355192 
L 542.969071 -76.322972 
L 549.811526 -77.975086 
L 556.65398 -78.095141 
L 563.496435 -74.989982 
L 570.338889 -74.886628 
L 577.181344 -73.272868 
L 584.023798 -73.262619 
L 590.866253 -71.537463 
L 597.708707 -72.394174 
L 604.551162 -72.648162 
L 611.393616 -74.766083 
L 618.236071 -68.1462 
L 625.078526 -73.908263 
L 631.92098 -69.49201 
L 638.763435 -73.129374 
L 645.605889 -61.366929 
L 652.448344 -65.727693 
L 659.290798 -75.686286 
L 666.133253 -73.023224 
L 672.975707 -75.121807 
L 679.818162 -74.352046 
L 686.660616 -64.936864 
L 693.503071 -64.828507 
L 700.345526 -74.493716 
L 707.18798 -61.311079 
L 714.030435 -76.323983 
L 720.872889 -70.068204 
L 727.715344 -52.084219 
L 734.557798 -74.933911 
L 768.770071 -75.240988 
L 768.770071 -75.240988 
L 768.770071 -75.240988 
L 734.557798 -78.519585 
L 727.715344 -68.226786 
L 720.872889 -75.525289 
L 714.030435 -76.671497 
L 707.18798 -78.914317 
L 700.345526 -78.946374 
L 693.503071 -79.271034 
L 686.660616 -76.497247 
L 679.818162 -79.67006 
L 672.975707 -85.828258 
L 666.133253 -78.940788 
L 659.290798 -79.304356 
L 652.448344 -84.469354 
L 645.605889 -82.155438 
L 638.763435 -84.830757 
L 631.92098 -80.211769 
L 625.078526 -84.724166 
L 618.236071 -85.686121 
L 611.393616 -87.726448 
L 604.551162 -87.625677 
L 597.708707 -86.501645 
L 590.866253 -86.347841 
L 584.023798 -82.943107 
L 577.181344 -87.731443 
L 570.338889 -87.198267 
L 563.496435 -89.147289 
L 556.65398 -92.42922 
L 549.811526 -89.266705 
L 542.969071 -89.599161 
L 536.126616 -93.164358 
L 529.284162 -90.26067 
L 522.441707 -91.848601 
L 515.599253 -90.216226 
L 508.756798 -94.639687 
L 501.914344 -94.630571 
L 495.071889 -94.555579 
L 488.229435 -94.011754 
L 481.38698 -95.397353 
L 474.544526 -95.313235 
L 467.702071 -94.365119 
L 460.859616 -97.175623 
L 454.017162 -97.406134 
L 447.174707 -96.945609 
L 440.332253 -97.0097 
L 433.489798 -97.668937 
L 426.647344 -99.981429 
L 419.804889 -99.086746 
L 412.962435 -97.777557 
L 406.11998 -98.338902 
L 399.277526 -98.287769 
L 392.435071 -100.009 
L 385.592616 -102.159808 
L 378.750162 -100.193049 
L 371.907707 -99.991558 
L 365.065253 -101.034809 
L 358.222798 -102.178367 
L 351.380344 -101.607688 
L 344.537889 -101.121127 
L 337.695435 -118.17241 
L 330.85298 -102.745143 
L 324.010526 -105.676753 
L 317.168071 -102.923203 
L 310.325616 -104.3919 
L 303.483162 -104.884326 
L 296.640707 -104.095632 
L 289.798253 -132.432553 
L 282.955798 -105.436848 
L 276.113344 -105.069139 
L 269.270889 -104.839497 
L 262.428435 -105.574922 
L 255.58598 -105.766371 
L 248.743526 -106.905198 
L 241.901071 -113.882523 
L 235.058616 -141.992595 
L 228.216162 -107.792717 
L 221.373707 -109.021561 
L 214.531253 -108.826963 
L 207.688798 -108.241752 
L 200.846344 -120.517511 
L 194.003889 -110.80934 
L 187.161435 -112.597781 
L 180.31898 -114.700951 
L 173.476526 -109.806346 
L 166.634071 -119.138347 
L 159.791616 -114.937812 
L 152.949162 -118.318685 
L 146.106707 -122.323378 
L 139.264253 -118.340938 
L 132.421798 -142.351884 
L 125.579344 -133.255397 
L 118.736889 -107.024033 
L 111.894435 -128.109519 
L 105.05198 -149.601552 
L 98.209526 -111.783925 
L 91.367071 -181.337801 
L 84.524616 -259.084219 
z
" style="stroke: #74953d; stroke-opacity: 0.2"/>
    </defs>
    <g clip-path="url(#p79da301eec)">
     <use xlink:href="#m0572ced6f2" x="0" y="276.634219" style="fill: #74953d; fill-opacity: 0.2; stroke: #74953d; stroke-opacity: 0.2"/>
    </g>
   </g>
   <g id="line2d_39">
    <path d="M 84.524616 95.926647 
L 91.367071 141.335845 
L 98.209526 170.845652 
L 105.05198 160.062508 
L 111.894435 169.711725 
L 118.736889 174.422413 
L 125.579344 167.408685 
L 132.421798 166.523827 
L 139.264253 173.555078 
L 146.106707 170.726414 
L 152.949162 171.972198 
L 159.791616 172.370973 
L 166.634071 171.141935 
L 173.476526 174.007113 
L 180.31898 172.64878 
L 187.161435 174.29363 
L 194.003889 174.992947 
L 200.846344 173.802549 
L 207.688798 175.709509 
L 214.531253 175.839563 
L 221.373707 175.943872 
L 228.216162 177.150898 
L 235.058616 173.232202 
L 241.901071 175.610448 
L 248.743526 177.695835 
L 255.58598 179.179785 
L 262.428435 178.622205 
L 269.270889 179.273019 
L 276.113344 179.834088 
L 282.955798 179.307003 
L 289.798253 176.13863 
L 296.640707 180.010687 
L 303.483162 180.224058 
L 310.325616 180.280229 
L 317.168071 181.443559 
L 324.010526 181.102729 
L 330.85298 181.662656 
L 337.695435 179.127776 
L 344.537889 182.41377 
L 351.380344 182.638434 
L 358.222798 182.324488 
L 365.065253 183.598283 
L 371.907707 184.225498 
L 378.750162 184.291415 
L 385.592616 184.657556 
L 392.435071 183.020509 
L 399.277526 185.667419 
L 406.11998 185.328084 
L 412.962435 185.499469 
L 419.804889 183.82448 
L 426.647344 183.57697 
L 433.489798 186.000352 
L 440.332253 187.502927 
L 447.174707 186.609694 
L 454.017162 185.976012 
L 460.859616 186.300832 
L 467.702071 188.485419 
L 474.544526 188.148282 
L 481.38698 187.666053 
L 488.229435 189.542102 
L 495.071889 189.118131 
L 501.914344 189.096057 
L 508.756798 189.09319 
L 515.599253 192.505028 
L 522.441707 191.113512 
L 529.284162 192.926944 
L 536.126616 190.374444 
L 542.969071 193.673152 
L 549.811526 193.013323 
L 556.65398 191.372039 
L 563.496435 194.565583 
L 570.338889 195.591772 
L 577.181344 196.132063 
L 584.023798 198.531356 
L 590.866253 197.691567 
L 597.708707 197.186309 
L 604.551162 196.497299 
L 611.393616 195.387953 
L 618.236071 199.718058 
L 625.078526 197.318004 
L 631.92098 201.782329 
L 638.763435 197.654154 
L 645.605889 204.873036 
L 652.448344 201.535695 
L 659.290798 199.138898 
L 666.133253 200.652212 
L 672.975707 196.159186 
L 679.818162 199.623166 
L 686.660616 205.917163 
L 693.503071 204.584448 
L 700.345526 199.914174 
L 707.18798 206.521521 
L 714.030435 200.136479 
L 720.872889 203.837472 
L 727.715344 216.478716 
L 734.557798 199.907471 
L 768.770071 201.39323 
" clip-path="url(#p79da301eec)" style="fill: none; stroke: #74953d; stroke-width: 1.5; stroke-linecap: round"/>
   </g>
   <g id="patch_8">
    <path d="M 50.312344 234.9 
L 50.312344 7.2 
" style="fill: none; stroke: #262626; stroke-width: 1.25; stroke-linejoin: miter; stroke-linecap: square"/>
   </g>
   <g id="patch_9">
    <path d="M 802.982344 234.9 
L 802.982344 7.2 
" style="fill: none; stroke: #262626; stroke-width: 1.25; stroke-linejoin: miter; stroke-linecap: square"/>
   </g>
   <g id="patch_10">
    <path d="M 50.312344 234.9 
L 802.982344 234.9 
" style="fill: none; stroke: #262626; stroke-width: 1.25; stroke-linejoin: miter; stroke-linecap: square"/>
   </g>
   <g id="patch_11">
    <path d="M 50.312344 7.2 
L 802.982344 7.2 
" style="fill: none; stroke: #262626; stroke-width: 1.25; stroke-linejoin: miter; stroke-linecap: square"/>
   </g>
  </g>
 </g>
 <defs>
  <clipPath id="p79da301eec">
   <rect x="50.312344" y="7.2" width="752.67" height="227.7"/>
  </clipPath>
 </defs>
</svg>
