<?xml version="1.0" encoding="utf-8" standalone="no"?>
<!DOCTYPE svg PUBLIC "-//W3C//DTD SVG 1.1//EN"
  "http://www.w3.org/Graphics/SVG/1.1/DTD/svg11.dtd">
<svg xmlns:xlink="http://www.w3.org/1999/xlink" width="852.845312pt" height="856.801641pt" viewBox="0 0 852.845312 856.801641" xmlns="http://www.w3.org/2000/svg" version="1.1">
 <metadata>
  <rdf:RDF xmlns:dc="http://purl.org/dc/elements/1.1/" xmlns:cc="http://creativecommons.org/ns#" xmlns:rdf="http://www.w3.org/1999/02/22-rdf-syntax-ns#">
   <cc:Work>
    <dc:type rdf:resource="http://purl.org/dc/dcmitype/StillImage"/>
    <dc:date>2025-07-06T15:51:02.914437</dc:date>
    <dc:format>image/svg+xml</dc:format>
    <dc:creator>
     <cc:Agent>
      <dc:title>Matplotlib v3.10.1, https://matplotlib.org/</dc:title>
     </cc:Agent>
    </dc:creator>
   </cc:Work>
  </rdf:RDF>
 </metadata>
 <defs>
  <style type="text/css">*{stroke-linejoin: round; stroke-linecap: butt}</style>
 </defs>
 <g id="figure_1">
  <g id="patch_1">
   <path d="M 0 856.801641 
L 852.845312 856.801641 
L 852.845312 0 
L 0 0 
z
" style="fill: #ffffff"/>
  </g>
  <g id="axes_1">
   <g id="patch_2">
    <path d="M 44.195313 187.642734 
L 845.645312 187.642734 
L 845.645312 11.136797 
L 44.195313 11.136797 
z
" style="fill: #ffffff"/>
   </g>
   <g id="matplotlib.axis_1">
    <g id="xtick_1">
     <g id="line2d_1">
      <defs>
       <path id="m6b78bf21d5" d="M 0 0 
L 0 6 
" style="stroke: #262626; stroke-width: 1.25"/>
      </defs>
      <g>
       <use xlink:href="#m6b78bf21d5" x="80.624858" y="187.642734" style="fill: #262626; stroke: #262626; stroke-width: 1.25"/>
      </g>
     </g>
     <g id="text_1">
      <!-- 0h -->
      <g style="fill: #262626" transform="translate(74.507827 205.016328) scale(0.11 -0.11)">
       <defs>
        <path id="ArialMT-30" d="M 266 2259 
Q 266 3072 433 3567 
Q 600 4063 929 4331 
Q 1259 4600 1759 4600 
Q 2128 4600 2406 4451 
Q 2684 4303 2865 4023 
Q 3047 3744 3150 3342 
Q 3253 2941 3253 2259 
Q 3253 1453 3087 958 
Q 2922 463 2592 192 
Q 2263 -78 1759 -78 
Q 1097 -78 719 397 
Q 266 969 266 2259 
z
M 844 2259 
Q 844 1131 1108 757 
Q 1372 384 1759 384 
Q 2147 384 2411 759 
Q 2675 1134 2675 2259 
Q 2675 3391 2411 3762 
Q 2147 4134 1753 4134 
Q 1366 4134 1134 3806 
Q 844 3388 844 2259 
z
" transform="scale(0.015625)"/>
        <path id="ArialMT-68" d="M 422 0 
L 422 4581 
L 984 4581 
L 984 2938 
Q 1378 3394 1978 3394 
Q 2347 3394 2619 3248 
Q 2891 3103 3008 2847 
Q 3125 2591 3125 2103 
L 3125 0 
L 2563 0 
L 2563 2103 
Q 2563 2525 2380 2717 
Q 2197 2909 1863 2909 
Q 1613 2909 1392 2779 
Q 1172 2650 1078 2428 
Q 984 2206 984 1816 
L 984 0 
L 422 0 
z
" transform="scale(0.015625)"/>
       </defs>
       <use xlink:href="#ArialMT-30"/>
       <use xlink:href="#ArialMT-68" transform="translate(55.615234 0)"/>
      </g>
     </g>
    </g>
    <g id="xtick_2">
     <g id="line2d_2">
      <g>
       <use xlink:href="#m6b78bf21d5" x="270.692052" y="187.642734" style="fill: #262626; stroke: #262626; stroke-width: 1.25"/>
      </g>
     </g>
     <g id="text_2">
      <!-- 6h -->
      <g style="fill: #262626" transform="translate(264.57502 205.016328) scale(0.11 -0.11)">
       <defs>
        <path id="ArialMT-36" d="M 3184 3459 
L 2625 3416 
Q 2550 3747 2413 3897 
Q 2184 4138 1850 4138 
Q 1581 4138 1378 3988 
Q 1113 3794 959 3422 
Q 806 3050 800 2363 
Q 1003 2672 1297 2822 
Q 1591 2972 1913 2972 
Q 2475 2972 2870 2558 
Q 3266 2144 3266 1488 
Q 3266 1056 3080 686 
Q 2894 316 2569 119 
Q 2244 -78 1831 -78 
Q 1128 -78 684 439 
Q 241 956 241 2144 
Q 241 3472 731 4075 
Q 1159 4600 1884 4600 
Q 2425 4600 2770 4297 
Q 3116 3994 3184 3459 
z
M 888 1484 
Q 888 1194 1011 928 
Q 1134 663 1356 523 
Q 1578 384 1822 384 
Q 2178 384 2434 671 
Q 2691 959 2691 1453 
Q 2691 1928 2437 2201 
Q 2184 2475 1800 2475 
Q 1419 2475 1153 2201 
Q 888 1928 888 1484 
z
" transform="scale(0.015625)"/>
       </defs>
       <use xlink:href="#ArialMT-36"/>
       <use xlink:href="#ArialMT-68" transform="translate(55.615234 0)"/>
      </g>
     </g>
    </g>
    <g id="xtick_3">
     <g id="line2d_3">
      <g>
       <use xlink:href="#m6b78bf21d5" x="460.759245" y="187.642734" style="fill: #262626; stroke: #262626; stroke-width: 1.25"/>
      </g>
     </g>
     <g id="text_3">
      <!-- 12h -->
      <g style="fill: #262626" transform="translate(451.583698 205.016328) scale(0.11 -0.11)">
       <defs>
        <path id="ArialMT-31" d="M 2384 0 
L 1822 0 
L 1822 3584 
Q 1619 3391 1289 3197 
Q 959 3003 697 2906 
L 697 3450 
Q 1169 3672 1522 3987 
Q 1875 4303 2022 4600 
L 2384 4600 
L 2384 0 
z
" transform="scale(0.015625)"/>
        <path id="ArialMT-32" d="M 3222 541 
L 3222 0 
L 194 0 
Q 188 203 259 391 
Q 375 700 629 1000 
Q 884 1300 1366 1694 
Q 2113 2306 2375 2664 
Q 2638 3022 2638 3341 
Q 2638 3675 2398 3904 
Q 2159 4134 1775 4134 
Q 1369 4134 1125 3890 
Q 881 3647 878 3216 
L 300 3275 
Q 359 3922 746 4261 
Q 1134 4600 1788 4600 
Q 2447 4600 2831 4234 
Q 3216 3869 3216 3328 
Q 3216 3053 3103 2787 
Q 2991 2522 2730 2228 
Q 2469 1934 1863 1422 
Q 1356 997 1212 845 
Q 1069 694 975 541 
L 3222 541 
z
" transform="scale(0.015625)"/>
       </defs>
       <use xlink:href="#ArialMT-31"/>
       <use xlink:href="#ArialMT-32" transform="translate(55.615234 0)"/>
       <use xlink:href="#ArialMT-68" transform="translate(111.230469 0)"/>
      </g>
     </g>
    </g>
    <g id="xtick_4">
     <g id="line2d_4">
      <g>
       <use xlink:href="#m6b78bf21d5" x="650.826439" y="187.642734" style="fill: #262626; stroke: #262626; stroke-width: 1.25"/>
      </g>
     </g>
     <g id="text_4">
      <!-- 18h -->
      <g style="fill: #262626" transform="translate(641.650892 205.016328) scale(0.11 -0.11)">
       <defs>
        <path id="ArialMT-38" d="M 1131 2484 
Q 781 2613 612 2850 
Q 444 3088 444 3419 
Q 444 3919 803 4259 
Q 1163 4600 1759 4600 
Q 2359 4600 2725 4251 
Q 3091 3903 3091 3403 
Q 3091 3084 2923 2848 
Q 2756 2613 2416 2484 
Q 2838 2347 3058 2040 
Q 3278 1734 3278 1309 
Q 3278 722 2862 322 
Q 2447 -78 1769 -78 
Q 1091 -78 675 323 
Q 259 725 259 1325 
Q 259 1772 486 2073 
Q 713 2375 1131 2484 
z
M 1019 3438 
Q 1019 3113 1228 2906 
Q 1438 2700 1772 2700 
Q 2097 2700 2305 2904 
Q 2513 3109 2513 3406 
Q 2513 3716 2298 3927 
Q 2084 4138 1766 4138 
Q 1444 4138 1231 3931 
Q 1019 3725 1019 3438 
z
M 838 1322 
Q 838 1081 952 856 
Q 1066 631 1291 507 
Q 1516 384 1775 384 
Q 2178 384 2440 643 
Q 2703 903 2703 1303 
Q 2703 1709 2433 1975 
Q 2163 2241 1756 2241 
Q 1359 2241 1098 1978 
Q 838 1716 838 1322 
z
" transform="scale(0.015625)"/>
       </defs>
       <use xlink:href="#ArialMT-31"/>
       <use xlink:href="#ArialMT-38" transform="translate(55.615234 0)"/>
       <use xlink:href="#ArialMT-68" transform="translate(111.230469 0)"/>
      </g>
     </g>
    </g>
    <g id="xtick_5">
     <g id="line2d_5">
      <g>
       <use xlink:href="#m6b78bf21d5" x="809.215767" y="187.642734" style="fill: #262626; stroke: #262626; stroke-width: 1.25"/>
      </g>
     </g>
     <g id="text_5">
      <!-- 23h -->
      <g style="fill: #262626" transform="translate(800.04022 205.016328) scale(0.11 -0.11)">
       <defs>
        <path id="ArialMT-33" d="M 269 1209 
L 831 1284 
Q 928 806 1161 595 
Q 1394 384 1728 384 
Q 2125 384 2398 659 
Q 2672 934 2672 1341 
Q 2672 1728 2419 1979 
Q 2166 2231 1775 2231 
Q 1616 2231 1378 2169 
L 1441 2663 
Q 1497 2656 1531 2656 
Q 1891 2656 2178 2843 
Q 2466 3031 2466 3422 
Q 2466 3731 2256 3934 
Q 2047 4138 1716 4138 
Q 1388 4138 1169 3931 
Q 950 3725 888 3313 
L 325 3413 
Q 428 3978 793 4289 
Q 1159 4600 1703 4600 
Q 2078 4600 2393 4439 
Q 2709 4278 2876 4000 
Q 3044 3722 3044 3409 
Q 3044 3113 2884 2869 
Q 2725 2625 2413 2481 
Q 2819 2388 3044 2092 
Q 3269 1797 3269 1353 
Q 3269 753 2831 336 
Q 2394 -81 1725 -81 
Q 1122 -81 723 278 
Q 325 638 269 1209 
z
" transform="scale(0.015625)"/>
       </defs>
       <use xlink:href="#ArialMT-32"/>
       <use xlink:href="#ArialMT-33" transform="translate(55.615234 0)"/>
       <use xlink:href="#ArialMT-68" transform="translate(111.230469 0)"/>
      </g>
     </g>
    </g>
   </g>
   <g id="matplotlib.axis_2">
    <g id="ytick_1">
     <g id="line2d_6">
      <defs>
       <path id="m80240970fe" d="M 0 0 
L -6 0 
" style="stroke: #262626; stroke-width: 1.25"/>
      </defs>
      <g>
       <use xlink:href="#m80240970fe" x="44.195313" y="187.642734" style="fill: #262626; stroke: #262626; stroke-width: 1.25"/>
      </g>
     </g>
     <g id="text_6">
      <!-- 10 -->
      <g style="fill: #262626" transform="translate(22.46125 191.579531) scale(0.11 -0.11)">
       <use xlink:href="#ArialMT-31"/>
       <use xlink:href="#ArialMT-30" transform="translate(55.615234 0)"/>
      </g>
     </g>
    </g>
    <g id="ytick_2">
     <g id="line2d_7">
      <g>
       <use xlink:href="#m80240970fe" x="44.195313" y="165.579492" style="fill: #262626; stroke: #262626; stroke-width: 1.25"/>
      </g>
     </g>
     <g id="text_7">
      <!-- 20 -->
      <g style="fill: #262626" transform="translate(22.46125 169.516289) scale(0.11 -0.11)">
       <use xlink:href="#ArialMT-32"/>
       <use xlink:href="#ArialMT-30" transform="translate(55.615234 0)"/>
      </g>
     </g>
    </g>
    <g id="ytick_3">
     <g id="line2d_8">
      <g>
       <use xlink:href="#m80240970fe" x="44.195313" y="143.51625" style="fill: #262626; stroke: #262626; stroke-width: 1.25"/>
      </g>
     </g>
     <g id="text_8">
      <!-- 30 -->
      <g style="fill: #262626" transform="translate(22.46125 147.453047) scale(0.11 -0.11)">
       <use xlink:href="#ArialMT-33"/>
       <use xlink:href="#ArialMT-30" transform="translate(55.615234 0)"/>
      </g>
     </g>
    </g>
    <g id="ytick_4">
     <g id="line2d_9">
      <g>
       <use xlink:href="#m80240970fe" x="44.195313" y="121.453008" style="fill: #262626; stroke: #262626; stroke-width: 1.25"/>
      </g>
     </g>
     <g id="text_9">
      <!-- 40 -->
      <g style="fill: #262626" transform="translate(22.46125 125.389805) scale(0.11 -0.11)">
       <defs>
        <path id="ArialMT-34" d="M 2069 0 
L 2069 1097 
L 81 1097 
L 81 1613 
L 2172 4581 
L 2631 4581 
L 2631 1613 
L 3250 1613 
L 3250 1097 
L 2631 1097 
L 2631 0 
L 2069 0 
z
M 2069 1613 
L 2069 3678 
L 634 1613 
L 2069 1613 
z
" transform="scale(0.015625)"/>
       </defs>
       <use xlink:href="#ArialMT-34"/>
       <use xlink:href="#ArialMT-30" transform="translate(55.615234 0)"/>
      </g>
     </g>
    </g>
    <g id="ytick_5">
     <g id="line2d_10">
      <g>
       <use xlink:href="#m80240970fe" x="44.195313" y="99.389766" style="fill: #262626; stroke: #262626; stroke-width: 1.25"/>
      </g>
     </g>
     <g id="text_10">
      <!-- 50 -->
      <g style="fill: #262626" transform="translate(22.46125 103.326562) scale(0.11 -0.11)">
       <defs>
        <path id="ArialMT-35" d="M 266 1200 
L 856 1250 
Q 922 819 1161 601 
Q 1400 384 1738 384 
Q 2144 384 2425 690 
Q 2706 997 2706 1503 
Q 2706 1984 2436 2262 
Q 2166 2541 1728 2541 
Q 1456 2541 1237 2417 
Q 1019 2294 894 2097 
L 366 2166 
L 809 4519 
L 3088 4519 
L 3088 3981 
L 1259 3981 
L 1013 2750 
Q 1425 3038 1878 3038 
Q 2478 3038 2890 2622 
Q 3303 2206 3303 1553 
Q 3303 931 2941 478 
Q 2500 -78 1738 -78 
Q 1113 -78 717 272 
Q 322 622 266 1200 
z
" transform="scale(0.015625)"/>
       </defs>
       <use xlink:href="#ArialMT-35"/>
       <use xlink:href="#ArialMT-30" transform="translate(55.615234 0)"/>
      </g>
     </g>
    </g>
    <g id="ytick_6">
     <g id="line2d_11">
      <g>
       <use xlink:href="#m80240970fe" x="44.195313" y="77.326523" style="fill: #262626; stroke: #262626; stroke-width: 1.25"/>
      </g>
     </g>
     <g id="text_11">
      <!-- 60 -->
      <g style="fill: #262626" transform="translate(22.46125 81.26332) scale(0.11 -0.11)">
       <use xlink:href="#ArialMT-36"/>
       <use xlink:href="#ArialMT-30" transform="translate(55.615234 0)"/>
      </g>
     </g>
    </g>
    <g id="ytick_7">
     <g id="line2d_12">
      <g>
       <use xlink:href="#m80240970fe" x="44.195313" y="55.263281" style="fill: #262626; stroke: #262626; stroke-width: 1.25"/>
      </g>
     </g>
     <g id="text_12">
      <!-- 70 -->
      <g style="fill: #262626" transform="translate(22.46125 59.200078) scale(0.11 -0.11)">
       <defs>
        <path id="ArialMT-37" d="M 303 3981 
L 303 4522 
L 3269 4522 
L 3269 4084 
Q 2831 3619 2401 2847 
Q 1972 2075 1738 1259 
Q 1569 684 1522 0 
L 944 0 
Q 953 541 1156 1306 
Q 1359 2072 1739 2783 
Q 2119 3494 2547 3981 
L 303 3981 
z
" transform="scale(0.015625)"/>
       </defs>
       <use xlink:href="#ArialMT-37"/>
       <use xlink:href="#ArialMT-30" transform="translate(55.615234 0)"/>
      </g>
     </g>
    </g>
    <g id="ytick_8">
     <g id="line2d_13">
      <g>
       <use xlink:href="#m80240970fe" x="44.195313" y="33.200039" style="fill: #262626; stroke: #262626; stroke-width: 1.25"/>
      </g>
     </g>
     <g id="text_13">
      <!-- 80 -->
      <g style="fill: #262626" transform="translate(22.46125 37.136836) scale(0.11 -0.11)">
       <use xlink:href="#ArialMT-38"/>
       <use xlink:href="#ArialMT-30" transform="translate(55.615234 0)"/>
      </g>
     </g>
    </g>
    <g id="ytick_9">
     <g id="line2d_14">
      <g>
       <use xlink:href="#m80240970fe" x="44.195313" y="11.136797" style="fill: #262626; stroke: #262626; stroke-width: 1.25"/>
      </g>
     </g>
     <g id="text_14">
      <!-- 90 -->
      <g style="fill: #262626" transform="translate(22.46125 15.073594) scale(0.11 -0.11)">
       <defs>
        <path id="ArialMT-39" d="M 350 1059 
L 891 1109 
Q 959 728 1153 556 
Q 1347 384 1650 384 
Q 1909 384 2104 503 
Q 2300 622 2425 820 
Q 2550 1019 2634 1356 
Q 2719 1694 2719 2044 
Q 2719 2081 2716 2156 
Q 2547 1888 2255 1720 
Q 1963 1553 1622 1553 
Q 1053 1553 659 1965 
Q 266 2378 266 3053 
Q 266 3750 677 4175 
Q 1088 4600 1706 4600 
Q 2153 4600 2523 4359 
Q 2894 4119 3086 3673 
Q 3278 3228 3278 2384 
Q 3278 1506 3087 986 
Q 2897 466 2520 194 
Q 2144 -78 1638 -78 
Q 1100 -78 759 220 
Q 419 519 350 1059 
z
M 2653 3081 
Q 2653 3566 2395 3850 
Q 2138 4134 1775 4134 
Q 1400 4134 1122 3828 
Q 844 3522 844 3034 
Q 844 2597 1108 2323 
Q 1372 2050 1759 2050 
Q 2150 2050 2401 2323 
Q 2653 2597 2653 3081 
z
" transform="scale(0.015625)"/>
       </defs>
       <use xlink:href="#ArialMT-39"/>
       <use xlink:href="#ArialMT-30" transform="translate(55.615234 0)"/>
      </g>
     </g>
    </g>
    <g id="text_15">
     <!-- MAE (€/MWh) -->
     <g style="fill: #262626" transform="translate(15.935625 137.055703) rotate(-90) scale(0.12 -0.12)">
      <defs>
       <path id="ArialMT-4d" d="M 475 0 
L 475 4581 
L 1388 4581 
L 2472 1338 
Q 2622 884 2691 659 
Q 2769 909 2934 1394 
L 4031 4581 
L 4847 4581 
L 4847 0 
L 4263 0 
L 4263 3834 
L 2931 0 
L 2384 0 
L 1059 3900 
L 1059 0 
L 475 0 
z
" transform="scale(0.015625)"/>
       <path id="ArialMT-41" d="M -9 0 
L 1750 4581 
L 2403 4581 
L 4278 0 
L 3588 0 
L 3053 1388 
L 1138 1388 
L 634 0 
L -9 0 
z
M 1313 1881 
L 2866 1881 
L 2388 3150 
Q 2169 3728 2063 4100 
Q 1975 3659 1816 3225 
L 1313 1881 
z
" transform="scale(0.015625)"/>
       <path id="ArialMT-45" d="M 506 0 
L 506 4581 
L 3819 4581 
L 3819 4041 
L 1113 4041 
L 1113 2638 
L 3647 2638 
L 3647 2100 
L 1113 2100 
L 1113 541 
L 3925 541 
L 3925 0 
L 506 0 
z
" transform="scale(0.015625)"/>
       <path id="ArialMT-20" transform="scale(0.015625)"/>
       <path id="ArialMT-28" d="M 1497 -1347 
Q 1031 -759 709 28 
Q 388 816 388 1659 
Q 388 2403 628 3084 
Q 909 3875 1497 4659 
L 1900 4659 
Q 1522 4009 1400 3731 
Q 1209 3300 1100 2831 
Q 966 2247 966 1656 
Q 966 153 1900 -1347 
L 1497 -1347 
z
" transform="scale(0.015625)"/>
       <path id="ArialMT-20ac" d="M 2469 4141 
Q 1944 4141 1588 3888 
Q 1375 3738 1203 3463 
Q 1028 3178 997 2922 
L 3128 2922 
L 3044 2503 
L 947 2503 
Q 944 2438 944 2378 
Q 944 2138 947 2091 
L 2959 2091 
L 2872 1672 
L 1013 1672 
Q 1144 956 1644 656 
Q 2003 441 2422 441 
Q 3006 441 3334 747 
L 3334 103 
Q 2944 -78 2472 -78 
Q 1059 -78 563 1097 
Q 463 1334 391 1672 
L -88 1672 
L 0 2091 
L 328 2091 
Q 319 2222 319 2375 
Q 319 2438 322 2503 
L -88 2503 
L 0 2922 
L 363 2922 
Q 556 3941 1372 4384 
Q 1875 4659 2481 4659 
Q 3063 4659 3459 4406 
L 3334 3825 
Q 2953 4141 2469 4141 
z
" transform="scale(0.015625)"/>
       <path id="ArialMT-2f" d="M 0 -78 
L 1328 4659 
L 1778 4659 
L 453 -78 
L 0 -78 
z
" transform="scale(0.015625)"/>
       <path id="ArialMT-57" d="M 1294 0 
L 78 4581 
L 700 4581 
L 1397 1578 
Q 1509 1106 1591 641 
Q 1766 1375 1797 1488 
L 2669 4581 
L 3400 4581 
L 4056 2263 
Q 4303 1400 4413 641 
Q 4500 1075 4641 1638 
L 5359 4581 
L 5969 4581 
L 4713 0 
L 4128 0 
L 3163 3491 
Q 3041 3928 3019 4028 
Q 2947 3713 2884 3491 
L 1913 0 
L 1294 0 
z
" transform="scale(0.015625)"/>
       <path id="ArialMT-29" d="M 791 -1347 
L 388 -1347 
Q 1322 153 1322 1656 
Q 1322 2244 1188 2822 
Q 1081 3291 891 3722 
Q 769 4003 388 4659 
L 791 4659 
Q 1378 3875 1659 3084 
Q 1900 2403 1900 1659 
Q 1900 816 1576 28 
Q 1253 -759 791 -1347 
z
" transform="scale(0.015625)"/>
      </defs>
      <use xlink:href="#ArialMT-4d"/>
      <use xlink:href="#ArialMT-41" transform="translate(83.300781 0)"/>
      <use xlink:href="#ArialMT-45" transform="translate(150 0)"/>
      <use xlink:href="#ArialMT-20" transform="translate(216.699219 0)"/>
      <use xlink:href="#ArialMT-28" transform="translate(244.482422 0)"/>
      <use xlink:href="#ArialMT-20ac" transform="translate(277.783203 0)"/>
      <use xlink:href="#ArialMT-2f" transform="translate(333.398438 0)"/>
      <use xlink:href="#ArialMT-4d" transform="translate(361.181641 0)"/>
      <use xlink:href="#ArialMT-57" transform="translate(444.482422 0)"/>
      <use xlink:href="#ArialMT-68" transform="translate(538.867188 0)"/>
      <use xlink:href="#ArialMT-29" transform="translate(594.482422 0)"/>
     </g>
    </g>
   </g>
   <g id="FillBetweenPolyCollection_1">
    <defs>
     <path id="mac10a60269" d="M 80.624858 -690.447595 
L 80.624858 -688.196209 
L 112.302724 -687.209663 
L 143.980589 -687.567585 
L 175.658455 -695.069189 
L 207.33632 -713.518836 
L 239.014186 -722.749152 
L 270.692052 -716.642205 
L 302.369917 -711.51698 
L 334.047783 -704.772648 
L 365.725648 -705.871066 
L 397.403514 -711.790423 
L 429.08138 -717.094678 
L 460.759245 -717.223601 
L 492.437111 -709.472258 
L 524.114977 -703.283788 
L 555.792842 -698.865176 
L 587.470708 -729.48896 
L 619.148573 -738.156955 
L 650.826439 -742.761046 
L 682.504305 -734.622929 
L 714.18217 -723.385334 
L 745.860036 -707.336082 
L 777.537901 -697.372926 
L 809.215767 -691.482266 
L 809.215767 -693.813404 
L 809.215767 -693.813404 
L 777.537901 -699.812009 
L 745.860036 -709.947657 
L 714.18217 -726.047411 
L 682.504305 -737.853549 
L 650.826439 -746.703338 
L 619.148573 -742.412607 
L 587.470708 -733.147458 
L 555.792842 -702.380141 
L 524.114977 -706.344382 
L 492.437111 -712.870752 
L 460.759245 -720.995911 
L 429.08138 -720.799292 
L 397.403514 -715.329081 
L 365.725648 -709.55663 
L 334.047783 -708.40251 
L 302.369917 -715.579718 
L 270.692052 -721.329953 
L 239.014186 -727.266104 
L 207.33632 -717.263462 
L 175.658455 -697.664846 
L 143.980589 -689.883626 
L 112.302724 -689.477422 
L 80.624858 -690.447595 
z
" style="stroke: #840853; stroke-opacity: 0.2"/>
    </defs>
    <g clip-path="url(#pcf2c57a00b)">
     <use xlink:href="#mac10a60269" x="0" y="856.801641" style="fill: #840853; fill-opacity: 0.2; stroke: #840853; stroke-opacity: 0.2"/>
    </g>
   </g>
   <g id="FillBetweenPolyCollection_2">
    <defs>
     <path id="me466be9488" d="M 80.624858 -686.723706 
L 80.624858 -684.520794 
L 112.302724 -683.462318 
L 143.980589 -683.70358 
L 175.658455 -690.257931 
L 207.33632 -708.545075 
L 239.014186 -719.017541 
L 270.692052 -713.586794 
L 302.369917 -708.284989 
L 334.047783 -702.751398 
L 365.725648 -704.588917 
L 397.403514 -710.392393 
L 429.08138 -715.965388 
L 460.759245 -716.455923 
L 492.437111 -708.758715 
L 524.114977 -702.063727 
L 555.792842 -696.610202 
L 587.470708 -726.654609 
L 619.148573 -736.16334 
L 650.826439 -740.313041 
L 682.504305 -731.311952 
L 714.18217 -719.661587 
L 745.860036 -703.069567 
L 777.537901 -693.395669 
L 809.215767 -687.731775 
L 809.215767 -689.901882 
L 809.215767 -689.901882 
L 777.537901 -695.877279 
L 745.860036 -705.585865 
L 714.18217 -722.348655 
L 682.504305 -734.669827 
L 650.826439 -744.626024 
L 619.148573 -740.467169 
L 587.470708 -730.204751 
L 555.792842 -700.211996 
L 524.114977 -705.003087 
L 492.437111 -712.026139 
L 460.759245 -720.298714 
L 429.08138 -719.540365 
L 397.403514 -714.152086 
L 365.725648 -708.032222 
L 334.047783 -706.22969 
L 302.369917 -712.165755 
L 270.692052 -718.102432 
L 239.014186 -723.589127 
L 207.33632 -712.203934 
L 175.658455 -692.750308 
L 143.980589 -685.94463 
L 112.302724 -685.706908 
L 80.624858 -686.723706 
z
" style="stroke: #3a609c; stroke-opacity: 0.2"/>
    </defs>
    <g clip-path="url(#pcf2c57a00b)">
     <use xlink:href="#me466be9488" x="0" y="856.801641" style="fill: #3a609c; fill-opacity: 0.2; stroke: #3a609c; stroke-opacity: 0.2"/>
    </g>
   </g>
   <g id="FillBetweenPolyCollection_3">
    <defs>
     <path id="mccd07db86e" d="M 80.624858 -674.631309 
L 80.624858 -672.694075 
L 112.302724 -673.485309 
L 143.980589 -672.914825 
L 175.658455 -672.827284 
L 207.33632 -681.956595 
L 239.014186 -698.230938 
L 270.692052 -699.250808 
L 302.369917 -699.553351 
L 334.047783 -704.807765 
L 365.725648 -711.980763 
L 397.403514 -721.182103 
L 429.08138 -727.762229 
L 460.759245 -729.693648 
L 492.437111 -719.91319 
L 524.114977 -708.089175 
L 555.792842 -690.476662 
L 587.470708 -691.515317 
L 619.148573 -705.636995 
L 650.826439 -707.660037 
L 682.504305 -692.074792 
L 714.18217 -681.857154 
L 745.860036 -673.977511 
L 777.537901 -672.91862 
L 809.215767 -673.811484 
L 809.215767 -675.56151 
L 809.215767 -675.56151 
L 777.537901 -674.634227 
L 745.860036 -675.498746 
L 714.18217 -683.836058 
L 682.504305 -694.596775 
L 650.826439 -711.099293 
L 619.148573 -709.011913 
L 587.470708 -694.039937 
L 555.792842 -692.99921 
L 524.114977 -711.939258 
L 492.437111 -724.185472 
L 460.759245 -734.514964 
L 429.08138 -732.404661 
L 397.403514 -725.879467 
L 365.725648 -716.318278 
L 334.047783 -708.643674 
L 302.369917 -702.941892 
L 270.692052 -702.783458 
L 239.014186 -701.966656 
L 207.33632 -684.910866 
L 175.658455 -674.810433 
L 143.980589 -674.733857 
L 112.302724 -675.42979 
L 80.624858 -674.631309 
z
" style="stroke: #ffb14e; stroke-opacity: 0.2"/>
    </defs>
    <g clip-path="url(#pcf2c57a00b)">
     <use xlink:href="#mccd07db86e" x="0" y="856.801641" style="fill: #ffb14e; fill-opacity: 0.2; stroke: #ffb14e; stroke-opacity: 0.2"/>
    </g>
   </g>
   <g id="line2d_15">
    <path d="M 80.624858 167.452649 
L 112.302724 168.458735 
L 143.980589 168.112106 
L 175.658455 160.425487 
L 207.33632 141.42502 
L 239.014186 131.742454 
L 270.692052 137.744862 
L 302.369917 143.309216 
L 334.047783 150.178344 
L 365.725648 148.987508 
L 397.403514 143.179983 
L 429.08138 137.870813 
L 460.759245 137.736382 
L 492.437111 145.631659 
L 524.114977 151.881098 
L 555.792842 156.192499 
L 587.470708 125.418936 
L 619.148573 116.535824 
L 650.826439 112.097314 
L 682.504305 120.58496 
L 714.18217 132.070819 
L 745.860036 148.157139 
L 777.537901 158.209147 
L 809.215767 164.120953 
" clip-path="url(#pcf2c57a00b)" style="fill: none; stroke: #840853; stroke-width: 1.5; stroke-linecap: round"/>
   </g>
   <g id="line2d_16">
    <path d="M 80.624858 171.155298 
L 112.302724 172.278954 
L 143.980589 171.97308 
L 175.658455 165.310499 
L 207.33632 146.465787 
L 239.014186 135.479564 
L 270.692052 140.959788 
L 302.369917 146.511754 
L 334.047783 152.360335 
L 365.725648 150.50823 
L 397.403514 144.541095 
L 429.08138 139.019262 
L 460.759245 138.329143 
L 492.437111 146.501358 
L 524.114977 153.303878 
L 555.792842 158.413078 
L 587.470708 128.382523 
L 619.148573 118.453445 
L 650.826439 114.382175 
L 682.504305 123.77488 
L 714.18217 135.773036 
L 745.860036 152.451377 
L 777.537901 162.150998 
L 809.215767 167.945546 
" clip-path="url(#pcf2c57a00b)" style="fill: none; stroke: #3a609c; stroke-width: 1.5; stroke-linecap: round"/>
   </g>
   <g id="line2d_17">
    <path d="M 80.624858 183.189395 
L 112.302724 182.403426 
L 143.980589 183.013943 
L 175.658455 183.026791 
L 207.33632 173.357995 
L 239.014186 156.747427 
L 270.692052 155.824312 
L 302.369917 155.56913 
L 334.047783 150.132694 
L 365.725648 142.684877 
L 397.403514 133.245716 
L 429.08138 126.690056 
L 460.759245 124.595101 
L 492.437111 134.742349 
L 524.114977 146.739694 
L 555.792842 165.097155 
L 587.470708 164.063977 
L 619.148573 149.526907 
L 650.826439 147.432932 
L 682.504305 163.48725 
L 714.18217 173.940074 
L 745.860036 182.04538 
L 777.537901 183.005591 
L 809.215767 182.122666 
" clip-path="url(#pcf2c57a00b)" style="fill: none; stroke: #ffb14e; stroke-width: 1.5; stroke-linecap: round"/>
   </g>
   <g id="line2d_18"/>
   <g id="line2d_19"/>
   <g id="line2d_20"/>
   <g id="patch_3">
    <path d="M 44.195313 187.642734 
L 44.195313 11.136797 
" style="fill: none; stroke: #262626; stroke-width: 1.25; stroke-linejoin: miter; stroke-linecap: square"/>
   </g>
   <g id="patch_4">
    <path d="M 845.645312 187.642734 
L 845.645312 11.136797 
" style="fill: none; stroke: #262626; stroke-width: 1.25; stroke-linejoin: miter; stroke-linecap: square"/>
   </g>
   <g id="patch_5">
    <path d="M 44.195313 187.642734 
L 845.645312 187.642734 
" style="fill: none; stroke: #262626; stroke-width: 1.25; stroke-linejoin: miter; stroke-linecap: square"/>
   </g>
   <g id="patch_6">
    <path d="M 44.195313 11.136797 
L 845.645312 11.136797 
" style="fill: none; stroke: #262626; stroke-width: 1.25; stroke-linejoin: miter; stroke-linecap: square"/>
   </g>
   <g id="text_16">
    <!-- Spring -->
    <g style="fill: #262626" transform="translate(425.921875 28.697719) scale(0.12 -0.12)">
     <defs>
      <path id="Arial-BoldMT-53" d="M 231 1491 
L 1131 1578 
Q 1213 1125 1461 912 
Q 1709 700 2131 700 
Q 2578 700 2804 889 
Q 3031 1078 3031 1331 
Q 3031 1494 2936 1608 
Q 2841 1722 2603 1806 
Q 2441 1863 1863 2006 
Q 1119 2191 819 2459 
Q 397 2838 397 3381 
Q 397 3731 595 4036 
Q 794 4341 1167 4500 
Q 1541 4659 2069 4659 
Q 2931 4659 3367 4281 
Q 3803 3903 3825 3272 
L 2900 3231 
Q 2841 3584 2645 3739 
Q 2450 3894 2059 3894 
Q 1656 3894 1428 3728 
Q 1281 3622 1281 3444 
Q 1281 3281 1419 3166 
Q 1594 3019 2269 2859 
Q 2944 2700 3267 2529 
Q 3591 2359 3773 2064 
Q 3956 1769 3956 1334 
Q 3956 941 3737 597 
Q 3519 253 3119 86 
Q 2719 -81 2122 -81 
Q 1253 -81 787 320 
Q 322 722 231 1491 
z
" transform="scale(0.015625)"/>
      <path id="Arial-BoldMT-70" d="M 434 3319 
L 1253 3319 
L 1253 2831 
Q 1413 3081 1684 3237 
Q 1956 3394 2288 3394 
Q 2866 3394 3269 2941 
Q 3672 2488 3672 1678 
Q 3672 847 3265 386 
Q 2859 -75 2281 -75 
Q 2006 -75 1782 34 
Q 1559 144 1313 409 
L 1313 -1263 
L 434 -1263 
L 434 3319 
z
M 1303 1716 
Q 1303 1156 1525 889 
Q 1747 622 2066 622 
Q 2372 622 2575 867 
Q 2778 1113 2778 1672 
Q 2778 2194 2568 2447 
Q 2359 2700 2050 2700 
Q 1728 2700 1515 2451 
Q 1303 2203 1303 1716 
z
" transform="scale(0.015625)"/>
      <path id="Arial-BoldMT-72" d="M 1300 0 
L 422 0 
L 422 3319 
L 1238 3319 
L 1238 2847 
Q 1447 3181 1614 3287 
Q 1781 3394 1994 3394 
Q 2294 3394 2572 3228 
L 2300 2463 
Q 2078 2606 1888 2606 
Q 1703 2606 1575 2504 
Q 1447 2403 1373 2137 
Q 1300 1872 1300 1025 
L 1300 0 
z
" transform="scale(0.015625)"/>
      <path id="Arial-BoldMT-69" d="M 459 3769 
L 459 4581 
L 1338 4581 
L 1338 3769 
L 459 3769 
z
M 459 0 
L 459 3319 
L 1338 3319 
L 1338 0 
L 459 0 
z
" transform="scale(0.015625)"/>
      <path id="Arial-BoldMT-6e" d="M 3478 0 
L 2600 0 
L 2600 1694 
Q 2600 2231 2544 2389 
Q 2488 2547 2361 2634 
Q 2234 2722 2056 2722 
Q 1828 2722 1647 2597 
Q 1466 2472 1398 2265 
Q 1331 2059 1331 1503 
L 1331 0 
L 453 0 
L 453 3319 
L 1269 3319 
L 1269 2831 
Q 1703 3394 2363 3394 
Q 2653 3394 2893 3289 
Q 3134 3184 3257 3021 
Q 3381 2859 3429 2653 
Q 3478 2447 3478 2063 
L 3478 0 
z
" transform="scale(0.015625)"/>
      <path id="Arial-BoldMT-67" d="M 378 -219 
L 1381 -341 
Q 1406 -516 1497 -581 
Q 1622 -675 1891 -675 
Q 2234 -675 2406 -572 
Q 2522 -503 2581 -350 
Q 2622 -241 2622 53 
L 2622 538 
Q 2228 0 1628 0 
Q 959 0 569 566 
Q 263 1013 263 1678 
Q 263 2513 664 2953 
Q 1066 3394 1663 3394 
Q 2278 3394 2678 2853 
L 2678 3319 
L 3500 3319 
L 3500 341 
Q 3500 -247 3403 -537 
Q 3306 -828 3131 -993 
Q 2956 -1159 2664 -1253 
Q 2372 -1347 1925 -1347 
Q 1081 -1347 728 -1058 
Q 375 -769 375 -325 
Q 375 -281 378 -219 
z
M 1163 1728 
Q 1163 1200 1367 954 
Q 1572 709 1872 709 
Q 2194 709 2416 961 
Q 2638 1213 2638 1706 
Q 2638 2222 2425 2472 
Q 2213 2722 1888 2722 
Q 1572 2722 1367 2476 
Q 1163 2231 1163 1728 
z
" transform="scale(0.015625)"/>
     </defs>
     <use xlink:href="#Arial-BoldMT-53"/>
     <use xlink:href="#Arial-BoldMT-70" transform="translate(66.699219 0)"/>
     <use xlink:href="#Arial-BoldMT-72" transform="translate(127.783203 0)"/>
     <use xlink:href="#Arial-BoldMT-69" transform="translate(166.699219 0)"/>
     <use xlink:href="#Arial-BoldMT-6e" transform="translate(194.482422 0)"/>
     <use xlink:href="#Arial-BoldMT-67" transform="translate(255.566406 0)"/>
    </g>
   </g>
   <g id="legend_1">
    <g id="patch_7">
     <path d="M 717.175625 67.142266 
L 837.945312 67.142266 
Q 840.145312 67.142266 840.145312 64.942266 
L 840.145312 18.836797 
Q 840.145312 16.636797 837.945312 16.636797 
L 717.175625 16.636797 
Q 714.975625 16.636797 714.975625 18.836797 
L 714.975625 64.942266 
Q 714.975625 67.142266 717.175625 67.142266 
z
" style="fill: #ffffff; opacity: 0.8; stroke: #cccccc; stroke-linejoin: miter"/>
    </g>
    <g id="line2d_21">
     <path d="M 719.375625 25.194453 
L 730.375625 25.194453 
L 741.375625 25.194453 
" style="fill: none; stroke: #840853; stroke-width: 1.5; stroke-linecap: round"/>
    </g>
    <g id="text_17">
     <!-- LSTM (VRE only) -->
     <g style="fill: #262626" transform="translate(750.175625 29.044453) scale(0.11 -0.11)">
      <defs>
       <path id="ArialMT-4c" d="M 469 0 
L 469 4581 
L 1075 4581 
L 1075 541 
L 3331 541 
L 3331 0 
L 469 0 
z
" transform="scale(0.015625)"/>
       <path id="ArialMT-53" d="M 288 1472 
L 859 1522 
Q 900 1178 1048 958 
Q 1197 738 1509 602 
Q 1822 466 2213 466 
Q 2559 466 2825 569 
Q 3091 672 3220 851 
Q 3350 1031 3350 1244 
Q 3350 1459 3225 1620 
Q 3100 1781 2813 1891 
Q 2628 1963 1997 2114 
Q 1366 2266 1113 2400 
Q 784 2572 623 2826 
Q 463 3081 463 3397 
Q 463 3744 659 4045 
Q 856 4347 1234 4503 
Q 1613 4659 2075 4659 
Q 2584 4659 2973 4495 
Q 3363 4331 3572 4012 
Q 3781 3694 3797 3291 
L 3216 3247 
Q 3169 3681 2898 3903 
Q 2628 4125 2100 4125 
Q 1550 4125 1298 3923 
Q 1047 3722 1047 3438 
Q 1047 3191 1225 3031 
Q 1400 2872 2139 2705 
Q 2878 2538 3153 2413 
Q 3553 2228 3743 1945 
Q 3934 1663 3934 1294 
Q 3934 928 3725 604 
Q 3516 281 3123 101 
Q 2731 -78 2241 -78 
Q 1619 -78 1198 103 
Q 778 284 539 648 
Q 300 1013 288 1472 
z
" transform="scale(0.015625)"/>
       <path id="ArialMT-54" d="M 1659 0 
L 1659 4041 
L 150 4041 
L 150 4581 
L 3781 4581 
L 3781 4041 
L 2266 4041 
L 2266 0 
L 1659 0 
z
" transform="scale(0.015625)"/>
       <path id="ArialMT-56" d="M 1803 0 
L 28 4581 
L 684 4581 
L 1875 1253 
Q 2019 853 2116 503 
Q 2222 878 2363 1253 
L 3600 4581 
L 4219 4581 
L 2425 0 
L 1803 0 
z
" transform="scale(0.015625)"/>
       <path id="ArialMT-52" d="M 503 0 
L 503 4581 
L 2534 4581 
Q 3147 4581 3465 4457 
Q 3784 4334 3975 4021 
Q 4166 3709 4166 3331 
Q 4166 2844 3850 2509 
Q 3534 2175 2875 2084 
Q 3116 1969 3241 1856 
Q 3506 1613 3744 1247 
L 4541 0 
L 3778 0 
L 3172 953 
Q 2906 1366 2734 1584 
Q 2563 1803 2427 1890 
Q 2291 1978 2150 2013 
Q 2047 2034 1813 2034 
L 1109 2034 
L 1109 0 
L 503 0 
z
M 1109 2559 
L 2413 2559 
Q 2828 2559 3062 2645 
Q 3297 2731 3419 2920 
Q 3541 3109 3541 3331 
Q 3541 3656 3305 3865 
Q 3069 4075 2559 4075 
L 1109 4075 
L 1109 2559 
z
" transform="scale(0.015625)"/>
       <path id="ArialMT-6f" d="M 213 1659 
Q 213 2581 725 3025 
Q 1153 3394 1769 3394 
Q 2453 3394 2887 2945 
Q 3322 2497 3322 1706 
Q 3322 1066 3130 698 
Q 2938 331 2570 128 
Q 2203 -75 1769 -75 
Q 1072 -75 642 372 
Q 213 819 213 1659 
z
M 791 1659 
Q 791 1022 1069 705 
Q 1347 388 1769 388 
Q 2188 388 2466 706 
Q 2744 1025 2744 1678 
Q 2744 2294 2464 2611 
Q 2184 2928 1769 2928 
Q 1347 2928 1069 2612 
Q 791 2297 791 1659 
z
" transform="scale(0.015625)"/>
       <path id="ArialMT-6e" d="M 422 0 
L 422 3319 
L 928 3319 
L 928 2847 
Q 1294 3394 1984 3394 
Q 2284 3394 2536 3286 
Q 2788 3178 2913 3003 
Q 3038 2828 3088 2588 
Q 3119 2431 3119 2041 
L 3119 0 
L 2556 0 
L 2556 2019 
Q 2556 2363 2490 2533 
Q 2425 2703 2258 2804 
Q 2091 2906 1866 2906 
Q 1506 2906 1245 2678 
Q 984 2450 984 1813 
L 984 0 
L 422 0 
z
" transform="scale(0.015625)"/>
       <path id="ArialMT-6c" d="M 409 0 
L 409 4581 
L 972 4581 
L 972 0 
L 409 0 
z
" transform="scale(0.015625)"/>
       <path id="ArialMT-79" d="M 397 -1278 
L 334 -750 
Q 519 -800 656 -800 
Q 844 -800 956 -737 
Q 1069 -675 1141 -563 
Q 1194 -478 1313 -144 
Q 1328 -97 1363 -6 
L 103 3319 
L 709 3319 
L 1400 1397 
Q 1534 1031 1641 628 
Q 1738 1016 1872 1384 
L 2581 3319 
L 3144 3319 
L 1881 -56 
Q 1678 -603 1566 -809 
Q 1416 -1088 1222 -1217 
Q 1028 -1347 759 -1347 
Q 597 -1347 397 -1278 
z
" transform="scale(0.015625)"/>
      </defs>
      <use xlink:href="#ArialMT-4c"/>
      <use xlink:href="#ArialMT-53" transform="translate(55.615234 0)"/>
      <use xlink:href="#ArialMT-54" transform="translate(122.314453 0)"/>
      <use xlink:href="#ArialMT-4d" transform="translate(183.398438 0)"/>
      <use xlink:href="#ArialMT-20" transform="translate(266.699219 0)"/>
      <use xlink:href="#ArialMT-28" transform="translate(294.482422 0)"/>
      <use xlink:href="#ArialMT-56" transform="translate(327.783203 0)"/>
      <use xlink:href="#ArialMT-52" transform="translate(394.482422 0)"/>
      <use xlink:href="#ArialMT-45" transform="translate(466.699219 0)"/>
      <use xlink:href="#ArialMT-20" transform="translate(533.398438 0)"/>
      <use xlink:href="#ArialMT-6f" transform="translate(561.181641 0)"/>
      <use xlink:href="#ArialMT-6e" transform="translate(616.796875 0)"/>
      <use xlink:href="#ArialMT-6c" transform="translate(672.412109 0)"/>
      <use xlink:href="#ArialMT-79" transform="translate(694.628906 0)"/>
      <use xlink:href="#ArialMT-29" transform="translate(744.628906 0)"/>
     </g>
    </g>
    <g id="line2d_22">
     <path d="M 719.375625 41.017266 
L 730.375625 41.017266 
L 741.375625 41.017266 
" style="fill: none; stroke: #3a609c; stroke-width: 1.5; stroke-linecap: round"/>
    </g>
    <g id="text_18">
     <!-- GRU (VRE only) -->
     <g style="fill: #262626" transform="translate(750.175625 44.867266) scale(0.11 -0.11)">
      <defs>
       <path id="ArialMT-47" d="M 2638 1797 
L 2638 2334 
L 4578 2338 
L 4578 638 
Q 4131 281 3656 101 
Q 3181 -78 2681 -78 
Q 2006 -78 1454 211 
Q 903 500 622 1047 
Q 341 1594 341 2269 
Q 341 2938 620 3517 
Q 900 4097 1425 4378 
Q 1950 4659 2634 4659 
Q 3131 4659 3532 4498 
Q 3934 4338 4162 4050 
Q 4391 3763 4509 3300 
L 3963 3150 
Q 3859 3500 3706 3700 
Q 3553 3900 3268 4020 
Q 2984 4141 2638 4141 
Q 2222 4141 1919 4014 
Q 1616 3888 1430 3681 
Q 1244 3475 1141 3228 
Q 966 2803 966 2306 
Q 966 1694 1177 1281 
Q 1388 869 1791 669 
Q 2194 469 2647 469 
Q 3041 469 3416 620 
Q 3791 772 3984 944 
L 3984 1797 
L 2638 1797 
z
" transform="scale(0.015625)"/>
       <path id="ArialMT-55" d="M 3500 4581 
L 4106 4581 
L 4106 1934 
Q 4106 1244 3950 837 
Q 3794 431 3386 176 
Q 2978 -78 2316 -78 
Q 1672 -78 1262 144 
Q 853 366 678 786 
Q 503 1206 503 1934 
L 503 4581 
L 1109 4581 
L 1109 1938 
Q 1109 1341 1220 1058 
Q 1331 775 1601 622 
Q 1872 469 2263 469 
Q 2931 469 3215 772 
Q 3500 1075 3500 1938 
L 3500 4581 
z
" transform="scale(0.015625)"/>
      </defs>
      <use xlink:href="#ArialMT-47"/>
      <use xlink:href="#ArialMT-52" transform="translate(77.783203 0)"/>
      <use xlink:href="#ArialMT-55" transform="translate(150 0)"/>
      <use xlink:href="#ArialMT-20" transform="translate(222.216797 0)"/>
      <use xlink:href="#ArialMT-28" transform="translate(250 0)"/>
      <use xlink:href="#ArialMT-56" transform="translate(283.300781 0)"/>
      <use xlink:href="#ArialMT-52" transform="translate(350 0)"/>
      <use xlink:href="#ArialMT-45" transform="translate(422.216797 0)"/>
      <use xlink:href="#ArialMT-20" transform="translate(488.916016 0)"/>
      <use xlink:href="#ArialMT-6f" transform="translate(516.699219 0)"/>
      <use xlink:href="#ArialMT-6e" transform="translate(572.314453 0)"/>
      <use xlink:href="#ArialMT-6c" transform="translate(627.929688 0)"/>
      <use xlink:href="#ArialMT-79" transform="translate(650.146484 0)"/>
      <use xlink:href="#ArialMT-29" transform="translate(700.146484 0)"/>
     </g>
    </g>
    <g id="line2d_23">
     <path d="M 719.375625 56.706016 
L 730.375625 56.706016 
L 741.375625 56.706016 
" style="fill: none; stroke: #ffb14e; stroke-width: 1.5; stroke-linecap: round"/>
    </g>
    <g id="text_19">
     <!-- Best model -->
     <g style="fill: #262626" transform="translate(750.175625 60.556016) scale(0.11 -0.11)">
      <defs>
       <path id="ArialMT-42" d="M 469 0 
L 469 4581 
L 2188 4581 
Q 2713 4581 3030 4442 
Q 3347 4303 3526 4014 
Q 3706 3725 3706 3409 
Q 3706 3116 3547 2856 
Q 3388 2597 3066 2438 
Q 3481 2316 3704 2022 
Q 3928 1728 3928 1328 
Q 3928 1006 3792 729 
Q 3656 453 3456 303 
Q 3256 153 2954 76 
Q 2653 0 2216 0 
L 469 0 
z
M 1075 2656 
L 2066 2656 
Q 2469 2656 2644 2709 
Q 2875 2778 2992 2937 
Q 3109 3097 3109 3338 
Q 3109 3566 3000 3739 
Q 2891 3913 2687 3977 
Q 2484 4041 1991 4041 
L 1075 4041 
L 1075 2656 
z
M 1075 541 
L 2216 541 
Q 2509 541 2628 563 
Q 2838 600 2978 687 
Q 3119 775 3209 942 
Q 3300 1109 3300 1328 
Q 3300 1584 3169 1773 
Q 3038 1963 2805 2039 
Q 2572 2116 2134 2116 
L 1075 2116 
L 1075 541 
z
" transform="scale(0.015625)"/>
       <path id="ArialMT-65" d="M 2694 1069 
L 3275 997 
Q 3138 488 2766 206 
Q 2394 -75 1816 -75 
Q 1088 -75 661 373 
Q 234 822 234 1631 
Q 234 2469 665 2931 
Q 1097 3394 1784 3394 
Q 2450 3394 2872 2941 
Q 3294 2488 3294 1666 
Q 3294 1616 3291 1516 
L 816 1516 
Q 847 969 1125 678 
Q 1403 388 1819 388 
Q 2128 388 2347 550 
Q 2566 713 2694 1069 
z
M 847 1978 
L 2700 1978 
Q 2663 2397 2488 2606 
Q 2219 2931 1791 2931 
Q 1403 2931 1139 2672 
Q 875 2413 847 1978 
z
" transform="scale(0.015625)"/>
       <path id="ArialMT-73" d="M 197 991 
L 753 1078 
Q 800 744 1014 566 
Q 1228 388 1613 388 
Q 2000 388 2187 545 
Q 2375 703 2375 916 
Q 2375 1106 2209 1216 
Q 2094 1291 1634 1406 
Q 1016 1563 777 1677 
Q 538 1791 414 1992 
Q 291 2194 291 2438 
Q 291 2659 392 2848 
Q 494 3038 669 3163 
Q 800 3259 1026 3326 
Q 1253 3394 1513 3394 
Q 1903 3394 2198 3281 
Q 2494 3169 2634 2976 
Q 2775 2784 2828 2463 
L 2278 2388 
Q 2241 2644 2061 2787 
Q 1881 2931 1553 2931 
Q 1166 2931 1000 2803 
Q 834 2675 834 2503 
Q 834 2394 903 2306 
Q 972 2216 1119 2156 
Q 1203 2125 1616 2013 
Q 2213 1853 2448 1751 
Q 2684 1650 2818 1456 
Q 2953 1263 2953 975 
Q 2953 694 2789 445 
Q 2625 197 2315 61 
Q 2006 -75 1616 -75 
Q 969 -75 630 194 
Q 291 463 197 991 
z
" transform="scale(0.015625)"/>
       <path id="ArialMT-74" d="M 1650 503 
L 1731 6 
Q 1494 -44 1306 -44 
Q 1000 -44 831 53 
Q 663 150 594 308 
Q 525 466 525 972 
L 525 2881 
L 113 2881 
L 113 3319 
L 525 3319 
L 525 4141 
L 1084 4478 
L 1084 3319 
L 1650 3319 
L 1650 2881 
L 1084 2881 
L 1084 941 
Q 1084 700 1114 631 
Q 1144 563 1211 522 
Q 1278 481 1403 481 
Q 1497 481 1650 503 
z
" transform="scale(0.015625)"/>
       <path id="ArialMT-6d" d="M 422 0 
L 422 3319 
L 925 3319 
L 925 2853 
Q 1081 3097 1340 3245 
Q 1600 3394 1931 3394 
Q 2300 3394 2536 3241 
Q 2772 3088 2869 2813 
Q 3263 3394 3894 3394 
Q 4388 3394 4653 3120 
Q 4919 2847 4919 2278 
L 4919 0 
L 4359 0 
L 4359 2091 
Q 4359 2428 4304 2576 
Q 4250 2725 4106 2815 
Q 3963 2906 3769 2906 
Q 3419 2906 3187 2673 
Q 2956 2441 2956 1928 
L 2956 0 
L 2394 0 
L 2394 2156 
Q 2394 2531 2256 2718 
Q 2119 2906 1806 2906 
Q 1569 2906 1367 2781 
Q 1166 2656 1075 2415 
Q 984 2175 984 1722 
L 984 0 
L 422 0 
z
" transform="scale(0.015625)"/>
       <path id="ArialMT-64" d="M 2575 0 
L 2575 419 
Q 2259 -75 1647 -75 
Q 1250 -75 917 144 
Q 584 363 401 755 
Q 219 1147 219 1656 
Q 219 2153 384 2558 
Q 550 2963 881 3178 
Q 1213 3394 1622 3394 
Q 1922 3394 2156 3267 
Q 2391 3141 2538 2938 
L 2538 4581 
L 3097 4581 
L 3097 0 
L 2575 0 
z
M 797 1656 
Q 797 1019 1065 703 
Q 1334 388 1700 388 
Q 2069 388 2326 689 
Q 2584 991 2584 1609 
Q 2584 2291 2321 2609 
Q 2059 2928 1675 2928 
Q 1300 2928 1048 2622 
Q 797 2316 797 1656 
z
" transform="scale(0.015625)"/>
      </defs>
      <use xlink:href="#ArialMT-42"/>
      <use xlink:href="#ArialMT-65" transform="translate(66.699219 0)"/>
      <use xlink:href="#ArialMT-73" transform="translate(122.314453 0)"/>
      <use xlink:href="#ArialMT-74" transform="translate(172.314453 0)"/>
      <use xlink:href="#ArialMT-20" transform="translate(200.097656 0)"/>
      <use xlink:href="#ArialMT-6d" transform="translate(227.880859 0)"/>
      <use xlink:href="#ArialMT-6f" transform="translate(311.181641 0)"/>
      <use xlink:href="#ArialMT-64" transform="translate(366.796875 0)"/>
      <use xlink:href="#ArialMT-65" transform="translate(422.412109 0)"/>
      <use xlink:href="#ArialMT-6c" transform="translate(478.027344 0)"/>
     </g>
    </g>
   </g>
  </g>
  <g id="axes_2">
   <g id="patch_8">
    <path d="M 44.195313 396.688672 
L 845.645312 396.688672 
L 845.645312 220.182734 
L 44.195313 220.182734 
z
" style="fill: #ffffff"/>
   </g>
   <g id="matplotlib.axis_3">
    <g id="xtick_6">
     <g id="line2d_24">
      <g>
       <use xlink:href="#m6b78bf21d5" x="80.624858" y="396.688672" style="fill: #262626; stroke: #262626; stroke-width: 1.25"/>
      </g>
     </g>
     <g id="text_20">
      <!-- 0h -->
      <g style="fill: #262626" transform="translate(74.507827 414.062266) scale(0.11 -0.11)">
       <use xlink:href="#ArialMT-30"/>
       <use xlink:href="#ArialMT-68" transform="translate(55.615234 0)"/>
      </g>
     </g>
    </g>
    <g id="xtick_7">
     <g id="line2d_25">
      <g>
       <use xlink:href="#m6b78bf21d5" x="270.692052" y="396.688672" style="fill: #262626; stroke: #262626; stroke-width: 1.25"/>
      </g>
     </g>
     <g id="text_21">
      <!-- 6h -->
      <g style="fill: #262626" transform="translate(264.57502 414.062266) scale(0.11 -0.11)">
       <use xlink:href="#ArialMT-36"/>
       <use xlink:href="#ArialMT-68" transform="translate(55.615234 0)"/>
      </g>
     </g>
    </g>
    <g id="xtick_8">
     <g id="line2d_26">
      <g>
       <use xlink:href="#m6b78bf21d5" x="460.759245" y="396.688672" style="fill: #262626; stroke: #262626; stroke-width: 1.25"/>
      </g>
     </g>
     <g id="text_22">
      <!-- 12h -->
      <g style="fill: #262626" transform="translate(451.583698 414.062266) scale(0.11 -0.11)">
       <use xlink:href="#ArialMT-31"/>
       <use xlink:href="#ArialMT-32" transform="translate(55.615234 0)"/>
       <use xlink:href="#ArialMT-68" transform="translate(111.230469 0)"/>
      </g>
     </g>
    </g>
    <g id="xtick_9">
     <g id="line2d_27">
      <g>
       <use xlink:href="#m6b78bf21d5" x="650.826439" y="396.688672" style="fill: #262626; stroke: #262626; stroke-width: 1.25"/>
      </g>
     </g>
     <g id="text_23">
      <!-- 18h -->
      <g style="fill: #262626" transform="translate(641.650892 414.062266) scale(0.11 -0.11)">
       <use xlink:href="#ArialMT-31"/>
       <use xlink:href="#ArialMT-38" transform="translate(55.615234 0)"/>
       <use xlink:href="#ArialMT-68" transform="translate(111.230469 0)"/>
      </g>
     </g>
    </g>
    <g id="xtick_10">
     <g id="line2d_28">
      <g>
       <use xlink:href="#m6b78bf21d5" x="809.215767" y="396.688672" style="fill: #262626; stroke: #262626; stroke-width: 1.25"/>
      </g>
     </g>
     <g id="text_24">
      <!-- 23h -->
      <g style="fill: #262626" transform="translate(800.04022 414.062266) scale(0.11 -0.11)">
       <use xlink:href="#ArialMT-32"/>
       <use xlink:href="#ArialMT-33" transform="translate(55.615234 0)"/>
       <use xlink:href="#ArialMT-68" transform="translate(111.230469 0)"/>
      </g>
     </g>
    </g>
   </g>
   <g id="matplotlib.axis_4">
    <g id="ytick_10">
     <g id="line2d_29">
      <g>
       <use xlink:href="#m80240970fe" x="44.195313" y="396.688672" style="fill: #262626; stroke: #262626; stroke-width: 1.25"/>
      </g>
     </g>
     <g id="text_25">
      <!-- 10 -->
      <g style="fill: #262626" transform="translate(22.46125 400.625469) scale(0.11 -0.11)">
       <use xlink:href="#ArialMT-31"/>
       <use xlink:href="#ArialMT-30" transform="translate(55.615234 0)"/>
      </g>
     </g>
    </g>
    <g id="ytick_11">
     <g id="line2d_30">
      <g>
       <use xlink:href="#m80240970fe" x="44.195313" y="374.62543" style="fill: #262626; stroke: #262626; stroke-width: 1.25"/>
      </g>
     </g>
     <g id="text_26">
      <!-- 20 -->
      <g style="fill: #262626" transform="translate(22.46125 378.562227) scale(0.11 -0.11)">
       <use xlink:href="#ArialMT-32"/>
       <use xlink:href="#ArialMT-30" transform="translate(55.615234 0)"/>
      </g>
     </g>
    </g>
    <g id="ytick_12">
     <g id="line2d_31">
      <g>
       <use xlink:href="#m80240970fe" x="44.195313" y="352.562187" style="fill: #262626; stroke: #262626; stroke-width: 1.25"/>
      </g>
     </g>
     <g id="text_27">
      <!-- 30 -->
      <g style="fill: #262626" transform="translate(22.46125 356.498984) scale(0.11 -0.11)">
       <use xlink:href="#ArialMT-33"/>
       <use xlink:href="#ArialMT-30" transform="translate(55.615234 0)"/>
      </g>
     </g>
    </g>
    <g id="ytick_13">
     <g id="line2d_32">
      <g>
       <use xlink:href="#m80240970fe" x="44.195313" y="330.498945" style="fill: #262626; stroke: #262626; stroke-width: 1.25"/>
      </g>
     </g>
     <g id="text_28">
      <!-- 40 -->
      <g style="fill: #262626" transform="translate(22.46125 334.435742) scale(0.11 -0.11)">
       <use xlink:href="#ArialMT-34"/>
       <use xlink:href="#ArialMT-30" transform="translate(55.615234 0)"/>
      </g>
     </g>
    </g>
    <g id="ytick_14">
     <g id="line2d_33">
      <g>
       <use xlink:href="#m80240970fe" x="44.195313" y="308.435703" style="fill: #262626; stroke: #262626; stroke-width: 1.25"/>
      </g>
     </g>
     <g id="text_29">
      <!-- 50 -->
      <g style="fill: #262626" transform="translate(22.46125 312.3725) scale(0.11 -0.11)">
       <use xlink:href="#ArialMT-35"/>
       <use xlink:href="#ArialMT-30" transform="translate(55.615234 0)"/>
      </g>
     </g>
    </g>
    <g id="ytick_15">
     <g id="line2d_34">
      <g>
       <use xlink:href="#m80240970fe" x="44.195313" y="286.372461" style="fill: #262626; stroke: #262626; stroke-width: 1.25"/>
      </g>
     </g>
     <g id="text_30">
      <!-- 60 -->
      <g style="fill: #262626" transform="translate(22.46125 290.309258) scale(0.11 -0.11)">
       <use xlink:href="#ArialMT-36"/>
       <use xlink:href="#ArialMT-30" transform="translate(55.615234 0)"/>
      </g>
     </g>
    </g>
    <g id="ytick_16">
     <g id="line2d_35">
      <g>
       <use xlink:href="#m80240970fe" x="44.195313" y="264.309219" style="fill: #262626; stroke: #262626; stroke-width: 1.25"/>
      </g>
     </g>
     <g id="text_31">
      <!-- 70 -->
      <g style="fill: #262626" transform="translate(22.46125 268.246016) scale(0.11 -0.11)">
       <use xlink:href="#ArialMT-37"/>
       <use xlink:href="#ArialMT-30" transform="translate(55.615234 0)"/>
      </g>
     </g>
    </g>
    <g id="ytick_17">
     <g id="line2d_36">
      <g>
       <use xlink:href="#m80240970fe" x="44.195313" y="242.245977" style="fill: #262626; stroke: #262626; stroke-width: 1.25"/>
      </g>
     </g>
     <g id="text_32">
      <!-- 80 -->
      <g style="fill: #262626" transform="translate(22.46125 246.182773) scale(0.11 -0.11)">
       <use xlink:href="#ArialMT-38"/>
       <use xlink:href="#ArialMT-30" transform="translate(55.615234 0)"/>
      </g>
     </g>
    </g>
    <g id="ytick_18">
     <g id="line2d_37">
      <g>
       <use xlink:href="#m80240970fe" x="44.195313" y="220.182734" style="fill: #262626; stroke: #262626; stroke-width: 1.25"/>
      </g>
     </g>
     <g id="text_33">
      <!-- 90 -->
      <g style="fill: #262626" transform="translate(22.46125 224.119531) scale(0.11 -0.11)">
       <use xlink:href="#ArialMT-39"/>
       <use xlink:href="#ArialMT-30" transform="translate(55.615234 0)"/>
      </g>
     </g>
    </g>
    <g id="text_34">
     <!-- MAE (€/MWh) -->
     <g style="fill: #262626" transform="translate(15.935625 346.101641) rotate(-90) scale(0.12 -0.12)">
      <use xlink:href="#ArialMT-4d"/>
      <use xlink:href="#ArialMT-41" transform="translate(83.300781 0)"/>
      <use xlink:href="#ArialMT-45" transform="translate(150 0)"/>
      <use xlink:href="#ArialMT-20" transform="translate(216.699219 0)"/>
      <use xlink:href="#ArialMT-28" transform="translate(244.482422 0)"/>
      <use xlink:href="#ArialMT-20ac" transform="translate(277.783203 0)"/>
      <use xlink:href="#ArialMT-2f" transform="translate(333.398438 0)"/>
      <use xlink:href="#ArialMT-4d" transform="translate(361.181641 0)"/>
      <use xlink:href="#ArialMT-57" transform="translate(444.482422 0)"/>
      <use xlink:href="#ArialMT-68" transform="translate(538.867188 0)"/>
      <use xlink:href="#ArialMT-29" transform="translate(594.482422 0)"/>
     </g>
    </g>
   </g>
   <g id="FillBetweenPolyCollection_4">
    <defs>
     <path id="m82d8574883" d="M 80.624858 -481.457915 
L 80.624858 -477.971783 
L 112.302724 -483.360775 
L 143.980589 -482.973788 
L 175.658455 -501.747664 
L 207.33632 -551.129581 
L 239.014186 -540.238244 
L 270.692052 -509.195986 
L 302.369917 -492.981029 
L 334.047783 -503.938402 
L 365.725648 -513.80158 
L 397.403514 -526.578918 
L 429.08138 -539.248657 
L 460.759245 -543.883237 
L 492.437111 -529.370679 
L 524.114977 -510.601824 
L 555.792842 -489.855983 
L 587.470708 -496.940411 
L 619.148573 -557.464082 
L 650.826439 -586.080658 
L 682.504305 -564.496339 
L 714.18217 -529.499346 
L 745.860036 -498.244612 
L 777.537901 -495.695976 
L 809.215767 -479.82078 
L 809.215767 -482.926433 
L 809.215767 -482.926433 
L 777.537901 -499.586188 
L 745.860036 -504.090898 
L 714.18217 -535.175293 
L 682.504305 -580.664688 
L 650.826439 -616.043797 
L 619.148573 -572.701904 
L 587.470708 -503.026253 
L 555.792842 -493.29828 
L 524.114977 -514.197241 
L 492.437111 -533.975925 
L 460.759245 -548.637121 
L 429.08138 -544.060008 
L 397.403514 -531.143756 
L 365.725648 -518.096097 
L 334.047783 -507.043218 
L 302.369917 -496.314702 
L 270.692052 -516.021544 
L 239.014186 -556.280579 
L 207.33632 -592.148391 
L 175.658455 -516.454327 
L 143.980589 -488.26323 
L 112.302724 -488.686094 
L 80.624858 -481.457915 
z
" style="stroke: #840853; stroke-opacity: 0.2"/>
    </defs>
    <g clip-path="url(#p94c43cfcc3)">
     <use xlink:href="#m82d8574883" x="0" y="856.801641" style="fill: #840853; fill-opacity: 0.2; stroke: #840853; stroke-opacity: 0.2"/>
    </g>
   </g>
   <g id="FillBetweenPolyCollection_5">
    <defs>
     <path id="mc050519a66" d="M 80.624858 -483.725222 
L 80.624858 -480.148351 
L 112.302724 -485.349265 
L 143.980589 -485.255788 
L 175.658455 -503.571311 
L 207.33632 -555.215367 
L 239.014186 -544.218297 
L 270.692052 -513.089284 
L 302.369917 -494.036292 
L 334.047783 -503.109033 
L 365.725648 -511.887843 
L 397.403514 -524.43779 
L 429.08138 -537.055507 
L 460.759245 -541.538368 
L 492.437111 -527.172055 
L 524.114977 -508.74759 
L 555.792842 -488.822555 
L 587.470708 -499.709626 
L 619.148573 -559.265165 
L 650.826439 -585.912649 
L 682.504305 -566.872095 
L 714.18217 -532.149274 
L 745.860036 -501.165995 
L 777.537901 -498.303938 
L 809.215767 -482.062586 
L 809.215767 -485.249239 
L 809.215767 -485.249239 
L 777.537901 -502.557293 
L 745.860036 -506.879164 
L 714.18217 -537.439939 
L 682.504305 -581.589345 
L 650.826439 -615.932417 
L 619.148573 -574.909645 
L 587.470708 -505.770273 
L 555.792842 -491.949054 
L 524.114977 -512.079205 
L 492.437111 -531.839076 
L 460.759245 -546.37721 
L 429.08138 -541.826473 
L 397.403514 -528.850187 
L 365.725648 -516.118009 
L 334.047783 -506.499998 
L 302.369917 -497.728212 
L 270.692052 -519.856507 
L 239.014186 -559.745389 
L 207.33632 -594.201105 
L 175.658455 -519.684337 
L 143.980589 -490.574917 
L 112.302724 -490.944237 
L 80.624858 -483.725222 
z
" style="stroke: #3a609c; stroke-opacity: 0.2"/>
    </defs>
    <g clip-path="url(#p94c43cfcc3)">
     <use xlink:href="#mc050519a66" x="0" y="856.801641" style="fill: #3a609c; fill-opacity: 0.2; stroke: #3a609c; stroke-opacity: 0.2"/>
    </g>
   </g>
   <g id="FillBetweenPolyCollection_6">
    <defs>
     <path id="m7b76172b1c" d="M 80.624858 -473.726238 
L 80.624858 -470.389456 
L 112.302724 -477.722725 
L 143.980589 -477.23005 
L 175.658455 -490.272025 
L 207.33632 -533.697039 
L 239.014186 -524.404149 
L 270.692052 -503.710142 
L 302.369917 -500.655029 
L 334.047783 -517.641785 
L 365.725648 -535.178285 
L 397.403514 -552.444772 
L 429.08138 -565.914255 
L 460.759245 -570.848796 
L 492.437111 -554.780204 
L 524.114977 -527.653603 
L 555.792842 -497.10768 
L 587.470708 -482.371697 
L 619.148573 -530.751004 
L 650.826439 -566.775866 
L 682.504305 -540.054936 
L 714.18217 -502.120612 
L 745.860036 -476.745 
L 777.537901 -475.165716 
L 809.215767 -466.914134 
L 809.215767 -469.529761 
L 809.215767 -469.529761 
L 777.537901 -478.815366 
L 745.860036 -482.834069 
L 714.18217 -507.648514 
L 682.504305 -556.395744 
L 650.826439 -597.410201 
L 619.148573 -546.053962 
L 587.470708 -488.214582 
L 555.792842 -500.462908 
L 524.114977 -531.892997 
L 492.437111 -559.552661 
L 460.759245 -576.483145 
L 429.08138 -571.289129 
L 397.403514 -557.419682 
L 365.725648 -539.782772 
L 334.047783 -522.054671 
L 302.369917 -504.148427 
L 270.692052 -509.581267 
L 239.014186 -541.03441 
L 207.33632 -574.195042 
L 175.658455 -505.147874 
L 143.980589 -482.522512 
L 112.302724 -483.009794 
L 80.624858 -473.726238 
z
" style="stroke: #ffb14e; stroke-opacity: 0.2"/>
    </defs>
    <g clip-path="url(#p94c43cfcc3)">
     <use xlink:href="#m7b76172b1c" x="0" y="856.801641" style="fill: #ffb14e; fill-opacity: 0.2; stroke: #ffb14e; stroke-opacity: 0.2"/>
    </g>
   </g>
   <g id="line2d_38">
    <path d="M 80.624858 377.113453 
L 112.302724 370.98972 
L 143.980589 371.153273 
L 175.658455 348.085828 
L 207.33632 285.666534 
L 239.014186 308.744926 
L 270.692052 344.224137 
L 302.369917 362.217798 
L 334.047783 351.360693 
L 365.725648 340.860218 
L 397.403514 327.920356 
L 429.08138 315.167777 
L 460.759245 310.716352 
L 492.437111 325.177823 
L 524.114977 344.612751 
L 555.792842 365.208345 
L 587.470708 356.809922 
L 619.148573 291.664535 
L 650.826439 256.871728 
L 682.504305 284.665006 
L 714.18217 324.596724 
L 745.860036 355.457331 
L 777.537901 359.118071 
L 809.215767 375.453517 
" clip-path="url(#p94c43cfcc3)" style="fill: none; stroke: #840853; stroke-width: 1.5; stroke-linecap: round"/>
   </g>
   <g id="line2d_39">
    <path d="M 80.624858 374.940339 
L 112.302724 368.848827 
L 143.980589 368.892416 
L 175.658455 345.528136 
L 207.33632 282.412582 
L 239.014186 305.380039 
L 270.692052 340.359342 
L 302.369917 360.949875 
L 334.047783 351.957969 
L 365.725648 342.842294 
L 397.403514 330.198097 
L 429.08138 317.316318 
L 460.759245 312.794097 
L 492.437111 327.319618 
L 524.114977 346.319439 
L 555.792842 366.389439 
L 587.470708 354.183394 
L 619.148573 290.138293 
L 650.826439 255.873674 
L 682.504305 282.36668 
L 714.18217 322.041278 
L 745.860036 352.926917 
L 777.537901 356.299821 
L 809.215767 373.084662 
" clip-path="url(#p94c43cfcc3)" style="fill: none; stroke: #3a609c; stroke-width: 1.5; stroke-linecap: round"/>
   </g>
   <g id="line2d_40">
    <path d="M 80.624858 384.765072 
L 112.302724 376.609013 
L 143.980589 377.059865 
L 175.658455 359.352372 
L 207.33632 304.201856 
L 239.014186 324.969803 
L 270.692052 350.176705 
L 302.369917 354.335374 
L 334.047783 336.870979 
L 365.725648 319.296999 
L 397.403514 301.867673 
L 429.08138 288.166516 
L 460.759245 283.218561 
L 492.437111 299.696014 
L 524.114977 327.059522 
L 555.792842 358.078553 
L 587.470708 371.666687 
L 619.148573 318.595308 
L 650.826439 275.996527 
L 682.504305 309.062483 
L 714.18217 352.101381 
L 745.860036 377.011707 
L 777.537901 379.955749 
L 809.215767 388.632819 
" clip-path="url(#p94c43cfcc3)" style="fill: none; stroke: #ffb14e; stroke-width: 1.5; stroke-linecap: round"/>
   </g>
   <g id="line2d_41"/>
   <g id="line2d_42"/>
   <g id="line2d_43"/>
   <g id="patch_9">
    <path d="M 44.195313 396.688672 
L 44.195313 220.182734 
" style="fill: none; stroke: #262626; stroke-width: 1.25; stroke-linejoin: miter; stroke-linecap: square"/>
   </g>
   <g id="patch_10">
    <path d="M 845.645312 396.688672 
L 845.645312 220.182734 
" style="fill: none; stroke: #262626; stroke-width: 1.25; stroke-linejoin: miter; stroke-linecap: square"/>
   </g>
   <g id="patch_11">
    <path d="M 44.195313 396.688672 
L 845.645312 396.688672 
" style="fill: none; stroke: #262626; stroke-width: 1.25; stroke-linejoin: miter; stroke-linecap: square"/>
   </g>
   <g id="patch_12">
    <path d="M 44.195313 220.182734 
L 845.645312 220.182734 
" style="fill: none; stroke: #262626; stroke-width: 1.25; stroke-linejoin: miter; stroke-linecap: square"/>
   </g>
   <g id="text_35">
    <!-- Summer -->
    <g style="fill: #262626" transform="translate(420.910937 237.597406) scale(0.12 -0.12)">
     <defs>
      <path id="Arial-BoldMT-75" d="M 2644 0 
L 2644 497 
Q 2463 231 2167 78 
Q 1872 -75 1544 -75 
Q 1209 -75 943 72 
Q 678 219 559 484 
Q 441 750 441 1219 
L 441 3319 
L 1319 3319 
L 1319 1794 
Q 1319 1094 1367 936 
Q 1416 778 1544 686 
Q 1672 594 1869 594 
Q 2094 594 2272 717 
Q 2450 841 2515 1023 
Q 2581 1206 2581 1919 
L 2581 3319 
L 3459 3319 
L 3459 0 
L 2644 0 
z
" transform="scale(0.015625)"/>
      <path id="Arial-BoldMT-6d" d="M 394 3319 
L 1203 3319 
L 1203 2866 
Q 1638 3394 2238 3394 
Q 2556 3394 2790 3262 
Q 3025 3131 3175 2866 
Q 3394 3131 3647 3262 
Q 3900 3394 4188 3394 
Q 4553 3394 4806 3245 
Q 5059 3097 5184 2809 
Q 5275 2597 5275 2122 
L 5275 0 
L 4397 0 
L 4397 1897 
Q 4397 2391 4306 2534 
Q 4184 2722 3931 2722 
Q 3747 2722 3584 2609 
Q 3422 2497 3350 2280 
Q 3278 2063 3278 1594 
L 3278 0 
L 2400 0 
L 2400 1819 
Q 2400 2303 2353 2443 
Q 2306 2584 2207 2653 
Q 2109 2722 1941 2722 
Q 1738 2722 1575 2612 
Q 1413 2503 1342 2297 
Q 1272 2091 1272 1613 
L 1272 0 
L 394 0 
L 394 3319 
z
" transform="scale(0.015625)"/>
      <path id="Arial-BoldMT-65" d="M 2381 1056 
L 3256 909 
Q 3088 428 2723 176 
Q 2359 -75 1813 -75 
Q 947 -75 531 491 
Q 203 944 203 1634 
Q 203 2459 634 2926 
Q 1066 3394 1725 3394 
Q 2466 3394 2894 2905 
Q 3322 2416 3303 1406 
L 1103 1406 
Q 1113 1016 1316 798 
Q 1519 581 1822 581 
Q 2028 581 2168 693 
Q 2309 806 2381 1056 
z
M 2431 1944 
Q 2422 2325 2234 2523 
Q 2047 2722 1778 2722 
Q 1491 2722 1303 2513 
Q 1116 2303 1119 1944 
L 2431 1944 
z
" transform="scale(0.015625)"/>
     </defs>
     <use xlink:href="#Arial-BoldMT-53"/>
     <use xlink:href="#Arial-BoldMT-75" transform="translate(66.699219 0)"/>
     <use xlink:href="#Arial-BoldMT-6d" transform="translate(127.783203 0)"/>
     <use xlink:href="#Arial-BoldMT-6d" transform="translate(216.699219 0)"/>
     <use xlink:href="#Arial-BoldMT-65" transform="translate(305.615234 0)"/>
     <use xlink:href="#Arial-BoldMT-72" transform="translate(361.230469 0)"/>
    </g>
   </g>
  </g>
  <g id="axes_3">
   <g id="patch_13">
    <path d="M 44.195313 605.734609 
L 845.645312 605.734609 
L 845.645312 429.228672 
L 44.195313 429.228672 
z
" style="fill: #ffffff"/>
   </g>
   <g id="matplotlib.axis_5">
    <g id="xtick_11">
     <g id="line2d_44">
      <g>
       <use xlink:href="#m6b78bf21d5" x="80.624858" y="605.734609" style="fill: #262626; stroke: #262626; stroke-width: 1.25"/>
      </g>
     </g>
     <g id="text_36">
      <!-- 0h -->
      <g style="fill: #262626" transform="translate(74.507827 623.108203) scale(0.11 -0.11)">
       <use xlink:href="#ArialMT-30"/>
       <use xlink:href="#ArialMT-68" transform="translate(55.615234 0)"/>
      </g>
     </g>
    </g>
    <g id="xtick_12">
     <g id="line2d_45">
      <g>
       <use xlink:href="#m6b78bf21d5" x="270.692052" y="605.734609" style="fill: #262626; stroke: #262626; stroke-width: 1.25"/>
      </g>
     </g>
     <g id="text_37">
      <!-- 6h -->
      <g style="fill: #262626" transform="translate(264.57502 623.108203) scale(0.11 -0.11)">
       <use xlink:href="#ArialMT-36"/>
       <use xlink:href="#ArialMT-68" transform="translate(55.615234 0)"/>
      </g>
     </g>
    </g>
    <g id="xtick_13">
     <g id="line2d_46">
      <g>
       <use xlink:href="#m6b78bf21d5" x="460.759245" y="605.734609" style="fill: #262626; stroke: #262626; stroke-width: 1.25"/>
      </g>
     </g>
     <g id="text_38">
      <!-- 12h -->
      <g style="fill: #262626" transform="translate(451.583698 623.108203) scale(0.11 -0.11)">
       <use xlink:href="#ArialMT-31"/>
       <use xlink:href="#ArialMT-32" transform="translate(55.615234 0)"/>
       <use xlink:href="#ArialMT-68" transform="translate(111.230469 0)"/>
      </g>
     </g>
    </g>
    <g id="xtick_14">
     <g id="line2d_47">
      <g>
       <use xlink:href="#m6b78bf21d5" x="650.826439" y="605.734609" style="fill: #262626; stroke: #262626; stroke-width: 1.25"/>
      </g>
     </g>
     <g id="text_39">
      <!-- 18h -->
      <g style="fill: #262626" transform="translate(641.650892 623.108203) scale(0.11 -0.11)">
       <use xlink:href="#ArialMT-31"/>
       <use xlink:href="#ArialMT-38" transform="translate(55.615234 0)"/>
       <use xlink:href="#ArialMT-68" transform="translate(111.230469 0)"/>
      </g>
     </g>
    </g>
    <g id="xtick_15">
     <g id="line2d_48">
      <g>
       <use xlink:href="#m6b78bf21d5" x="809.215767" y="605.734609" style="fill: #262626; stroke: #262626; stroke-width: 1.25"/>
      </g>
     </g>
     <g id="text_40">
      <!-- 23h -->
      <g style="fill: #262626" transform="translate(800.04022 623.108203) scale(0.11 -0.11)">
       <use xlink:href="#ArialMT-32"/>
       <use xlink:href="#ArialMT-33" transform="translate(55.615234 0)"/>
       <use xlink:href="#ArialMT-68" transform="translate(111.230469 0)"/>
      </g>
     </g>
    </g>
   </g>
   <g id="matplotlib.axis_6">
    <g id="ytick_19">
     <g id="line2d_49">
      <g>
       <use xlink:href="#m80240970fe" x="44.195313" y="605.734609" style="fill: #262626; stroke: #262626; stroke-width: 1.25"/>
      </g>
     </g>
     <g id="text_41">
      <!-- 10 -->
      <g style="fill: #262626" transform="translate(22.46125 609.671406) scale(0.11 -0.11)">
       <use xlink:href="#ArialMT-31"/>
       <use xlink:href="#ArialMT-30" transform="translate(55.615234 0)"/>
      </g>
     </g>
    </g>
    <g id="ytick_20">
     <g id="line2d_50">
      <g>
       <use xlink:href="#m80240970fe" x="44.195313" y="583.671367" style="fill: #262626; stroke: #262626; stroke-width: 1.25"/>
      </g>
     </g>
     <g id="text_42">
      <!-- 20 -->
      <g style="fill: #262626" transform="translate(22.46125 587.608164) scale(0.11 -0.11)">
       <use xlink:href="#ArialMT-32"/>
       <use xlink:href="#ArialMT-30" transform="translate(55.615234 0)"/>
      </g>
     </g>
    </g>
    <g id="ytick_21">
     <g id="line2d_51">
      <g>
       <use xlink:href="#m80240970fe" x="44.195313" y="561.608125" style="fill: #262626; stroke: #262626; stroke-width: 1.25"/>
      </g>
     </g>
     <g id="text_43">
      <!-- 30 -->
      <g style="fill: #262626" transform="translate(22.46125 565.544922) scale(0.11 -0.11)">
       <use xlink:href="#ArialMT-33"/>
       <use xlink:href="#ArialMT-30" transform="translate(55.615234 0)"/>
      </g>
     </g>
    </g>
    <g id="ytick_22">
     <g id="line2d_52">
      <g>
       <use xlink:href="#m80240970fe" x="44.195313" y="539.544883" style="fill: #262626; stroke: #262626; stroke-width: 1.25"/>
      </g>
     </g>
     <g id="text_44">
      <!-- 40 -->
      <g style="fill: #262626" transform="translate(22.46125 543.48168) scale(0.11 -0.11)">
       <use xlink:href="#ArialMT-34"/>
       <use xlink:href="#ArialMT-30" transform="translate(55.615234 0)"/>
      </g>
     </g>
    </g>
    <g id="ytick_23">
     <g id="line2d_53">
      <g>
       <use xlink:href="#m80240970fe" x="44.195313" y="517.481641" style="fill: #262626; stroke: #262626; stroke-width: 1.25"/>
      </g>
     </g>
     <g id="text_45">
      <!-- 50 -->
      <g style="fill: #262626" transform="translate(22.46125 521.418437) scale(0.11 -0.11)">
       <use xlink:href="#ArialMT-35"/>
       <use xlink:href="#ArialMT-30" transform="translate(55.615234 0)"/>
      </g>
     </g>
    </g>
    <g id="ytick_24">
     <g id="line2d_54">
      <g>
       <use xlink:href="#m80240970fe" x="44.195313" y="495.418398" style="fill: #262626; stroke: #262626; stroke-width: 1.25"/>
      </g>
     </g>
     <g id="text_46">
      <!-- 60 -->
      <g style="fill: #262626" transform="translate(22.46125 499.355195) scale(0.11 -0.11)">
       <use xlink:href="#ArialMT-36"/>
       <use xlink:href="#ArialMT-30" transform="translate(55.615234 0)"/>
      </g>
     </g>
    </g>
    <g id="ytick_25">
     <g id="line2d_55">
      <g>
       <use xlink:href="#m80240970fe" x="44.195313" y="473.355156" style="fill: #262626; stroke: #262626; stroke-width: 1.25"/>
      </g>
     </g>
     <g id="text_47">
      <!-- 70 -->
      <g style="fill: #262626" transform="translate(22.46125 477.291953) scale(0.11 -0.11)">
       <use xlink:href="#ArialMT-37"/>
       <use xlink:href="#ArialMT-30" transform="translate(55.615234 0)"/>
      </g>
     </g>
    </g>
    <g id="ytick_26">
     <g id="line2d_56">
      <g>
       <use xlink:href="#m80240970fe" x="44.195313" y="451.291914" style="fill: #262626; stroke: #262626; stroke-width: 1.25"/>
      </g>
     </g>
     <g id="text_48">
      <!-- 80 -->
      <g style="fill: #262626" transform="translate(22.46125 455.228711) scale(0.11 -0.11)">
       <use xlink:href="#ArialMT-38"/>
       <use xlink:href="#ArialMT-30" transform="translate(55.615234 0)"/>
      </g>
     </g>
    </g>
    <g id="ytick_27">
     <g id="line2d_57">
      <g>
       <use xlink:href="#m80240970fe" x="44.195313" y="429.228672" style="fill: #262626; stroke: #262626; stroke-width: 1.25"/>
      </g>
     </g>
     <g id="text_49">
      <!-- 90 -->
      <g style="fill: #262626" transform="translate(22.46125 433.165469) scale(0.11 -0.11)">
       <use xlink:href="#ArialMT-39"/>
       <use xlink:href="#ArialMT-30" transform="translate(55.615234 0)"/>
      </g>
     </g>
    </g>
    <g id="text_50">
     <!-- MAE (€/MWh) -->
     <g style="fill: #262626" transform="translate(15.935625 555.147578) rotate(-90) scale(0.12 -0.12)">
      <use xlink:href="#ArialMT-4d"/>
      <use xlink:href="#ArialMT-41" transform="translate(83.300781 0)"/>
      <use xlink:href="#ArialMT-45" transform="translate(150 0)"/>
      <use xlink:href="#ArialMT-20" transform="translate(216.699219 0)"/>
      <use xlink:href="#ArialMT-28" transform="translate(244.482422 0)"/>
      <use xlink:href="#ArialMT-20ac" transform="translate(277.783203 0)"/>
      <use xlink:href="#ArialMT-2f" transform="translate(333.398438 0)"/>
      <use xlink:href="#ArialMT-4d" transform="translate(361.181641 0)"/>
      <use xlink:href="#ArialMT-57" transform="translate(444.482422 0)"/>
      <use xlink:href="#ArialMT-68" transform="translate(538.867188 0)"/>
      <use xlink:href="#ArialMT-29" transform="translate(594.482422 0)"/>
     </g>
    </g>
   </g>
   <g id="FillBetweenPolyCollection_7">
    <defs>
     <path id="m2c86625de2" d="M 80.624858 -273.070585 
L 80.624858 -270.379743 
L 112.302724 -271.845657 
L 143.980589 -272.48997 
L 175.658455 -269.436838 
L 207.33632 -277.716575 
L 239.014186 -290.716406 
L 270.692052 -295.469226 
L 302.369917 -283.949042 
L 334.047783 -282.007667 
L 365.725648 -286.222056 
L 397.403514 -290.624435 
L 429.08138 -294.102162 
L 460.759245 -286.905546 
L 492.437111 -279.819368 
L 524.114977 -279.187492 
L 555.792842 -296.928179 
L 587.470708 -332.067273 
L 619.148573 -345.322888 
L 650.826439 -304.79377 
L 682.504305 -273.610309 
L 714.18217 -265.753837 
L 745.860036 -260.803915 
L 777.537901 -266.226801 
L 809.215767 -267.887666 
L 809.215767 -270.312904 
L 809.215767 -270.312904 
L 777.537901 -268.870691 
L 745.860036 -263.079254 
L 714.18217 -268.133771 
L 682.504305 -276.46939 
L 650.826439 -314.2818 
L 619.148573 -360.888131 
L 587.470708 -346.186231 
L 555.792842 -304.767007 
L 524.114977 -282.99282 
L 492.437111 -283.343402 
L 460.759245 -290.352094 
L 429.08138 -297.816214 
L 397.403514 -294.078784 
L 365.725648 -289.472137 
L 334.047783 -285.687519 
L 302.369917 -287.992126 
L 270.692052 -300.083064 
L 239.014186 -294.28802 
L 207.33632 -280.737918 
L 175.658455 -272.36454 
L 143.980589 -275.404755 
L 112.302724 -274.672758 
L 80.624858 -273.070585 
z
" style="stroke: #840853; stroke-opacity: 0.2"/>
    </defs>
    <g clip-path="url(#p4ee38cb35b)">
     <use xlink:href="#m2c86625de2" x="0" y="856.801641" style="fill: #840853; fill-opacity: 0.2; stroke: #840853; stroke-opacity: 0.2"/>
    </g>
   </g>
   <g id="FillBetweenPolyCollection_8">
    <defs>
     <path id="mb2b020a369" d="M 80.624858 -262.682301 
L 80.624858 -260.547674 
L 112.302724 -261.882382 
L 143.980589 -262.710661 
L 175.658455 -261.970018 
L 207.33632 -275.155506 
L 239.014186 -292.150966 
L 270.692052 -298.334558 
L 302.369917 -286.291483 
L 334.047783 -280.890266 
L 365.725648 -283.534203 
L 397.403514 -285.150915 
L 429.08138 -287.193466 
L 460.759245 -280.4614 
L 492.437111 -276.973604 
L 524.114977 -282.210814 
L 555.792842 -303.144785 
L 587.470708 -337.941324 
L 619.148573 -349.398454 
L 650.826439 -309.619348 
L 682.504305 -277.591967 
L 714.18217 -266.158157 
L 745.860036 -257.886769 
L 777.537901 -258.670692 
L 809.215767 -259.102584 
L 809.215767 -261.190568 
L 809.215767 -261.190568 
L 777.537901 -260.816773 
L 745.860036 -259.997666 
L 714.18217 -268.61486 
L 682.504305 -280.706233 
L 650.826439 -318.503053 
L 619.148573 -365.517558 
L 587.470708 -351.752808 
L 555.792842 -310.417154 
L 524.114977 -285.931469 
L 492.437111 -280.13794 
L 460.759245 -283.480748 
L 429.08138 -290.539104 
L 397.403514 -288.334603 
L 365.725648 -286.694358 
L 334.047783 -284.66757 
L 302.369917 -290.37494 
L 270.692052 -303.372555 
L 239.014186 -296.025468 
L 207.33632 -277.898716 
L 175.658455 -264.490268 
L 143.980589 -265.283725 
L 112.302724 -264.141812 
L 80.624858 -262.682301 
z
" style="stroke: #3a609c; stroke-opacity: 0.2"/>
    </defs>
    <g clip-path="url(#p4ee38cb35b)">
     <use xlink:href="#mb2b020a369" x="0" y="856.801641" style="fill: #3a609c; fill-opacity: 0.2; stroke: #3a609c; stroke-opacity: 0.2"/>
    </g>
   </g>
   <g id="FillBetweenPolyCollection_9">
    <defs>
     <path id="m1a7427c44f" d="M 80.624858 -270.783972 
L 80.624858 -268.737436 
L 112.302724 -270.839416 
L 143.980589 -270.65157 
L 175.658455 -265.514654 
L 207.33632 -269.507379 
L 239.014186 -283.685876 
L 270.692052 -291.8859 
L 302.369917 -280.622766 
L 334.047783 -283.221181 
L 365.725648 -287.712983 
L 397.403514 -291.709656 
L 429.08138 -294.343226 
L 460.759245 -287.033415 
L 492.437111 -280.939825 
L 524.114977 -279.511504 
L 555.792842 -296.722955 
L 587.470708 -334.362452 
L 619.148573 -345.649466 
L 650.826439 -300.968465 
L 682.504305 -268.486561 
L 714.18217 -258.811505 
L 745.860036 -256.074487 
L 777.537901 -263.05275 
L 809.215767 -265.736097 
L 809.215767 -267.695432 
L 809.215767 -267.695432 
L 777.537901 -264.847891 
L 745.860036 -257.964511 
L 714.18217 -260.95627 
L 682.504305 -271.273503 
L 650.826439 -311.339868 
L 619.148573 -361.586295 
L 587.470708 -348.188983 
L 555.792842 -304.139722 
L 524.114977 -283.203226 
L 492.437111 -284.402769 
L 460.759245 -290.342789 
L 429.08138 -298.072768 
L 397.403514 -295.063567 
L 365.725648 -290.769356 
L 334.047783 -286.692415 
L 302.369917 -284.762882 
L 270.692052 -296.217518 
L 239.014186 -287.041545 
L 207.33632 -271.762958 
L 175.658455 -268.17237 
L 143.980589 -273.059026 
L 112.302724 -273.052874 
L 80.624858 -270.783972 
z
" style="stroke: #ffb14e; stroke-opacity: 0.2"/>
    </defs>
    <g clip-path="url(#p4ee38cb35b)">
     <use xlink:href="#m1a7427c44f" x="0" y="856.801641" style="fill: #ffb14e; fill-opacity: 0.2; stroke: #ffb14e; stroke-opacity: 0.2"/>
    </g>
   </g>
   <g id="line2d_58">
    <path d="M 80.624858 585.095765 
L 112.302724 583.54895 
L 143.980589 582.845642 
L 175.658455 585.94658 
L 207.33632 577.567552 
L 239.014186 564.220631 
L 270.692052 558.971492 
L 302.369917 570.807783 
L 334.047783 573.04032 
L 365.725648 568.965672 
L 397.403514 564.450326 
L 429.08138 560.864497 
L 460.759245 568.168538 
L 492.437111 575.21279 
L 524.114977 575.777536 
L 555.792842 556.14379 
L 587.470708 517.414416 
L 619.148573 504.122533 
L 650.826439 547.296836 
L 682.504305 581.76885 
L 714.18217 589.87934 
L 745.860036 594.796796 
L 777.537901 589.228876 
L 809.215767 587.697168 
" clip-path="url(#p4ee38cb35b)" style="fill: none; stroke: #840853; stroke-width: 1.5; stroke-linecap: round"/>
   </g>
   <g id="line2d_59">
    <path d="M 80.624858 595.176122 
L 112.302724 593.792644 
L 143.980589 592.784245 
L 175.658455 593.548715 
L 207.33632 580.319695 
L 239.014186 562.799821 
L 270.692052 555.902241 
L 302.369917 568.427251 
L 334.047783 573.916089 
L 365.725648 571.711687 
L 397.403514 570.067858 
L 429.08138 567.916125 
L 460.759245 574.897 
L 492.437111 578.150121 
L 524.114977 572.802606 
L 555.792842 550.256542 
L 587.470708 512.232142 
L 619.148573 499.57502 
L 650.826439 542.701932 
L 682.504305 577.622035 
L 714.18217 589.47513 
L 745.860036 597.874407 
L 777.537901 597.115786 
L 809.215767 596.644181 
" clip-path="url(#p4ee38cb35b)" style="fill: none; stroke: #3a609c; stroke-width: 1.5; stroke-linecap: round"/>
   </g>
   <g id="line2d_60">
    <path d="M 80.624858 587.078601 
L 112.302724 584.857784 
L 143.980589 584.94315 
L 175.658455 590.00517 
L 207.33632 586.121367 
L 239.014186 571.374928 
L 270.692052 562.714951 
L 302.369917 574.105513 
L 334.047783 571.898512 
L 365.725648 567.569924 
L 397.403514 563.368207 
L 429.08138 560.51193 
L 460.759245 568.16924 
L 492.437111 574.158733 
L 524.114977 575.35468 
L 555.792842 556.387736 
L 587.470708 515.542552 
L 619.148573 503.505441 
L 650.826439 550.670844 
L 682.504305 586.931952 
L 714.18217 596.934444 
L 745.860036 599.737847 
L 777.537901 592.820023 
L 809.215767 590.088479 
" clip-path="url(#p4ee38cb35b)" style="fill: none; stroke: #ffb14e; stroke-width: 1.5; stroke-linecap: round"/>
   </g>
   <g id="line2d_61"/>
   <g id="line2d_62"/>
   <g id="line2d_63"/>
   <g id="patch_14">
    <path d="M 44.195313 605.734609 
L 44.195313 429.228672 
" style="fill: none; stroke: #262626; stroke-width: 1.25; stroke-linejoin: miter; stroke-linecap: square"/>
   </g>
   <g id="patch_15">
    <path d="M 845.645312 605.734609 
L 845.645312 429.228672 
" style="fill: none; stroke: #262626; stroke-width: 1.25; stroke-linejoin: miter; stroke-linecap: square"/>
   </g>
   <g id="patch_16">
    <path d="M 44.195313 605.734609 
L 845.645312 605.734609 
" style="fill: none; stroke: #262626; stroke-width: 1.25; stroke-linejoin: miter; stroke-linecap: square"/>
   </g>
   <g id="patch_17">
    <path d="M 44.195313 429.228672 
L 845.645312 429.228672 
" style="fill: none; stroke: #262626; stroke-width: 1.25; stroke-linejoin: miter; stroke-linecap: square"/>
   </g>
   <g id="text_51">
    <!-- Autumn -->
    <g style="fill: #262626" transform="translate(422.26 446.643344) scale(0.12 -0.12)">
     <defs>
      <path id="Arial-BoldMT-41" d="M 4597 0 
L 3591 0 
L 3191 1041 
L 1359 1041 
L 981 0 
L 0 0 
L 1784 4581 
L 2763 4581 
L 4597 0 
z
M 2894 1813 
L 2263 3513 
L 1644 1813 
L 2894 1813 
z
" transform="scale(0.015625)"/>
      <path id="Arial-BoldMT-74" d="M 1981 3319 
L 1981 2619 
L 1381 2619 
L 1381 1281 
Q 1381 875 1398 808 
Q 1416 741 1477 697 
Q 1538 653 1625 653 
Q 1747 653 1978 738 
L 2053 56 
Q 1747 -75 1359 -75 
Q 1122 -75 931 4 
Q 741 84 652 211 
Q 563 338 528 553 
Q 500 706 500 1172 
L 500 2619 
L 97 2619 
L 97 3319 
L 500 3319 
L 500 3978 
L 1381 4491 
L 1381 3319 
L 1981 3319 
z
" transform="scale(0.015625)"/>
     </defs>
     <use xlink:href="#Arial-BoldMT-41"/>
     <use xlink:href="#Arial-BoldMT-75" transform="translate(72.216797 0)"/>
     <use xlink:href="#Arial-BoldMT-74" transform="translate(133.300781 0)"/>
     <use xlink:href="#Arial-BoldMT-75" transform="translate(166.601562 0)"/>
     <use xlink:href="#Arial-BoldMT-6d" transform="translate(227.685547 0)"/>
     <use xlink:href="#Arial-BoldMT-6e" transform="translate(316.601562 0)"/>
    </g>
   </g>
  </g>
  <g id="axes_4">
   <g id="patch_18">
    <path d="M 44.195313 814.780547 
L 845.645312 814.780547 
L 845.645312 638.274609 
L 44.195313 638.274609 
z
" style="fill: #ffffff"/>
   </g>
   <g id="matplotlib.axis_7">
    <g id="xtick_16">
     <g id="line2d_64">
      <g>
       <use xlink:href="#m6b78bf21d5" x="80.624858" y="814.780547" style="fill: #262626; stroke: #262626; stroke-width: 1.25"/>
      </g>
     </g>
     <g id="text_52">
      <!-- 0h -->
      <g style="fill: #262626" transform="translate(74.507827 832.154141) scale(0.11 -0.11)">
       <use xlink:href="#ArialMT-30"/>
       <use xlink:href="#ArialMT-68" transform="translate(55.615234 0)"/>
      </g>
     </g>
    </g>
    <g id="xtick_17">
     <g id="line2d_65">
      <g>
       <use xlink:href="#m6b78bf21d5" x="270.692052" y="814.780547" style="fill: #262626; stroke: #262626; stroke-width: 1.25"/>
      </g>
     </g>
     <g id="text_53">
      <!-- 6h -->
      <g style="fill: #262626" transform="translate(264.57502 832.154141) scale(0.11 -0.11)">
       <use xlink:href="#ArialMT-36"/>
       <use xlink:href="#ArialMT-68" transform="translate(55.615234 0)"/>
      </g>
     </g>
    </g>
    <g id="xtick_18">
     <g id="line2d_66">
      <g>
       <use xlink:href="#m6b78bf21d5" x="460.759245" y="814.780547" style="fill: #262626; stroke: #262626; stroke-width: 1.25"/>
      </g>
     </g>
     <g id="text_54">
      <!-- 12h -->
      <g style="fill: #262626" transform="translate(451.583698 832.154141) scale(0.11 -0.11)">
       <use xlink:href="#ArialMT-31"/>
       <use xlink:href="#ArialMT-32" transform="translate(55.615234 0)"/>
       <use xlink:href="#ArialMT-68" transform="translate(111.230469 0)"/>
      </g>
     </g>
    </g>
    <g id="xtick_19">
     <g id="line2d_67">
      <g>
       <use xlink:href="#m6b78bf21d5" x="650.826439" y="814.780547" style="fill: #262626; stroke: #262626; stroke-width: 1.25"/>
      </g>
     </g>
     <g id="text_55">
      <!-- 18h -->
      <g style="fill: #262626" transform="translate(641.650892 832.154141) scale(0.11 -0.11)">
       <use xlink:href="#ArialMT-31"/>
       <use xlink:href="#ArialMT-38" transform="translate(55.615234 0)"/>
       <use xlink:href="#ArialMT-68" transform="translate(111.230469 0)"/>
      </g>
     </g>
    </g>
    <g id="xtick_20">
     <g id="line2d_68">
      <g>
       <use xlink:href="#m6b78bf21d5" x="809.215767" y="814.780547" style="fill: #262626; stroke: #262626; stroke-width: 1.25"/>
      </g>
     </g>
     <g id="text_56">
      <!-- 23h -->
      <g style="fill: #262626" transform="translate(800.04022 832.154141) scale(0.11 -0.11)">
       <use xlink:href="#ArialMT-32"/>
       <use xlink:href="#ArialMT-33" transform="translate(55.615234 0)"/>
       <use xlink:href="#ArialMT-68" transform="translate(111.230469 0)"/>
      </g>
     </g>
    </g>
    <g id="text_57">
     <!-- Hour of the day -->
     <g style="fill: #262626" transform="translate(403.899062 847.076016) scale(0.12 -0.12)">
      <defs>
       <path id="ArialMT-48" d="M 513 0 
L 513 4581 
L 1119 4581 
L 1119 2700 
L 3500 2700 
L 3500 4581 
L 4106 4581 
L 4106 0 
L 3500 0 
L 3500 2159 
L 1119 2159 
L 1119 0 
L 513 0 
z
" transform="scale(0.015625)"/>
       <path id="ArialMT-75" d="M 2597 0 
L 2597 488 
Q 2209 -75 1544 -75 
Q 1250 -75 995 37 
Q 741 150 617 320 
Q 494 491 444 738 
Q 409 903 409 1263 
L 409 3319 
L 972 3319 
L 972 1478 
Q 972 1038 1006 884 
Q 1059 663 1231 536 
Q 1403 409 1656 409 
Q 1909 409 2131 539 
Q 2353 669 2445 892 
Q 2538 1116 2538 1541 
L 2538 3319 
L 3100 3319 
L 3100 0 
L 2597 0 
z
" transform="scale(0.015625)"/>
       <path id="ArialMT-72" d="M 416 0 
L 416 3319 
L 922 3319 
L 922 2816 
Q 1116 3169 1280 3281 
Q 1444 3394 1641 3394 
Q 1925 3394 2219 3213 
L 2025 2691 
Q 1819 2813 1613 2813 
Q 1428 2813 1281 2702 
Q 1134 2591 1072 2394 
Q 978 2094 978 1738 
L 978 0 
L 416 0 
z
" transform="scale(0.015625)"/>
       <path id="ArialMT-66" d="M 556 0 
L 556 2881 
L 59 2881 
L 59 3319 
L 556 3319 
L 556 3672 
Q 556 4006 616 4169 
Q 697 4388 901 4523 
Q 1106 4659 1475 4659 
Q 1713 4659 2000 4603 
L 1916 4113 
Q 1741 4144 1584 4144 
Q 1328 4144 1222 4034 
Q 1116 3925 1116 3625 
L 1116 3319 
L 1763 3319 
L 1763 2881 
L 1116 2881 
L 1116 0 
L 556 0 
z
" transform="scale(0.015625)"/>
       <path id="ArialMT-61" d="M 2588 409 
Q 2275 144 1986 34 
Q 1697 -75 1366 -75 
Q 819 -75 525 192 
Q 231 459 231 875 
Q 231 1119 342 1320 
Q 453 1522 633 1644 
Q 813 1766 1038 1828 
Q 1203 1872 1538 1913 
Q 2219 1994 2541 2106 
Q 2544 2222 2544 2253 
Q 2544 2597 2384 2738 
Q 2169 2928 1744 2928 
Q 1347 2928 1158 2789 
Q 969 2650 878 2297 
L 328 2372 
Q 403 2725 575 2942 
Q 747 3159 1072 3276 
Q 1397 3394 1825 3394 
Q 2250 3394 2515 3294 
Q 2781 3194 2906 3042 
Q 3031 2891 3081 2659 
Q 3109 2516 3109 2141 
L 3109 1391 
Q 3109 606 3145 398 
Q 3181 191 3288 0 
L 2700 0 
Q 2613 175 2588 409 
z
M 2541 1666 
Q 2234 1541 1622 1453 
Q 1275 1403 1131 1340 
Q 988 1278 909 1158 
Q 831 1038 831 891 
Q 831 666 1001 516 
Q 1172 366 1500 366 
Q 1825 366 2078 508 
Q 2331 650 2450 897 
Q 2541 1088 2541 1459 
L 2541 1666 
z
" transform="scale(0.015625)"/>
      </defs>
      <use xlink:href="#ArialMT-48"/>
      <use xlink:href="#ArialMT-6f" transform="translate(72.216797 0)"/>
      <use xlink:href="#ArialMT-75" transform="translate(127.832031 0)"/>
      <use xlink:href="#ArialMT-72" transform="translate(183.447266 0)"/>
      <use xlink:href="#ArialMT-20" transform="translate(216.748047 0)"/>
      <use xlink:href="#ArialMT-6f" transform="translate(244.53125 0)"/>
      <use xlink:href="#ArialMT-66" transform="translate(300.146484 0)"/>
      <use xlink:href="#ArialMT-20" transform="translate(327.929688 0)"/>
      <use xlink:href="#ArialMT-74" transform="translate(355.712891 0)"/>
      <use xlink:href="#ArialMT-68" transform="translate(383.496094 0)"/>
      <use xlink:href="#ArialMT-65" transform="translate(439.111328 0)"/>
      <use xlink:href="#ArialMT-20" transform="translate(494.726562 0)"/>
      <use xlink:href="#ArialMT-64" transform="translate(522.509766 0)"/>
      <use xlink:href="#ArialMT-61" transform="translate(578.125 0)"/>
      <use xlink:href="#ArialMT-79" transform="translate(633.740234 0)"/>
     </g>
    </g>
   </g>
   <g id="matplotlib.axis_8">
    <g id="ytick_28">
     <g id="line2d_69">
      <g>
       <use xlink:href="#m80240970fe" x="44.195313" y="814.780547" style="fill: #262626; stroke: #262626; stroke-width: 1.25"/>
      </g>
     </g>
     <g id="text_58">
      <!-- 10 -->
      <g style="fill: #262626" transform="translate(22.46125 818.717344) scale(0.11 -0.11)">
       <use xlink:href="#ArialMT-31"/>
       <use xlink:href="#ArialMT-30" transform="translate(55.615234 0)"/>
      </g>
     </g>
    </g>
    <g id="ytick_29">
     <g id="line2d_70">
      <g>
       <use xlink:href="#m80240970fe" x="44.195313" y="792.717305" style="fill: #262626; stroke: #262626; stroke-width: 1.25"/>
      </g>
     </g>
     <g id="text_59">
      <!-- 20 -->
      <g style="fill: #262626" transform="translate(22.46125 796.654102) scale(0.11 -0.11)">
       <use xlink:href="#ArialMT-32"/>
       <use xlink:href="#ArialMT-30" transform="translate(55.615234 0)"/>
      </g>
     </g>
    </g>
    <g id="ytick_30">
     <g id="line2d_71">
      <g>
       <use xlink:href="#m80240970fe" x="44.195313" y="770.654063" style="fill: #262626; stroke: #262626; stroke-width: 1.25"/>
      </g>
     </g>
     <g id="text_60">
      <!-- 30 -->
      <g style="fill: #262626" transform="translate(22.46125 774.590859) scale(0.11 -0.11)">
       <use xlink:href="#ArialMT-33"/>
       <use xlink:href="#ArialMT-30" transform="translate(55.615234 0)"/>
      </g>
     </g>
    </g>
    <g id="ytick_31">
     <g id="line2d_72">
      <g>
       <use xlink:href="#m80240970fe" x="44.195313" y="748.59082" style="fill: #262626; stroke: #262626; stroke-width: 1.25"/>
      </g>
     </g>
     <g id="text_61">
      <!-- 40 -->
      <g style="fill: #262626" transform="translate(22.46125 752.527617) scale(0.11 -0.11)">
       <use xlink:href="#ArialMT-34"/>
       <use xlink:href="#ArialMT-30" transform="translate(55.615234 0)"/>
      </g>
     </g>
    </g>
    <g id="ytick_32">
     <g id="line2d_73">
      <g>
       <use xlink:href="#m80240970fe" x="44.195313" y="726.527578" style="fill: #262626; stroke: #262626; stroke-width: 1.25"/>
      </g>
     </g>
     <g id="text_62">
      <!-- 50 -->
      <g style="fill: #262626" transform="translate(22.46125 730.464375) scale(0.11 -0.11)">
       <use xlink:href="#ArialMT-35"/>
       <use xlink:href="#ArialMT-30" transform="translate(55.615234 0)"/>
      </g>
     </g>
    </g>
    <g id="ytick_33">
     <g id="line2d_74">
      <g>
       <use xlink:href="#m80240970fe" x="44.195313" y="704.464336" style="fill: #262626; stroke: #262626; stroke-width: 1.25"/>
      </g>
     </g>
     <g id="text_63">
      <!-- 60 -->
      <g style="fill: #262626" transform="translate(22.46125 708.401133) scale(0.11 -0.11)">
       <use xlink:href="#ArialMT-36"/>
       <use xlink:href="#ArialMT-30" transform="translate(55.615234 0)"/>
      </g>
     </g>
    </g>
    <g id="ytick_34">
     <g id="line2d_75">
      <g>
       <use xlink:href="#m80240970fe" x="44.195313" y="682.401094" style="fill: #262626; stroke: #262626; stroke-width: 1.25"/>
      </g>
     </g>
     <g id="text_64">
      <!-- 70 -->
      <g style="fill: #262626" transform="translate(22.46125 686.337891) scale(0.11 -0.11)">
       <use xlink:href="#ArialMT-37"/>
       <use xlink:href="#ArialMT-30" transform="translate(55.615234 0)"/>
      </g>
     </g>
    </g>
    <g id="ytick_35">
     <g id="line2d_76">
      <g>
       <use xlink:href="#m80240970fe" x="44.195313" y="660.337852" style="fill: #262626; stroke: #262626; stroke-width: 1.25"/>
      </g>
     </g>
     <g id="text_65">
      <!-- 80 -->
      <g style="fill: #262626" transform="translate(22.46125 664.274648) scale(0.11 -0.11)">
       <use xlink:href="#ArialMT-38"/>
       <use xlink:href="#ArialMT-30" transform="translate(55.615234 0)"/>
      </g>
     </g>
    </g>
    <g id="ytick_36">
     <g id="line2d_77">
      <g>
       <use xlink:href="#m80240970fe" x="44.195313" y="638.274609" style="fill: #262626; stroke: #262626; stroke-width: 1.25"/>
      </g>
     </g>
     <g id="text_66">
      <!-- 90 -->
      <g style="fill: #262626" transform="translate(22.46125 642.211406) scale(0.11 -0.11)">
       <use xlink:href="#ArialMT-39"/>
       <use xlink:href="#ArialMT-30" transform="translate(55.615234 0)"/>
      </g>
     </g>
    </g>
    <g id="text_67">
     <!-- MAE (€/MWh) -->
     <g style="fill: #262626" transform="translate(15.935625 764.193516) rotate(-90) scale(0.12 -0.12)">
      <use xlink:href="#ArialMT-4d"/>
      <use xlink:href="#ArialMT-41" transform="translate(83.300781 0)"/>
      <use xlink:href="#ArialMT-45" transform="translate(150 0)"/>
      <use xlink:href="#ArialMT-20" transform="translate(216.699219 0)"/>
      <use xlink:href="#ArialMT-28" transform="translate(244.482422 0)"/>
      <use xlink:href="#ArialMT-20ac" transform="translate(277.783203 0)"/>
      <use xlink:href="#ArialMT-2f" transform="translate(333.398438 0)"/>
      <use xlink:href="#ArialMT-4d" transform="translate(361.181641 0)"/>
      <use xlink:href="#ArialMT-57" transform="translate(444.482422 0)"/>
      <use xlink:href="#ArialMT-68" transform="translate(538.867188 0)"/>
      <use xlink:href="#ArialMT-29" transform="translate(594.482422 0)"/>
     </g>
    </g>
   </g>
   <g id="FillBetweenPolyCollection_10">
    <defs>
     <path id="m58a612574d" d="M 80.624858 -106.856821 
L 80.624858 -99.276671 
L 112.302724 -99.728252 
L 143.980589 -99.813463 
L 175.658455 -100.678138 
L 207.33632 -99.097981 
L 239.014186 -104.434001 
L 270.692052 -112.857155 
L 302.369917 -128.367911 
L 334.047783 -122.067179 
L 365.725648 -106.862352 
L 397.403514 -100.974173 
L 429.08138 -92.182718 
L 460.759245 -91.350849 
L 492.437111 -96.339603 
L 524.114977 -112.640225 
L 555.792842 -133.727109 
L 587.470708 -150.486125 
L 619.148573 -133.807473 
L 650.826439 -121.162469 
L 682.504305 -107.040258 
L 714.18217 -102.931283 
L 745.860036 -100.570768 
L 777.537901 -99.452947 
L 809.215767 -98.362754 
L 809.215767 -105.11655 
L 809.215767 -105.11655 
L 777.537901 -105.591783 
L 745.860036 -106.553067 
L 714.18217 -108.69464 
L 682.504305 -112.548573 
L 650.826439 -128.142802 
L 619.148573 -142.247902 
L 587.470708 -161.989974 
L 555.792842 -144.165331 
L 524.114977 -121.299181 
L 492.437111 -102.762647 
L 460.759245 -97.695462 
L 429.08138 -98.024682 
L 397.403514 -107.077221 
L 365.725648 -113.94555 
L 334.047783 -130.219489 
L 302.369917 -137.529838 
L 270.692052 -121.216092 
L 239.014186 -110.64881 
L 207.33632 -106.070409 
L 175.658455 -107.728597 
L 143.980589 -107.401645 
L 112.302724 -107.141921 
L 80.624858 -106.856821 
z
" style="stroke: #840853; stroke-opacity: 0.2"/>
    </defs>
    <g clip-path="url(#p8e822de5e4)">
     <use xlink:href="#m58a612574d" x="0" y="856.801641" style="fill: #840853; fill-opacity: 0.2; stroke: #840853; stroke-opacity: 0.2"/>
    </g>
   </g>
   <g id="FillBetweenPolyCollection_11">
    <defs>
     <path id="m7df325aa19" d="M 80.624858 -94.428949 
L 80.624858 -88.156969 
L 112.302724 -88.363814 
L 143.980589 -88.634666 
L 175.658455 -88.119364 
L 207.33632 -87.250571 
L 239.014186 -91.694299 
L 270.692052 -103.654196 
L 302.369917 -120.496651 
L 334.047783 -114.072036 
L 365.725648 -98.598977 
L 397.403514 -92.848279 
L 429.08138 -84.104542 
L 460.759245 -83.623448 
L 492.437111 -88.600634 
L 524.114977 -106.343557 
L 555.792842 -127.106933 
L 587.470708 -144.646989 
L 619.148573 -126.519359 
L 650.826439 -112.850458 
L 682.504305 -95.659181 
L 714.18217 -90.383967 
L 745.860036 -87.33181 
L 777.537901 -86.352032 
L 809.215767 -87.051119 
L 809.215767 -92.764571 
L 809.215767 -92.764571 
L 777.537901 -92.16753 
L 745.860036 -92.554583 
L 714.18217 -95.151533 
L 682.504305 -100.221276 
L 650.826439 -118.803872 
L 619.148573 -134.291939 
L 587.470708 -155.99971 
L 555.792842 -137.006552 
L 524.114977 -114.447279 
L 492.437111 -94.440173 
L 460.759245 -88.892879 
L 429.08138 -89.465094 
L 397.403514 -98.377541 
L 365.725648 -105.269081 
L 334.047783 -121.736717 
L 302.369917 -128.475374 
L 270.692052 -111.679259 
L 239.014186 -96.964167 
L 207.33632 -93.257938 
L 175.658455 -94.481963 
L 143.980589 -95.211867 
L 112.302724 -94.991693 
L 80.624858 -94.428949 
z
" style="stroke: #3a609c; stroke-opacity: 0.2"/>
    </defs>
    <g clip-path="url(#p8e822de5e4)">
     <use xlink:href="#m7df325aa19" x="0" y="856.801641" style="fill: #3a609c; fill-opacity: 0.2; stroke: #3a609c; stroke-opacity: 0.2"/>
    </g>
   </g>
   <g id="FillBetweenPolyCollection_12">
    <defs>
     <path id="m7fc960815f" d="M 80.624858 -78.108872 
L 80.624858 -71.954399 
L 112.302724 -74.003719 
L 143.980589 -74.774316 
L 175.658455 -73.198136 
L 207.33632 -66.642356 
L 239.014186 -64.884162 
L 270.692052 -77.014034 
L 302.369917 -96.063874 
L 334.047783 -88.466091 
L 365.725648 -72.266366 
L 397.403514 -66.577684 
L 429.08138 -63.100215 
L 460.759245 -65.777729 
L 492.437111 -67.399685 
L 524.114977 -79.699462 
L 555.792842 -97.285039 
L 587.470708 -115.024692 
L 619.148573 -99.089736 
L 650.826439 -82.888816 
L 682.504305 -64.639163 
L 714.18217 -56.236752 
L 745.860036 -54.014769 
L 777.537901 -59.06126 
L 809.215767 -65.171029 
L 809.215767 -71.254034 
L 809.215767 -71.254034 
L 777.537901 -64.662027 
L 745.860036 -59.241734 
L 714.18217 -61.050258 
L 682.504305 -68.874292 
L 650.826439 -89.726551 
L 619.148573 -107.153208 
L 587.470708 -127.999234 
L 555.792842 -108.160203 
L 524.114977 -88.217927 
L 492.437111 -73.694371 
L 460.759245 -71.484035 
L 429.08138 -68.589906 
L 397.403514 -72.373107 
L 365.725648 -79.103534 
L 334.047783 -96.939359 
L 302.369917 -104.621475 
L 270.692052 -85.032478 
L 239.014186 -70.080342 
L 207.33632 -72.700589 
L 175.658455 -79.603431 
L 143.980589 -81.4352 
L 112.302724 -80.302705 
L 80.624858 -78.108872 
z
" style="stroke: #ffb14e; stroke-opacity: 0.2"/>
    </defs>
    <g clip-path="url(#p8e822de5e4)">
     <use xlink:href="#m7fc960815f" x="0" y="856.801641" style="fill: #ffb14e; fill-opacity: 0.2; stroke: #ffb14e; stroke-opacity: 0.2"/>
    </g>
   </g>
   <g id="line2d_78">
    <path d="M 80.624858 753.892666 
L 112.302724 753.439167 
L 143.980589 753.065859 
L 175.658455 752.807204 
L 207.33632 754.343328 
L 239.014186 749.278033 
L 270.692052 739.958257 
L 302.369917 724.041464 
L 334.047783 730.835034 
L 365.725648 746.35802 
L 397.403514 752.8859 
L 429.08138 761.81355 
L 460.759245 762.34264 
L 492.437111 757.461762 
L 524.114977 740.054557 
L 555.792842 718.108731 
L 587.470708 700.575857 
L 619.148573 719.019421 
L 650.826439 732.402707 
L 682.504305 746.993852 
L 714.18217 751.020496 
L 745.860036 753.326163 
L 777.537901 754.106411 
L 809.215767 754.925256 
" clip-path="url(#p8e822de5e4)" style="fill: none; stroke: #840853; stroke-width: 1.5; stroke-linecap: round"/>
   </g>
   <g id="line2d_79">
    <path d="M 80.624858 765.603709 
L 112.302724 765.201153 
L 143.980589 764.986471 
L 175.658455 765.423128 
L 207.33632 766.581746 
L 239.014186 762.402327 
L 270.692052 749.099979 
L 302.369917 732.446774 
L 334.047783 739.081541 
L 365.725648 754.880004 
L 397.403514 761.317316 
L 429.08138 770.167443 
L 460.759245 770.443541 
L 492.437111 765.331319 
L 524.114977 746.517247 
L 555.792842 724.794785 
L 587.470708 706.783552 
L 619.148573 726.530125 
L 650.826439 741.076684 
L 682.504305 758.941654 
L 714.18217 764.028104 
L 745.860036 766.92552 
L 777.537901 767.596982 
L 809.215767 766.948176 
" clip-path="url(#p8e822de5e4)" style="fill: none; stroke: #3a609c; stroke-width: 1.5; stroke-linecap: round"/>
   </g>
   <g id="line2d_80">
    <path d="M 80.624858 781.870615 
L 112.302724 779.712235 
L 143.980589 778.65993 
L 175.658455 780.617286 
L 207.33632 787.062776 
L 239.014186 789.403697 
L 270.692052 775.830931 
L 302.369917 756.810314 
L 334.047783 764.350801 
L 365.725648 781.012965 
L 397.403514 787.275251 
L 429.08138 791.078405 
L 460.759245 788.197778 
L 492.437111 786.178073 
L 524.114977 772.993664 
L 555.792842 754.082349 
L 587.470708 735.455171 
L 619.148573 753.899706 
L 650.826439 770.480506 
L 682.504305 790.15699 
L 714.18217 798.192236 
L 745.860036 800.282443 
L 777.537901 794.84814 
L 809.215767 788.607251 
" clip-path="url(#p8e822de5e4)" style="fill: none; stroke: #ffb14e; stroke-width: 1.5; stroke-linecap: round"/>
   </g>
   <g id="line2d_81"/>
   <g id="line2d_82"/>
   <g id="line2d_83"/>
   <g id="patch_19">
    <path d="M 44.195313 814.780547 
L 44.195313 638.274609 
" style="fill: none; stroke: #262626; stroke-width: 1.25; stroke-linejoin: miter; stroke-linecap: square"/>
   </g>
   <g id="patch_20">
    <path d="M 845.645312 814.780547 
L 845.645312 638.274609 
" style="fill: none; stroke: #262626; stroke-width: 1.25; stroke-linejoin: miter; stroke-linecap: square"/>
   </g>
   <g id="patch_21">
    <path d="M 44.195313 814.780547 
L 845.645312 814.780547 
" style="fill: none; stroke: #262626; stroke-width: 1.25; stroke-linejoin: miter; stroke-linecap: square"/>
   </g>
   <g id="patch_22">
    <path d="M 44.195313 638.274609 
L 845.645312 638.274609 
" style="fill: none; stroke: #262626; stroke-width: 1.25; stroke-linejoin: miter; stroke-linecap: square"/>
   </g>
   <g id="text_68">
    <!-- Winter -->
    <g style="fill: #262626" transform="translate(426.308125 655.689281) scale(0.12 -0.12)">
     <defs>
      <path id="Arial-BoldMT-57" d="M 1116 0 
L 22 4581 
L 969 4581 
L 1659 1434 
L 2497 4581 
L 3597 4581 
L 4400 1381 
L 5103 4581 
L 6034 4581 
L 4922 0 
L 3941 0 
L 3028 3425 
L 2119 0 
L 1116 0 
z
" transform="scale(0.015625)"/>
     </defs>
     <use xlink:href="#Arial-BoldMT-57"/>
     <use xlink:href="#Arial-BoldMT-69" transform="translate(93.509766 0)"/>
     <use xlink:href="#Arial-BoldMT-6e" transform="translate(121.292969 0)"/>
     <use xlink:href="#Arial-BoldMT-74" transform="translate(182.376953 0)"/>
     <use xlink:href="#Arial-BoldMT-65" transform="translate(215.677734 0)"/>
     <use xlink:href="#Arial-BoldMT-72" transform="translate(271.292969 0)"/>
    </g>
   </g>
  </g>
 </g>
 <defs>
  <clipPath id="pcf2c57a00b">
   <rect x="44.195313" y="11.136797" width="801.45" height="176.505937"/>
  </clipPath>
  <clipPath id="p94c43cfcc3">
   <rect x="44.195313" y="220.182734" width="801.45" height="176.505937"/>
  </clipPath>
  <clipPath id="p4ee38cb35b">
   <rect x="44.195313" y="429.228672" width="801.45" height="176.505937"/>
  </clipPath>
  <clipPath id="p8e822de5e4">
   <rect x="44.195313" y="638.274609" width="801.45" height="176.505937"/>
  </clipPath>
 </defs>
</svg>
