<?xml version="1.0" encoding="utf-8" standalone="no"?>
<!DOCTYPE svg PUBLIC "-//W3C//DTD SVG 1.1//EN"
  "http://www.w3.org/Graphics/SVG/1.1/DTD/svg11.dtd">
<svg xmlns:xlink="http://www.w3.org/1999/xlink" width="852.845312pt" height="856.801641pt" viewBox="0 0 852.845312 856.801641" xmlns="http://www.w3.org/2000/svg" version="1.1">
 <metadata>
  <rdf:RDF xmlns:dc="http://purl.org/dc/elements/1.1/" xmlns:cc="http://creativecommons.org/ns#" xmlns:rdf="http://www.w3.org/1999/02/22-rdf-syntax-ns#">
   <cc:Work>
    <dc:type rdf:resource="http://purl.org/dc/dcmitype/StillImage"/>
    <dc:date>2025-07-06T15:53:25.645635</dc:date>
    <dc:format>image/svg+xml</dc:format>
    <dc:creator>
     <cc:Agent>
      <dc:title>Matplotlib v3.10.1, https://matplotlib.org/</dc:title>
     </cc:Agent>
    </dc:creator>
   </cc:Work>
  </rdf:RDF>
 </metadata>
 <defs>
  <style type="text/css">*{stroke-linejoin: round; stroke-linecap: butt}</style>
 </defs>
 <g id="figure_1">
  <g id="patch_1">
   <path d="M 0 856.801641 
L 852.845312 856.801641 
L 852.845312 0 
L 0 0 
z
" style="fill: #ffffff"/>
  </g>
  <g id="axes_1">
   <g id="patch_2">
    <path d="M 44.195313 187.642734 
L 845.645312 187.642734 
L 845.645312 11.136797 
L 44.195313 11.136797 
z
" style="fill: #ffffff"/>
   </g>
   <g id="matplotlib.axis_1">
    <g id="xtick_1">
     <g id="line2d_1">
      <defs>
       <path id="m380ffdcf14" d="M 0 0 
L 0 6 
" style="stroke: #262626; stroke-width: 1.25"/>
      </defs>
      <g>
       <use xlink:href="#m380ffdcf14" x="80.624858" y="187.642734" style="fill: #262626; stroke: #262626; stroke-width: 1.25"/>
      </g>
     </g>
     <g id="text_1">
      <!-- 0h -->
      <g style="fill: #262626" transform="translate(74.507827 205.016328) scale(0.11 -0.11)">
       <defs>
        <path id="ArialMT-30" d="M 266 2259 
Q 266 3072 433 3567 
Q 600 4063 929 4331 
Q 1259 4600 1759 4600 
Q 2128 4600 2406 4451 
Q 2684 4303 2865 4023 
Q 3047 3744 3150 3342 
Q 3253 2941 3253 2259 
Q 3253 1453 3087 958 
Q 2922 463 2592 192 
Q 2263 -78 1759 -78 
Q 1097 -78 719 397 
Q 266 969 266 2259 
z
M 844 2259 
Q 844 1131 1108 757 
Q 1372 384 1759 384 
Q 2147 384 2411 759 
Q 2675 1134 2675 2259 
Q 2675 3391 2411 3762 
Q 2147 4134 1753 4134 
Q 1366 4134 1134 3806 
Q 844 3388 844 2259 
z
" transform="scale(0.015625)"/>
        <path id="ArialMT-68" d="M 422 0 
L 422 4581 
L 984 4581 
L 984 2938 
Q 1378 3394 1978 3394 
Q 2347 3394 2619 3248 
Q 2891 3103 3008 2847 
Q 3125 2591 3125 2103 
L 3125 0 
L 2563 0 
L 2563 2103 
Q 2563 2525 2380 2717 
Q 2197 2909 1863 2909 
Q 1613 2909 1392 2779 
Q 1172 2650 1078 2428 
Q 984 2206 984 1816 
L 984 0 
L 422 0 
z
" transform="scale(0.015625)"/>
       </defs>
       <use xlink:href="#ArialMT-30"/>
       <use xlink:href="#ArialMT-68" transform="translate(55.615234 0)"/>
      </g>
     </g>
    </g>
    <g id="xtick_2">
     <g id="line2d_2">
      <g>
       <use xlink:href="#m380ffdcf14" x="270.692052" y="187.642734" style="fill: #262626; stroke: #262626; stroke-width: 1.25"/>
      </g>
     </g>
     <g id="text_2">
      <!-- 6h -->
      <g style="fill: #262626" transform="translate(264.57502 205.016328) scale(0.11 -0.11)">
       <defs>
        <path id="ArialMT-36" d="M 3184 3459 
L 2625 3416 
Q 2550 3747 2413 3897 
Q 2184 4138 1850 4138 
Q 1581 4138 1378 3988 
Q 1113 3794 959 3422 
Q 806 3050 800 2363 
Q 1003 2672 1297 2822 
Q 1591 2972 1913 2972 
Q 2475 2972 2870 2558 
Q 3266 2144 3266 1488 
Q 3266 1056 3080 686 
Q 2894 316 2569 119 
Q 2244 -78 1831 -78 
Q 1128 -78 684 439 
Q 241 956 241 2144 
Q 241 3472 731 4075 
Q 1159 4600 1884 4600 
Q 2425 4600 2770 4297 
Q 3116 3994 3184 3459 
z
M 888 1484 
Q 888 1194 1011 928 
Q 1134 663 1356 523 
Q 1578 384 1822 384 
Q 2178 384 2434 671 
Q 2691 959 2691 1453 
Q 2691 1928 2437 2201 
Q 2184 2475 1800 2475 
Q 1419 2475 1153 2201 
Q 888 1928 888 1484 
z
" transform="scale(0.015625)"/>
       </defs>
       <use xlink:href="#ArialMT-36"/>
       <use xlink:href="#ArialMT-68" transform="translate(55.615234 0)"/>
      </g>
     </g>
    </g>
    <g id="xtick_3">
     <g id="line2d_3">
      <g>
       <use xlink:href="#m380ffdcf14" x="460.759245" y="187.642734" style="fill: #262626; stroke: #262626; stroke-width: 1.25"/>
      </g>
     </g>
     <g id="text_3">
      <!-- 12h -->
      <g style="fill: #262626" transform="translate(451.583698 205.016328) scale(0.11 -0.11)">
       <defs>
        <path id="ArialMT-31" d="M 2384 0 
L 1822 0 
L 1822 3584 
Q 1619 3391 1289 3197 
Q 959 3003 697 2906 
L 697 3450 
Q 1169 3672 1522 3987 
Q 1875 4303 2022 4600 
L 2384 4600 
L 2384 0 
z
" transform="scale(0.015625)"/>
        <path id="ArialMT-32" d="M 3222 541 
L 3222 0 
L 194 0 
Q 188 203 259 391 
Q 375 700 629 1000 
Q 884 1300 1366 1694 
Q 2113 2306 2375 2664 
Q 2638 3022 2638 3341 
Q 2638 3675 2398 3904 
Q 2159 4134 1775 4134 
Q 1369 4134 1125 3890 
Q 881 3647 878 3216 
L 300 3275 
Q 359 3922 746 4261 
Q 1134 4600 1788 4600 
Q 2447 4600 2831 4234 
Q 3216 3869 3216 3328 
Q 3216 3053 3103 2787 
Q 2991 2522 2730 2228 
Q 2469 1934 1863 1422 
Q 1356 997 1212 845 
Q 1069 694 975 541 
L 3222 541 
z
" transform="scale(0.015625)"/>
       </defs>
       <use xlink:href="#ArialMT-31"/>
       <use xlink:href="#ArialMT-32" transform="translate(55.615234 0)"/>
       <use xlink:href="#ArialMT-68" transform="translate(111.230469 0)"/>
      </g>
     </g>
    </g>
    <g id="xtick_4">
     <g id="line2d_4">
      <g>
       <use xlink:href="#m380ffdcf14" x="650.826439" y="187.642734" style="fill: #262626; stroke: #262626; stroke-width: 1.25"/>
      </g>
     </g>
     <g id="text_4">
      <!-- 18h -->
      <g style="fill: #262626" transform="translate(641.650892 205.016328) scale(0.11 -0.11)">
       <defs>
        <path id="ArialMT-38" d="M 1131 2484 
Q 781 2613 612 2850 
Q 444 3088 444 3419 
Q 444 3919 803 4259 
Q 1163 4600 1759 4600 
Q 2359 4600 2725 4251 
Q 3091 3903 3091 3403 
Q 3091 3084 2923 2848 
Q 2756 2613 2416 2484 
Q 2838 2347 3058 2040 
Q 3278 1734 3278 1309 
Q 3278 722 2862 322 
Q 2447 -78 1769 -78 
Q 1091 -78 675 323 
Q 259 725 259 1325 
Q 259 1772 486 2073 
Q 713 2375 1131 2484 
z
M 1019 3438 
Q 1019 3113 1228 2906 
Q 1438 2700 1772 2700 
Q 2097 2700 2305 2904 
Q 2513 3109 2513 3406 
Q 2513 3716 2298 3927 
Q 2084 4138 1766 4138 
Q 1444 4138 1231 3931 
Q 1019 3725 1019 3438 
z
M 838 1322 
Q 838 1081 952 856 
Q 1066 631 1291 507 
Q 1516 384 1775 384 
Q 2178 384 2440 643 
Q 2703 903 2703 1303 
Q 2703 1709 2433 1975 
Q 2163 2241 1756 2241 
Q 1359 2241 1098 1978 
Q 838 1716 838 1322 
z
" transform="scale(0.015625)"/>
       </defs>
       <use xlink:href="#ArialMT-31"/>
       <use xlink:href="#ArialMT-38" transform="translate(55.615234 0)"/>
       <use xlink:href="#ArialMT-68" transform="translate(111.230469 0)"/>
      </g>
     </g>
    </g>
    <g id="xtick_5">
     <g id="line2d_5">
      <g>
       <use xlink:href="#m380ffdcf14" x="809.215767" y="187.642734" style="fill: #262626; stroke: #262626; stroke-width: 1.25"/>
      </g>
     </g>
     <g id="text_5">
      <!-- 23h -->
      <g style="fill: #262626" transform="translate(800.04022 205.016328) scale(0.11 -0.11)">
       <defs>
        <path id="ArialMT-33" d="M 269 1209 
L 831 1284 
Q 928 806 1161 595 
Q 1394 384 1728 384 
Q 2125 384 2398 659 
Q 2672 934 2672 1341 
Q 2672 1728 2419 1979 
Q 2166 2231 1775 2231 
Q 1616 2231 1378 2169 
L 1441 2663 
Q 1497 2656 1531 2656 
Q 1891 2656 2178 2843 
Q 2466 3031 2466 3422 
Q 2466 3731 2256 3934 
Q 2047 4138 1716 4138 
Q 1388 4138 1169 3931 
Q 950 3725 888 3313 
L 325 3413 
Q 428 3978 793 4289 
Q 1159 4600 1703 4600 
Q 2078 4600 2393 4439 
Q 2709 4278 2876 4000 
Q 3044 3722 3044 3409 
Q 3044 3113 2884 2869 
Q 2725 2625 2413 2481 
Q 2819 2388 3044 2092 
Q 3269 1797 3269 1353 
Q 3269 753 2831 336 
Q 2394 -81 1725 -81 
Q 1122 -81 723 278 
Q 325 638 269 1209 
z
" transform="scale(0.015625)"/>
       </defs>
       <use xlink:href="#ArialMT-32"/>
       <use xlink:href="#ArialMT-33" transform="translate(55.615234 0)"/>
       <use xlink:href="#ArialMT-68" transform="translate(111.230469 0)"/>
      </g>
     </g>
    </g>
   </g>
   <g id="matplotlib.axis_2">
    <g id="ytick_1">
     <g id="line2d_6">
      <defs>
       <path id="m2709889f67" d="M 0 0 
L -6 0 
" style="stroke: #262626; stroke-width: 1.25"/>
      </defs>
      <g>
       <use xlink:href="#m2709889f67" x="44.195313" y="187.642734" style="fill: #262626; stroke: #262626; stroke-width: 1.25"/>
      </g>
     </g>
     <g id="text_6">
      <!-- 10 -->
      <g style="fill: #262626" transform="translate(22.46125 191.579531) scale(0.11 -0.11)">
       <use xlink:href="#ArialMT-31"/>
       <use xlink:href="#ArialMT-30" transform="translate(55.615234 0)"/>
      </g>
     </g>
    </g>
    <g id="ytick_2">
     <g id="line2d_7">
      <g>
       <use xlink:href="#m2709889f67" x="44.195313" y="165.579492" style="fill: #262626; stroke: #262626; stroke-width: 1.25"/>
      </g>
     </g>
     <g id="text_7">
      <!-- 20 -->
      <g style="fill: #262626" transform="translate(22.46125 169.516289) scale(0.11 -0.11)">
       <use xlink:href="#ArialMT-32"/>
       <use xlink:href="#ArialMT-30" transform="translate(55.615234 0)"/>
      </g>
     </g>
    </g>
    <g id="ytick_3">
     <g id="line2d_8">
      <g>
       <use xlink:href="#m2709889f67" x="44.195313" y="143.51625" style="fill: #262626; stroke: #262626; stroke-width: 1.25"/>
      </g>
     </g>
     <g id="text_8">
      <!-- 30 -->
      <g style="fill: #262626" transform="translate(22.46125 147.453047) scale(0.11 -0.11)">
       <use xlink:href="#ArialMT-33"/>
       <use xlink:href="#ArialMT-30" transform="translate(55.615234 0)"/>
      </g>
     </g>
    </g>
    <g id="ytick_4">
     <g id="line2d_9">
      <g>
       <use xlink:href="#m2709889f67" x="44.195313" y="121.453008" style="fill: #262626; stroke: #262626; stroke-width: 1.25"/>
      </g>
     </g>
     <g id="text_9">
      <!-- 40 -->
      <g style="fill: #262626" transform="translate(22.46125 125.389805) scale(0.11 -0.11)">
       <defs>
        <path id="ArialMT-34" d="M 2069 0 
L 2069 1097 
L 81 1097 
L 81 1613 
L 2172 4581 
L 2631 4581 
L 2631 1613 
L 3250 1613 
L 3250 1097 
L 2631 1097 
L 2631 0 
L 2069 0 
z
M 2069 1613 
L 2069 3678 
L 634 1613 
L 2069 1613 
z
" transform="scale(0.015625)"/>
       </defs>
       <use xlink:href="#ArialMT-34"/>
       <use xlink:href="#ArialMT-30" transform="translate(55.615234 0)"/>
      </g>
     </g>
    </g>
    <g id="ytick_5">
     <g id="line2d_10">
      <g>
       <use xlink:href="#m2709889f67" x="44.195313" y="99.389766" style="fill: #262626; stroke: #262626; stroke-width: 1.25"/>
      </g>
     </g>
     <g id="text_10">
      <!-- 50 -->
      <g style="fill: #262626" transform="translate(22.46125 103.326562) scale(0.11 -0.11)">
       <defs>
        <path id="ArialMT-35" d="M 266 1200 
L 856 1250 
Q 922 819 1161 601 
Q 1400 384 1738 384 
Q 2144 384 2425 690 
Q 2706 997 2706 1503 
Q 2706 1984 2436 2262 
Q 2166 2541 1728 2541 
Q 1456 2541 1237 2417 
Q 1019 2294 894 2097 
L 366 2166 
L 809 4519 
L 3088 4519 
L 3088 3981 
L 1259 3981 
L 1013 2750 
Q 1425 3038 1878 3038 
Q 2478 3038 2890 2622 
Q 3303 2206 3303 1553 
Q 3303 931 2941 478 
Q 2500 -78 1738 -78 
Q 1113 -78 717 272 
Q 322 622 266 1200 
z
" transform="scale(0.015625)"/>
       </defs>
       <use xlink:href="#ArialMT-35"/>
       <use xlink:href="#ArialMT-30" transform="translate(55.615234 0)"/>
      </g>
     </g>
    </g>
    <g id="ytick_6">
     <g id="line2d_11">
      <g>
       <use xlink:href="#m2709889f67" x="44.195313" y="77.326523" style="fill: #262626; stroke: #262626; stroke-width: 1.25"/>
      </g>
     </g>
     <g id="text_11">
      <!-- 60 -->
      <g style="fill: #262626" transform="translate(22.46125 81.26332) scale(0.11 -0.11)">
       <use xlink:href="#ArialMT-36"/>
       <use xlink:href="#ArialMT-30" transform="translate(55.615234 0)"/>
      </g>
     </g>
    </g>
    <g id="ytick_7">
     <g id="line2d_12">
      <g>
       <use xlink:href="#m2709889f67" x="44.195313" y="55.263281" style="fill: #262626; stroke: #262626; stroke-width: 1.25"/>
      </g>
     </g>
     <g id="text_12">
      <!-- 70 -->
      <g style="fill: #262626" transform="translate(22.46125 59.200078) scale(0.11 -0.11)">
       <defs>
        <path id="ArialMT-37" d="M 303 3981 
L 303 4522 
L 3269 4522 
L 3269 4084 
Q 2831 3619 2401 2847 
Q 1972 2075 1738 1259 
Q 1569 684 1522 0 
L 944 0 
Q 953 541 1156 1306 
Q 1359 2072 1739 2783 
Q 2119 3494 2547 3981 
L 303 3981 
z
" transform="scale(0.015625)"/>
       </defs>
       <use xlink:href="#ArialMT-37"/>
       <use xlink:href="#ArialMT-30" transform="translate(55.615234 0)"/>
      </g>
     </g>
    </g>
    <g id="ytick_8">
     <g id="line2d_13">
      <g>
       <use xlink:href="#m2709889f67" x="44.195313" y="33.200039" style="fill: #262626; stroke: #262626; stroke-width: 1.25"/>
      </g>
     </g>
     <g id="text_13">
      <!-- 80 -->
      <g style="fill: #262626" transform="translate(22.46125 37.136836) scale(0.11 -0.11)">
       <use xlink:href="#ArialMT-38"/>
       <use xlink:href="#ArialMT-30" transform="translate(55.615234 0)"/>
      </g>
     </g>
    </g>
    <g id="ytick_9">
     <g id="line2d_14">
      <g>
       <use xlink:href="#m2709889f67" x="44.195313" y="11.136797" style="fill: #262626; stroke: #262626; stroke-width: 1.25"/>
      </g>
     </g>
     <g id="text_14">
      <!-- 90 -->
      <g style="fill: #262626" transform="translate(22.46125 15.073594) scale(0.11 -0.11)">
       <defs>
        <path id="ArialMT-39" d="M 350 1059 
L 891 1109 
Q 959 728 1153 556 
Q 1347 384 1650 384 
Q 1909 384 2104 503 
Q 2300 622 2425 820 
Q 2550 1019 2634 1356 
Q 2719 1694 2719 2044 
Q 2719 2081 2716 2156 
Q 2547 1888 2255 1720 
Q 1963 1553 1622 1553 
Q 1053 1553 659 1965 
Q 266 2378 266 3053 
Q 266 3750 677 4175 
Q 1088 4600 1706 4600 
Q 2153 4600 2523 4359 
Q 2894 4119 3086 3673 
Q 3278 3228 3278 2384 
Q 3278 1506 3087 986 
Q 2897 466 2520 194 
Q 2144 -78 1638 -78 
Q 1100 -78 759 220 
Q 419 519 350 1059 
z
M 2653 3081 
Q 2653 3566 2395 3850 
Q 2138 4134 1775 4134 
Q 1400 4134 1122 3828 
Q 844 3522 844 3034 
Q 844 2597 1108 2323 
Q 1372 2050 1759 2050 
Q 2150 2050 2401 2323 
Q 2653 2597 2653 3081 
z
" transform="scale(0.015625)"/>
       </defs>
       <use xlink:href="#ArialMT-39"/>
       <use xlink:href="#ArialMT-30" transform="translate(55.615234 0)"/>
      </g>
     </g>
    </g>
    <g id="text_15">
     <!-- MAE (€/MWh) -->
     <g style="fill: #262626" transform="translate(15.935625 137.055703) rotate(-90) scale(0.12 -0.12)">
      <defs>
       <path id="ArialMT-4d" d="M 475 0 
L 475 4581 
L 1388 4581 
L 2472 1338 
Q 2622 884 2691 659 
Q 2769 909 2934 1394 
L 4031 4581 
L 4847 4581 
L 4847 0 
L 4263 0 
L 4263 3834 
L 2931 0 
L 2384 0 
L 1059 3900 
L 1059 0 
L 475 0 
z
" transform="scale(0.015625)"/>
       <path id="ArialMT-41" d="M -9 0 
L 1750 4581 
L 2403 4581 
L 4278 0 
L 3588 0 
L 3053 1388 
L 1138 1388 
L 634 0 
L -9 0 
z
M 1313 1881 
L 2866 1881 
L 2388 3150 
Q 2169 3728 2063 4100 
Q 1975 3659 1816 3225 
L 1313 1881 
z
" transform="scale(0.015625)"/>
       <path id="ArialMT-45" d="M 506 0 
L 506 4581 
L 3819 4581 
L 3819 4041 
L 1113 4041 
L 1113 2638 
L 3647 2638 
L 3647 2100 
L 1113 2100 
L 1113 541 
L 3925 541 
L 3925 0 
L 506 0 
z
" transform="scale(0.015625)"/>
       <path id="ArialMT-20" transform="scale(0.015625)"/>
       <path id="ArialMT-28" d="M 1497 -1347 
Q 1031 -759 709 28 
Q 388 816 388 1659 
Q 388 2403 628 3084 
Q 909 3875 1497 4659 
L 1900 4659 
Q 1522 4009 1400 3731 
Q 1209 3300 1100 2831 
Q 966 2247 966 1656 
Q 966 153 1900 -1347 
L 1497 -1347 
z
" transform="scale(0.015625)"/>
       <path id="ArialMT-20ac" d="M 2469 4141 
Q 1944 4141 1588 3888 
Q 1375 3738 1203 3463 
Q 1028 3178 997 2922 
L 3128 2922 
L 3044 2503 
L 947 2503 
Q 944 2438 944 2378 
Q 944 2138 947 2091 
L 2959 2091 
L 2872 1672 
L 1013 1672 
Q 1144 956 1644 656 
Q 2003 441 2422 441 
Q 3006 441 3334 747 
L 3334 103 
Q 2944 -78 2472 -78 
Q 1059 -78 563 1097 
Q 463 1334 391 1672 
L -88 1672 
L 0 2091 
L 328 2091 
Q 319 2222 319 2375 
Q 319 2438 322 2503 
L -88 2503 
L 0 2922 
L 363 2922 
Q 556 3941 1372 4384 
Q 1875 4659 2481 4659 
Q 3063 4659 3459 4406 
L 3334 3825 
Q 2953 4141 2469 4141 
z
" transform="scale(0.015625)"/>
       <path id="ArialMT-2f" d="M 0 -78 
L 1328 4659 
L 1778 4659 
L 453 -78 
L 0 -78 
z
" transform="scale(0.015625)"/>
       <path id="ArialMT-57" d="M 1294 0 
L 78 4581 
L 700 4581 
L 1397 1578 
Q 1509 1106 1591 641 
Q 1766 1375 1797 1488 
L 2669 4581 
L 3400 4581 
L 4056 2263 
Q 4303 1400 4413 641 
Q 4500 1075 4641 1638 
L 5359 4581 
L 5969 4581 
L 4713 0 
L 4128 0 
L 3163 3491 
Q 3041 3928 3019 4028 
Q 2947 3713 2884 3491 
L 1913 0 
L 1294 0 
z
" transform="scale(0.015625)"/>
       <path id="ArialMT-29" d="M 791 -1347 
L 388 -1347 
Q 1322 153 1322 1656 
Q 1322 2244 1188 2822 
Q 1081 3291 891 3722 
Q 769 4003 388 4659 
L 791 4659 
Q 1378 3875 1659 3084 
Q 1900 2403 1900 1659 
Q 1900 816 1576 28 
Q 1253 -759 791 -1347 
z
" transform="scale(0.015625)"/>
      </defs>
      <use xlink:href="#ArialMT-4d"/>
      <use xlink:href="#ArialMT-41" transform="translate(83.300781 0)"/>
      <use xlink:href="#ArialMT-45" transform="translate(150 0)"/>
      <use xlink:href="#ArialMT-20" transform="translate(216.699219 0)"/>
      <use xlink:href="#ArialMT-28" transform="translate(244.482422 0)"/>
      <use xlink:href="#ArialMT-20ac" transform="translate(277.783203 0)"/>
      <use xlink:href="#ArialMT-2f" transform="translate(333.398438 0)"/>
      <use xlink:href="#ArialMT-4d" transform="translate(361.181641 0)"/>
      <use xlink:href="#ArialMT-57" transform="translate(444.482422 0)"/>
      <use xlink:href="#ArialMT-68" transform="translate(538.867188 0)"/>
      <use xlink:href="#ArialMT-29" transform="translate(594.482422 0)"/>
     </g>
    </g>
   </g>
   <g id="FillBetweenPolyCollection_1">
    <defs>
     <path id="mc66b427844" d="M 80.624858 -695.505615 
L 80.624858 -692.937171 
L 112.302724 -691.589483 
L 143.980589 -692.134718 
L 175.658455 -700.24349 
L 207.33632 -719.658554 
L 239.014186 -728.263398 
L 270.692052 -721.468295 
L 302.369917 -715.430698 
L 334.047783 -707.90342 
L 365.725648 -707.859358 
L 397.403514 -712.283766 
L 429.08138 -717.444832 
L 460.759245 -717.362987 
L 492.437111 -709.761859 
L 524.114977 -704.635238 
L 555.792842 -703.19476 
L 587.470708 -736.707368 
L 619.148573 -743.577448 
L 650.826439 -747.972923 
L 682.504305 -741.402583 
L 714.18217 -730.43776 
L 745.860036 -713.67999 
L 777.537901 -703.121297 
L 809.215767 -696.533777 
L 809.215767 -699.083411 
L 809.215767 -699.083411 
L 777.537901 -705.780327 
L 745.860036 -716.41863 
L 714.18217 -733.187902 
L 682.504305 -745.00335 
L 650.826439 -752.769425 
L 619.148573 -748.451777 
L 587.470708 -740.563736 
L 555.792842 -706.85661 
L 524.114977 -707.897221 
L 492.437111 -713.184134 
L 460.759245 -721.082351 
L 429.08138 -721.248301 
L 397.403514 -716.174625 
L 365.725648 -711.472207 
L 334.047783 -711.268904 
L 302.369917 -719.604523 
L 270.692052 -726.531098 
L 239.014186 -733.015982 
L 207.33632 -723.535582 
L 175.658455 -702.94389 
L 143.980589 -694.678019 
L 112.302724 -694.290341 
L 80.624858 -695.505615 
z
" style="stroke: #840853; stroke-opacity: 0.2"/>
    </defs>
    <g clip-path="url(#p374cf59e74)">
     <use xlink:href="#mc66b427844" x="0" y="856.801641" style="fill: #840853; fill-opacity: 0.2; stroke: #840853; stroke-opacity: 0.2"/>
    </g>
   </g>
   <g id="FillBetweenPolyCollection_2">
    <defs>
     <path id="med4418485a" d="M 80.624858 -691.624772 
L 80.624858 -689.243052 
L 112.302724 -687.870991 
L 143.980589 -688.297755 
L 175.658455 -695.891463 
L 207.33632 -714.524019 
L 239.014186 -723.7016 
L 270.692052 -716.517569 
L 302.369917 -710.929587 
L 334.047783 -705.331844 
L 365.725648 -705.932689 
L 397.403514 -709.416188 
L 429.08138 -714.49547 
L 460.759245 -714.680394 
L 492.437111 -706.802862 
L 524.114977 -701.996648 
L 555.792842 -699.655557 
L 587.470708 -732.237346 
L 619.148573 -740.64494 
L 650.826439 -745.008274 
L 682.504305 -737.702019 
L 714.18217 -726.385662 
L 745.860036 -709.952034 
L 777.537901 -699.566604 
L 809.215767 -693.135709 
L 809.215767 -695.630458 
L 809.215767 -695.630458 
L 777.537901 -702.053652 
L 745.860036 -712.435988 
L 714.18217 -729.074681 
L 682.504305 -740.80806 
L 650.826439 -749.363137 
L 619.148573 -744.835082 
L 587.470708 -735.542009 
L 555.792842 -703.260271 
L 524.114977 -705.058912 
L 492.437111 -710.214139 
L 460.759245 -718.468971 
L 429.08138 -718.102003 
L 397.403514 -712.942573 
L 365.725648 -709.242726 
L 334.047783 -708.965674 
L 302.369917 -714.94389 
L 270.692052 -721.496937 
L 239.014186 -728.73629 
L 207.33632 -718.41589 
L 175.658455 -698.599946 
L 143.980589 -690.773772 
L 112.302724 -690.401804 
L 80.624858 -691.624772 
z
" style="stroke: #3a609c; stroke-opacity: 0.2"/>
    </defs>
    <g clip-path="url(#p374cf59e74)">
     <use xlink:href="#med4418485a" x="0" y="856.801641" style="fill: #3a609c; fill-opacity: 0.2; stroke: #3a609c; stroke-opacity: 0.2"/>
    </g>
   </g>
   <g id="FillBetweenPolyCollection_3">
    <defs>
     <path id="m95f5212b7f" d="M 80.624858 -672.674074 
L 80.624858 -671.000646 
L 112.302724 -671.737979 
L 143.980589 -670.408624 
L 175.658455 -670.98013 
L 207.33632 -681.98514 
L 239.014186 -697.519549 
L 270.692052 -697.487666 
L 302.369917 -698.280556 
L 334.047783 -702.880764 
L 365.725648 -709.638818 
L 397.403514 -718.137793 
L 429.08138 -724.436919 
L 460.759245 -727.534012 
L 492.437111 -717.308779 
L 524.114977 -706.373544 
L 555.792842 -688.93511 
L 587.470708 -692.591481 
L 619.148573 -704.902649 
L 650.826439 -707.07449 
L 682.504305 -693.184312 
L 714.18217 -683.049859 
L 745.860036 -673.818515 
L 777.537901 -671.404102 
L 809.215767 -671.734214 
L 809.215767 -673.41351 
L 809.215767 -673.41351 
L 777.537901 -672.958395 
L 745.860036 -675.3057 
L 714.18217 -684.858049 
L 682.504305 -695.631346 
L 650.826439 -710.530535 
L 619.148573 -708.322969 
L 587.470708 -694.917745 
L 555.792842 -691.323904 
L 524.114977 -710.003016 
L 492.437111 -721.434197 
L 460.759245 -731.918619 
L 429.08138 -729.195023 
L 397.403514 -722.499558 
L 365.725648 -713.63683 
L 334.047783 -706.269294 
L 302.369917 -701.429736 
L 270.692052 -701.160985 
L 239.014186 -701.100719 
L 207.33632 -685.032505 
L 175.658455 -672.73721 
L 143.980589 -672.015604 
L 112.302724 -673.48595 
L 80.624858 -672.674074 
z
" style="stroke: #ffb14e; stroke-opacity: 0.2"/>
    </defs>
    <g clip-path="url(#p374cf59e74)">
     <use xlink:href="#m95f5212b7f" x="0" y="856.801641" style="fill: #ffb14e; fill-opacity: 0.2; stroke: #ffb14e; stroke-opacity: 0.2"/>
    </g>
   </g>
   <g id="line2d_15">
    <path d="M 80.624858 162.565319 
L 112.302724 163.897373 
L 143.980589 163.462001 
L 175.658455 155.170767 
L 207.33632 135.288134 
L 239.014186 126.15813 
L 270.692052 132.83537 
L 302.369917 139.176965 
L 334.047783 147.196328 
L 365.725648 147.173297 
L 397.403514 142.560169 
L 429.08138 137.455086 
L 460.759245 137.622614 
L 492.437111 145.390385 
L 524.114977 150.519474 
L 555.792842 151.780157 
L 587.470708 118.136431 
L 619.148573 110.739487 
L 650.826439 106.218794 
L 682.504305 113.545993 
L 714.18217 124.970179 
L 745.860036 141.74032 
L 777.537901 152.360607 
L 809.215767 158.956686 
" clip-path="url(#p374cf59e74)" style="fill: none; stroke: #840853; stroke-width: 1.5; stroke-linecap: round"/>
   </g>
   <g id="line2d_16">
    <path d="M 80.624858 166.420785 
L 112.302724 167.662208 
L 143.980589 167.290417 
L 175.658455 159.557903 
L 207.33632 140.404969 
L 239.014186 130.692238 
L 270.692052 137.727517 
L 302.369917 143.903332 
L 334.047783 149.708012 
L 365.725648 149.283387 
L 397.403514 145.591219 
L 429.08138 140.471543 
L 460.759245 140.257523 
L 492.437111 148.318555 
L 524.114977 153.312486 
L 555.792842 155.297763 
L 587.470708 122.88424 
L 619.148573 114.0451 
L 650.826439 109.564547 
L 682.504305 117.492704 
L 714.18217 129.11395 
L 745.860036 145.634056 
L 777.537901 155.97731 
L 809.215767 162.361208 
" clip-path="url(#p374cf59e74)" style="fill: none; stroke: #3a609c; stroke-width: 1.5; stroke-linecap: round"/>
   </g>
   <g id="line2d_17">
    <path d="M 80.624858 185.011982 
L 112.302724 184.121103 
L 143.980589 185.584768 
L 175.658455 184.963053 
L 207.33632 173.292034 
L 239.014186 157.68287 
L 270.692052 157.557755 
L 302.369917 156.979497 
L 334.047783 152.186122 
L 365.725648 145.148146 
L 397.403514 136.522321 
L 429.08138 129.946177 
L 460.759245 127.246484 
L 492.437111 137.395291 
L 524.114977 148.59595 
L 555.792842 166.698407 
L 587.470708 163.085527 
L 619.148573 150.154362 
L 650.826439 148.015978 
L 682.504305 162.419327 
L 714.18217 172.88781 
L 745.860036 182.226525 
L 777.537901 184.596693 
L 809.215767 184.248626 
" clip-path="url(#p374cf59e74)" style="fill: none; stroke: #ffb14e; stroke-width: 1.5; stroke-linecap: round"/>
   </g>
   <g id="line2d_18"/>
   <g id="line2d_19"/>
   <g id="line2d_20"/>
   <g id="patch_3">
    <path d="M 44.195313 187.642734 
L 44.195313 11.136797 
" style="fill: none; stroke: #262626; stroke-width: 1.25; stroke-linejoin: miter; stroke-linecap: square"/>
   </g>
   <g id="patch_4">
    <path d="M 845.645312 187.642734 
L 845.645312 11.136797 
" style="fill: none; stroke: #262626; stroke-width: 1.25; stroke-linejoin: miter; stroke-linecap: square"/>
   </g>
   <g id="patch_5">
    <path d="M 44.195313 187.642734 
L 845.645312 187.642734 
" style="fill: none; stroke: #262626; stroke-width: 1.25; stroke-linejoin: miter; stroke-linecap: square"/>
   </g>
   <g id="patch_6">
    <path d="M 44.195313 11.136797 
L 845.645312 11.136797 
" style="fill: none; stroke: #262626; stroke-width: 1.25; stroke-linejoin: miter; stroke-linecap: square"/>
   </g>
   <g id="text_16">
    <!-- Spring -->
    <g style="fill: #262626" transform="translate(425.921875 28.697719) scale(0.12 -0.12)">
     <defs>
      <path id="Arial-BoldMT-53" d="M 231 1491 
L 1131 1578 
Q 1213 1125 1461 912 
Q 1709 700 2131 700 
Q 2578 700 2804 889 
Q 3031 1078 3031 1331 
Q 3031 1494 2936 1608 
Q 2841 1722 2603 1806 
Q 2441 1863 1863 2006 
Q 1119 2191 819 2459 
Q 397 2838 397 3381 
Q 397 3731 595 4036 
Q 794 4341 1167 4500 
Q 1541 4659 2069 4659 
Q 2931 4659 3367 4281 
Q 3803 3903 3825 3272 
L 2900 3231 
Q 2841 3584 2645 3739 
Q 2450 3894 2059 3894 
Q 1656 3894 1428 3728 
Q 1281 3622 1281 3444 
Q 1281 3281 1419 3166 
Q 1594 3019 2269 2859 
Q 2944 2700 3267 2529 
Q 3591 2359 3773 2064 
Q 3956 1769 3956 1334 
Q 3956 941 3737 597 
Q 3519 253 3119 86 
Q 2719 -81 2122 -81 
Q 1253 -81 787 320 
Q 322 722 231 1491 
z
" transform="scale(0.015625)"/>
      <path id="Arial-BoldMT-70" d="M 434 3319 
L 1253 3319 
L 1253 2831 
Q 1413 3081 1684 3237 
Q 1956 3394 2288 3394 
Q 2866 3394 3269 2941 
Q 3672 2488 3672 1678 
Q 3672 847 3265 386 
Q 2859 -75 2281 -75 
Q 2006 -75 1782 34 
Q 1559 144 1313 409 
L 1313 -1263 
L 434 -1263 
L 434 3319 
z
M 1303 1716 
Q 1303 1156 1525 889 
Q 1747 622 2066 622 
Q 2372 622 2575 867 
Q 2778 1113 2778 1672 
Q 2778 2194 2568 2447 
Q 2359 2700 2050 2700 
Q 1728 2700 1515 2451 
Q 1303 2203 1303 1716 
z
" transform="scale(0.015625)"/>
      <path id="Arial-BoldMT-72" d="M 1300 0 
L 422 0 
L 422 3319 
L 1238 3319 
L 1238 2847 
Q 1447 3181 1614 3287 
Q 1781 3394 1994 3394 
Q 2294 3394 2572 3228 
L 2300 2463 
Q 2078 2606 1888 2606 
Q 1703 2606 1575 2504 
Q 1447 2403 1373 2137 
Q 1300 1872 1300 1025 
L 1300 0 
z
" transform="scale(0.015625)"/>
      <path id="Arial-BoldMT-69" d="M 459 3769 
L 459 4581 
L 1338 4581 
L 1338 3769 
L 459 3769 
z
M 459 0 
L 459 3319 
L 1338 3319 
L 1338 0 
L 459 0 
z
" transform="scale(0.015625)"/>
      <path id="Arial-BoldMT-6e" d="M 3478 0 
L 2600 0 
L 2600 1694 
Q 2600 2231 2544 2389 
Q 2488 2547 2361 2634 
Q 2234 2722 2056 2722 
Q 1828 2722 1647 2597 
Q 1466 2472 1398 2265 
Q 1331 2059 1331 1503 
L 1331 0 
L 453 0 
L 453 3319 
L 1269 3319 
L 1269 2831 
Q 1703 3394 2363 3394 
Q 2653 3394 2893 3289 
Q 3134 3184 3257 3021 
Q 3381 2859 3429 2653 
Q 3478 2447 3478 2063 
L 3478 0 
z
" transform="scale(0.015625)"/>
      <path id="Arial-BoldMT-67" d="M 378 -219 
L 1381 -341 
Q 1406 -516 1497 -581 
Q 1622 -675 1891 -675 
Q 2234 -675 2406 -572 
Q 2522 -503 2581 -350 
Q 2622 -241 2622 53 
L 2622 538 
Q 2228 0 1628 0 
Q 959 0 569 566 
Q 263 1013 263 1678 
Q 263 2513 664 2953 
Q 1066 3394 1663 3394 
Q 2278 3394 2678 2853 
L 2678 3319 
L 3500 3319 
L 3500 341 
Q 3500 -247 3403 -537 
Q 3306 -828 3131 -993 
Q 2956 -1159 2664 -1253 
Q 2372 -1347 1925 -1347 
Q 1081 -1347 728 -1058 
Q 375 -769 375 -325 
Q 375 -281 378 -219 
z
M 1163 1728 
Q 1163 1200 1367 954 
Q 1572 709 1872 709 
Q 2194 709 2416 961 
Q 2638 1213 2638 1706 
Q 2638 2222 2425 2472 
Q 2213 2722 1888 2722 
Q 1572 2722 1367 2476 
Q 1163 2231 1163 1728 
z
" transform="scale(0.015625)"/>
     </defs>
     <use xlink:href="#Arial-BoldMT-53"/>
     <use xlink:href="#Arial-BoldMT-70" transform="translate(66.699219 0)"/>
     <use xlink:href="#Arial-BoldMT-72" transform="translate(127.783203 0)"/>
     <use xlink:href="#Arial-BoldMT-69" transform="translate(166.699219 0)"/>
     <use xlink:href="#Arial-BoldMT-6e" transform="translate(194.482422 0)"/>
     <use xlink:href="#Arial-BoldMT-67" transform="translate(255.566406 0)"/>
    </g>
   </g>
   <g id="legend_1">
    <g id="patch_7">
     <path d="M 717.175625 67.142266 
L 837.945312 67.142266 
Q 840.145312 67.142266 840.145312 64.942266 
L 840.145312 18.836797 
Q 840.145312 16.636797 837.945312 16.636797 
L 717.175625 16.636797 
Q 714.975625 16.636797 714.975625 18.836797 
L 714.975625 64.942266 
Q 714.975625 67.142266 717.175625 67.142266 
z
" style="fill: #ffffff; opacity: 0.8; stroke: #cccccc; stroke-linejoin: miter"/>
    </g>
    <g id="line2d_21">
     <path d="M 719.375625 25.194453 
L 730.375625 25.194453 
L 741.375625 25.194453 
" style="fill: none; stroke: #840853; stroke-width: 1.5; stroke-linecap: round"/>
    </g>
    <g id="text_17">
     <!-- LSTM (VRE only) -->
     <g style="fill: #262626" transform="translate(750.175625 29.044453) scale(0.11 -0.11)">
      <defs>
       <path id="ArialMT-4c" d="M 469 0 
L 469 4581 
L 1075 4581 
L 1075 541 
L 3331 541 
L 3331 0 
L 469 0 
z
" transform="scale(0.015625)"/>
       <path id="ArialMT-53" d="M 288 1472 
L 859 1522 
Q 900 1178 1048 958 
Q 1197 738 1509 602 
Q 1822 466 2213 466 
Q 2559 466 2825 569 
Q 3091 672 3220 851 
Q 3350 1031 3350 1244 
Q 3350 1459 3225 1620 
Q 3100 1781 2813 1891 
Q 2628 1963 1997 2114 
Q 1366 2266 1113 2400 
Q 784 2572 623 2826 
Q 463 3081 463 3397 
Q 463 3744 659 4045 
Q 856 4347 1234 4503 
Q 1613 4659 2075 4659 
Q 2584 4659 2973 4495 
Q 3363 4331 3572 4012 
Q 3781 3694 3797 3291 
L 3216 3247 
Q 3169 3681 2898 3903 
Q 2628 4125 2100 4125 
Q 1550 4125 1298 3923 
Q 1047 3722 1047 3438 
Q 1047 3191 1225 3031 
Q 1400 2872 2139 2705 
Q 2878 2538 3153 2413 
Q 3553 2228 3743 1945 
Q 3934 1663 3934 1294 
Q 3934 928 3725 604 
Q 3516 281 3123 101 
Q 2731 -78 2241 -78 
Q 1619 -78 1198 103 
Q 778 284 539 648 
Q 300 1013 288 1472 
z
" transform="scale(0.015625)"/>
       <path id="ArialMT-54" d="M 1659 0 
L 1659 4041 
L 150 4041 
L 150 4581 
L 3781 4581 
L 3781 4041 
L 2266 4041 
L 2266 0 
L 1659 0 
z
" transform="scale(0.015625)"/>
       <path id="ArialMT-56" d="M 1803 0 
L 28 4581 
L 684 4581 
L 1875 1253 
Q 2019 853 2116 503 
Q 2222 878 2363 1253 
L 3600 4581 
L 4219 4581 
L 2425 0 
L 1803 0 
z
" transform="scale(0.015625)"/>
       <path id="ArialMT-52" d="M 503 0 
L 503 4581 
L 2534 4581 
Q 3147 4581 3465 4457 
Q 3784 4334 3975 4021 
Q 4166 3709 4166 3331 
Q 4166 2844 3850 2509 
Q 3534 2175 2875 2084 
Q 3116 1969 3241 1856 
Q 3506 1613 3744 1247 
L 4541 0 
L 3778 0 
L 3172 953 
Q 2906 1366 2734 1584 
Q 2563 1803 2427 1890 
Q 2291 1978 2150 2013 
Q 2047 2034 1813 2034 
L 1109 2034 
L 1109 0 
L 503 0 
z
M 1109 2559 
L 2413 2559 
Q 2828 2559 3062 2645 
Q 3297 2731 3419 2920 
Q 3541 3109 3541 3331 
Q 3541 3656 3305 3865 
Q 3069 4075 2559 4075 
L 1109 4075 
L 1109 2559 
z
" transform="scale(0.015625)"/>
       <path id="ArialMT-6f" d="M 213 1659 
Q 213 2581 725 3025 
Q 1153 3394 1769 3394 
Q 2453 3394 2887 2945 
Q 3322 2497 3322 1706 
Q 3322 1066 3130 698 
Q 2938 331 2570 128 
Q 2203 -75 1769 -75 
Q 1072 -75 642 372 
Q 213 819 213 1659 
z
M 791 1659 
Q 791 1022 1069 705 
Q 1347 388 1769 388 
Q 2188 388 2466 706 
Q 2744 1025 2744 1678 
Q 2744 2294 2464 2611 
Q 2184 2928 1769 2928 
Q 1347 2928 1069 2612 
Q 791 2297 791 1659 
z
" transform="scale(0.015625)"/>
       <path id="ArialMT-6e" d="M 422 0 
L 422 3319 
L 928 3319 
L 928 2847 
Q 1294 3394 1984 3394 
Q 2284 3394 2536 3286 
Q 2788 3178 2913 3003 
Q 3038 2828 3088 2588 
Q 3119 2431 3119 2041 
L 3119 0 
L 2556 0 
L 2556 2019 
Q 2556 2363 2490 2533 
Q 2425 2703 2258 2804 
Q 2091 2906 1866 2906 
Q 1506 2906 1245 2678 
Q 984 2450 984 1813 
L 984 0 
L 422 0 
z
" transform="scale(0.015625)"/>
       <path id="ArialMT-6c" d="M 409 0 
L 409 4581 
L 972 4581 
L 972 0 
L 409 0 
z
" transform="scale(0.015625)"/>
       <path id="ArialMT-79" d="M 397 -1278 
L 334 -750 
Q 519 -800 656 -800 
Q 844 -800 956 -737 
Q 1069 -675 1141 -563 
Q 1194 -478 1313 -144 
Q 1328 -97 1363 -6 
L 103 3319 
L 709 3319 
L 1400 1397 
Q 1534 1031 1641 628 
Q 1738 1016 1872 1384 
L 2581 3319 
L 3144 3319 
L 1881 -56 
Q 1678 -603 1566 -809 
Q 1416 -1088 1222 -1217 
Q 1028 -1347 759 -1347 
Q 597 -1347 397 -1278 
z
" transform="scale(0.015625)"/>
      </defs>
      <use xlink:href="#ArialMT-4c"/>
      <use xlink:href="#ArialMT-53" transform="translate(55.615234 0)"/>
      <use xlink:href="#ArialMT-54" transform="translate(122.314453 0)"/>
      <use xlink:href="#ArialMT-4d" transform="translate(183.398438 0)"/>
      <use xlink:href="#ArialMT-20" transform="translate(266.699219 0)"/>
      <use xlink:href="#ArialMT-28" transform="translate(294.482422 0)"/>
      <use xlink:href="#ArialMT-56" transform="translate(327.783203 0)"/>
      <use xlink:href="#ArialMT-52" transform="translate(394.482422 0)"/>
      <use xlink:href="#ArialMT-45" transform="translate(466.699219 0)"/>
      <use xlink:href="#ArialMT-20" transform="translate(533.398438 0)"/>
      <use xlink:href="#ArialMT-6f" transform="translate(561.181641 0)"/>
      <use xlink:href="#ArialMT-6e" transform="translate(616.796875 0)"/>
      <use xlink:href="#ArialMT-6c" transform="translate(672.412109 0)"/>
      <use xlink:href="#ArialMT-79" transform="translate(694.628906 0)"/>
      <use xlink:href="#ArialMT-29" transform="translate(744.628906 0)"/>
     </g>
    </g>
    <g id="line2d_22">
     <path d="M 719.375625 41.017266 
L 730.375625 41.017266 
L 741.375625 41.017266 
" style="fill: none; stroke: #3a609c; stroke-width: 1.5; stroke-linecap: round"/>
    </g>
    <g id="text_18">
     <!-- GRU (VRE only) -->
     <g style="fill: #262626" transform="translate(750.175625 44.867266) scale(0.11 -0.11)">
      <defs>
       <path id="ArialMT-47" d="M 2638 1797 
L 2638 2334 
L 4578 2338 
L 4578 638 
Q 4131 281 3656 101 
Q 3181 -78 2681 -78 
Q 2006 -78 1454 211 
Q 903 500 622 1047 
Q 341 1594 341 2269 
Q 341 2938 620 3517 
Q 900 4097 1425 4378 
Q 1950 4659 2634 4659 
Q 3131 4659 3532 4498 
Q 3934 4338 4162 4050 
Q 4391 3763 4509 3300 
L 3963 3150 
Q 3859 3500 3706 3700 
Q 3553 3900 3268 4020 
Q 2984 4141 2638 4141 
Q 2222 4141 1919 4014 
Q 1616 3888 1430 3681 
Q 1244 3475 1141 3228 
Q 966 2803 966 2306 
Q 966 1694 1177 1281 
Q 1388 869 1791 669 
Q 2194 469 2647 469 
Q 3041 469 3416 620 
Q 3791 772 3984 944 
L 3984 1797 
L 2638 1797 
z
" transform="scale(0.015625)"/>
       <path id="ArialMT-55" d="M 3500 4581 
L 4106 4581 
L 4106 1934 
Q 4106 1244 3950 837 
Q 3794 431 3386 176 
Q 2978 -78 2316 -78 
Q 1672 -78 1262 144 
Q 853 366 678 786 
Q 503 1206 503 1934 
L 503 4581 
L 1109 4581 
L 1109 1938 
Q 1109 1341 1220 1058 
Q 1331 775 1601 622 
Q 1872 469 2263 469 
Q 2931 469 3215 772 
Q 3500 1075 3500 1938 
L 3500 4581 
z
" transform="scale(0.015625)"/>
      </defs>
      <use xlink:href="#ArialMT-47"/>
      <use xlink:href="#ArialMT-52" transform="translate(77.783203 0)"/>
      <use xlink:href="#ArialMT-55" transform="translate(150 0)"/>
      <use xlink:href="#ArialMT-20" transform="translate(222.216797 0)"/>
      <use xlink:href="#ArialMT-28" transform="translate(250 0)"/>
      <use xlink:href="#ArialMT-56" transform="translate(283.300781 0)"/>
      <use xlink:href="#ArialMT-52" transform="translate(350 0)"/>
      <use xlink:href="#ArialMT-45" transform="translate(422.216797 0)"/>
      <use xlink:href="#ArialMT-20" transform="translate(488.916016 0)"/>
      <use xlink:href="#ArialMT-6f" transform="translate(516.699219 0)"/>
      <use xlink:href="#ArialMT-6e" transform="translate(572.314453 0)"/>
      <use xlink:href="#ArialMT-6c" transform="translate(627.929688 0)"/>
      <use xlink:href="#ArialMT-79" transform="translate(650.146484 0)"/>
      <use xlink:href="#ArialMT-29" transform="translate(700.146484 0)"/>
     </g>
    </g>
    <g id="line2d_23">
     <path d="M 719.375625 56.706016 
L 730.375625 56.706016 
L 741.375625 56.706016 
" style="fill: none; stroke: #ffb14e; stroke-width: 1.5; stroke-linecap: round"/>
    </g>
    <g id="text_19">
     <!-- Best model -->
     <g style="fill: #262626" transform="translate(750.175625 60.556016) scale(0.11 -0.11)">
      <defs>
       <path id="ArialMT-42" d="M 469 0 
L 469 4581 
L 2188 4581 
Q 2713 4581 3030 4442 
Q 3347 4303 3526 4014 
Q 3706 3725 3706 3409 
Q 3706 3116 3547 2856 
Q 3388 2597 3066 2438 
Q 3481 2316 3704 2022 
Q 3928 1728 3928 1328 
Q 3928 1006 3792 729 
Q 3656 453 3456 303 
Q 3256 153 2954 76 
Q 2653 0 2216 0 
L 469 0 
z
M 1075 2656 
L 2066 2656 
Q 2469 2656 2644 2709 
Q 2875 2778 2992 2937 
Q 3109 3097 3109 3338 
Q 3109 3566 3000 3739 
Q 2891 3913 2687 3977 
Q 2484 4041 1991 4041 
L 1075 4041 
L 1075 2656 
z
M 1075 541 
L 2216 541 
Q 2509 541 2628 563 
Q 2838 600 2978 687 
Q 3119 775 3209 942 
Q 3300 1109 3300 1328 
Q 3300 1584 3169 1773 
Q 3038 1963 2805 2039 
Q 2572 2116 2134 2116 
L 1075 2116 
L 1075 541 
z
" transform="scale(0.015625)"/>
       <path id="ArialMT-65" d="M 2694 1069 
L 3275 997 
Q 3138 488 2766 206 
Q 2394 -75 1816 -75 
Q 1088 -75 661 373 
Q 234 822 234 1631 
Q 234 2469 665 2931 
Q 1097 3394 1784 3394 
Q 2450 3394 2872 2941 
Q 3294 2488 3294 1666 
Q 3294 1616 3291 1516 
L 816 1516 
Q 847 969 1125 678 
Q 1403 388 1819 388 
Q 2128 388 2347 550 
Q 2566 713 2694 1069 
z
M 847 1978 
L 2700 1978 
Q 2663 2397 2488 2606 
Q 2219 2931 1791 2931 
Q 1403 2931 1139 2672 
Q 875 2413 847 1978 
z
" transform="scale(0.015625)"/>
       <path id="ArialMT-73" d="M 197 991 
L 753 1078 
Q 800 744 1014 566 
Q 1228 388 1613 388 
Q 2000 388 2187 545 
Q 2375 703 2375 916 
Q 2375 1106 2209 1216 
Q 2094 1291 1634 1406 
Q 1016 1563 777 1677 
Q 538 1791 414 1992 
Q 291 2194 291 2438 
Q 291 2659 392 2848 
Q 494 3038 669 3163 
Q 800 3259 1026 3326 
Q 1253 3394 1513 3394 
Q 1903 3394 2198 3281 
Q 2494 3169 2634 2976 
Q 2775 2784 2828 2463 
L 2278 2388 
Q 2241 2644 2061 2787 
Q 1881 2931 1553 2931 
Q 1166 2931 1000 2803 
Q 834 2675 834 2503 
Q 834 2394 903 2306 
Q 972 2216 1119 2156 
Q 1203 2125 1616 2013 
Q 2213 1853 2448 1751 
Q 2684 1650 2818 1456 
Q 2953 1263 2953 975 
Q 2953 694 2789 445 
Q 2625 197 2315 61 
Q 2006 -75 1616 -75 
Q 969 -75 630 194 
Q 291 463 197 991 
z
" transform="scale(0.015625)"/>
       <path id="ArialMT-74" d="M 1650 503 
L 1731 6 
Q 1494 -44 1306 -44 
Q 1000 -44 831 53 
Q 663 150 594 308 
Q 525 466 525 972 
L 525 2881 
L 113 2881 
L 113 3319 
L 525 3319 
L 525 4141 
L 1084 4478 
L 1084 3319 
L 1650 3319 
L 1650 2881 
L 1084 2881 
L 1084 941 
Q 1084 700 1114 631 
Q 1144 563 1211 522 
Q 1278 481 1403 481 
Q 1497 481 1650 503 
z
" transform="scale(0.015625)"/>
       <path id="ArialMT-6d" d="M 422 0 
L 422 3319 
L 925 3319 
L 925 2853 
Q 1081 3097 1340 3245 
Q 1600 3394 1931 3394 
Q 2300 3394 2536 3241 
Q 2772 3088 2869 2813 
Q 3263 3394 3894 3394 
Q 4388 3394 4653 3120 
Q 4919 2847 4919 2278 
L 4919 0 
L 4359 0 
L 4359 2091 
Q 4359 2428 4304 2576 
Q 4250 2725 4106 2815 
Q 3963 2906 3769 2906 
Q 3419 2906 3187 2673 
Q 2956 2441 2956 1928 
L 2956 0 
L 2394 0 
L 2394 2156 
Q 2394 2531 2256 2718 
Q 2119 2906 1806 2906 
Q 1569 2906 1367 2781 
Q 1166 2656 1075 2415 
Q 984 2175 984 1722 
L 984 0 
L 422 0 
z
" transform="scale(0.015625)"/>
       <path id="ArialMT-64" d="M 2575 0 
L 2575 419 
Q 2259 -75 1647 -75 
Q 1250 -75 917 144 
Q 584 363 401 755 
Q 219 1147 219 1656 
Q 219 2153 384 2558 
Q 550 2963 881 3178 
Q 1213 3394 1622 3394 
Q 1922 3394 2156 3267 
Q 2391 3141 2538 2938 
L 2538 4581 
L 3097 4581 
L 3097 0 
L 2575 0 
z
M 797 1656 
Q 797 1019 1065 703 
Q 1334 388 1700 388 
Q 2069 388 2326 689 
Q 2584 991 2584 1609 
Q 2584 2291 2321 2609 
Q 2059 2928 1675 2928 
Q 1300 2928 1048 2622 
Q 797 2316 797 1656 
z
" transform="scale(0.015625)"/>
      </defs>
      <use xlink:href="#ArialMT-42"/>
      <use xlink:href="#ArialMT-65" transform="translate(66.699219 0)"/>
      <use xlink:href="#ArialMT-73" transform="translate(122.314453 0)"/>
      <use xlink:href="#ArialMT-74" transform="translate(172.314453 0)"/>
      <use xlink:href="#ArialMT-20" transform="translate(200.097656 0)"/>
      <use xlink:href="#ArialMT-6d" transform="translate(227.880859 0)"/>
      <use xlink:href="#ArialMT-6f" transform="translate(311.181641 0)"/>
      <use xlink:href="#ArialMT-64" transform="translate(366.796875 0)"/>
      <use xlink:href="#ArialMT-65" transform="translate(422.412109 0)"/>
      <use xlink:href="#ArialMT-6c" transform="translate(478.027344 0)"/>
     </g>
    </g>
   </g>
  </g>
  <g id="axes_2">
   <g id="patch_8">
    <path d="M 44.195313 396.688672 
L 845.645312 396.688672 
L 845.645312 220.182734 
L 44.195313 220.182734 
z
" style="fill: #ffffff"/>
   </g>
   <g id="matplotlib.axis_3">
    <g id="xtick_6">
     <g id="line2d_24">
      <g>
       <use xlink:href="#m380ffdcf14" x="80.624858" y="396.688672" style="fill: #262626; stroke: #262626; stroke-width: 1.25"/>
      </g>
     </g>
     <g id="text_20">
      <!-- 0h -->
      <g style="fill: #262626" transform="translate(74.507827 414.062266) scale(0.11 -0.11)">
       <use xlink:href="#ArialMT-30"/>
       <use xlink:href="#ArialMT-68" transform="translate(55.615234 0)"/>
      </g>
     </g>
    </g>
    <g id="xtick_7">
     <g id="line2d_25">
      <g>
       <use xlink:href="#m380ffdcf14" x="270.692052" y="396.688672" style="fill: #262626; stroke: #262626; stroke-width: 1.25"/>
      </g>
     </g>
     <g id="text_21">
      <!-- 6h -->
      <g style="fill: #262626" transform="translate(264.57502 414.062266) scale(0.11 -0.11)">
       <use xlink:href="#ArialMT-36"/>
       <use xlink:href="#ArialMT-68" transform="translate(55.615234 0)"/>
      </g>
     </g>
    </g>
    <g id="xtick_8">
     <g id="line2d_26">
      <g>
       <use xlink:href="#m380ffdcf14" x="460.759245" y="396.688672" style="fill: #262626; stroke: #262626; stroke-width: 1.25"/>
      </g>
     </g>
     <g id="text_22">
      <!-- 12h -->
      <g style="fill: #262626" transform="translate(451.583698 414.062266) scale(0.11 -0.11)">
       <use xlink:href="#ArialMT-31"/>
       <use xlink:href="#ArialMT-32" transform="translate(55.615234 0)"/>
       <use xlink:href="#ArialMT-68" transform="translate(111.230469 0)"/>
      </g>
     </g>
    </g>
    <g id="xtick_9">
     <g id="line2d_27">
      <g>
       <use xlink:href="#m380ffdcf14" x="650.826439" y="396.688672" style="fill: #262626; stroke: #262626; stroke-width: 1.25"/>
      </g>
     </g>
     <g id="text_23">
      <!-- 18h -->
      <g style="fill: #262626" transform="translate(641.650892 414.062266) scale(0.11 -0.11)">
       <use xlink:href="#ArialMT-31"/>
       <use xlink:href="#ArialMT-38" transform="translate(55.615234 0)"/>
       <use xlink:href="#ArialMT-68" transform="translate(111.230469 0)"/>
      </g>
     </g>
    </g>
    <g id="xtick_10">
     <g id="line2d_28">
      <g>
       <use xlink:href="#m380ffdcf14" x="809.215767" y="396.688672" style="fill: #262626; stroke: #262626; stroke-width: 1.25"/>
      </g>
     </g>
     <g id="text_24">
      <!-- 23h -->
      <g style="fill: #262626" transform="translate(800.04022 414.062266) scale(0.11 -0.11)">
       <use xlink:href="#ArialMT-32"/>
       <use xlink:href="#ArialMT-33" transform="translate(55.615234 0)"/>
       <use xlink:href="#ArialMT-68" transform="translate(111.230469 0)"/>
      </g>
     </g>
    </g>
   </g>
   <g id="matplotlib.axis_4">
    <g id="ytick_10">
     <g id="line2d_29">
      <g>
       <use xlink:href="#m2709889f67" x="44.195313" y="396.688672" style="fill: #262626; stroke: #262626; stroke-width: 1.25"/>
      </g>
     </g>
     <g id="text_25">
      <!-- 10 -->
      <g style="fill: #262626" transform="translate(22.46125 400.625469) scale(0.11 -0.11)">
       <use xlink:href="#ArialMT-31"/>
       <use xlink:href="#ArialMT-30" transform="translate(55.615234 0)"/>
      </g>
     </g>
    </g>
    <g id="ytick_11">
     <g id="line2d_30">
      <g>
       <use xlink:href="#m2709889f67" x="44.195313" y="374.62543" style="fill: #262626; stroke: #262626; stroke-width: 1.25"/>
      </g>
     </g>
     <g id="text_26">
      <!-- 20 -->
      <g style="fill: #262626" transform="translate(22.46125 378.562227) scale(0.11 -0.11)">
       <use xlink:href="#ArialMT-32"/>
       <use xlink:href="#ArialMT-30" transform="translate(55.615234 0)"/>
      </g>
     </g>
    </g>
    <g id="ytick_12">
     <g id="line2d_31">
      <g>
       <use xlink:href="#m2709889f67" x="44.195313" y="352.562187" style="fill: #262626; stroke: #262626; stroke-width: 1.25"/>
      </g>
     </g>
     <g id="text_27">
      <!-- 30 -->
      <g style="fill: #262626" transform="translate(22.46125 356.498984) scale(0.11 -0.11)">
       <use xlink:href="#ArialMT-33"/>
       <use xlink:href="#ArialMT-30" transform="translate(55.615234 0)"/>
      </g>
     </g>
    </g>
    <g id="ytick_13">
     <g id="line2d_32">
      <g>
       <use xlink:href="#m2709889f67" x="44.195313" y="330.498945" style="fill: #262626; stroke: #262626; stroke-width: 1.25"/>
      </g>
     </g>
     <g id="text_28">
      <!-- 40 -->
      <g style="fill: #262626" transform="translate(22.46125 334.435742) scale(0.11 -0.11)">
       <use xlink:href="#ArialMT-34"/>
       <use xlink:href="#ArialMT-30" transform="translate(55.615234 0)"/>
      </g>
     </g>
    </g>
    <g id="ytick_14">
     <g id="line2d_33">
      <g>
       <use xlink:href="#m2709889f67" x="44.195313" y="308.435703" style="fill: #262626; stroke: #262626; stroke-width: 1.25"/>
      </g>
     </g>
     <g id="text_29">
      <!-- 50 -->
      <g style="fill: #262626" transform="translate(22.46125 312.3725) scale(0.11 -0.11)">
       <use xlink:href="#ArialMT-35"/>
       <use xlink:href="#ArialMT-30" transform="translate(55.615234 0)"/>
      </g>
     </g>
    </g>
    <g id="ytick_15">
     <g id="line2d_34">
      <g>
       <use xlink:href="#m2709889f67" x="44.195313" y="286.372461" style="fill: #262626; stroke: #262626; stroke-width: 1.25"/>
      </g>
     </g>
     <g id="text_30">
      <!-- 60 -->
      <g style="fill: #262626" transform="translate(22.46125 290.309258) scale(0.11 -0.11)">
       <use xlink:href="#ArialMT-36"/>
       <use xlink:href="#ArialMT-30" transform="translate(55.615234 0)"/>
      </g>
     </g>
    </g>
    <g id="ytick_16">
     <g id="line2d_35">
      <g>
       <use xlink:href="#m2709889f67" x="44.195313" y="264.309219" style="fill: #262626; stroke: #262626; stroke-width: 1.25"/>
      </g>
     </g>
     <g id="text_31">
      <!-- 70 -->
      <g style="fill: #262626" transform="translate(22.46125 268.246016) scale(0.11 -0.11)">
       <use xlink:href="#ArialMT-37"/>
       <use xlink:href="#ArialMT-30" transform="translate(55.615234 0)"/>
      </g>
     </g>
    </g>
    <g id="ytick_17">
     <g id="line2d_36">
      <g>
       <use xlink:href="#m2709889f67" x="44.195313" y="242.245977" style="fill: #262626; stroke: #262626; stroke-width: 1.25"/>
      </g>
     </g>
     <g id="text_32">
      <!-- 80 -->
      <g style="fill: #262626" transform="translate(22.46125 246.182773) scale(0.11 -0.11)">
       <use xlink:href="#ArialMT-38"/>
       <use xlink:href="#ArialMT-30" transform="translate(55.615234 0)"/>
      </g>
     </g>
    </g>
    <g id="ytick_18">
     <g id="line2d_37">
      <g>
       <use xlink:href="#m2709889f67" x="44.195313" y="220.182734" style="fill: #262626; stroke: #262626; stroke-width: 1.25"/>
      </g>
     </g>
     <g id="text_33">
      <!-- 90 -->
      <g style="fill: #262626" transform="translate(22.46125 224.119531) scale(0.11 -0.11)">
       <use xlink:href="#ArialMT-39"/>
       <use xlink:href="#ArialMT-30" transform="translate(55.615234 0)"/>
      </g>
     </g>
    </g>
    <g id="text_34">
     <!-- MAE (€/MWh) -->
     <g style="fill: #262626" transform="translate(15.935625 346.101641) rotate(-90) scale(0.12 -0.12)">
      <use xlink:href="#ArialMT-4d"/>
      <use xlink:href="#ArialMT-41" transform="translate(83.300781 0)"/>
      <use xlink:href="#ArialMT-45" transform="translate(150 0)"/>
      <use xlink:href="#ArialMT-20" transform="translate(216.699219 0)"/>
      <use xlink:href="#ArialMT-28" transform="translate(244.482422 0)"/>
      <use xlink:href="#ArialMT-20ac" transform="translate(277.783203 0)"/>
      <use xlink:href="#ArialMT-2f" transform="translate(333.398438 0)"/>
      <use xlink:href="#ArialMT-4d" transform="translate(361.181641 0)"/>
      <use xlink:href="#ArialMT-57" transform="translate(444.482422 0)"/>
      <use xlink:href="#ArialMT-68" transform="translate(538.867188 0)"/>
      <use xlink:href="#ArialMT-29" transform="translate(594.482422 0)"/>
     </g>
    </g>
   </g>
   <g id="FillBetweenPolyCollection_4">
    <defs>
     <path id="ma1a668643f" d="M 80.624858 -485.684684 
L 80.624858 -481.795793 
L 112.302724 -487.047889 
L 143.980589 -486.472657 
L 175.658455 -506.314359 
L 207.33632 -557.665387 
L 239.014186 -545.542674 
L 270.692052 -512.777796 
L 302.369917 -492.370779 
L 334.047783 -501.408225 
L 365.725648 -510.140188 
L 397.403514 -521.599461 
L 429.08138 -533.93267 
L 460.759245 -538.145973 
L 492.437111 -524.533073 
L 524.114977 -507.035255 
L 555.792842 -489.730007 
L 587.470708 -502.899656 
L 619.148573 -563.277058 
L 650.826439 -590.560582 
L 682.504305 -571.971558 
L 714.18217 -537.070261 
L 745.860036 -505.467805 
L 777.537901 -502.725827 
L 809.215767 -485.570593 
L 809.215767 -488.611161 
L 809.215767 -488.611161 
L 777.537901 -506.713807 
L 745.860036 -511.180666 
L 714.18217 -542.160254 
L 682.504305 -587.263815 
L 650.826439 -619.812625 
L 619.148573 -579.77871 
L 587.470708 -508.83548 
L 555.792842 -492.976192 
L 524.114977 -510.53826 
L 492.437111 -528.836374 
L 460.759245 -542.84601 
L 429.08138 -538.520296 
L 397.403514 -526.09107 
L 365.725648 -513.986231 
L 334.047783 -504.724278 
L 302.369917 -496.258299 
L 270.692052 -519.936491 
L 239.014186 -561.052706 
L 207.33632 -597.473403 
L 175.658455 -521.475577 
L 143.980589 -492.221873 
L 112.302724 -492.383675 
L 80.624858 -485.684684 
z
" style="stroke: #840853; stroke-opacity: 0.2"/>
    </defs>
    <g clip-path="url(#p19b509bb57)">
     <use xlink:href="#ma1a668643f" x="0" y="856.801641" style="fill: #840853; fill-opacity: 0.2; stroke: #840853; stroke-opacity: 0.2"/>
    </g>
   </g>
   <g id="FillBetweenPolyCollection_5">
    <defs>
     <path id="me3f9c1bf00" d="M 80.624858 -484.931446 
L 80.624858 -481.056907 
L 112.302724 -485.977432 
L 143.980589 -485.648894 
L 175.658455 -505.395589 
L 207.33632 -557.47846 
L 239.014186 -546.825518 
L 270.692052 -513.05419 
L 302.369917 -492.408814 
L 334.047783 -499.986593 
L 365.725648 -509.421895 
L 397.403514 -521.731605 
L 429.08138 -533.993826 
L 460.759245 -538.475702 
L 492.437111 -523.956772 
L 524.114977 -504.921349 
L 555.792842 -486.887106 
L 587.470708 -502.410641 
L 619.148573 -562.935772 
L 650.826439 -589.319222 
L 682.504305 -570.00903 
L 714.18217 -535.193485 
L 745.860036 -504.112802 
L 777.537901 -501.422384 
L 809.215767 -484.321316 
L 809.215767 -487.655111 
L 809.215767 -487.655111 
L 777.537901 -505.824168 
L 745.860036 -509.352755 
L 714.18217 -540.924528 
L 682.504305 -585.555728 
L 650.826439 -619.200249 
L 619.148573 -577.502327 
L 587.470708 -508.183731 
L 555.792842 -490.26524 
L 524.114977 -508.668482 
L 492.437111 -528.313933 
L 460.759245 -543.157281 
L 429.08138 -538.86335 
L 397.403514 -525.908315 
L 365.725648 -513.326564 
L 334.047783 -503.278385 
L 302.369917 -496.144205 
L 270.692052 -519.91178 
L 239.014186 -561.418125 
L 207.33632 -598.015414 
L 175.658455 -520.212087 
L 143.980589 -491.294823 
L 112.302724 -491.553317 
L 80.624858 -484.931446 
z
" style="stroke: #3a609c; stroke-opacity: 0.2"/>
    </defs>
    <g clip-path="url(#p19b509bb57)">
     <use xlink:href="#me3f9c1bf00" x="0" y="856.801641" style="fill: #3a609c; fill-opacity: 0.2; stroke: #3a609c; stroke-opacity: 0.2"/>
    </g>
   </g>
   <g id="FillBetweenPolyCollection_6">
    <defs>
     <path id="mf3bc0c889a" d="M 80.624858 -471.117253 
L 80.624858 -467.864966 
L 112.302724 -475.347478 
L 143.980589 -475.368524 
L 175.658455 -490.286182 
L 207.33632 -535.312574 
L 239.014186 -526.380215 
L 270.692052 -502.970695 
L 302.369917 -498.671342 
L 334.047783 -513.99648 
L 365.725648 -530.560316 
L 397.403514 -548.211419 
L 429.08138 -561.498986 
L 460.759245 -566.065831 
L 492.437111 -550.008225 
L 524.114977 -523.488218 
L 555.792842 -494.43313 
L 587.470708 -483.240754 
L 619.148573 -533.586903 
L 650.826439 -567.781709 
L 682.504305 -542.80906 
L 714.18217 -505.343899 
L 745.860036 -478.724754 
L 777.537901 -475.731211 
L 809.215767 -465.343647 
L 809.215767 -467.934367 
L 809.215767 -467.934367 
L 777.537901 -479.295745 
L 745.860036 -484.752103 
L 714.18217 -510.909377 
L 682.504305 -558.814228 
L 650.826439 -597.038806 
L 619.148573 -548.982756 
L 587.470708 -489.129207 
L 555.792842 -497.264728 
L 524.114977 -527.713314 
L 492.437111 -554.88742 
L 460.759245 -571.288675 
L 429.08138 -566.37648 
L 397.403514 -552.631104 
L 365.725648 -535.236539 
L 334.047783 -518.157457 
L 302.369917 -501.673493 
L 270.692052 -509.019771 
L 239.014186 -541.448432 
L 207.33632 -575.21478 
L 175.658455 -505.040195 
L 143.980589 -480.367588 
L 112.302724 -480.240782 
L 80.624858 -471.117253 
z
" style="stroke: #ffb14e; stroke-opacity: 0.2"/>
    </defs>
    <g clip-path="url(#p19b509bb57)">
     <use xlink:href="#mf3bc0c889a" x="0" y="856.801641" style="fill: #ffb14e; fill-opacity: 0.2; stroke: #ffb14e; stroke-opacity: 0.2"/>
    </g>
   </g>
   <g id="line2d_38">
    <path d="M 80.624858 373.001712 
L 112.302724 367.333567 
L 143.980589 367.480854 
L 175.658455 343.266853 
L 207.33632 279.398284 
L 239.014186 303.691512 
L 270.692052 340.640214 
L 302.369917 362.472343 
L 334.047783 353.795828 
L 365.725648 344.724151 
L 397.403514 332.936145 
L 429.08138 320.723748 
L 460.759245 316.386045 
L 492.437111 330.094027 
L 524.114977 348.054095 
L 555.792842 365.491969 
L 587.470708 350.906793 
L 619.148573 285.65027 
L 650.826439 251.896889 
L 682.504305 277.579283 
L 714.18217 317.197731 
L 745.860036 348.642158 
L 777.537901 352.062716 
L 809.215767 369.712527 
" clip-path="url(#p19b509bb57)" style="fill: none; stroke: #840853; stroke-width: 1.5; stroke-linecap: round"/>
   </g>
   <g id="line2d_39">
    <path d="M 80.624858 373.828026 
L 112.302724 368.157283 
L 143.980589 368.333167 
L 175.658455 344.41983 
L 207.33632 280.496361 
L 239.014186 303.006088 
L 270.692052 340.4017 
L 302.369917 362.505517 
L 334.047783 355.15134 
L 365.725648 345.437785 
L 397.403514 333.003072 
L 429.08138 320.390843 
L 460.759245 316.111348 
L 492.437111 330.677297 
L 524.114977 349.948825 
L 555.792842 368.180215 
L 587.470708 351.589445 
L 619.148573 286.875042 
L 650.826439 253.002093 
L 682.504305 279.144409 
L 714.18217 318.888493 
L 745.860036 350.046379 
L 777.537901 353.342535 
L 809.215767 370.801129 
" clip-path="url(#p19b509bb57)" style="fill: none; stroke: #3a609c; stroke-width: 1.5; stroke-linecap: round"/>
   </g>
   <g id="line2d_40">
    <path d="M 80.624858 387.402207 
L 112.302724 378.969726 
L 143.980589 378.964121 
L 175.658455 359.430763 
L 207.33632 301.893808 
L 239.014186 323.111063 
L 270.692052 350.893811 
L 302.369917 356.682817 
L 334.047783 340.738203 
L 365.725648 323.910652 
L 397.403514 306.421597 
L 429.08138 292.861064 
L 460.759245 288.130764 
L 492.437111 304.418084 
L 524.114977 331.229713 
L 555.792842 360.999624 
L 587.470708 370.754419 
L 619.148573 315.847933 
L 650.826439 274.802806 
L 682.504305 306.333401 
L 714.18217 348.786878 
L 745.860036 375.2933 
L 777.537901 379.181611 
L 809.215767 390.224906 
" clip-path="url(#p19b509bb57)" style="fill: none; stroke: #ffb14e; stroke-width: 1.5; stroke-linecap: round"/>
   </g>
   <g id="line2d_41"/>
   <g id="line2d_42"/>
   <g id="line2d_43"/>
   <g id="patch_9">
    <path d="M 44.195313 396.688672 
L 44.195313 220.182734 
" style="fill: none; stroke: #262626; stroke-width: 1.25; stroke-linejoin: miter; stroke-linecap: square"/>
   </g>
   <g id="patch_10">
    <path d="M 845.645312 396.688672 
L 845.645312 220.182734 
" style="fill: none; stroke: #262626; stroke-width: 1.25; stroke-linejoin: miter; stroke-linecap: square"/>
   </g>
   <g id="patch_11">
    <path d="M 44.195313 396.688672 
L 845.645312 396.688672 
" style="fill: none; stroke: #262626; stroke-width: 1.25; stroke-linejoin: miter; stroke-linecap: square"/>
   </g>
   <g id="patch_12">
    <path d="M 44.195313 220.182734 
L 845.645312 220.182734 
" style="fill: none; stroke: #262626; stroke-width: 1.25; stroke-linejoin: miter; stroke-linecap: square"/>
   </g>
   <g id="text_35">
    <!-- Summer -->
    <g style="fill: #262626" transform="translate(420.910937 237.597406) scale(0.12 -0.12)">
     <defs>
      <path id="Arial-BoldMT-75" d="M 2644 0 
L 2644 497 
Q 2463 231 2167 78 
Q 1872 -75 1544 -75 
Q 1209 -75 943 72 
Q 678 219 559 484 
Q 441 750 441 1219 
L 441 3319 
L 1319 3319 
L 1319 1794 
Q 1319 1094 1367 936 
Q 1416 778 1544 686 
Q 1672 594 1869 594 
Q 2094 594 2272 717 
Q 2450 841 2515 1023 
Q 2581 1206 2581 1919 
L 2581 3319 
L 3459 3319 
L 3459 0 
L 2644 0 
z
" transform="scale(0.015625)"/>
      <path id="Arial-BoldMT-6d" d="M 394 3319 
L 1203 3319 
L 1203 2866 
Q 1638 3394 2238 3394 
Q 2556 3394 2790 3262 
Q 3025 3131 3175 2866 
Q 3394 3131 3647 3262 
Q 3900 3394 4188 3394 
Q 4553 3394 4806 3245 
Q 5059 3097 5184 2809 
Q 5275 2597 5275 2122 
L 5275 0 
L 4397 0 
L 4397 1897 
Q 4397 2391 4306 2534 
Q 4184 2722 3931 2722 
Q 3747 2722 3584 2609 
Q 3422 2497 3350 2280 
Q 3278 2063 3278 1594 
L 3278 0 
L 2400 0 
L 2400 1819 
Q 2400 2303 2353 2443 
Q 2306 2584 2207 2653 
Q 2109 2722 1941 2722 
Q 1738 2722 1575 2612 
Q 1413 2503 1342 2297 
Q 1272 2091 1272 1613 
L 1272 0 
L 394 0 
L 394 3319 
z
" transform="scale(0.015625)"/>
      <path id="Arial-BoldMT-65" d="M 2381 1056 
L 3256 909 
Q 3088 428 2723 176 
Q 2359 -75 1813 -75 
Q 947 -75 531 491 
Q 203 944 203 1634 
Q 203 2459 634 2926 
Q 1066 3394 1725 3394 
Q 2466 3394 2894 2905 
Q 3322 2416 3303 1406 
L 1103 1406 
Q 1113 1016 1316 798 
Q 1519 581 1822 581 
Q 2028 581 2168 693 
Q 2309 806 2381 1056 
z
M 2431 1944 
Q 2422 2325 2234 2523 
Q 2047 2722 1778 2722 
Q 1491 2722 1303 2513 
Q 1116 2303 1119 1944 
L 2431 1944 
z
" transform="scale(0.015625)"/>
     </defs>
     <use xlink:href="#Arial-BoldMT-53"/>
     <use xlink:href="#Arial-BoldMT-75" transform="translate(66.699219 0)"/>
     <use xlink:href="#Arial-BoldMT-6d" transform="translate(127.783203 0)"/>
     <use xlink:href="#Arial-BoldMT-6d" transform="translate(216.699219 0)"/>
     <use xlink:href="#Arial-BoldMT-65" transform="translate(305.615234 0)"/>
     <use xlink:href="#Arial-BoldMT-72" transform="translate(361.230469 0)"/>
    </g>
   </g>
  </g>
  <g id="axes_3">
   <g id="patch_13">
    <path d="M 44.195313 605.734609 
L 845.645312 605.734609 
L 845.645312 429.228672 
L 44.195313 429.228672 
z
" style="fill: #ffffff"/>
   </g>
   <g id="matplotlib.axis_5">
    <g id="xtick_11">
     <g id="line2d_44">
      <g>
       <use xlink:href="#m380ffdcf14" x="80.624858" y="605.734609" style="fill: #262626; stroke: #262626; stroke-width: 1.25"/>
      </g>
     </g>
     <g id="text_36">
      <!-- 0h -->
      <g style="fill: #262626" transform="translate(74.507827 623.108203) scale(0.11 -0.11)">
       <use xlink:href="#ArialMT-30"/>
       <use xlink:href="#ArialMT-68" transform="translate(55.615234 0)"/>
      </g>
     </g>
    </g>
    <g id="xtick_12">
     <g id="line2d_45">
      <g>
       <use xlink:href="#m380ffdcf14" x="270.692052" y="605.734609" style="fill: #262626; stroke: #262626; stroke-width: 1.25"/>
      </g>
     </g>
     <g id="text_37">
      <!-- 6h -->
      <g style="fill: #262626" transform="translate(264.57502 623.108203) scale(0.11 -0.11)">
       <use xlink:href="#ArialMT-36"/>
       <use xlink:href="#ArialMT-68" transform="translate(55.615234 0)"/>
      </g>
     </g>
    </g>
    <g id="xtick_13">
     <g id="line2d_46">
      <g>
       <use xlink:href="#m380ffdcf14" x="460.759245" y="605.734609" style="fill: #262626; stroke: #262626; stroke-width: 1.25"/>
      </g>
     </g>
     <g id="text_38">
      <!-- 12h -->
      <g style="fill: #262626" transform="translate(451.583698 623.108203) scale(0.11 -0.11)">
       <use xlink:href="#ArialMT-31"/>
       <use xlink:href="#ArialMT-32" transform="translate(55.615234 0)"/>
       <use xlink:href="#ArialMT-68" transform="translate(111.230469 0)"/>
      </g>
     </g>
    </g>
    <g id="xtick_14">
     <g id="line2d_47">
      <g>
       <use xlink:href="#m380ffdcf14" x="650.826439" y="605.734609" style="fill: #262626; stroke: #262626; stroke-width: 1.25"/>
      </g>
     </g>
     <g id="text_39">
      <!-- 18h -->
      <g style="fill: #262626" transform="translate(641.650892 623.108203) scale(0.11 -0.11)">
       <use xlink:href="#ArialMT-31"/>
       <use xlink:href="#ArialMT-38" transform="translate(55.615234 0)"/>
       <use xlink:href="#ArialMT-68" transform="translate(111.230469 0)"/>
      </g>
     </g>
    </g>
    <g id="xtick_15">
     <g id="line2d_48">
      <g>
       <use xlink:href="#m380ffdcf14" x="809.215767" y="605.734609" style="fill: #262626; stroke: #262626; stroke-width: 1.25"/>
      </g>
     </g>
     <g id="text_40">
      <!-- 23h -->
      <g style="fill: #262626" transform="translate(800.04022 623.108203) scale(0.11 -0.11)">
       <use xlink:href="#ArialMT-32"/>
       <use xlink:href="#ArialMT-33" transform="translate(55.615234 0)"/>
       <use xlink:href="#ArialMT-68" transform="translate(111.230469 0)"/>
      </g>
     </g>
    </g>
   </g>
   <g id="matplotlib.axis_6">
    <g id="ytick_19">
     <g id="line2d_49">
      <g>
       <use xlink:href="#m2709889f67" x="44.195313" y="605.734609" style="fill: #262626; stroke: #262626; stroke-width: 1.25"/>
      </g>
     </g>
     <g id="text_41">
      <!-- 10 -->
      <g style="fill: #262626" transform="translate(22.46125 609.671406) scale(0.11 -0.11)">
       <use xlink:href="#ArialMT-31"/>
       <use xlink:href="#ArialMT-30" transform="translate(55.615234 0)"/>
      </g>
     </g>
    </g>
    <g id="ytick_20">
     <g id="line2d_50">
      <g>
       <use xlink:href="#m2709889f67" x="44.195313" y="583.671367" style="fill: #262626; stroke: #262626; stroke-width: 1.25"/>
      </g>
     </g>
     <g id="text_42">
      <!-- 20 -->
      <g style="fill: #262626" transform="translate(22.46125 587.608164) scale(0.11 -0.11)">
       <use xlink:href="#ArialMT-32"/>
       <use xlink:href="#ArialMT-30" transform="translate(55.615234 0)"/>
      </g>
     </g>
    </g>
    <g id="ytick_21">
     <g id="line2d_51">
      <g>
       <use xlink:href="#m2709889f67" x="44.195313" y="561.608125" style="fill: #262626; stroke: #262626; stroke-width: 1.25"/>
      </g>
     </g>
     <g id="text_43">
      <!-- 30 -->
      <g style="fill: #262626" transform="translate(22.46125 565.544922) scale(0.11 -0.11)">
       <use xlink:href="#ArialMT-33"/>
       <use xlink:href="#ArialMT-30" transform="translate(55.615234 0)"/>
      </g>
     </g>
    </g>
    <g id="ytick_22">
     <g id="line2d_52">
      <g>
       <use xlink:href="#m2709889f67" x="44.195313" y="539.544883" style="fill: #262626; stroke: #262626; stroke-width: 1.25"/>
      </g>
     </g>
     <g id="text_44">
      <!-- 40 -->
      <g style="fill: #262626" transform="translate(22.46125 543.48168) scale(0.11 -0.11)">
       <use xlink:href="#ArialMT-34"/>
       <use xlink:href="#ArialMT-30" transform="translate(55.615234 0)"/>
      </g>
     </g>
    </g>
    <g id="ytick_23">
     <g id="line2d_53">
      <g>
       <use xlink:href="#m2709889f67" x="44.195313" y="517.481641" style="fill: #262626; stroke: #262626; stroke-width: 1.25"/>
      </g>
     </g>
     <g id="text_45">
      <!-- 50 -->
      <g style="fill: #262626" transform="translate(22.46125 521.418437) scale(0.11 -0.11)">
       <use xlink:href="#ArialMT-35"/>
       <use xlink:href="#ArialMT-30" transform="translate(55.615234 0)"/>
      </g>
     </g>
    </g>
    <g id="ytick_24">
     <g id="line2d_54">
      <g>
       <use xlink:href="#m2709889f67" x="44.195313" y="495.418398" style="fill: #262626; stroke: #262626; stroke-width: 1.25"/>
      </g>
     </g>
     <g id="text_46">
      <!-- 60 -->
      <g style="fill: #262626" transform="translate(22.46125 499.355195) scale(0.11 -0.11)">
       <use xlink:href="#ArialMT-36"/>
       <use xlink:href="#ArialMT-30" transform="translate(55.615234 0)"/>
      </g>
     </g>
    </g>
    <g id="ytick_25">
     <g id="line2d_55">
      <g>
       <use xlink:href="#m2709889f67" x="44.195313" y="473.355156" style="fill: #262626; stroke: #262626; stroke-width: 1.25"/>
      </g>
     </g>
     <g id="text_47">
      <!-- 70 -->
      <g style="fill: #262626" transform="translate(22.46125 477.291953) scale(0.11 -0.11)">
       <use xlink:href="#ArialMT-37"/>
       <use xlink:href="#ArialMT-30" transform="translate(55.615234 0)"/>
      </g>
     </g>
    </g>
    <g id="ytick_26">
     <g id="line2d_56">
      <g>
       <use xlink:href="#m2709889f67" x="44.195313" y="451.291914" style="fill: #262626; stroke: #262626; stroke-width: 1.25"/>
      </g>
     </g>
     <g id="text_48">
      <!-- 80 -->
      <g style="fill: #262626" transform="translate(22.46125 455.228711) scale(0.11 -0.11)">
       <use xlink:href="#ArialMT-38"/>
       <use xlink:href="#ArialMT-30" transform="translate(55.615234 0)"/>
      </g>
     </g>
    </g>
    <g id="ytick_27">
     <g id="line2d_57">
      <g>
       <use xlink:href="#m2709889f67" x="44.195313" y="429.228672" style="fill: #262626; stroke: #262626; stroke-width: 1.25"/>
      </g>
     </g>
     <g id="text_49">
      <!-- 90 -->
      <g style="fill: #262626" transform="translate(22.46125 433.165469) scale(0.11 -0.11)">
       <use xlink:href="#ArialMT-39"/>
       <use xlink:href="#ArialMT-30" transform="translate(55.615234 0)"/>
      </g>
     </g>
    </g>
    <g id="text_50">
     <!-- MAE (€/MWh) -->
     <g style="fill: #262626" transform="translate(15.935625 555.147578) rotate(-90) scale(0.12 -0.12)">
      <use xlink:href="#ArialMT-4d"/>
      <use xlink:href="#ArialMT-41" transform="translate(83.300781 0)"/>
      <use xlink:href="#ArialMT-45" transform="translate(150 0)"/>
      <use xlink:href="#ArialMT-20" transform="translate(216.699219 0)"/>
      <use xlink:href="#ArialMT-28" transform="translate(244.482422 0)"/>
      <use xlink:href="#ArialMT-20ac" transform="translate(277.783203 0)"/>
      <use xlink:href="#ArialMT-2f" transform="translate(333.398438 0)"/>
      <use xlink:href="#ArialMT-4d" transform="translate(361.181641 0)"/>
      <use xlink:href="#ArialMT-57" transform="translate(444.482422 0)"/>
      <use xlink:href="#ArialMT-68" transform="translate(538.867188 0)"/>
      <use xlink:href="#ArialMT-29" transform="translate(594.482422 0)"/>
     </g>
    </g>
   </g>
   <g id="FillBetweenPolyCollection_7">
    <defs>
     <path id="me66111e63e" d="M 80.624858 -266.248525 
L 80.624858 -263.887386 
L 112.302724 -265.054644 
L 143.980589 -266.155978 
L 175.658455 -265.635856 
L 207.33632 -278.85598 
L 239.014186 -293.679458 
L 270.692052 -299.973851 
L 302.369917 -285.56707 
L 334.047783 -279.121718 
L 365.725648 -281.695648 
L 397.403514 -284.485251 
L 429.08138 -287.229369 
L 460.759245 -280.894922 
L 492.437111 -276.38913 
L 524.114977 -279.765658 
L 555.792842 -301.641635 
L 587.470708 -337.407854 
L 619.148573 -347.351108 
L 650.826439 -309.159226 
L 682.504305 -277.793716 
L 714.18217 -267.97702 
L 745.860036 -260.258318 
L 777.537901 -262.254256 
L 809.215767 -262.331921 
L 809.215767 -264.559141 
L 809.215767 -264.559141 
L 777.537901 -264.624537 
L 745.860036 -262.516472 
L 714.18217 -270.630094 
L 682.504305 -280.762485 
L 650.826439 -318.584083 
L 619.148573 -364.185324 
L 587.470708 -350.558172 
L 555.792842 -309.043025 
L 524.114977 -283.355928 
L 492.437111 -279.416775 
L 460.759245 -284.0529 
L 429.08138 -290.486977 
L 397.403514 -287.602646 
L 365.725648 -284.876345 
L 334.047783 -282.611825 
L 302.369917 -289.631974 
L 270.692052 -304.590778 
L 239.014186 -297.402965 
L 207.33632 -281.907607 
L 175.658455 -268.473126 
L 143.980589 -268.896093 
L 112.302724 -267.770701 
L 80.624858 -266.248525 
z
" style="stroke: #840853; stroke-opacity: 0.2"/>
    </defs>
    <g clip-path="url(#pc5965710ec)">
     <use xlink:href="#me66111e63e" x="0" y="856.801641" style="fill: #840853; fill-opacity: 0.2; stroke: #840853; stroke-opacity: 0.2"/>
    </g>
   </g>
   <g id="FillBetweenPolyCollection_8">
    <defs>
     <path id="m34ec18ee73" d="M 80.624858 -261.453642 
L 80.624858 -259.423105 
L 112.302724 -260.741779 
L 143.980589 -261.652244 
L 175.658455 -261.009553 
L 207.33632 -273.489737 
L 239.014186 -291.213615 
L 270.692052 -298.651547 
L 302.369917 -285.738324 
L 334.047783 -281.357471 
L 365.725648 -283.417065 
L 397.403514 -284.879631 
L 429.08138 -286.827307 
L 460.759245 -280.132148 
L 492.437111 -277.018972 
L 524.114977 -282.645609 
L 555.792842 -302.386328 
L 587.470708 -337.967319 
L 619.148573 -349.317223 
L 650.826439 -309.262995 
L 682.504305 -277.123041 
L 714.18217 -265.783152 
L 745.860036 -257.699505 
L 777.537901 -258.083717 
L 809.215767 -257.973501 
L 809.215767 -259.793729 
L 809.215767 -259.793729 
L 777.537901 -260.075946 
L 745.860036 -259.68585 
L 714.18217 -268.178763 
L 682.504305 -280.12138 
L 650.826439 -318.168354 
L 619.148573 -365.791327 
L 587.470708 -352.073482 
L 555.792842 -310.312159 
L 524.114977 -286.260228 
L 492.437111 -280.277238 
L 460.759245 -283.305718 
L 429.08138 -290.230502 
L 397.403514 -288.118036 
L 365.725648 -286.627536 
L 334.047783 -285.012276 
L 302.369917 -289.999225 
L 270.692052 -303.414985 
L 239.014186 -294.937359 
L 207.33632 -276.026336 
L 175.658455 -263.281461 
L 143.980589 -264.085593 
L 112.302724 -263.031526 
L 80.624858 -261.453642 
z
" style="stroke: #3a609c; stroke-opacity: 0.2"/>
    </defs>
    <g clip-path="url(#pc5965710ec)">
     <use xlink:href="#m34ec18ee73" x="0" y="856.801641" style="fill: #3a609c; fill-opacity: 0.2; stroke: #3a609c; stroke-opacity: 0.2"/>
    </g>
   </g>
   <g id="FillBetweenPolyCollection_9">
    <defs>
     <path id="m8eeea7a8cd" d="M 80.624858 -267.252141 
L 80.624858 -264.98267 
L 112.302724 -267.268087 
L 143.980589 -267.074148 
L 175.658455 -263.467471 
L 207.33632 -271.615718 
L 239.014186 -285.594647 
L 270.692052 -292.953599 
L 302.369917 -280.592791 
L 334.047783 -279.288167 
L 365.725648 -283.638434 
L 397.403514 -287.03696 
L 429.08138 -289.814591 
L 460.759245 -282.665779 
L 492.437111 -276.981098 
L 524.114977 -277.776501 
L 555.792842 -296.821091 
L 587.470708 -334.642628 
L 619.148573 -345.313075 
L 650.826439 -303.627126 
L 682.504305 -271.03501 
L 714.18217 -260.766521 
L 745.860036 -254.802445 
L 777.537901 -259.829771 
L 809.215767 -262.116492 
L 809.215767 -264.158094 
L 809.215767 -264.158094 
L 777.537901 -261.930845 
L 745.860036 -256.761833 
L 714.18217 -262.804453 
L 682.504305 -273.838832 
L 650.826439 -313.014458 
L 619.148573 -361.725631 
L 587.470708 -347.903553 
L 555.792842 -304.280825 
L 524.114977 -281.166741 
L 492.437111 -280.216623 
L 460.759245 -285.860939 
L 429.08138 -293.255308 
L 397.403514 -290.172982 
L 365.725648 -286.683053 
L 334.047783 -282.631447 
L 302.369917 -284.459179 
L 270.692052 -297.206174 
L 239.014186 -289.291627 
L 207.33632 -273.931813 
L 175.658455 -265.973305 
L 143.980589 -269.6779 
L 112.302724 -269.496193 
L 80.624858 -267.252141 
z
" style="stroke: #ffb14e; stroke-opacity: 0.2"/>
    </defs>
    <g clip-path="url(#pc5965710ec)">
     <use xlink:href="#m8eeea7a8cd" x="0" y="856.801641" style="fill: #ffb14e; fill-opacity: 0.2; stroke: #ffb14e; stroke-opacity: 0.2"/>
    </g>
   </g>
   <g id="line2d_58">
    <path d="M 80.624858 591.756295 
L 112.302724 590.468366 
L 143.980589 589.309464 
L 175.658455 589.738385 
L 207.33632 576.43285 
L 239.014186 561.176803 
L 270.692052 554.529313 
L 302.369917 569.303585 
L 334.047783 575.946352 
L 365.725648 573.516017 
L 397.403514 570.749701 
L 429.08138 567.910076 
L 460.759245 574.364083 
L 492.437111 578.910076 
L 524.114977 575.226554 
L 555.792842 551.458364 
L 587.470708 513.150347 
L 619.148573 500.688014 
L 650.826439 542.958 
L 682.504305 577.489206 
L 714.18217 587.576385 
L 745.860036 595.435073 
L 777.537901 593.419584 
L 809.215767 593.352025 
" clip-path="url(#pc5965710ec)" style="fill: none; stroke: #840853; stroke-width: 1.5; stroke-linecap: round"/>
   </g>
   <g id="line2d_59">
    <path d="M 80.624858 596.356902 
L 112.302724 594.955936 
L 143.980589 593.861827 
L 175.658455 594.654408 
L 207.33632 582.032677 
L 239.014186 563.782828 
L 270.692052 555.738342 
L 302.369917 568.986031 
L 334.047783 573.592571 
L 365.725648 571.759126 
L 397.403514 570.241365 
L 429.08138 568.330697 
L 460.759245 575.108943 
L 492.437111 578.28072 
L 524.114977 572.375743 
L 555.792842 550.62244 
L 587.470708 511.647394 
L 619.148573 499.311337 
L 650.826439 543.06283 
L 682.504305 578.171904 
L 714.18217 589.828621 
L 745.860036 598.168656 
L 777.537901 597.779841 
L 809.215767 597.962947 
" clip-path="url(#pc5965710ec)" style="fill: none; stroke: #3a609c; stroke-width: 1.5; stroke-linecap: round"/>
   </g>
   <g id="line2d_60">
    <path d="M 80.624858 590.691146 
L 112.302724 588.385553 
L 143.980589 588.3584 
L 175.658455 592.07897 
L 207.33632 584.006811 
L 239.014186 569.376402 
L 270.692052 561.803417 
L 302.369917 574.419346 
L 334.047783 575.846407 
L 365.725648 571.668302 
L 397.403514 568.18309 
L 429.08138 565.257635 
L 460.759245 572.654174 
L 492.437111 578.118595 
L 524.114977 577.285808 
L 555.792842 556.232275 
L 587.470708 515.587882 
L 619.148573 503.361482 
L 650.826439 548.502141 
L 682.504305 584.372391 
L 714.18217 595.016656 
L 745.860036 601.006514 
L 777.537901 595.845369 
L 809.215767 593.651156 
" clip-path="url(#pc5965710ec)" style="fill: none; stroke: #ffb14e; stroke-width: 1.5; stroke-linecap: round"/>
   </g>
   <g id="line2d_61"/>
   <g id="line2d_62"/>
   <g id="line2d_63"/>
   <g id="patch_14">
    <path d="M 44.195313 605.734609 
L 44.195313 429.228672 
" style="fill: none; stroke: #262626; stroke-width: 1.25; stroke-linejoin: miter; stroke-linecap: square"/>
   </g>
   <g id="patch_15">
    <path d="M 845.645312 605.734609 
L 845.645312 429.228672 
" style="fill: none; stroke: #262626; stroke-width: 1.25; stroke-linejoin: miter; stroke-linecap: square"/>
   </g>
   <g id="patch_16">
    <path d="M 44.195313 605.734609 
L 845.645312 605.734609 
" style="fill: none; stroke: #262626; stroke-width: 1.25; stroke-linejoin: miter; stroke-linecap: square"/>
   </g>
   <g id="patch_17">
    <path d="M 44.195313 429.228672 
L 845.645312 429.228672 
" style="fill: none; stroke: #262626; stroke-width: 1.25; stroke-linejoin: miter; stroke-linecap: square"/>
   </g>
   <g id="text_51">
    <!-- Autumn -->
    <g style="fill: #262626" transform="translate(422.26 446.643344) scale(0.12 -0.12)">
     <defs>
      <path id="Arial-BoldMT-41" d="M 4597 0 
L 3591 0 
L 3191 1041 
L 1359 1041 
L 981 0 
L 0 0 
L 1784 4581 
L 2763 4581 
L 4597 0 
z
M 2894 1813 
L 2263 3513 
L 1644 1813 
L 2894 1813 
z
" transform="scale(0.015625)"/>
      <path id="Arial-BoldMT-74" d="M 1981 3319 
L 1981 2619 
L 1381 2619 
L 1381 1281 
Q 1381 875 1398 808 
Q 1416 741 1477 697 
Q 1538 653 1625 653 
Q 1747 653 1978 738 
L 2053 56 
Q 1747 -75 1359 -75 
Q 1122 -75 931 4 
Q 741 84 652 211 
Q 563 338 528 553 
Q 500 706 500 1172 
L 500 2619 
L 97 2619 
L 97 3319 
L 500 3319 
L 500 3978 
L 1381 4491 
L 1381 3319 
L 1981 3319 
z
" transform="scale(0.015625)"/>
     </defs>
     <use xlink:href="#Arial-BoldMT-41"/>
     <use xlink:href="#Arial-BoldMT-75" transform="translate(72.216797 0)"/>
     <use xlink:href="#Arial-BoldMT-74" transform="translate(133.300781 0)"/>
     <use xlink:href="#Arial-BoldMT-75" transform="translate(166.601562 0)"/>
     <use xlink:href="#Arial-BoldMT-6d" transform="translate(227.685547 0)"/>
     <use xlink:href="#Arial-BoldMT-6e" transform="translate(316.601562 0)"/>
    </g>
   </g>
  </g>
  <g id="axes_4">
   <g id="patch_18">
    <path d="M 44.195313 814.780547 
L 845.645312 814.780547 
L 845.645312 638.274609 
L 44.195313 638.274609 
z
" style="fill: #ffffff"/>
   </g>
   <g id="matplotlib.axis_7">
    <g id="xtick_16">
     <g id="line2d_64">
      <g>
       <use xlink:href="#m380ffdcf14" x="80.624858" y="814.780547" style="fill: #262626; stroke: #262626; stroke-width: 1.25"/>
      </g>
     </g>
     <g id="text_52">
      <!-- 0h -->
      <g style="fill: #262626" transform="translate(74.507827 832.154141) scale(0.11 -0.11)">
       <use xlink:href="#ArialMT-30"/>
       <use xlink:href="#ArialMT-68" transform="translate(55.615234 0)"/>
      </g>
     </g>
    </g>
    <g id="xtick_17">
     <g id="line2d_65">
      <g>
       <use xlink:href="#m380ffdcf14" x="270.692052" y="814.780547" style="fill: #262626; stroke: #262626; stroke-width: 1.25"/>
      </g>
     </g>
     <g id="text_53">
      <!-- 6h -->
      <g style="fill: #262626" transform="translate(264.57502 832.154141) scale(0.11 -0.11)">
       <use xlink:href="#ArialMT-36"/>
       <use xlink:href="#ArialMT-68" transform="translate(55.615234 0)"/>
      </g>
     </g>
    </g>
    <g id="xtick_18">
     <g id="line2d_66">
      <g>
       <use xlink:href="#m380ffdcf14" x="460.759245" y="814.780547" style="fill: #262626; stroke: #262626; stroke-width: 1.25"/>
      </g>
     </g>
     <g id="text_54">
      <!-- 12h -->
      <g style="fill: #262626" transform="translate(451.583698 832.154141) scale(0.11 -0.11)">
       <use xlink:href="#ArialMT-31"/>
       <use xlink:href="#ArialMT-32" transform="translate(55.615234 0)"/>
       <use xlink:href="#ArialMT-68" transform="translate(111.230469 0)"/>
      </g>
     </g>
    </g>
    <g id="xtick_19">
     <g id="line2d_67">
      <g>
       <use xlink:href="#m380ffdcf14" x="650.826439" y="814.780547" style="fill: #262626; stroke: #262626; stroke-width: 1.25"/>
      </g>
     </g>
     <g id="text_55">
      <!-- 18h -->
      <g style="fill: #262626" transform="translate(641.650892 832.154141) scale(0.11 -0.11)">
       <use xlink:href="#ArialMT-31"/>
       <use xlink:href="#ArialMT-38" transform="translate(55.615234 0)"/>
       <use xlink:href="#ArialMT-68" transform="translate(111.230469 0)"/>
      </g>
     </g>
    </g>
    <g id="xtick_20">
     <g id="line2d_68">
      <g>
       <use xlink:href="#m380ffdcf14" x="809.215767" y="814.780547" style="fill: #262626; stroke: #262626; stroke-width: 1.25"/>
      </g>
     </g>
     <g id="text_56">
      <!-- 23h -->
      <g style="fill: #262626" transform="translate(800.04022 832.154141) scale(0.11 -0.11)">
       <use xlink:href="#ArialMT-32"/>
       <use xlink:href="#ArialMT-33" transform="translate(55.615234 0)"/>
       <use xlink:href="#ArialMT-68" transform="translate(111.230469 0)"/>
      </g>
     </g>
    </g>
    <g id="text_57">
     <!-- Hour of the day -->
     <g style="fill: #262626" transform="translate(403.899062 847.076016) scale(0.12 -0.12)">
      <defs>
       <path id="ArialMT-48" d="M 513 0 
L 513 4581 
L 1119 4581 
L 1119 2700 
L 3500 2700 
L 3500 4581 
L 4106 4581 
L 4106 0 
L 3500 0 
L 3500 2159 
L 1119 2159 
L 1119 0 
L 513 0 
z
" transform="scale(0.015625)"/>
       <path id="ArialMT-75" d="M 2597 0 
L 2597 488 
Q 2209 -75 1544 -75 
Q 1250 -75 995 37 
Q 741 150 617 320 
Q 494 491 444 738 
Q 409 903 409 1263 
L 409 3319 
L 972 3319 
L 972 1478 
Q 972 1038 1006 884 
Q 1059 663 1231 536 
Q 1403 409 1656 409 
Q 1909 409 2131 539 
Q 2353 669 2445 892 
Q 2538 1116 2538 1541 
L 2538 3319 
L 3100 3319 
L 3100 0 
L 2597 0 
z
" transform="scale(0.015625)"/>
       <path id="ArialMT-72" d="M 416 0 
L 416 3319 
L 922 3319 
L 922 2816 
Q 1116 3169 1280 3281 
Q 1444 3394 1641 3394 
Q 1925 3394 2219 3213 
L 2025 2691 
Q 1819 2813 1613 2813 
Q 1428 2813 1281 2702 
Q 1134 2591 1072 2394 
Q 978 2094 978 1738 
L 978 0 
L 416 0 
z
" transform="scale(0.015625)"/>
       <path id="ArialMT-66" d="M 556 0 
L 556 2881 
L 59 2881 
L 59 3319 
L 556 3319 
L 556 3672 
Q 556 4006 616 4169 
Q 697 4388 901 4523 
Q 1106 4659 1475 4659 
Q 1713 4659 2000 4603 
L 1916 4113 
Q 1741 4144 1584 4144 
Q 1328 4144 1222 4034 
Q 1116 3925 1116 3625 
L 1116 3319 
L 1763 3319 
L 1763 2881 
L 1116 2881 
L 1116 0 
L 556 0 
z
" transform="scale(0.015625)"/>
       <path id="ArialMT-61" d="M 2588 409 
Q 2275 144 1986 34 
Q 1697 -75 1366 -75 
Q 819 -75 525 192 
Q 231 459 231 875 
Q 231 1119 342 1320 
Q 453 1522 633 1644 
Q 813 1766 1038 1828 
Q 1203 1872 1538 1913 
Q 2219 1994 2541 2106 
Q 2544 2222 2544 2253 
Q 2544 2597 2384 2738 
Q 2169 2928 1744 2928 
Q 1347 2928 1158 2789 
Q 969 2650 878 2297 
L 328 2372 
Q 403 2725 575 2942 
Q 747 3159 1072 3276 
Q 1397 3394 1825 3394 
Q 2250 3394 2515 3294 
Q 2781 3194 2906 3042 
Q 3031 2891 3081 2659 
Q 3109 2516 3109 2141 
L 3109 1391 
Q 3109 606 3145 398 
Q 3181 191 3288 0 
L 2700 0 
Q 2613 175 2588 409 
z
M 2541 1666 
Q 2234 1541 1622 1453 
Q 1275 1403 1131 1340 
Q 988 1278 909 1158 
Q 831 1038 831 891 
Q 831 666 1001 516 
Q 1172 366 1500 366 
Q 1825 366 2078 508 
Q 2331 650 2450 897 
Q 2541 1088 2541 1459 
L 2541 1666 
z
" transform="scale(0.015625)"/>
      </defs>
      <use xlink:href="#ArialMT-48"/>
      <use xlink:href="#ArialMT-6f" transform="translate(72.216797 0)"/>
      <use xlink:href="#ArialMT-75" transform="translate(127.832031 0)"/>
      <use xlink:href="#ArialMT-72" transform="translate(183.447266 0)"/>
      <use xlink:href="#ArialMT-20" transform="translate(216.748047 0)"/>
      <use xlink:href="#ArialMT-6f" transform="translate(244.53125 0)"/>
      <use xlink:href="#ArialMT-66" transform="translate(300.146484 0)"/>
      <use xlink:href="#ArialMT-20" transform="translate(327.929688 0)"/>
      <use xlink:href="#ArialMT-74" transform="translate(355.712891 0)"/>
      <use xlink:href="#ArialMT-68" transform="translate(383.496094 0)"/>
      <use xlink:href="#ArialMT-65" transform="translate(439.111328 0)"/>
      <use xlink:href="#ArialMT-20" transform="translate(494.726562 0)"/>
      <use xlink:href="#ArialMT-64" transform="translate(522.509766 0)"/>
      <use xlink:href="#ArialMT-61" transform="translate(578.125 0)"/>
      <use xlink:href="#ArialMT-79" transform="translate(633.740234 0)"/>
     </g>
    </g>
   </g>
   <g id="matplotlib.axis_8">
    <g id="ytick_28">
     <g id="line2d_69">
      <g>
       <use xlink:href="#m2709889f67" x="44.195313" y="814.780547" style="fill: #262626; stroke: #262626; stroke-width: 1.25"/>
      </g>
     </g>
     <g id="text_58">
      <!-- 10 -->
      <g style="fill: #262626" transform="translate(22.46125 818.717344) scale(0.11 -0.11)">
       <use xlink:href="#ArialMT-31"/>
       <use xlink:href="#ArialMT-30" transform="translate(55.615234 0)"/>
      </g>
     </g>
    </g>
    <g id="ytick_29">
     <g id="line2d_70">
      <g>
       <use xlink:href="#m2709889f67" x="44.195313" y="792.717305" style="fill: #262626; stroke: #262626; stroke-width: 1.25"/>
      </g>
     </g>
     <g id="text_59">
      <!-- 20 -->
      <g style="fill: #262626" transform="translate(22.46125 796.654102) scale(0.11 -0.11)">
       <use xlink:href="#ArialMT-32"/>
       <use xlink:href="#ArialMT-30" transform="translate(55.615234 0)"/>
      </g>
     </g>
    </g>
    <g id="ytick_30">
     <g id="line2d_71">
      <g>
       <use xlink:href="#m2709889f67" x="44.195313" y="770.654063" style="fill: #262626; stroke: #262626; stroke-width: 1.25"/>
      </g>
     </g>
     <g id="text_60">
      <!-- 30 -->
      <g style="fill: #262626" transform="translate(22.46125 774.590859) scale(0.11 -0.11)">
       <use xlink:href="#ArialMT-33"/>
       <use xlink:href="#ArialMT-30" transform="translate(55.615234 0)"/>
      </g>
     </g>
    </g>
    <g id="ytick_31">
     <g id="line2d_72">
      <g>
       <use xlink:href="#m2709889f67" x="44.195313" y="748.59082" style="fill: #262626; stroke: #262626; stroke-width: 1.25"/>
      </g>
     </g>
     <g id="text_61">
      <!-- 40 -->
      <g style="fill: #262626" transform="translate(22.46125 752.527617) scale(0.11 -0.11)">
       <use xlink:href="#ArialMT-34"/>
       <use xlink:href="#ArialMT-30" transform="translate(55.615234 0)"/>
      </g>
     </g>
    </g>
    <g id="ytick_32">
     <g id="line2d_73">
      <g>
       <use xlink:href="#m2709889f67" x="44.195313" y="726.527578" style="fill: #262626; stroke: #262626; stroke-width: 1.25"/>
      </g>
     </g>
     <g id="text_62">
      <!-- 50 -->
      <g style="fill: #262626" transform="translate(22.46125 730.464375) scale(0.11 -0.11)">
       <use xlink:href="#ArialMT-35"/>
       <use xlink:href="#ArialMT-30" transform="translate(55.615234 0)"/>
      </g>
     </g>
    </g>
    <g id="ytick_33">
     <g id="line2d_74">
      <g>
       <use xlink:href="#m2709889f67" x="44.195313" y="704.464336" style="fill: #262626; stroke: #262626; stroke-width: 1.25"/>
      </g>
     </g>
     <g id="text_63">
      <!-- 60 -->
      <g style="fill: #262626" transform="translate(22.46125 708.401133) scale(0.11 -0.11)">
       <use xlink:href="#ArialMT-36"/>
       <use xlink:href="#ArialMT-30" transform="translate(55.615234 0)"/>
      </g>
     </g>
    </g>
    <g id="ytick_34">
     <g id="line2d_75">
      <g>
       <use xlink:href="#m2709889f67" x="44.195313" y="682.401094" style="fill: #262626; stroke: #262626; stroke-width: 1.25"/>
      </g>
     </g>
     <g id="text_64">
      <!-- 70 -->
      <g style="fill: #262626" transform="translate(22.46125 686.337891) scale(0.11 -0.11)">
       <use xlink:href="#ArialMT-37"/>
       <use xlink:href="#ArialMT-30" transform="translate(55.615234 0)"/>
      </g>
     </g>
    </g>
    <g id="ytick_35">
     <g id="line2d_76">
      <g>
       <use xlink:href="#m2709889f67" x="44.195313" y="660.337852" style="fill: #262626; stroke: #262626; stroke-width: 1.25"/>
      </g>
     </g>
     <g id="text_65">
      <!-- 80 -->
      <g style="fill: #262626" transform="translate(22.46125 664.274648) scale(0.11 -0.11)">
       <use xlink:href="#ArialMT-38"/>
       <use xlink:href="#ArialMT-30" transform="translate(55.615234 0)"/>
      </g>
     </g>
    </g>
    <g id="ytick_36">
     <g id="line2d_77">
      <g>
       <use xlink:href="#m2709889f67" x="44.195313" y="638.274609" style="fill: #262626; stroke: #262626; stroke-width: 1.25"/>
      </g>
     </g>
     <g id="text_66">
      <!-- 90 -->
      <g style="fill: #262626" transform="translate(22.46125 642.211406) scale(0.11 -0.11)">
       <use xlink:href="#ArialMT-39"/>
       <use xlink:href="#ArialMT-30" transform="translate(55.615234 0)"/>
      </g>
     </g>
    </g>
    <g id="text_67">
     <!-- MAE (€/MWh) -->
     <g style="fill: #262626" transform="translate(15.935625 764.193516) rotate(-90) scale(0.12 -0.12)">
      <use xlink:href="#ArialMT-4d"/>
      <use xlink:href="#ArialMT-41" transform="translate(83.300781 0)"/>
      <use xlink:href="#ArialMT-45" transform="translate(150 0)"/>
      <use xlink:href="#ArialMT-20" transform="translate(216.699219 0)"/>
      <use xlink:href="#ArialMT-28" transform="translate(244.482422 0)"/>
      <use xlink:href="#ArialMT-20ac" transform="translate(277.783203 0)"/>
      <use xlink:href="#ArialMT-2f" transform="translate(333.398438 0)"/>
      <use xlink:href="#ArialMT-4d" transform="translate(361.181641 0)"/>
      <use xlink:href="#ArialMT-57" transform="translate(444.482422 0)"/>
      <use xlink:href="#ArialMT-68" transform="translate(538.867188 0)"/>
      <use xlink:href="#ArialMT-29" transform="translate(594.482422 0)"/>
     </g>
    </g>
   </g>
   <g id="FillBetweenPolyCollection_10">
    <defs>
     <path id="m0e2bb037a7" d="M 80.624858 -107.141614 
L 80.624858 -100.960489 
L 112.302724 -100.704376 
L 143.980589 -100.826463 
L 175.658455 -100.853622 
L 207.33632 -99.880885 
L 239.014186 -106.093561 
L 270.692052 -117.496333 
L 302.369917 -134.859545 
L 334.047783 -128.224043 
L 365.725648 -113.024016 
L 397.403514 -106.613054 
L 429.08138 -97.505003 
L 460.759245 -97.124297 
L 492.437111 -102.469404 
L 524.114977 -120.248395 
L 555.792842 -140.703392 
L 587.470708 -157.79579 
L 619.148573 -140.215374 
L 650.826439 -126.672113 
L 682.504305 -111.505087 
L 714.18217 -106.55956 
L 745.860036 -103.937377 
L 777.537901 -101.956514 
L 809.215767 -101.151183 
L 809.215767 -107.310713 
L 809.215767 -107.310713 
L 777.537901 -107.699004 
L 745.860036 -109.509323 
L 714.18217 -111.940469 
L 682.504305 -116.544753 
L 650.826439 -133.224964 
L 619.148573 -148.144466 
L 587.470708 -169.457249 
L 555.792842 -150.849045 
L 524.114977 -127.794833 
L 492.437111 -108.760756 
L 460.759245 -103.246294 
L 429.08138 -103.630233 
L 397.403514 -112.509904 
L 365.725648 -119.70348 
L 334.047783 -135.946369 
L 302.369917 -143.175048 
L 270.692052 -125.978858 
L 239.014186 -111.700015 
L 207.33632 -106.215288 
L 175.658455 -107.6508 
L 143.980589 -107.839332 
L 112.302724 -107.678617 
L 80.624858 -107.141614 
z
" style="stroke: #840853; stroke-opacity: 0.2"/>
    </defs>
    <g clip-path="url(#p616ce05c4b)">
     <use xlink:href="#m0e2bb037a7" x="0" y="856.801641" style="fill: #840853; fill-opacity: 0.2; stroke: #840853; stroke-opacity: 0.2"/>
    </g>
   </g>
   <g id="FillBetweenPolyCollection_11">
    <defs>
     <path id="m2784cbb208" d="M 80.624858 -87.409059 
L 80.624858 -81.707228 
L 112.302724 -82.186037 
L 143.980589 -82.442982 
L 175.658455 -82.584402 
L 207.33632 -80.588181 
L 239.014186 -86.536987 
L 270.692052 -104.637709 
L 302.369917 -122.750981 
L 334.047783 -116.371117 
L 365.725648 -100.570906 
L 397.403514 -93.579402 
L 429.08138 -84.662689 
L 460.759245 -84.27987 
L 492.437111 -89.614126 
L 524.114977 -107.586624 
L 555.792842 -126.803422 
L 587.470708 -144.499671 
L 619.148573 -126.319554 
L 650.826439 -112.734242 
L 682.504305 -93.48041 
L 714.18217 -87.503668 
L 745.860036 -84.371846 
L 777.537901 -81.421538 
L 809.215767 -81.079169 
L 809.215767 -86.7049 
L 809.215767 -86.7049 
L 777.537901 -86.061741 
L 745.860036 -88.993556 
L 714.18217 -92.178586 
L 682.504305 -97.500846 
L 650.826439 -118.41508 
L 619.148573 -133.53707 
L 587.470708 -155.428559 
L 555.792842 -136.743251 
L 524.114977 -114.939547 
L 492.437111 -94.993342 
L 460.759245 -89.23512 
L 429.08138 -89.531557 
L 397.403514 -98.739232 
L 365.725648 -106.386906 
L 334.047783 -123.747144 
L 302.369917 -130.098355 
L 270.692052 -112.10264 
L 239.014186 -91.026377 
L 207.33632 -86.086811 
L 175.658455 -88.476897 
L 143.980589 -88.421008 
L 112.302724 -88.051233 
L 80.624858 -87.409059 
z
" style="stroke: #3a609c; stroke-opacity: 0.2"/>
    </defs>
    <g clip-path="url(#p616ce05c4b)">
     <use xlink:href="#m2784cbb208" x="0" y="856.801641" style="fill: #3a609c; fill-opacity: 0.2; stroke: #3a609c; stroke-opacity: 0.2"/>
    </g>
   </g>
   <g id="FillBetweenPolyCollection_12">
    <defs>
     <path id="m7fa03b1fdc" d="M 80.624858 -78.832028 
L 80.624858 -72.488814 
L 112.302724 -75.345579 
L 143.980589 -76.151425 
L 175.658455 -74.106613 
L 207.33632 -68.589919 
L 239.014186 -65.428923 
L 270.692052 -74.294587 
L 302.369917 -90.819003 
L 334.047783 -84.265531 
L 365.725648 -69.410045 
L 397.403514 -63.798294 
L 429.08138 -60.784092 
L 460.759245 -63.572538 
L 492.437111 -64.467397 
L 524.114977 -76.172069 
L 555.792842 -93.305196 
L 587.470708 -111.080323 
L 619.148573 -94.550375 
L 650.826439 -79.607954 
L 682.504305 -62.6408 
L 714.18217 -56.316159 
L 745.860036 -54.912281 
L 777.537901 -60.524247 
L 809.215767 -66.481773 
L 809.215767 -72.18665 
L 809.215767 -72.18665 
L 777.537901 -65.861979 
L 745.860036 -59.975919 
L 714.18217 -60.867172 
L 682.504305 -66.69583 
L 650.826439 -85.843018 
L 619.148573 -102.249558 
L 587.470708 -123.073526 
L 555.792842 -104.102311 
L 524.114977 -83.924227 
L 492.437111 -70.301048 
L 460.759245 -68.621393 
L 429.08138 -65.888129 
L 397.403514 -69.366261 
L 365.725648 -76.082422 
L 334.047783 -92.004577 
L 302.369917 -99.429753 
L 270.692052 -82.086687 
L 239.014186 -70.678486 
L 207.33632 -74.290206 
L 175.658455 -80.166904 
L 143.980589 -82.658672 
L 112.302724 -81.654323 
L 80.624858 -78.832028 
z
" style="stroke: #ffb14e; stroke-opacity: 0.2"/>
    </defs>
    <g clip-path="url(#p616ce05c4b)">
     <use xlink:href="#m7fa03b1fdc" x="0" y="856.801641" style="fill: #ffb14e; fill-opacity: 0.2; stroke: #ffb14e; stroke-opacity: 0.2"/>
    </g>
   </g>
   <g id="line2d_78">
    <path d="M 80.624858 752.66057 
L 112.302724 752.703742 
L 143.980589 752.618457 
L 175.658455 752.595153 
L 207.33632 753.730298 
L 239.014186 747.874301 
L 270.692052 735.053979 
L 302.369917 717.969362 
L 334.047783 724.716545 
L 365.725648 740.539943 
L 397.403514 747.195584 
L 429.08138 756.345182 
L 460.759245 756.464004 
L 492.437111 751.268995 
L 524.114977 732.792005 
L 555.792842 711.237899 
L 587.470708 693.476207 
L 619.148573 712.681607 
L 650.826439 726.996868 
L 682.504305 742.781929 
L 714.18217 747.447374 
L 745.860036 750.174973 
L 777.537901 751.937388 
L 809.215767 752.585239 
" clip-path="url(#p616ce05c4b)" style="fill: none; stroke: #840853; stroke-width: 1.5; stroke-linecap: round"/>
   </g>
   <g id="line2d_79">
    <path d="M 80.624858 772.14676 
L 112.302724 771.778781 
L 143.980589 771.288424 
L 175.658455 771.3243 
L 207.33632 773.530392 
L 239.014186 768.149254 
L 270.692052 748.445936 
L 302.369917 730.418159 
L 334.047783 736.920635 
L 365.725648 753.501997 
L 397.403514 760.68608 
L 429.08138 769.780601 
L 460.759245 770.110883 
L 492.437111 764.59841 
L 524.114977 745.494878 
L 555.792842 724.834124 
L 587.470708 706.767735 
L 619.148573 726.794051 
L 650.826439 741.29484 
L 682.504305 761.348264 
L 714.18217 766.884323 
L 745.860036 770.202981 
L 777.537901 772.987067 
L 809.215767 773.010356 
" clip-path="url(#p616ce05c4b)" style="fill: none; stroke: #3a609c; stroke-width: 1.5; stroke-linecap: round"/>
   </g>
   <g id="line2d_80">
    <path d="M 80.624858 781.085904 
L 112.302724 778.546432 
L 143.980589 777.60102 
L 175.658455 779.600409 
L 207.33632 785.424603 
L 239.014186 788.923522 
L 270.692052 778.746578 
L 302.369917 761.834815 
L 334.047783 768.942575 
L 365.725648 784.226125 
L 397.403514 790.324166 
L 429.08138 793.528857 
L 460.759245 790.825479 
L 492.437111 789.40088 
L 524.114977 776.861166 
L 555.792842 758.022964 
L 587.470708 739.804733 
L 619.148573 758.438175 
L 650.826439 774.128783 
L 682.504305 792.051993 
L 714.18217 798.20348 
L 745.860036 799.314957 
L 777.537901 793.650655 
L 809.215767 787.557827 
" clip-path="url(#p616ce05c4b)" style="fill: none; stroke: #ffb14e; stroke-width: 1.5; stroke-linecap: round"/>
   </g>
   <g id="line2d_81"/>
   <g id="line2d_82"/>
   <g id="line2d_83"/>
   <g id="patch_19">
    <path d="M 44.195313 814.780547 
L 44.195313 638.274609 
" style="fill: none; stroke: #262626; stroke-width: 1.25; stroke-linejoin: miter; stroke-linecap: square"/>
   </g>
   <g id="patch_20">
    <path d="M 845.645312 814.780547 
L 845.645312 638.274609 
" style="fill: none; stroke: #262626; stroke-width: 1.25; stroke-linejoin: miter; stroke-linecap: square"/>
   </g>
   <g id="patch_21">
    <path d="M 44.195313 814.780547 
L 845.645312 814.780547 
" style="fill: none; stroke: #262626; stroke-width: 1.25; stroke-linejoin: miter; stroke-linecap: square"/>
   </g>
   <g id="patch_22">
    <path d="M 44.195313 638.274609 
L 845.645312 638.274609 
" style="fill: none; stroke: #262626; stroke-width: 1.25; stroke-linejoin: miter; stroke-linecap: square"/>
   </g>
   <g id="text_68">
    <!-- Winter -->
    <g style="fill: #262626" transform="translate(426.308125 655.689281) scale(0.12 -0.12)">
     <defs>
      <path id="Arial-BoldMT-57" d="M 1116 0 
L 22 4581 
L 969 4581 
L 1659 1434 
L 2497 4581 
L 3597 4581 
L 4400 1381 
L 5103 4581 
L 6034 4581 
L 4922 0 
L 3941 0 
L 3028 3425 
L 2119 0 
L 1116 0 
z
" transform="scale(0.015625)"/>
     </defs>
     <use xlink:href="#Arial-BoldMT-57"/>
     <use xlink:href="#Arial-BoldMT-69" transform="translate(93.509766 0)"/>
     <use xlink:href="#Arial-BoldMT-6e" transform="translate(121.292969 0)"/>
     <use xlink:href="#Arial-BoldMT-74" transform="translate(182.376953 0)"/>
     <use xlink:href="#Arial-BoldMT-65" transform="translate(215.677734 0)"/>
     <use xlink:href="#Arial-BoldMT-72" transform="translate(271.292969 0)"/>
    </g>
   </g>
  </g>
 </g>
 <defs>
  <clipPath id="p374cf59e74">
   <rect x="44.195313" y="11.136797" width="801.45" height="176.505937"/>
  </clipPath>
  <clipPath id="p19b509bb57">
   <rect x="44.195313" y="220.182734" width="801.45" height="176.505937"/>
  </clipPath>
  <clipPath id="pc5965710ec">
   <rect x="44.195313" y="429.228672" width="801.45" height="176.505937"/>
  </clipPath>
  <clipPath id="p616ce05c4b">
   <rect x="44.195313" y="638.274609" width="801.45" height="176.505937"/>
  </clipPath>
 </defs>
</svg>
