<?xml version="1.0" encoding="utf-8" standalone="no"?>
<!DOCTYPE svg PUBLIC "-//W3C//DTD SVG 1.1//EN"
  "http://www.w3.org/Graphics/SVG/1.1/DTD/svg11.dtd">
<svg xmlns:xlink="http://www.w3.org/1999/xlink" width="729.881406pt" height="270.981094pt" viewBox="0 0 729.881406 270.981094" xmlns="http://www.w3.org/2000/svg" version="1.1">
 <metadata>
  <rdf:RDF xmlns:dc="http://purl.org/dc/elements/1.1/" xmlns:cc="http://creativecommons.org/ns#" xmlns:rdf="http://www.w3.org/1999/02/22-rdf-syntax-ns#">
   <cc:Work>
    <dc:type rdf:resource="http://purl.org/dc/dcmitype/StillImage"/>
    <dc:date>2025-05-25T12:31:25.314790</dc:date>
    <dc:format>image/svg+xml</dc:format>
    <dc:creator>
     <cc:Agent>
      <dc:title>Matplotlib v3.10.1, https://matplotlib.org/</dc:title>
     </cc:Agent>
    </dc:creator>
   </cc:Work>
  </rdf:RDF>
 </metadata>
 <defs>
  <style type="text/css">*{stroke-linejoin: round; stroke-linecap: butt}</style>
 </defs>
 <g id="figure_1">
  <g id="patch_1">
   <path d="M 0 270.981094 
L 729.881406 270.981094 
L 729.881406 0 
L 0 0 
z
" style="fill: #ffffff"/>
  </g>
  <g id="axes_1">
   <g id="patch_2">
    <path d="M 53.081406 228.96 
L 722.681406 228.96 
L 722.681406 7.2 
L 53.081406 7.2 
z
" style="fill: #ffffff"/>
   </g>
   <g id="matplotlib.axis_1">
    <g id="xtick_1">
     <g id="line2d_1">
      <defs>
       <path id="m2f523fff98" d="M 0 0 
L 0 6 
" style="stroke: #262626; stroke-width: 1.25"/>
      </defs>
      <g>
       <use xlink:href="#m2f523fff98" x="83.51777" y="228.96" style="fill: #262626; stroke: #262626; stroke-width: 1.25"/>
      </g>
     </g>
     <g id="text_1">
      <!-- 1 -->
      <g style="fill: #262626" transform="translate(80.459254 246.333594) scale(0.11 -0.11)">
       <defs>
        <path id="ArialMT-31" d="M 2384 0 
L 1822 0 
L 1822 3584 
Q 1619 3391 1289 3197 
Q 959 3003 697 2906 
L 697 3450 
Q 1169 3672 1522 3987 
Q 1875 4303 2022 4600 
L 2384 4600 
L 2384 0 
z
" transform="scale(0.015625)"/>
       </defs>
       <use xlink:href="#ArialMT-31"/>
      </g>
     </g>
    </g>
    <g id="xtick_2">
     <g id="line2d_2">
      <g>
       <use xlink:href="#m2f523fff98" x="111.187191" y="228.96" style="fill: #262626; stroke: #262626; stroke-width: 1.25"/>
      </g>
     </g>
     <g id="text_2">
      <!-- 2 -->
      <g style="fill: #262626" transform="translate(108.128676 246.333594) scale(0.11 -0.11)">
       <defs>
        <path id="ArialMT-32" d="M 3222 541 
L 3222 0 
L 194 0 
Q 188 203 259 391 
Q 375 700 629 1000 
Q 884 1300 1366 1694 
Q 2113 2306 2375 2664 
Q 2638 3022 2638 3341 
Q 2638 3675 2398 3904 
Q 2159 4134 1775 4134 
Q 1369 4134 1125 3890 
Q 881 3647 878 3216 
L 300 3275 
Q 359 3922 746 4261 
Q 1134 4600 1788 4600 
Q 2447 4600 2831 4234 
Q 3216 3869 3216 3328 
Q 3216 3053 3103 2787 
Q 2991 2522 2730 2228 
Q 2469 1934 1863 1422 
Q 1356 997 1212 845 
Q 1069 694 975 541 
L 3222 541 
z
" transform="scale(0.015625)"/>
       </defs>
       <use xlink:href="#ArialMT-32"/>
      </g>
     </g>
    </g>
    <g id="xtick_3">
     <g id="line2d_3">
      <g>
       <use xlink:href="#m2f523fff98" x="138.856613" y="228.96" style="fill: #262626; stroke: #262626; stroke-width: 1.25"/>
      </g>
     </g>
     <g id="text_3">
      <!-- 3 -->
      <g style="fill: #262626" transform="translate(135.798097 246.333594) scale(0.11 -0.11)">
       <defs>
        <path id="ArialMT-33" d="M 269 1209 
L 831 1284 
Q 928 806 1161 595 
Q 1394 384 1728 384 
Q 2125 384 2398 659 
Q 2672 934 2672 1341 
Q 2672 1728 2419 1979 
Q 2166 2231 1775 2231 
Q 1616 2231 1378 2169 
L 1441 2663 
Q 1497 2656 1531 2656 
Q 1891 2656 2178 2843 
Q 2466 3031 2466 3422 
Q 2466 3731 2256 3934 
Q 2047 4138 1716 4138 
Q 1388 4138 1169 3931 
Q 950 3725 888 3313 
L 325 3413 
Q 428 3978 793 4289 
Q 1159 4600 1703 4600 
Q 2078 4600 2393 4439 
Q 2709 4278 2876 4000 
Q 3044 3722 3044 3409 
Q 3044 3113 2884 2869 
Q 2725 2625 2413 2481 
Q 2819 2388 3044 2092 
Q 3269 1797 3269 1353 
Q 3269 753 2831 336 
Q 2394 -81 1725 -81 
Q 1122 -81 723 278 
Q 325 638 269 1209 
z
" transform="scale(0.015625)"/>
       </defs>
       <use xlink:href="#ArialMT-33"/>
      </g>
     </g>
    </g>
    <g id="xtick_4">
     <g id="line2d_4">
      <g>
       <use xlink:href="#m2f523fff98" x="166.526034" y="228.96" style="fill: #262626; stroke: #262626; stroke-width: 1.25"/>
      </g>
     </g>
     <g id="text_4">
      <!-- 4 -->
      <g style="fill: #262626" transform="translate(163.467519 246.333594) scale(0.11 -0.11)">
       <defs>
        <path id="ArialMT-34" d="M 2069 0 
L 2069 1097 
L 81 1097 
L 81 1613 
L 2172 4581 
L 2631 4581 
L 2631 1613 
L 3250 1613 
L 3250 1097 
L 2631 1097 
L 2631 0 
L 2069 0 
z
M 2069 1613 
L 2069 3678 
L 634 1613 
L 2069 1613 
z
" transform="scale(0.015625)"/>
       </defs>
       <use xlink:href="#ArialMT-34"/>
      </g>
     </g>
    </g>
    <g id="xtick_5">
     <g id="line2d_5">
      <g>
       <use xlink:href="#m2f523fff98" x="194.195456" y="228.96" style="fill: #262626; stroke: #262626; stroke-width: 1.25"/>
      </g>
     </g>
     <g id="text_5">
      <!-- 5 -->
      <g style="fill: #262626" transform="translate(191.13694 246.333594) scale(0.11 -0.11)">
       <defs>
        <path id="ArialMT-35" d="M 266 1200 
L 856 1250 
Q 922 819 1161 601 
Q 1400 384 1738 384 
Q 2144 384 2425 690 
Q 2706 997 2706 1503 
Q 2706 1984 2436 2262 
Q 2166 2541 1728 2541 
Q 1456 2541 1237 2417 
Q 1019 2294 894 2097 
L 366 2166 
L 809 4519 
L 3088 4519 
L 3088 3981 
L 1259 3981 
L 1013 2750 
Q 1425 3038 1878 3038 
Q 2478 3038 2890 2622 
Q 3303 2206 3303 1553 
Q 3303 931 2941 478 
Q 2500 -78 1738 -78 
Q 1113 -78 717 272 
Q 322 622 266 1200 
z
" transform="scale(0.015625)"/>
       </defs>
       <use xlink:href="#ArialMT-35"/>
      </g>
     </g>
    </g>
    <g id="xtick_6">
     <g id="line2d_6">
      <g>
       <use xlink:href="#m2f523fff98" x="221.864877" y="228.96" style="fill: #262626; stroke: #262626; stroke-width: 1.25"/>
      </g>
     </g>
     <g id="text_6">
      <!-- 6 -->
      <g style="fill: #262626" transform="translate(218.806362 246.333594) scale(0.11 -0.11)">
       <defs>
        <path id="ArialMT-36" d="M 3184 3459 
L 2625 3416 
Q 2550 3747 2413 3897 
Q 2184 4138 1850 4138 
Q 1581 4138 1378 3988 
Q 1113 3794 959 3422 
Q 806 3050 800 2363 
Q 1003 2672 1297 2822 
Q 1591 2972 1913 2972 
Q 2475 2972 2870 2558 
Q 3266 2144 3266 1488 
Q 3266 1056 3080 686 
Q 2894 316 2569 119 
Q 2244 -78 1831 -78 
Q 1128 -78 684 439 
Q 241 956 241 2144 
Q 241 3472 731 4075 
Q 1159 4600 1884 4600 
Q 2425 4600 2770 4297 
Q 3116 3994 3184 3459 
z
M 888 1484 
Q 888 1194 1011 928 
Q 1134 663 1356 523 
Q 1578 384 1822 384 
Q 2178 384 2434 671 
Q 2691 959 2691 1453 
Q 2691 1928 2437 2201 
Q 2184 2475 1800 2475 
Q 1419 2475 1153 2201 
Q 888 1928 888 1484 
z
" transform="scale(0.015625)"/>
       </defs>
       <use xlink:href="#ArialMT-36"/>
      </g>
     </g>
    </g>
    <g id="xtick_7">
     <g id="line2d_7">
      <g>
       <use xlink:href="#m2f523fff98" x="249.534299" y="228.96" style="fill: #262626; stroke: #262626; stroke-width: 1.25"/>
      </g>
     </g>
     <g id="text_7">
      <!-- 7 -->
      <g style="fill: #262626" transform="translate(246.475783 246.333594) scale(0.11 -0.11)">
       <defs>
        <path id="ArialMT-37" d="M 303 3981 
L 303 4522 
L 3269 4522 
L 3269 4084 
Q 2831 3619 2401 2847 
Q 1972 2075 1738 1259 
Q 1569 684 1522 0 
L 944 0 
Q 953 541 1156 1306 
Q 1359 2072 1739 2783 
Q 2119 3494 2547 3981 
L 303 3981 
z
" transform="scale(0.015625)"/>
       </defs>
       <use xlink:href="#ArialMT-37"/>
      </g>
     </g>
    </g>
    <g id="xtick_8">
     <g id="line2d_8">
      <g>
       <use xlink:href="#m2f523fff98" x="277.20372" y="228.96" style="fill: #262626; stroke: #262626; stroke-width: 1.25"/>
      </g>
     </g>
     <g id="text_8">
      <!-- 8 -->
      <g style="fill: #262626" transform="translate(274.145205 246.333594) scale(0.11 -0.11)">
       <defs>
        <path id="ArialMT-38" d="M 1131 2484 
Q 781 2613 612 2850 
Q 444 3088 444 3419 
Q 444 3919 803 4259 
Q 1163 4600 1759 4600 
Q 2359 4600 2725 4251 
Q 3091 3903 3091 3403 
Q 3091 3084 2923 2848 
Q 2756 2613 2416 2484 
Q 2838 2347 3058 2040 
Q 3278 1734 3278 1309 
Q 3278 722 2862 322 
Q 2447 -78 1769 -78 
Q 1091 -78 675 323 
Q 259 725 259 1325 
Q 259 1772 486 2073 
Q 713 2375 1131 2484 
z
M 1019 3438 
Q 1019 3113 1228 2906 
Q 1438 2700 1772 2700 
Q 2097 2700 2305 2904 
Q 2513 3109 2513 3406 
Q 2513 3716 2298 3927 
Q 2084 4138 1766 4138 
Q 1444 4138 1231 3931 
Q 1019 3725 1019 3438 
z
M 838 1322 
Q 838 1081 952 856 
Q 1066 631 1291 507 
Q 1516 384 1775 384 
Q 2178 384 2440 643 
Q 2703 903 2703 1303 
Q 2703 1709 2433 1975 
Q 2163 2241 1756 2241 
Q 1359 2241 1098 1978 
Q 838 1716 838 1322 
z
" transform="scale(0.015625)"/>
       </defs>
       <use xlink:href="#ArialMT-38"/>
      </g>
     </g>
    </g>
    <g id="xtick_9">
     <g id="line2d_9">
      <g>
       <use xlink:href="#m2f523fff98" x="304.873142" y="228.96" style="fill: #262626; stroke: #262626; stroke-width: 1.25"/>
      </g>
     </g>
     <g id="text_9">
      <!-- 9 -->
      <g style="fill: #262626" transform="translate(301.814626 246.333594) scale(0.11 -0.11)">
       <defs>
        <path id="ArialMT-39" d="M 350 1059 
L 891 1109 
Q 959 728 1153 556 
Q 1347 384 1650 384 
Q 1909 384 2104 503 
Q 2300 622 2425 820 
Q 2550 1019 2634 1356 
Q 2719 1694 2719 2044 
Q 2719 2081 2716 2156 
Q 2547 1888 2255 1720 
Q 1963 1553 1622 1553 
Q 1053 1553 659 1965 
Q 266 2378 266 3053 
Q 266 3750 677 4175 
Q 1088 4600 1706 4600 
Q 2153 4600 2523 4359 
Q 2894 4119 3086 3673 
Q 3278 3228 3278 2384 
Q 3278 1506 3087 986 
Q 2897 466 2520 194 
Q 2144 -78 1638 -78 
Q 1100 -78 759 220 
Q 419 519 350 1059 
z
M 2653 3081 
Q 2653 3566 2395 3850 
Q 2138 4134 1775 4134 
Q 1400 4134 1122 3828 
Q 844 3522 844 3034 
Q 844 2597 1108 2323 
Q 1372 2050 1759 2050 
Q 2150 2050 2401 2323 
Q 2653 2597 2653 3081 
z
" transform="scale(0.015625)"/>
       </defs>
       <use xlink:href="#ArialMT-39"/>
      </g>
     </g>
    </g>
    <g id="xtick_10">
     <g id="line2d_10">
      <g>
       <use xlink:href="#m2f523fff98" x="332.542563" y="228.96" style="fill: #262626; stroke: #262626; stroke-width: 1.25"/>
      </g>
     </g>
     <g id="text_10">
      <!-- 10 -->
      <g style="fill: #262626" transform="translate(326.425532 246.333594) scale(0.11 -0.11)">
       <defs>
        <path id="ArialMT-30" d="M 266 2259 
Q 266 3072 433 3567 
Q 600 4063 929 4331 
Q 1259 4600 1759 4600 
Q 2128 4600 2406 4451 
Q 2684 4303 2865 4023 
Q 3047 3744 3150 3342 
Q 3253 2941 3253 2259 
Q 3253 1453 3087 958 
Q 2922 463 2592 192 
Q 2263 -78 1759 -78 
Q 1097 -78 719 397 
Q 266 969 266 2259 
z
M 844 2259 
Q 844 1131 1108 757 
Q 1372 384 1759 384 
Q 2147 384 2411 759 
Q 2675 1134 2675 2259 
Q 2675 3391 2411 3762 
Q 2147 4134 1753 4134 
Q 1366 4134 1134 3806 
Q 844 3388 844 2259 
z
" transform="scale(0.015625)"/>
       </defs>
       <use xlink:href="#ArialMT-31"/>
       <use xlink:href="#ArialMT-30" transform="translate(55.615234 0)"/>
      </g>
     </g>
    </g>
    <g id="xtick_11">
     <g id="line2d_11">
      <g>
       <use xlink:href="#m2f523fff98" x="360.211985" y="228.96" style="fill: #262626; stroke: #262626; stroke-width: 1.25"/>
      </g>
     </g>
     <g id="text_11">
      <!-- 11 -->
      <g style="fill: #262626" transform="translate(354.500579 246.333594) scale(0.11 -0.11)">
       <use xlink:href="#ArialMT-31"/>
       <use xlink:href="#ArialMT-31" transform="translate(48.240234 0)"/>
      </g>
     </g>
    </g>
    <g id="xtick_12">
     <g id="line2d_12">
      <g>
       <use xlink:href="#m2f523fff98" x="387.881406" y="228.96" style="fill: #262626; stroke: #262626; stroke-width: 1.25"/>
      </g>
     </g>
     <g id="text_12">
      <!-- 12 -->
      <g style="fill: #262626" transform="translate(381.764375 246.333594) scale(0.11 -0.11)">
       <use xlink:href="#ArialMT-31"/>
       <use xlink:href="#ArialMT-32" transform="translate(55.615234 0)"/>
      </g>
     </g>
    </g>
    <g id="xtick_13">
     <g id="line2d_13">
      <g>
       <use xlink:href="#m2f523fff98" x="415.550828" y="228.96" style="fill: #262626; stroke: #262626; stroke-width: 1.25"/>
      </g>
     </g>
     <g id="text_13">
      <!-- 13 -->
      <g style="fill: #262626" transform="translate(409.433796 246.333594) scale(0.11 -0.11)">
       <use xlink:href="#ArialMT-31"/>
       <use xlink:href="#ArialMT-33" transform="translate(55.615234 0)"/>
      </g>
     </g>
    </g>
    <g id="xtick_14">
     <g id="line2d_14">
      <g>
       <use xlink:href="#m2f523fff98" x="443.220249" y="228.96" style="fill: #262626; stroke: #262626; stroke-width: 1.25"/>
      </g>
     </g>
     <g id="text_14">
      <!-- 14 -->
      <g style="fill: #262626" transform="translate(437.103218 246.333594) scale(0.11 -0.11)">
       <use xlink:href="#ArialMT-31"/>
       <use xlink:href="#ArialMT-34" transform="translate(55.615234 0)"/>
      </g>
     </g>
    </g>
    <g id="xtick_15">
     <g id="line2d_15">
      <g>
       <use xlink:href="#m2f523fff98" x="470.889671" y="228.96" style="fill: #262626; stroke: #262626; stroke-width: 1.25"/>
      </g>
     </g>
     <g id="text_15">
      <!-- 15 -->
      <g style="fill: #262626" transform="translate(464.772639 246.333594) scale(0.11 -0.11)">
       <use xlink:href="#ArialMT-31"/>
       <use xlink:href="#ArialMT-35" transform="translate(55.615234 0)"/>
      </g>
     </g>
    </g>
    <g id="xtick_16">
     <g id="line2d_16">
      <g>
       <use xlink:href="#m2f523fff98" x="498.559092" y="228.96" style="fill: #262626; stroke: #262626; stroke-width: 1.25"/>
      </g>
     </g>
     <g id="text_16">
      <!-- 16 -->
      <g style="fill: #262626" transform="translate(492.442061 246.333594) scale(0.11 -0.11)">
       <use xlink:href="#ArialMT-31"/>
       <use xlink:href="#ArialMT-36" transform="translate(55.615234 0)"/>
      </g>
     </g>
    </g>
    <g id="xtick_17">
     <g id="line2d_17">
      <g>
       <use xlink:href="#m2f523fff98" x="526.228514" y="228.96" style="fill: #262626; stroke: #262626; stroke-width: 1.25"/>
      </g>
     </g>
     <g id="text_17">
      <!-- 17 -->
      <g style="fill: #262626" transform="translate(520.111482 246.333594) scale(0.11 -0.11)">
       <use xlink:href="#ArialMT-31"/>
       <use xlink:href="#ArialMT-37" transform="translate(55.615234 0)"/>
      </g>
     </g>
    </g>
    <g id="xtick_18">
     <g id="line2d_18">
      <g>
       <use xlink:href="#m2f523fff98" x="553.897935" y="228.96" style="fill: #262626; stroke: #262626; stroke-width: 1.25"/>
      </g>
     </g>
     <g id="text_18">
      <!-- 18 -->
      <g style="fill: #262626" transform="translate(547.780904 246.333594) scale(0.11 -0.11)">
       <use xlink:href="#ArialMT-31"/>
       <use xlink:href="#ArialMT-38" transform="translate(55.615234 0)"/>
      </g>
     </g>
    </g>
    <g id="xtick_19">
     <g id="line2d_19">
      <g>
       <use xlink:href="#m2f523fff98" x="581.567357" y="228.96" style="fill: #262626; stroke: #262626; stroke-width: 1.25"/>
      </g>
     </g>
     <g id="text_19">
      <!-- 19 -->
      <g style="fill: #262626" transform="translate(575.450325 246.333594) scale(0.11 -0.11)">
       <use xlink:href="#ArialMT-31"/>
       <use xlink:href="#ArialMT-39" transform="translate(55.615234 0)"/>
      </g>
     </g>
    </g>
    <g id="xtick_20">
     <g id="line2d_20">
      <g>
       <use xlink:href="#m2f523fff98" x="609.236778" y="228.96" style="fill: #262626; stroke: #262626; stroke-width: 1.25"/>
      </g>
     </g>
     <g id="text_20">
      <!-- 20 -->
      <g style="fill: #262626" transform="translate(603.119747 246.333594) scale(0.11 -0.11)">
       <use xlink:href="#ArialMT-32"/>
       <use xlink:href="#ArialMT-30" transform="translate(55.615234 0)"/>
      </g>
     </g>
    </g>
    <g id="xtick_21">
     <g id="line2d_21">
      <g>
       <use xlink:href="#m2f523fff98" x="636.9062" y="228.96" style="fill: #262626; stroke: #262626; stroke-width: 1.25"/>
      </g>
     </g>
     <g id="text_21">
      <!-- 21 -->
      <g style="fill: #262626" transform="translate(630.789168 246.333594) scale(0.11 -0.11)">
       <use xlink:href="#ArialMT-32"/>
       <use xlink:href="#ArialMT-31" transform="translate(55.615234 0)"/>
      </g>
     </g>
    </g>
    <g id="xtick_22">
     <g id="line2d_22">
      <g>
       <use xlink:href="#m2f523fff98" x="664.575621" y="228.96" style="fill: #262626; stroke: #262626; stroke-width: 1.25"/>
      </g>
     </g>
     <g id="text_22">
      <!-- 22 -->
      <g style="fill: #262626" transform="translate(658.45859 246.333594) scale(0.11 -0.11)">
       <use xlink:href="#ArialMT-32"/>
       <use xlink:href="#ArialMT-32" transform="translate(55.615234 0)"/>
      </g>
     </g>
    </g>
    <g id="xtick_23">
     <g id="line2d_23">
      <g>
       <use xlink:href="#m2f523fff98" x="692.245043" y="228.96" style="fill: #262626; stroke: #262626; stroke-width: 1.25"/>
      </g>
     </g>
     <g id="text_23">
      <!-- 23 -->
      <g style="fill: #262626" transform="translate(686.128011 246.333594) scale(0.11 -0.11)">
       <use xlink:href="#ArialMT-32"/>
       <use xlink:href="#ArialMT-33" transform="translate(55.615234 0)"/>
      </g>
     </g>
    </g>
    <g id="text_24">
     <!-- Forecast Horizon (t + x hours) -->
     <g style="fill: #262626" transform="translate(308.359844 261.255469) scale(0.12 -0.12)">
      <defs>
       <path id="ArialMT-46" d="M 525 0 
L 525 4581 
L 3616 4581 
L 3616 4041 
L 1131 4041 
L 1131 2622 
L 3281 2622 
L 3281 2081 
L 1131 2081 
L 1131 0 
L 525 0 
z
" transform="scale(0.015625)"/>
       <path id="ArialMT-6f" d="M 213 1659 
Q 213 2581 725 3025 
Q 1153 3394 1769 3394 
Q 2453 3394 2887 2945 
Q 3322 2497 3322 1706 
Q 3322 1066 3130 698 
Q 2938 331 2570 128 
Q 2203 -75 1769 -75 
Q 1072 -75 642 372 
Q 213 819 213 1659 
z
M 791 1659 
Q 791 1022 1069 705 
Q 1347 388 1769 388 
Q 2188 388 2466 706 
Q 2744 1025 2744 1678 
Q 2744 2294 2464 2611 
Q 2184 2928 1769 2928 
Q 1347 2928 1069 2612 
Q 791 2297 791 1659 
z
" transform="scale(0.015625)"/>
       <path id="ArialMT-72" d="M 416 0 
L 416 3319 
L 922 3319 
L 922 2816 
Q 1116 3169 1280 3281 
Q 1444 3394 1641 3394 
Q 1925 3394 2219 3213 
L 2025 2691 
Q 1819 2813 1613 2813 
Q 1428 2813 1281 2702 
Q 1134 2591 1072 2394 
Q 978 2094 978 1738 
L 978 0 
L 416 0 
z
" transform="scale(0.015625)"/>
       <path id="ArialMT-65" d="M 2694 1069 
L 3275 997 
Q 3138 488 2766 206 
Q 2394 -75 1816 -75 
Q 1088 -75 661 373 
Q 234 822 234 1631 
Q 234 2469 665 2931 
Q 1097 3394 1784 3394 
Q 2450 3394 2872 2941 
Q 3294 2488 3294 1666 
Q 3294 1616 3291 1516 
L 816 1516 
Q 847 969 1125 678 
Q 1403 388 1819 388 
Q 2128 388 2347 550 
Q 2566 713 2694 1069 
z
M 847 1978 
L 2700 1978 
Q 2663 2397 2488 2606 
Q 2219 2931 1791 2931 
Q 1403 2931 1139 2672 
Q 875 2413 847 1978 
z
" transform="scale(0.015625)"/>
       <path id="ArialMT-63" d="M 2588 1216 
L 3141 1144 
Q 3050 572 2676 248 
Q 2303 -75 1759 -75 
Q 1078 -75 664 370 
Q 250 816 250 1647 
Q 250 2184 428 2587 
Q 606 2991 970 3192 
Q 1334 3394 1763 3394 
Q 2303 3394 2647 3120 
Q 2991 2847 3088 2344 
L 2541 2259 
Q 2463 2594 2264 2762 
Q 2066 2931 1784 2931 
Q 1359 2931 1093 2626 
Q 828 2322 828 1663 
Q 828 994 1084 691 
Q 1341 388 1753 388 
Q 2084 388 2306 591 
Q 2528 794 2588 1216 
z
" transform="scale(0.015625)"/>
       <path id="ArialMT-61" d="M 2588 409 
Q 2275 144 1986 34 
Q 1697 -75 1366 -75 
Q 819 -75 525 192 
Q 231 459 231 875 
Q 231 1119 342 1320 
Q 453 1522 633 1644 
Q 813 1766 1038 1828 
Q 1203 1872 1538 1913 
Q 2219 1994 2541 2106 
Q 2544 2222 2544 2253 
Q 2544 2597 2384 2738 
Q 2169 2928 1744 2928 
Q 1347 2928 1158 2789 
Q 969 2650 878 2297 
L 328 2372 
Q 403 2725 575 2942 
Q 747 3159 1072 3276 
Q 1397 3394 1825 3394 
Q 2250 3394 2515 3294 
Q 2781 3194 2906 3042 
Q 3031 2891 3081 2659 
Q 3109 2516 3109 2141 
L 3109 1391 
Q 3109 606 3145 398 
Q 3181 191 3288 0 
L 2700 0 
Q 2613 175 2588 409 
z
M 2541 1666 
Q 2234 1541 1622 1453 
Q 1275 1403 1131 1340 
Q 988 1278 909 1158 
Q 831 1038 831 891 
Q 831 666 1001 516 
Q 1172 366 1500 366 
Q 1825 366 2078 508 
Q 2331 650 2450 897 
Q 2541 1088 2541 1459 
L 2541 1666 
z
" transform="scale(0.015625)"/>
       <path id="ArialMT-73" d="M 197 991 
L 753 1078 
Q 800 744 1014 566 
Q 1228 388 1613 388 
Q 2000 388 2187 545 
Q 2375 703 2375 916 
Q 2375 1106 2209 1216 
Q 2094 1291 1634 1406 
Q 1016 1563 777 1677 
Q 538 1791 414 1992 
Q 291 2194 291 2438 
Q 291 2659 392 2848 
Q 494 3038 669 3163 
Q 800 3259 1026 3326 
Q 1253 3394 1513 3394 
Q 1903 3394 2198 3281 
Q 2494 3169 2634 2976 
Q 2775 2784 2828 2463 
L 2278 2388 
Q 2241 2644 2061 2787 
Q 1881 2931 1553 2931 
Q 1166 2931 1000 2803 
Q 834 2675 834 2503 
Q 834 2394 903 2306 
Q 972 2216 1119 2156 
Q 1203 2125 1616 2013 
Q 2213 1853 2448 1751 
Q 2684 1650 2818 1456 
Q 2953 1263 2953 975 
Q 2953 694 2789 445 
Q 2625 197 2315 61 
Q 2006 -75 1616 -75 
Q 969 -75 630 194 
Q 291 463 197 991 
z
" transform="scale(0.015625)"/>
       <path id="ArialMT-74" d="M 1650 503 
L 1731 6 
Q 1494 -44 1306 -44 
Q 1000 -44 831 53 
Q 663 150 594 308 
Q 525 466 525 972 
L 525 2881 
L 113 2881 
L 113 3319 
L 525 3319 
L 525 4141 
L 1084 4478 
L 1084 3319 
L 1650 3319 
L 1650 2881 
L 1084 2881 
L 1084 941 
Q 1084 700 1114 631 
Q 1144 563 1211 522 
Q 1278 481 1403 481 
Q 1497 481 1650 503 
z
" transform="scale(0.015625)"/>
       <path id="ArialMT-20" transform="scale(0.015625)"/>
       <path id="ArialMT-48" d="M 513 0 
L 513 4581 
L 1119 4581 
L 1119 2700 
L 3500 2700 
L 3500 4581 
L 4106 4581 
L 4106 0 
L 3500 0 
L 3500 2159 
L 1119 2159 
L 1119 0 
L 513 0 
z
" transform="scale(0.015625)"/>
       <path id="ArialMT-69" d="M 425 3934 
L 425 4581 
L 988 4581 
L 988 3934 
L 425 3934 
z
M 425 0 
L 425 3319 
L 988 3319 
L 988 0 
L 425 0 
z
" transform="scale(0.015625)"/>
       <path id="ArialMT-7a" d="M 125 0 
L 125 456 
L 2238 2881 
Q 1878 2863 1603 2863 
L 250 2863 
L 250 3319 
L 2963 3319 
L 2963 2947 
L 1166 841 
L 819 456 
Q 1197 484 1528 484 
L 3063 484 
L 3063 0 
L 125 0 
z
" transform="scale(0.015625)"/>
       <path id="ArialMT-6e" d="M 422 0 
L 422 3319 
L 928 3319 
L 928 2847 
Q 1294 3394 1984 3394 
Q 2284 3394 2536 3286 
Q 2788 3178 2913 3003 
Q 3038 2828 3088 2588 
Q 3119 2431 3119 2041 
L 3119 0 
L 2556 0 
L 2556 2019 
Q 2556 2363 2490 2533 
Q 2425 2703 2258 2804 
Q 2091 2906 1866 2906 
Q 1506 2906 1245 2678 
Q 984 2450 984 1813 
L 984 0 
L 422 0 
z
" transform="scale(0.015625)"/>
       <path id="ArialMT-28" d="M 1497 -1347 
Q 1031 -759 709 28 
Q 388 816 388 1659 
Q 388 2403 628 3084 
Q 909 3875 1497 4659 
L 1900 4659 
Q 1522 4009 1400 3731 
Q 1209 3300 1100 2831 
Q 966 2247 966 1656 
Q 966 153 1900 -1347 
L 1497 -1347 
z
" transform="scale(0.015625)"/>
       <path id="ArialMT-2b" d="M 1603 741 
L 1603 1997 
L 356 1997 
L 356 2522 
L 1603 2522 
L 1603 3769 
L 2134 3769 
L 2134 2522 
L 3381 2522 
L 3381 1997 
L 2134 1997 
L 2134 741 
L 1603 741 
z
" transform="scale(0.015625)"/>
       <path id="ArialMT-78" d="M 47 0 
L 1259 1725 
L 138 3319 
L 841 3319 
L 1350 2541 
Q 1494 2319 1581 2169 
Q 1719 2375 1834 2534 
L 2394 3319 
L 3066 3319 
L 1919 1756 
L 3153 0 
L 2463 0 
L 1781 1031 
L 1600 1309 
L 728 0 
L 47 0 
z
" transform="scale(0.015625)"/>
       <path id="ArialMT-68" d="M 422 0 
L 422 4581 
L 984 4581 
L 984 2938 
Q 1378 3394 1978 3394 
Q 2347 3394 2619 3248 
Q 2891 3103 3008 2847 
Q 3125 2591 3125 2103 
L 3125 0 
L 2563 0 
L 2563 2103 
Q 2563 2525 2380 2717 
Q 2197 2909 1863 2909 
Q 1613 2909 1392 2779 
Q 1172 2650 1078 2428 
Q 984 2206 984 1816 
L 984 0 
L 422 0 
z
" transform="scale(0.015625)"/>
       <path id="ArialMT-75" d="M 2597 0 
L 2597 488 
Q 2209 -75 1544 -75 
Q 1250 -75 995 37 
Q 741 150 617 320 
Q 494 491 444 738 
Q 409 903 409 1263 
L 409 3319 
L 972 3319 
L 972 1478 
Q 972 1038 1006 884 
Q 1059 663 1231 536 
Q 1403 409 1656 409 
Q 1909 409 2131 539 
Q 2353 669 2445 892 
Q 2538 1116 2538 1541 
L 2538 3319 
L 3100 3319 
L 3100 0 
L 2597 0 
z
" transform="scale(0.015625)"/>
       <path id="ArialMT-29" d="M 791 -1347 
L 388 -1347 
Q 1322 153 1322 1656 
Q 1322 2244 1188 2822 
Q 1081 3291 891 3722 
Q 769 4003 388 4659 
L 791 4659 
Q 1378 3875 1659 3084 
Q 1900 2403 1900 1659 
Q 1900 816 1576 28 
Q 1253 -759 791 -1347 
z
" transform="scale(0.015625)"/>
      </defs>
      <use xlink:href="#ArialMT-46"/>
      <use xlink:href="#ArialMT-6f" transform="translate(61.083984 0)"/>
      <use xlink:href="#ArialMT-72" transform="translate(116.699219 0)"/>
      <use xlink:href="#ArialMT-65" transform="translate(150 0)"/>
      <use xlink:href="#ArialMT-63" transform="translate(205.615234 0)"/>
      <use xlink:href="#ArialMT-61" transform="translate(255.615234 0)"/>
      <use xlink:href="#ArialMT-73" transform="translate(311.230469 0)"/>
      <use xlink:href="#ArialMT-74" transform="translate(361.230469 0)"/>
      <use xlink:href="#ArialMT-20" transform="translate(389.013672 0)"/>
      <use xlink:href="#ArialMT-48" transform="translate(416.796875 0)"/>
      <use xlink:href="#ArialMT-6f" transform="translate(489.013672 0)"/>
      <use xlink:href="#ArialMT-72" transform="translate(544.628906 0)"/>
      <use xlink:href="#ArialMT-69" transform="translate(577.929688 0)"/>
      <use xlink:href="#ArialMT-7a" transform="translate(600.146484 0)"/>
      <use xlink:href="#ArialMT-6f" transform="translate(650.146484 0)"/>
      <use xlink:href="#ArialMT-6e" transform="translate(705.761719 0)"/>
      <use xlink:href="#ArialMT-20" transform="translate(761.376953 0)"/>
      <use xlink:href="#ArialMT-28" transform="translate(789.160156 0)"/>
      <use xlink:href="#ArialMT-74" transform="translate(822.460938 0)"/>
      <use xlink:href="#ArialMT-20" transform="translate(850.244141 0)"/>
      <use xlink:href="#ArialMT-2b" transform="translate(878.027344 0)"/>
      <use xlink:href="#ArialMT-20" transform="translate(936.425781 0)"/>
      <use xlink:href="#ArialMT-78" transform="translate(964.208984 0)"/>
      <use xlink:href="#ArialMT-20" transform="translate(1014.208984 0)"/>
      <use xlink:href="#ArialMT-68" transform="translate(1041.992188 0)"/>
      <use xlink:href="#ArialMT-6f" transform="translate(1097.607422 0)"/>
      <use xlink:href="#ArialMT-75" transform="translate(1153.222656 0)"/>
      <use xlink:href="#ArialMT-72" transform="translate(1208.837891 0)"/>
      <use xlink:href="#ArialMT-73" transform="translate(1242.138672 0)"/>
      <use xlink:href="#ArialMT-29" transform="translate(1292.138672 0)"/>
     </g>
    </g>
   </g>
   <g id="matplotlib.axis_2">
    <g id="ytick_1">
     <g id="line2d_24">
      <defs>
       <path id="m04e58a4520" d="M 0 0 
L -6 0 
" style="stroke: #262626; stroke-width: 1.25"/>
      </defs>
      <g>
       <use xlink:href="#m04e58a4520" x="53.081406" y="208.420206" style="fill: #262626; stroke: #262626; stroke-width: 1.25"/>
      </g>
     </g>
     <g id="text_25">
      <!-- 0.04 -->
      <g style="fill: #262626" transform="translate(22.174375 212.357003) scale(0.11 -0.11)">
       <defs>
        <path id="ArialMT-2e" d="M 581 0 
L 581 641 
L 1222 641 
L 1222 0 
L 581 0 
z
" transform="scale(0.015625)"/>
       </defs>
       <use xlink:href="#ArialMT-30"/>
       <use xlink:href="#ArialMT-2e" transform="translate(55.615234 0)"/>
       <use xlink:href="#ArialMT-30" transform="translate(83.398438 0)"/>
       <use xlink:href="#ArialMT-34" transform="translate(139.013672 0)"/>
      </g>
     </g>
    </g>
    <g id="ytick_2">
     <g id="line2d_25">
      <g>
       <use xlink:href="#m04e58a4520" x="53.081406" y="165.06101" style="fill: #262626; stroke: #262626; stroke-width: 1.25"/>
      </g>
     </g>
     <g id="text_26">
      <!-- 0.06 -->
      <g style="fill: #262626" transform="translate(22.174375 168.997806) scale(0.11 -0.11)">
       <use xlink:href="#ArialMT-30"/>
       <use xlink:href="#ArialMT-2e" transform="translate(55.615234 0)"/>
       <use xlink:href="#ArialMT-30" transform="translate(83.398438 0)"/>
       <use xlink:href="#ArialMT-36" transform="translate(139.013672 0)"/>
      </g>
     </g>
    </g>
    <g id="ytick_3">
     <g id="line2d_26">
      <g>
       <use xlink:href="#m04e58a4520" x="53.081406" y="121.701813" style="fill: #262626; stroke: #262626; stroke-width: 1.25"/>
      </g>
     </g>
     <g id="text_27">
      <!-- 0.08 -->
      <g style="fill: #262626" transform="translate(22.174375 125.63861) scale(0.11 -0.11)">
       <use xlink:href="#ArialMT-30"/>
       <use xlink:href="#ArialMT-2e" transform="translate(55.615234 0)"/>
       <use xlink:href="#ArialMT-30" transform="translate(83.398438 0)"/>
       <use xlink:href="#ArialMT-38" transform="translate(139.013672 0)"/>
      </g>
     </g>
    </g>
    <g id="ytick_4">
     <g id="line2d_27">
      <g>
       <use xlink:href="#m04e58a4520" x="53.081406" y="78.342616" style="fill: #262626; stroke: #262626; stroke-width: 1.25"/>
      </g>
     </g>
     <g id="text_28">
      <!-- 0.10 -->
      <g style="fill: #262626" transform="translate(22.174375 82.279413) scale(0.11 -0.11)">
       <use xlink:href="#ArialMT-30"/>
       <use xlink:href="#ArialMT-2e" transform="translate(55.615234 0)"/>
       <use xlink:href="#ArialMT-31" transform="translate(83.398438 0)"/>
       <use xlink:href="#ArialMT-30" transform="translate(139.013672 0)"/>
      </g>
     </g>
    </g>
    <g id="ytick_5">
     <g id="line2d_28">
      <g>
       <use xlink:href="#m04e58a4520" x="53.081406" y="34.983419" style="fill: #262626; stroke: #262626; stroke-width: 1.25"/>
      </g>
     </g>
     <g id="text_29">
      <!-- 0.12 -->
      <g style="fill: #262626" transform="translate(22.174375 38.920216) scale(0.11 -0.11)">
       <use xlink:href="#ArialMT-30"/>
       <use xlink:href="#ArialMT-2e" transform="translate(55.615234 0)"/>
       <use xlink:href="#ArialMT-31" transform="translate(83.398438 0)"/>
       <use xlink:href="#ArialMT-32" transform="translate(139.013672 0)"/>
      </g>
     </g>
    </g>
    <g id="text_30">
     <!-- MAE -->
     <g style="fill: #262626" transform="translate(15.789375 131.082187) rotate(-90) scale(0.12 -0.12)">
      <defs>
       <path id="ArialMT-4d" d="M 475 0 
L 475 4581 
L 1388 4581 
L 2472 1338 
Q 2622 884 2691 659 
Q 2769 909 2934 1394 
L 4031 4581 
L 4847 4581 
L 4847 0 
L 4263 0 
L 4263 3834 
L 2931 0 
L 2384 0 
L 1059 3900 
L 1059 0 
L 475 0 
z
" transform="scale(0.015625)"/>
       <path id="ArialMT-41" d="M -9 0 
L 1750 4581 
L 2403 4581 
L 4278 0 
L 3588 0 
L 3053 1388 
L 1138 1388 
L 634 0 
L -9 0 
z
M 1313 1881 
L 2866 1881 
L 2388 3150 
Q 2169 3728 2063 4100 
Q 1975 3659 1816 3225 
L 1313 1881 
z
" transform="scale(0.015625)"/>
       <path id="ArialMT-45" d="M 506 0 
L 506 4581 
L 3819 4581 
L 3819 4041 
L 1113 4041 
L 1113 2638 
L 3647 2638 
L 3647 2100 
L 1113 2100 
L 1113 541 
L 3925 541 
L 3925 0 
L 506 0 
z
" transform="scale(0.015625)"/>
      </defs>
      <use xlink:href="#ArialMT-4d"/>
      <use xlink:href="#ArialMT-41" transform="translate(83.300781 0)"/>
      <use xlink:href="#ArialMT-45" transform="translate(150 0)"/>
     </g>
    </g>
   </g>
   <g id="PathCollection_1">
    <path d="M 83.51777 183.169446 
L 81.750003 186.401679 
L 78.51777 188.169446 
L 81.750003 189.937212 
L 83.51777 193.169446 
L 85.285537 189.937212 
L 88.51777 188.169446 
L 85.285537 186.401679 
z
" clip-path="url(#p8519bf179d)" style="fill: #840853; stroke: #ffffff; stroke-width: 0.8"/>
    <path d="M 111.187191 169.917563 
L 109.419424 173.149796 
L 106.187191 174.917563 
L 109.419424 176.68533 
L 111.187191 179.917563 
L 112.954958 176.68533 
L 116.187191 174.917563 
L 112.954958 173.149796 
z
" clip-path="url(#p8519bf179d)" style="fill: #840853; stroke: #ffffff; stroke-width: 0.8"/>
    <path d="M 138.856613 161.970835 
L 137.088846 165.203068 
L 133.856613 166.970835 
L 137.088846 168.738601 
L 138.856613 171.970835 
L 140.62438 168.738601 
L 143.856613 166.970835 
L 140.62438 165.203068 
z
" clip-path="url(#p8519bf179d)" style="fill: #840853; stroke: #ffffff; stroke-width: 0.8"/>
    <path d="M 166.526034 155.027132 
L 164.758267 158.259365 
L 161.526034 160.027132 
L 164.758267 161.794899 
L 166.526034 165.027132 
L 168.293801 161.794899 
L 171.526034 160.027132 
L 168.293801 158.259365 
z
" clip-path="url(#p8519bf179d)" style="fill: #840853; stroke: #ffffff; stroke-width: 0.8"/>
    <path d="M 194.195456 149.442942 
L 192.427689 152.675175 
L 189.195456 154.442942 
L 192.427689 156.210709 
L 194.195456 159.442942 
L 195.963223 156.210709 
L 199.195456 154.442942 
L 195.963223 152.675175 
z
" clip-path="url(#p8519bf179d)" style="fill: #840853; stroke: #ffffff; stroke-width: 0.8"/>
    <path d="M 221.864877 143.912192 
L 220.09711 147.144425 
L 216.864877 148.912192 
L 220.09711 150.679959 
L 221.864877 153.912192 
L 223.632644 150.679959 
L 226.864877 148.912192 
L 223.632644 147.144425 
z
" clip-path="url(#p8519bf179d)" style="fill: #840853; stroke: #ffffff; stroke-width: 0.8"/>
    <path d="M 249.534299 139.02173 
L 247.766532 142.253963 
L 244.534299 144.02173 
L 247.766532 145.789497 
L 249.534299 149.02173 
L 251.302066 145.789497 
L 254.534299 144.02173 
L 251.302066 142.253963 
z
" clip-path="url(#p8519bf179d)" style="fill: #840853; stroke: #ffffff; stroke-width: 0.8"/>
    <path d="M 277.20372 134.307186 
L 275.435953 137.539419 
L 272.20372 139.307186 
L 275.435953 141.074953 
L 277.20372 144.307186 
L 278.971487 141.074953 
L 282.20372 139.307186 
L 278.971487 137.539419 
z
" clip-path="url(#p8519bf179d)" style="fill: #840853; stroke: #ffffff; stroke-width: 0.8"/>
    <path d="M 304.873142 128.557488 
L 303.105375 131.789722 
L 299.873142 133.557488 
L 303.105375 135.325255 
L 304.873142 138.557488 
L 306.640909 135.325255 
L 309.873142 133.557488 
L 306.640909 131.789722 
z
" clip-path="url(#p8519bf179d)" style="fill: #840853; stroke: #ffffff; stroke-width: 0.8"/>
    <path d="M 332.542563 125.644439 
L 330.774796 128.876672 
L 327.542563 130.644439 
L 330.774796 132.412206 
L 332.542563 135.644439 
L 334.31033 132.412206 
L 337.542563 130.644439 
L 334.31033 128.876672 
z
" clip-path="url(#p8519bf179d)" style="fill: #840853; stroke: #ffffff; stroke-width: 0.8"/>
    <path d="M 360.211985 119.656184 
L 358.444218 122.888417 
L 355.211985 124.656184 
L 358.444218 126.423951 
L 360.211985 129.656184 
L 361.979752 126.423951 
L 365.211985 124.656184 
L 361.979752 122.888417 
z
" clip-path="url(#p8519bf179d)" style="fill: #840853; stroke: #ffffff; stroke-width: 0.8"/>
    <path d="M 387.881406 116.259818 
L 386.113639 119.492051 
L 382.881406 121.259818 
L 386.113639 123.027585 
L 387.881406 126.259818 
L 389.649173 123.027585 
L 392.881406 121.259818 
L 389.649173 119.492051 
z
" clip-path="url(#p8519bf179d)" style="fill: #840853; stroke: #ffffff; stroke-width: 0.8"/>
    <path d="M 415.550828 113.257897 
L 413.783061 116.49013 
L 410.550828 118.257897 
L 413.783061 120.025664 
L 415.550828 123.257897 
L 417.318595 120.025664 
L 420.550828 118.257897 
L 417.318595 116.49013 
z
" clip-path="url(#p8519bf179d)" style="fill: #840853; stroke: #ffffff; stroke-width: 0.8"/>
    <path d="M 443.220249 111.771749 
L 441.452482 115.003982 
L 438.220249 116.771749 
L 441.452482 118.539516 
L 443.220249 121.771749 
L 444.988016 118.539516 
L 448.220249 116.771749 
L 444.988016 115.003982 
z
" clip-path="url(#p8519bf179d)" style="fill: #840853; stroke: #ffffff; stroke-width: 0.8"/>
    <path d="M 470.889671 102.367115 
L 469.121904 105.599348 
L 465.889671 107.367115 
L 469.121904 109.134882 
L 470.889671 112.367115 
L 472.657438 109.134882 
L 475.889671 107.367115 
L 472.657438 105.599348 
z
" clip-path="url(#p8519bf179d)" style="fill: #840853; stroke: #ffffff; stroke-width: 0.8"/>
    <path d="M 498.559092 107.01125 
L 496.791325 110.243483 
L 493.559092 112.01125 
L 496.791325 113.779017 
L 498.559092 117.01125 
L 500.326859 113.779017 
L 503.559092 112.01125 
L 500.326859 110.243483 
z
" clip-path="url(#p8519bf179d)" style="fill: #840853; stroke: #ffffff; stroke-width: 0.8"/>
    <path d="M 526.228514 105.060279 
L 524.460747 108.292512 
L 521.228514 110.060279 
L 524.460747 111.828046 
L 526.228514 115.060279 
L 527.996281 111.828046 
L 531.228514 110.060279 
L 527.996281 108.292512 
z
" clip-path="url(#p8519bf179d)" style="fill: #840853; stroke: #ffffff; stroke-width: 0.8"/>
    <path d="M 553.897935 105.612842 
L 552.130168 108.845075 
L 548.897935 110.612842 
L 552.130168 112.380609 
L 553.897935 115.612842 
L 555.665702 112.380609 
L 558.897935 110.612842 
L 555.665702 108.845075 
z
" clip-path="url(#p8519bf179d)" style="fill: #840853; stroke: #ffffff; stroke-width: 0.8"/>
    <path d="M 581.567357 96.328335 
L 579.79959 99.560568 
L 576.567357 101.328335 
L 579.79959 103.096102 
L 581.567357 106.328335 
L 583.335124 103.096102 
L 586.567357 101.328335 
L 583.335124 99.560568 
z
" clip-path="url(#p8519bf179d)" style="fill: #840853; stroke: #ffffff; stroke-width: 0.8"/>
    <path d="M 609.236778 88.822467 
L 607.469011 92.0547 
L 604.236778 93.822467 
L 607.469011 95.590234 
L 609.236778 98.822467 
L 611.004545 95.590234 
L 614.236778 93.822467 
L 611.004545 92.0547 
z
" clip-path="url(#p8519bf179d)" style="fill: #840853; stroke: #ffffff; stroke-width: 0.8"/>
    <path d="M 636.9062 99.792445 
L 635.138433 103.024678 
L 631.9062 104.792445 
L 635.138433 106.560212 
L 636.9062 109.792445 
L 638.673967 106.560212 
L 641.9062 104.792445 
L 638.673967 103.024678 
z
" clip-path="url(#p8519bf179d)" style="fill: #840853; stroke: #ffffff; stroke-width: 0.8"/>
    <path d="M 664.575621 93.938677 
L 662.807854 97.17091 
L 659.575621 98.938677 
L 662.807854 100.706444 
L 664.575621 103.938677 
L 666.343388 100.706444 
L 669.575621 98.938677 
L 666.343388 97.17091 
z
" clip-path="url(#p8519bf179d)" style="fill: #840853; stroke: #ffffff; stroke-width: 0.8"/>
    <path d="M 692.245043 91.749246 
L 690.477276 94.981479 
L 687.245043 96.749246 
L 690.477276 98.517013 
L 692.245043 101.749246 
L 694.01281 98.517013 
L 697.245043 96.749246 
L 694.01281 94.981479 
z
" clip-path="url(#p8519bf179d)" style="fill: #840853; stroke: #ffffff; stroke-width: 0.8"/>
    <path d="M 79.982236 215.344466 
L 81.01777 218.88 
L 79.982236 222.415534 
L 83.51777 221.38 
L 87.053304 222.415534 
L 86.01777 218.88 
L 87.053304 215.344466 
L 83.51777 216.38 
z
" clip-path="url(#p8519bf179d)" style="fill: #3a609c; stroke: #ffffff; stroke-width: 0.8"/>
    <path d="M 107.651657 188.951677 
L 108.687191 192.48721 
L 107.651657 196.022744 
L 111.187191 194.98721 
L 114.722725 196.022744 
L 113.687191 192.48721 
L 114.722725 188.951677 
L 111.187191 189.98721 
z
" clip-path="url(#p8519bf179d)" style="fill: #3a609c; stroke: #ffffff; stroke-width: 0.8"/>
    <path d="M 135.321079 171.014485 
L 136.356613 174.550019 
L 135.321079 178.085553 
L 138.856613 177.050019 
L 142.392147 178.085553 
L 141.356613 174.550019 
L 142.392147 171.014485 
L 138.856613 172.050019 
z
" clip-path="url(#p8519bf179d)" style="fill: #3a609c; stroke: #ffffff; stroke-width: 0.8"/>
    <path d="M 162.9905 154.665898 
L 164.026034 158.201432 
L 162.9905 161.736966 
L 166.526034 160.701432 
L 170.061568 161.736966 
L 169.026034 158.201432 
L 170.061568 154.665898 
L 166.526034 155.701432 
z
" clip-path="url(#p8519bf179d)" style="fill: #3a609c; stroke: #ffffff; stroke-width: 0.8"/>
    <path d="M 190.659922 135.975045 
L 191.695456 139.510579 
L 190.659922 143.046113 
L 194.195456 142.010579 
L 197.73099 143.046113 
L 196.695456 139.510579 
L 197.73099 135.975045 
L 194.195456 137.010579 
z
" clip-path="url(#p8519bf179d)" style="fill: #3a609c; stroke: #ffffff; stroke-width: 0.8"/>
    <path d="M 218.329343 133.702186 
L 219.364877 137.23772 
L 218.329343 140.773254 
L 221.864877 139.73772 
L 225.400411 140.773254 
L 224.364877 137.23772 
L 225.400411 133.702186 
L 221.864877 134.73772 
z
" clip-path="url(#p8519bf179d)" style="fill: #3a609c; stroke: #ffffff; stroke-width: 0.8"/>
    <path d="M 245.998765 128.144753 
L 247.034299 131.680286 
L 245.998765 135.21582 
L 249.534299 134.180286 
L 253.069833 135.21582 
L 252.034299 131.680286 
L 253.069833 128.144753 
L 249.534299 129.180286 
z
" clip-path="url(#p8519bf179d)" style="fill: #3a609c; stroke: #ffffff; stroke-width: 0.8"/>
    <path d="M 273.668186 121.406987 
L 274.70372 124.942521 
L 273.668186 128.478055 
L 277.20372 127.442521 
L 280.739254 128.478055 
L 279.70372 124.942521 
L 280.739254 121.406987 
L 277.20372 122.442521 
z
" clip-path="url(#p8519bf179d)" style="fill: #3a609c; stroke: #ffffff; stroke-width: 0.8"/>
    <path d="M 301.337608 118.597039 
L 302.373142 122.132573 
L 301.337608 125.668107 
L 304.873142 124.632573 
L 308.408676 125.668107 
L 307.373142 122.132573 
L 308.408676 118.597039 
L 304.873142 119.632573 
z
" clip-path="url(#p8519bf179d)" style="fill: #3a609c; stroke: #ffffff; stroke-width: 0.8"/>
    <path d="M 329.007029 106.522856 
L 330.042563 110.05839 
L 329.007029 113.593923 
L 332.542563 112.55839 
L 336.078097 113.593923 
L 335.042563 110.05839 
L 336.078097 106.522856 
L 332.542563 107.55839 
z
" clip-path="url(#p8519bf179d)" style="fill: #3a609c; stroke: #ffffff; stroke-width: 0.8"/>
    <path d="M 356.676451 103.222694 
L 357.711985 106.758228 
L 356.676451 110.293762 
L 360.211985 109.258228 
L 363.747519 110.293762 
L 362.711985 106.758228 
L 363.747519 103.222694 
L 360.211985 104.258228 
z
" clip-path="url(#p8519bf179d)" style="fill: #3a609c; stroke: #ffffff; stroke-width: 0.8"/>
    <path d="M 384.345872 101.373064 
L 385.381406 104.908598 
L 384.345872 108.444132 
L 387.881406 107.408598 
L 391.41694 108.444132 
L 390.381406 104.908598 
L 391.41694 101.373064 
L 387.881406 102.408598 
z
" clip-path="url(#p8519bf179d)" style="fill: #3a609c; stroke: #ffffff; stroke-width: 0.8"/>
    <path d="M 412.015294 92.794634 
L 413.050828 96.330168 
L 412.015294 99.865702 
L 415.550828 98.830168 
L 419.086362 99.865702 
L 418.050828 96.330168 
L 419.086362 92.794634 
L 415.550828 93.830168 
z
" clip-path="url(#p8519bf179d)" style="fill: #3a609c; stroke: #ffffff; stroke-width: 0.8"/>
    <path d="M 439.684715 87.572188 
L 440.720249 91.107722 
L 439.684715 94.643256 
L 443.220249 93.607722 
L 446.755783 94.643256 
L 445.720249 91.107722 
L 446.755783 87.572188 
L 443.220249 88.607722 
z
" clip-path="url(#p8519bf179d)" style="fill: #3a609c; stroke: #ffffff; stroke-width: 0.8"/>
    <path d="M 467.354137 81.970448 
L 468.389671 85.505982 
L 467.354137 89.041516 
L 470.889671 88.005982 
L 474.425205 89.041516 
L 473.389671 85.505982 
L 474.425205 81.970448 
L 470.889671 83.005982 
z
" clip-path="url(#p8519bf179d)" style="fill: #3a609c; stroke: #ffffff; stroke-width: 0.8"/>
    <path d="M 495.023558 99.897043 
L 496.059092 103.432577 
L 495.023558 106.968111 
L 498.559092 105.932577 
L 502.094626 106.968111 
L 501.059092 103.432577 
L 502.094626 99.897043 
L 498.559092 100.932577 
z
" clip-path="url(#p8519bf179d)" style="fill: #3a609c; stroke: #ffffff; stroke-width: 0.8"/>
    <path d="M 522.69298 96.062474 
L 523.728514 99.598008 
L 522.69298 103.133542 
L 526.228514 102.098008 
L 529.764048 103.133542 
L 528.728514 99.598008 
L 529.764048 96.062474 
L 526.228514 97.098008 
z
" clip-path="url(#p8519bf179d)" style="fill: #3a609c; stroke: #ffffff; stroke-width: 0.8"/>
    <path d="M 550.362401 97.237686 
L 551.397935 100.77322 
L 550.362401 104.308754 
L 553.897935 103.27322 
L 557.433469 104.308754 
L 556.397935 100.77322 
L 557.433469 97.237686 
L 553.897935 98.27322 
z
" clip-path="url(#p8519bf179d)" style="fill: #3a609c; stroke: #ffffff; stroke-width: 0.8"/>
    <path d="M 578.031823 98.231488 
L 579.067357 101.767022 
L 578.031823 105.302556 
L 581.567357 104.267022 
L 585.102891 105.302556 
L 584.067357 101.767022 
L 585.102891 98.231488 
L 581.567357 99.267022 
z
" clip-path="url(#p8519bf179d)" style="fill: #3a609c; stroke: #ffffff; stroke-width: 0.8"/>
    <path d="M 605.701244 100.686144 
L 606.736778 104.221678 
L 605.701244 107.757212 
L 609.236778 106.721678 
L 612.772312 107.757212 
L 611.736778 104.221678 
L 612.772312 100.686144 
L 609.236778 101.721678 
z
" clip-path="url(#p8519bf179d)" style="fill: #3a609c; stroke: #ffffff; stroke-width: 0.8"/>
    <path d="M 633.370666 97.963534 
L 634.4062 101.499068 
L 633.370666 105.034601 
L 636.9062 103.999068 
L 640.441734 105.034601 
L 639.4062 101.499068 
L 640.441734 97.963534 
L 636.9062 98.999068 
z
" clip-path="url(#p8519bf179d)" style="fill: #3a609c; stroke: #ffffff; stroke-width: 0.8"/>
    <path d="M 661.040087 91.49852 
L 662.075621 95.034054 
L 661.040087 98.569588 
L 664.575621 97.534054 
L 668.111155 98.569588 
L 667.075621 95.034054 
L 668.111155 91.49852 
L 664.575621 92.534054 
z
" clip-path="url(#p8519bf179d)" style="fill: #3a609c; stroke: #ffffff; stroke-width: 0.8"/>
    <path d="M 688.709509 83.892942 
L 689.745043 87.428476 
L 688.709509 90.96401 
L 692.245043 89.928476 
L 695.780577 90.96401 
L 694.745043 87.428476 
L 695.780577 83.892942 
L 692.245043 84.928476 
z
" clip-path="url(#p8519bf179d)" style="fill: #3a609c; stroke: #ffffff; stroke-width: 0.8"/>
    <path d="M 83.51777 19.78 
C 84.180778 19.78 84.81672 19.516584 85.285537 19.047767 
C 85.754354 18.57895 86.01777 17.943008 86.01777 17.28 
C 86.01777 16.616992 85.754354 15.98105 85.285537 15.512233 
C 84.81672 15.043416 84.180778 14.78 83.51777 14.78 
C 82.854762 14.78 82.21882 15.043416 81.750003 15.512233 
C 81.281186 15.98105 81.01777 16.616992 81.01777 17.28 
C 81.01777 17.943008 81.281186 18.57895 81.750003 19.047767 
C 82.21882 19.516584 82.854762 19.78 83.51777 19.78 
z
" clip-path="url(#p8519bf179d)" style="fill: #ffb14e; stroke: #ffffff; stroke-width: 0.8"/>
    <path d="M 111.187191 19.820014 
C 111.850199 19.820014 112.486141 19.556598 112.954958 19.087781 
C 113.423776 18.618963 113.687191 17.983021 113.687191 17.320014 
C 113.687191 16.657006 113.423776 16.021064 112.954958 15.552247 
C 112.486141 15.083429 111.850199 14.820014 111.187191 14.820014 
C 110.524184 14.820014 109.888242 15.083429 109.419424 15.552247 
C 108.950607 16.021064 108.687191 16.657006 108.687191 17.320014 
C 108.687191 17.983021 108.950607 18.618963 109.419424 19.087781 
C 109.888242 19.556598 110.524184 19.820014 111.187191 19.820014 
z
" clip-path="url(#p8519bf179d)" style="fill: #ffb14e; stroke: #ffffff; stroke-width: 0.8"/>
    <path d="M 138.856613 19.87007 
C 139.519621 19.87007 140.155563 19.606655 140.62438 19.137837 
C 141.093197 18.66902 141.356613 18.033078 141.356613 17.37007 
C 141.356613 16.707063 141.093197 16.071121 140.62438 15.602303 
C 140.155563 15.133486 139.519621 14.87007 138.856613 14.87007 
C 138.193605 14.87007 137.557663 15.133486 137.088846 15.602303 
C 136.620029 16.071121 136.356613 16.707063 136.356613 17.37007 
C 136.356613 18.033078 136.620029 18.66902 137.088846 19.137837 
C 137.557663 19.606655 138.193605 19.87007 138.856613 19.87007 
z
" clip-path="url(#p8519bf179d)" style="fill: #ffb14e; stroke: #ffffff; stroke-width: 0.8"/>
    <path d="M 166.526034 19.922261 
C 167.189042 19.922261 167.824984 19.658845 168.293801 19.190027 
C 168.762619 18.72121 169.026034 18.085268 169.026034 17.422261 
C 169.026034 16.759253 168.762619 16.123311 168.293801 15.654494 
C 167.824984 15.185676 167.189042 14.922261 166.526034 14.922261 
C 165.863027 14.922261 165.227085 15.185676 164.758267 15.654494 
C 164.28945 16.123311 164.026034 16.759253 164.026034 17.422261 
C 164.026034 18.085268 164.28945 18.72121 164.758267 19.190027 
C 165.227085 19.658845 165.863027 19.922261 166.526034 19.922261 
z
" clip-path="url(#p8519bf179d)" style="fill: #ffb14e; stroke: #ffffff; stroke-width: 0.8"/>
    <path d="M 194.195456 19.976452 
C 194.858464 19.976452 195.494406 19.713036 195.963223 19.244219 
C 196.43204 18.775401 196.695456 18.139459 196.695456 17.476452 
C 196.695456 16.813444 196.43204 16.177502 195.963223 15.708685 
C 195.494406 15.239867 194.858464 14.976452 194.195456 14.976452 
C 193.532448 14.976452 192.896506 15.239867 192.427689 15.708685 
C 191.958872 16.177502 191.695456 16.813444 191.695456 17.476452 
C 191.695456 18.139459 191.958872 18.775401 192.427689 19.244219 
C 192.896506 19.713036 193.532448 19.976452 194.195456 19.976452 
z
" clip-path="url(#p8519bf179d)" style="fill: #ffb14e; stroke: #ffffff; stroke-width: 0.8"/>
    <path d="M 221.864877 20.025756 
C 222.527885 20.025756 223.163827 19.76234 223.632644 19.293523 
C 224.101462 18.824706 224.364877 18.188764 224.364877 17.525756 
C 224.364877 16.862748 224.101462 16.226807 223.632644 15.757989 
C 223.163827 15.289172 222.527885 15.025756 221.864877 15.025756 
C 221.20187 15.025756 220.565928 15.289172 220.09711 15.757989 
C 219.628293 16.226807 219.364877 16.862748 219.364877 17.525756 
C 219.364877 18.188764 219.628293 18.824706 220.09711 19.293523 
C 220.565928 19.76234 221.20187 20.025756 221.864877 20.025756 
z
" clip-path="url(#p8519bf179d)" style="fill: #ffb14e; stroke: #ffffff; stroke-width: 0.8"/>
    <path d="M 249.534299 20.061881 
C 250.197307 20.061881 250.833248 19.798465 251.302066 19.329648 
C 251.770883 18.860831 252.034299 18.224889 252.034299 17.561881 
C 252.034299 16.898873 251.770883 16.262931 251.302066 15.794114 
C 250.833248 15.325297 250.197307 15.061881 249.534299 15.061881 
C 248.871291 15.061881 248.235349 15.325297 247.766532 15.794114 
C 247.297715 16.262931 247.034299 16.898873 247.034299 17.561881 
C 247.034299 18.224889 247.297715 18.860831 247.766532 19.329648 
C 248.235349 19.798465 248.871291 20.061881 249.534299 20.061881 
z
" clip-path="url(#p8519bf179d)" style="fill: #ffb14e; stroke: #ffffff; stroke-width: 0.8"/>
    <path d="M 277.20372 20.084775 
C 277.866728 20.084775 278.50267 19.821359 278.971487 19.352542 
C 279.440305 18.883724 279.70372 18.247782 279.70372 17.584775 
C 279.70372 16.921767 279.440305 16.285825 278.971487 15.817008 
C 278.50267 15.348191 277.866728 15.084775 277.20372 15.084775 
C 276.540713 15.084775 275.904771 15.348191 275.435953 15.817008 
C 274.967136 16.285825 274.70372 16.921767 274.70372 17.584775 
C 274.70372 18.247782 274.967136 18.883724 275.435953 19.352542 
C 275.904771 19.821359 276.540713 20.084775 277.20372 20.084775 
z
" clip-path="url(#p8519bf179d)" style="fill: #ffb14e; stroke: #ffffff; stroke-width: 0.8"/>
    <path d="M 304.873142 20.10923 
C 305.53615 20.10923 306.172091 19.845814 306.640909 19.376997 
C 307.109726 18.90818 307.373142 18.272238 307.373142 17.60923 
C 307.373142 16.946223 307.109726 16.310281 306.640909 15.841463 
C 306.172091 15.372646 305.53615 15.10923 304.873142 15.10923 
C 304.210134 15.10923 303.574192 15.372646 303.105375 15.841463 
C 302.636558 16.310281 302.373142 16.946223 302.373142 17.60923 
C 302.373142 18.272238 302.636558 18.90818 303.105375 19.376997 
C 303.574192 19.845814 304.210134 20.10923 304.873142 20.10923 
z
" clip-path="url(#p8519bf179d)" style="fill: #ffb14e; stroke: #ffffff; stroke-width: 0.8"/>
    <path d="M 332.542563 20.130526 
C 333.205571 20.130526 333.841513 19.86711 334.31033 19.398293 
C 334.779148 18.929476 335.042563 18.293534 335.042563 17.630526 
C 335.042563 16.967518 334.779148 16.331576 334.31033 15.862759 
C 333.841513 15.393942 333.205571 15.130526 332.542563 15.130526 
C 331.879556 15.130526 331.243614 15.393942 330.774796 15.862759 
C 330.305979 16.331576 330.042563 16.967518 330.042563 17.630526 
C 330.042563 18.293534 330.305979 18.929476 330.774796 19.398293 
C 331.243614 19.86711 331.879556 20.130526 332.542563 20.130526 
z
" clip-path="url(#p8519bf179d)" style="fill: #ffb14e; stroke: #ffffff; stroke-width: 0.8"/>
    <path d="M 360.211985 20.118855 
C 360.874993 20.118855 361.510934 19.855439 361.979752 19.386622 
C 362.448569 18.917804 362.711985 18.281862 362.711985 17.618855 
C 362.711985 16.955847 362.448569 16.319905 361.979752 15.851088 
C 361.510934 15.382271 360.874993 15.118855 360.211985 15.118855 
C 359.548977 15.118855 358.913035 15.382271 358.444218 15.851088 
C 357.975401 16.319905 357.711985 16.955847 357.711985 17.618855 
C 357.711985 18.281862 357.975401 18.917804 358.444218 19.386622 
C 358.913035 19.855439 359.548977 20.118855 360.211985 20.118855 
z
" clip-path="url(#p8519bf179d)" style="fill: #ffb14e; stroke: #ffffff; stroke-width: 0.8"/>
    <path d="M 387.881406 20.100054 
C 388.544414 20.100054 389.180356 19.836638 389.649173 19.367821 
C 390.11799 18.899003 390.381406 18.263061 390.381406 17.600054 
C 390.381406 16.937046 390.11799 16.301104 389.649173 15.832287 
C 389.180356 15.363469 388.544414 15.100054 387.881406 15.100054 
C 387.218398 15.100054 386.582457 15.363469 386.113639 15.832287 
C 385.644822 16.301104 385.381406 16.937046 385.381406 17.600054 
C 385.381406 18.263061 385.644822 18.899003 386.113639 19.367821 
C 386.582457 19.836638 387.218398 20.100054 387.881406 20.100054 
z
" clip-path="url(#p8519bf179d)" style="fill: #ffb14e; stroke: #ffffff; stroke-width: 0.8"/>
    <path d="M 415.550828 20.070477 
C 416.213835 20.070477 416.849777 19.807061 417.318595 19.338243 
C 417.787412 18.869426 418.050828 18.233484 418.050828 17.570477 
C 418.050828 16.907469 417.787412 16.271527 417.318595 15.80271 
C 416.849777 15.333892 416.213835 15.070477 415.550828 15.070477 
C 414.88782 15.070477 414.251878 15.333892 413.783061 15.80271 
C 413.314244 16.271527 413.050828 16.907469 413.050828 17.570477 
C 413.050828 18.233484 413.314244 18.869426 413.783061 19.338243 
C 414.251878 19.807061 414.88782 20.070477 415.550828 20.070477 
z
" clip-path="url(#p8519bf179d)" style="fill: #ffb14e; stroke: #ffffff; stroke-width: 0.8"/>
    <path d="M 443.220249 20.0317 
C 443.883257 20.0317 444.519199 19.768284 444.988016 19.299467 
C 445.456833 18.830649 445.720249 18.194707 445.720249 17.5317 
C 445.720249 16.868692 445.456833 16.23275 444.988016 15.763933 
C 444.519199 15.295115 443.883257 15.0317 443.220249 15.0317 
C 442.557241 15.0317 441.9213 15.295115 441.452482 15.763933 
C 440.983665 16.23275 440.720249 16.868692 440.720249 17.5317 
C 440.720249 18.194707 440.983665 18.830649 441.452482 19.299467 
C 441.9213 19.768284 442.557241 20.0317 443.220249 20.0317 
z
" clip-path="url(#p8519bf179d)" style="fill: #ffb14e; stroke: #ffffff; stroke-width: 0.8"/>
    <path d="M 470.889671 19.989382 
C 471.552678 19.989382 472.18862 19.725966 472.657438 19.257149 
C 473.126255 18.788332 473.389671 18.15239 473.389671 17.489382 
C 473.389671 16.826374 473.126255 16.190432 472.657438 15.721615 
C 472.18862 15.252798 471.552678 14.989382 470.889671 14.989382 
C 470.226663 14.989382 469.590721 15.252798 469.121904 15.721615 
C 468.653086 16.190432 468.389671 16.826374 468.389671 17.489382 
C 468.389671 18.15239 468.653086 18.788332 469.121904 19.257149 
C 469.590721 19.725966 470.226663 19.989382 470.889671 19.989382 
z
" clip-path="url(#p8519bf179d)" style="fill: #ffb14e; stroke: #ffffff; stroke-width: 0.8"/>
    <path d="M 498.559092 19.93868 
C 499.2221 19.93868 499.858042 19.675264 500.326859 19.206447 
C 500.795676 18.73763 501.059092 18.101688 501.059092 17.43868 
C 501.059092 16.775672 500.795676 16.13973 500.326859 15.670913 
C 499.858042 15.202096 499.2221 14.93868 498.559092 14.93868 
C 497.896084 14.93868 497.260143 15.202096 496.791325 15.670913 
C 496.322508 16.13973 496.059092 16.775672 496.059092 17.43868 
C 496.059092 18.101688 496.322508 18.73763 496.791325 19.206447 
C 497.260143 19.675264 497.896084 19.93868 498.559092 19.93868 
z
" clip-path="url(#p8519bf179d)" style="fill: #ffb14e; stroke: #ffffff; stroke-width: 0.8"/>
    <path d="M 526.228514 19.896513 
C 526.891521 19.896513 527.527463 19.633098 527.996281 19.16428 
C 528.465098 18.695463 528.728514 18.059521 528.728514 17.396513 
C 528.728514 16.733506 528.465098 16.097564 527.996281 15.628746 
C 527.527463 15.159929 526.891521 14.896513 526.228514 14.896513 
C 525.565506 14.896513 524.929564 15.159929 524.460747 15.628746 
C 523.991929 16.097564 523.728514 16.733506 523.728514 17.396513 
C 523.728514 18.059521 523.991929 18.695463 524.460747 19.16428 
C 524.929564 19.633098 525.565506 19.896513 526.228514 19.896513 
z
" clip-path="url(#p8519bf179d)" style="fill: #ffb14e; stroke: #ffffff; stroke-width: 0.8"/>
    <path d="M 553.897935 19.901605 
C 554.560943 19.901605 555.196885 19.638189 555.665702 19.169372 
C 556.134519 18.700555 556.397935 18.064613 556.397935 17.401605 
C 556.397935 16.738597 556.134519 16.102655 555.665702 15.633838 
C 555.196885 15.165021 554.560943 14.901605 553.897935 14.901605 
C 553.234927 14.901605 552.598985 15.165021 552.130168 15.633838 
C 551.661351 16.102655 551.397935 16.738597 551.397935 17.401605 
C 551.397935 18.064613 551.661351 18.700555 552.130168 19.169372 
C 552.598985 19.638189 553.234927 19.901605 553.897935 19.901605 
z
" clip-path="url(#p8519bf179d)" style="fill: #ffb14e; stroke: #ffffff; stroke-width: 0.8"/>
    <path d="M 581.567357 19.905663 
C 582.230364 19.905663 582.866306 19.642247 583.335124 19.17343 
C 583.803941 18.704613 584.067357 18.068671 584.067357 17.405663 
C 584.067357 16.742655 583.803941 16.106713 583.335124 15.637896 
C 582.866306 15.169079 582.230364 14.905663 581.567357 14.905663 
C 580.904349 14.905663 580.268407 15.169079 579.79959 15.637896 
C 579.330772 16.106713 579.067357 16.742655 579.067357 17.405663 
C 579.067357 18.068671 579.330772 18.704613 579.79959 19.17343 
C 580.268407 19.642247 580.904349 19.905663 581.567357 19.905663 
z
" clip-path="url(#p8519bf179d)" style="fill: #ffb14e; stroke: #ffffff; stroke-width: 0.8"/>
    <path d="M 609.236778 19.914967 
C 609.899786 19.914967 610.535728 19.651552 611.004545 19.182734 
C 611.473362 18.713917 611.736778 18.077975 611.736778 17.414967 
C 611.736778 16.75196 611.473362 16.116018 611.004545 15.6472 
C 610.535728 15.178383 609.899786 14.914967 609.236778 14.914967 
C 608.57377 14.914967 607.937828 15.178383 607.469011 15.6472 
C 607.000194 16.116018 606.736778 16.75196 606.736778 17.414967 
C 606.736778 18.077975 607.000194 18.713917 607.469011 19.182734 
C 607.937828 19.651552 608.57377 19.914967 609.236778 19.914967 
z
" clip-path="url(#p8519bf179d)" style="fill: #ffb14e; stroke: #ffffff; stroke-width: 0.8"/>
    <path d="M 636.9062 19.931512 
C 637.569207 19.931512 638.205149 19.668096 638.673967 19.199279 
C 639.142784 18.730462 639.4062 18.09452 639.4062 17.431512 
C 639.4062 16.768504 639.142784 16.132562 638.673967 15.663745 
C 638.205149 15.194928 637.569207 14.931512 636.9062 14.931512 
C 636.243192 14.931512 635.60725 15.194928 635.138433 15.663745 
C 634.669615 16.132562 634.4062 16.768504 634.4062 17.431512 
C 634.4062 18.09452 634.669615 18.730462 635.138433 19.199279 
C 635.60725 19.668096 636.243192 19.931512 636.9062 19.931512 
z
" clip-path="url(#p8519bf179d)" style="fill: #ffb14e; stroke: #ffffff; stroke-width: 0.8"/>
    <path d="M 664.575621 19.936852 
C 665.238629 19.936852 665.874571 19.673437 666.343388 19.204619 
C 666.812205 18.735802 667.075621 18.09986 667.075621 17.436852 
C 667.075621 16.773845 666.812205 16.137903 666.343388 15.669086 
C 665.874571 15.200268 665.238629 14.936852 664.575621 14.936852 
C 663.912613 14.936852 663.276671 15.200268 662.807854 15.669086 
C 662.339037 16.137903 662.075621 16.773845 662.075621 17.436852 
C 662.075621 18.09986 662.339037 18.735802 662.807854 19.204619 
C 663.276671 19.673437 663.912613 19.936852 664.575621 19.936852 
z
" clip-path="url(#p8519bf179d)" style="fill: #ffb14e; stroke: #ffffff; stroke-width: 0.8"/>
    <path d="M 692.245043 19.953982 
C 692.90805 19.953982 693.543992 19.690567 694.01281 19.221749 
C 694.481627 18.752932 694.745043 18.11699 694.745043 17.453982 
C 694.745043 16.790975 694.481627 16.155033 694.01281 15.686215 
C 693.543992 15.217398 692.90805 14.953982 692.245043 14.953982 
C 691.582035 14.953982 690.946093 15.217398 690.477276 15.686215 
C 690.008458 16.155033 689.745043 16.790975 689.745043 17.453982 
C 689.745043 18.11699 690.008458 18.752932 690.477276 19.221749 
C 690.946093 19.690567 691.582035 19.953982 692.245043 19.953982 
z
" clip-path="url(#p8519bf179d)" style="fill: #ffb14e; stroke: #ffffff; stroke-width: 0.8"/>
   </g>
   <g id="line2d_29"/>
   <g id="line2d_30"/>
   <g id="line2d_31"/>
   <g id="patch_3">
    <path d="M 53.081406 228.96 
L 53.081406 7.2 
" style="fill: none; stroke: #262626; stroke-width: 1.25; stroke-linejoin: miter; stroke-linecap: square"/>
   </g>
   <g id="patch_4">
    <path d="M 722.681406 228.96 
L 722.681406 7.2 
" style="fill: none; stroke: #262626; stroke-width: 1.25; stroke-linejoin: miter; stroke-linecap: square"/>
   </g>
   <g id="patch_5">
    <path d="M 53.081406 228.96 
L 722.681406 228.96 
" style="fill: none; stroke: #262626; stroke-width: 1.25; stroke-linejoin: miter; stroke-linecap: square"/>
   </g>
   <g id="patch_6">
    <path d="M 53.081406 7.2 
L 722.681406 7.2 
" style="fill: none; stroke: #262626; stroke-width: 1.25; stroke-linejoin: miter; stroke-linecap: square"/>
   </g>
   <g id="legend_1">
    <g id="patch_7">
     <path d="M 594.211719 223.46 
L 714.981406 223.46 
Q 717.181406 223.46 717.181406 221.26 
L 717.181406 175.154531 
Q 717.181406 172.954531 714.981406 172.954531 
L 594.211719 172.954531 
Q 592.011719 172.954531 592.011719 175.154531 
L 592.011719 221.26 
Q 592.011719 223.46 594.211719 223.46 
z
" style="fill: #ffffff; opacity: 0.8; stroke: #cccccc; stroke-linejoin: miter"/>
    </g>
    <g id="line2d_32">
     <defs>
      <path id="m98f17ec8b4" d="M 0 -5 
L -1.767767 -1.767767 
L -5 -0 
L -1.767767 1.767767 
L -0 5 
L 1.767767 1.767767 
L 5 0 
L 1.767767 -1.767767 
z
" style="stroke: #ffffff; stroke-width: 0.8; stroke-linejoin: bevel"/>
     </defs>
     <g>
      <use xlink:href="#m98f17ec8b4" x="607.411719" y="181.512187" style="fill: #840853; stroke: #ffffff; stroke-width: 0.8; stroke-linejoin: bevel"/>
     </g>
    </g>
    <g id="text_31">
     <!-- LSTM (VRE only) -->
     <g style="fill: #262626" transform="translate(627.211719 185.362187) scale(0.11 -0.11)">
      <defs>
       <path id="ArialMT-4c" d="M 469 0 
L 469 4581 
L 1075 4581 
L 1075 541 
L 3331 541 
L 3331 0 
L 469 0 
z
" transform="scale(0.015625)"/>
       <path id="ArialMT-53" d="M 288 1472 
L 859 1522 
Q 900 1178 1048 958 
Q 1197 738 1509 602 
Q 1822 466 2213 466 
Q 2559 466 2825 569 
Q 3091 672 3220 851 
Q 3350 1031 3350 1244 
Q 3350 1459 3225 1620 
Q 3100 1781 2813 1891 
Q 2628 1963 1997 2114 
Q 1366 2266 1113 2400 
Q 784 2572 623 2826 
Q 463 3081 463 3397 
Q 463 3744 659 4045 
Q 856 4347 1234 4503 
Q 1613 4659 2075 4659 
Q 2584 4659 2973 4495 
Q 3363 4331 3572 4012 
Q 3781 3694 3797 3291 
L 3216 3247 
Q 3169 3681 2898 3903 
Q 2628 4125 2100 4125 
Q 1550 4125 1298 3923 
Q 1047 3722 1047 3438 
Q 1047 3191 1225 3031 
Q 1400 2872 2139 2705 
Q 2878 2538 3153 2413 
Q 3553 2228 3743 1945 
Q 3934 1663 3934 1294 
Q 3934 928 3725 604 
Q 3516 281 3123 101 
Q 2731 -78 2241 -78 
Q 1619 -78 1198 103 
Q 778 284 539 648 
Q 300 1013 288 1472 
z
" transform="scale(0.015625)"/>
       <path id="ArialMT-54" d="M 1659 0 
L 1659 4041 
L 150 4041 
L 150 4581 
L 3781 4581 
L 3781 4041 
L 2266 4041 
L 2266 0 
L 1659 0 
z
" transform="scale(0.015625)"/>
       <path id="ArialMT-56" d="M 1803 0 
L 28 4581 
L 684 4581 
L 1875 1253 
Q 2019 853 2116 503 
Q 2222 878 2363 1253 
L 3600 4581 
L 4219 4581 
L 2425 0 
L 1803 0 
z
" transform="scale(0.015625)"/>
       <path id="ArialMT-52" d="M 503 0 
L 503 4581 
L 2534 4581 
Q 3147 4581 3465 4457 
Q 3784 4334 3975 4021 
Q 4166 3709 4166 3331 
Q 4166 2844 3850 2509 
Q 3534 2175 2875 2084 
Q 3116 1969 3241 1856 
Q 3506 1613 3744 1247 
L 4541 0 
L 3778 0 
L 3172 953 
Q 2906 1366 2734 1584 
Q 2563 1803 2427 1890 
Q 2291 1978 2150 2013 
Q 2047 2034 1813 2034 
L 1109 2034 
L 1109 0 
L 503 0 
z
M 1109 2559 
L 2413 2559 
Q 2828 2559 3062 2645 
Q 3297 2731 3419 2920 
Q 3541 3109 3541 3331 
Q 3541 3656 3305 3865 
Q 3069 4075 2559 4075 
L 1109 4075 
L 1109 2559 
z
" transform="scale(0.015625)"/>
       <path id="ArialMT-6c" d="M 409 0 
L 409 4581 
L 972 4581 
L 972 0 
L 409 0 
z
" transform="scale(0.015625)"/>
       <path id="ArialMT-79" d="M 397 -1278 
L 334 -750 
Q 519 -800 656 -800 
Q 844 -800 956 -737 
Q 1069 -675 1141 -563 
Q 1194 -478 1313 -144 
Q 1328 -97 1363 -6 
L 103 3319 
L 709 3319 
L 1400 1397 
Q 1534 1031 1641 628 
Q 1738 1016 1872 1384 
L 2581 3319 
L 3144 3319 
L 1881 -56 
Q 1678 -603 1566 -809 
Q 1416 -1088 1222 -1217 
Q 1028 -1347 759 -1347 
Q 597 -1347 397 -1278 
z
" transform="scale(0.015625)"/>
      </defs>
      <use xlink:href="#ArialMT-4c"/>
      <use xlink:href="#ArialMT-53" transform="translate(55.615234 0)"/>
      <use xlink:href="#ArialMT-54" transform="translate(122.314453 0)"/>
      <use xlink:href="#ArialMT-4d" transform="translate(183.398438 0)"/>
      <use xlink:href="#ArialMT-20" transform="translate(266.699219 0)"/>
      <use xlink:href="#ArialMT-28" transform="translate(294.482422 0)"/>
      <use xlink:href="#ArialMT-56" transform="translate(327.783203 0)"/>
      <use xlink:href="#ArialMT-52" transform="translate(394.482422 0)"/>
      <use xlink:href="#ArialMT-45" transform="translate(466.699219 0)"/>
      <use xlink:href="#ArialMT-20" transform="translate(533.398438 0)"/>
      <use xlink:href="#ArialMT-6f" transform="translate(561.181641 0)"/>
      <use xlink:href="#ArialMT-6e" transform="translate(616.796875 0)"/>
      <use xlink:href="#ArialMT-6c" transform="translate(672.412109 0)"/>
      <use xlink:href="#ArialMT-79" transform="translate(694.628906 0)"/>
      <use xlink:href="#ArialMT-29" transform="translate(744.628906 0)"/>
     </g>
    </g>
    <g id="line2d_33">
     <defs>
      <path id="m58bbbfcdba" d="M -3.535534 -3.535534 
L -2.5 -0 
L -3.535534 3.535534 
L -0 2.5 
L 3.535534 3.535534 
L 2.5 0 
L 3.535534 -3.535534 
L 0 -2.5 
z
" style="stroke: #ffffff; stroke-width: 0.8; stroke-linejoin: bevel"/>
     </defs>
     <g>
      <use xlink:href="#m58bbbfcdba" x="607.411719" y="197.335" style="fill: #3a609c; stroke: #ffffff; stroke-width: 0.8; stroke-linejoin: bevel"/>
     </g>
    </g>
    <g id="text_32">
     <!-- GRU (VRE only) -->
     <g style="fill: #262626" transform="translate(627.211719 201.185) scale(0.11 -0.11)">
      <defs>
       <path id="ArialMT-47" d="M 2638 1797 
L 2638 2334 
L 4578 2338 
L 4578 638 
Q 4131 281 3656 101 
Q 3181 -78 2681 -78 
Q 2006 -78 1454 211 
Q 903 500 622 1047 
Q 341 1594 341 2269 
Q 341 2938 620 3517 
Q 900 4097 1425 4378 
Q 1950 4659 2634 4659 
Q 3131 4659 3532 4498 
Q 3934 4338 4162 4050 
Q 4391 3763 4509 3300 
L 3963 3150 
Q 3859 3500 3706 3700 
Q 3553 3900 3268 4020 
Q 2984 4141 2638 4141 
Q 2222 4141 1919 4014 
Q 1616 3888 1430 3681 
Q 1244 3475 1141 3228 
Q 966 2803 966 2306 
Q 966 1694 1177 1281 
Q 1388 869 1791 669 
Q 2194 469 2647 469 
Q 3041 469 3416 620 
Q 3791 772 3984 944 
L 3984 1797 
L 2638 1797 
z
" transform="scale(0.015625)"/>
       <path id="ArialMT-55" d="M 3500 4581 
L 4106 4581 
L 4106 1934 
Q 4106 1244 3950 837 
Q 3794 431 3386 176 
Q 2978 -78 2316 -78 
Q 1672 -78 1262 144 
Q 853 366 678 786 
Q 503 1206 503 1934 
L 503 4581 
L 1109 4581 
L 1109 1938 
Q 1109 1341 1220 1058 
Q 1331 775 1601 622 
Q 1872 469 2263 469 
Q 2931 469 3215 772 
Q 3500 1075 3500 1938 
L 3500 4581 
z
" transform="scale(0.015625)"/>
      </defs>
      <use xlink:href="#ArialMT-47"/>
      <use xlink:href="#ArialMT-52" transform="translate(77.783203 0)"/>
      <use xlink:href="#ArialMT-55" transform="translate(150 0)"/>
      <use xlink:href="#ArialMT-20" transform="translate(222.216797 0)"/>
      <use xlink:href="#ArialMT-28" transform="translate(250 0)"/>
      <use xlink:href="#ArialMT-56" transform="translate(283.300781 0)"/>
      <use xlink:href="#ArialMT-52" transform="translate(350 0)"/>
      <use xlink:href="#ArialMT-45" transform="translate(422.216797 0)"/>
      <use xlink:href="#ArialMT-20" transform="translate(488.916016 0)"/>
      <use xlink:href="#ArialMT-6f" transform="translate(516.699219 0)"/>
      <use xlink:href="#ArialMT-6e" transform="translate(572.314453 0)"/>
      <use xlink:href="#ArialMT-6c" transform="translate(627.929688 0)"/>
      <use xlink:href="#ArialMT-79" transform="translate(650.146484 0)"/>
      <use xlink:href="#ArialMT-29" transform="translate(700.146484 0)"/>
     </g>
    </g>
    <g id="line2d_34">
     <defs>
      <path id="m0c36044f71" d="M 0 2.5 
C 0.663008 2.5 1.29895 2.236584 1.767767 1.767767 
C 2.236584 1.29895 2.5 0.663008 2.5 0 
C 2.5 -0.663008 2.236584 -1.29895 1.767767 -1.767767 
C 1.29895 -2.236584 0.663008 -2.5 0 -2.5 
C -0.663008 -2.5 -1.29895 -2.236584 -1.767767 -1.767767 
C -2.236584 -1.29895 -2.5 -0.663008 -2.5 0 
C -2.5 0.663008 -2.236584 1.29895 -1.767767 1.767767 
C -1.29895 2.236584 -0.663008 2.5 0 2.5 
z
" style="stroke: #ffffff; stroke-width: 0.8"/>
     </defs>
     <g>
      <use xlink:href="#m0c36044f71" x="607.411719" y="213.02375" style="fill: #ffb14e; stroke: #ffffff; stroke-width: 0.8"/>
     </g>
    </g>
    <g id="text_33">
     <!-- Nave -->
     <g style="fill: #262626" transform="translate(627.211719 216.87375) scale(0.11 -0.11)">
      <defs>
       <path id="ArialMT-4e" d="M 488 0 
L 488 4581 
L 1109 4581 
L 3516 984 
L 3516 4581 
L 4097 4581 
L 4097 0 
L 3475 0 
L 1069 3600 
L 1069 0 
L 488 0 
z
" transform="scale(0.015625)"/>
       <path id="ArialMT-ef" d="M 619 0 
L 619 3319 
L 1181 3319 
L 1181 0 
L 619 0 
z
M 31 3969 
L 31 4609 
L 618 4609 
L 618 3969 
L 31 3969 
z
M 1196 3969 
L 1196 4609 
L 1784 4609 
L 1784 3969 
L 1196 3969 
z
" transform="scale(0.015625)"/>
       <path id="ArialMT-76" d="M 1344 0 
L 81 3319 
L 675 3319 
L 1388 1331 
Q 1503 1009 1600 663 
Q 1675 925 1809 1294 
L 2547 3319 
L 3125 3319 
L 1869 0 
L 1344 0 
z
" transform="scale(0.015625)"/>
      </defs>
      <use xlink:href="#ArialMT-4e"/>
      <use xlink:href="#ArialMT-61" transform="translate(72.216797 0)"/>
      <use xlink:href="#ArialMT-ef" transform="translate(127.832031 0)"/>
      <use xlink:href="#ArialMT-76" transform="translate(155.615234 0)"/>
      <use xlink:href="#ArialMT-65" transform="translate(205.615234 0)"/>
     </g>
    </g>
   </g>
  </g>
 </g>
 <defs>
  <clipPath id="p8519bf179d">
   <rect x="53.081406" y="7.2" width="669.6" height="221.76"/>
  </clipPath>
 </defs>
</svg>
