<?xml version="1.0" encoding="utf-8" standalone="no"?>
<!DOCTYPE svg PUBLIC "-//W3C//DTD SVG 1.1//EN"
  "http://www.w3.org/Graphics/SVG/1.1/DTD/svg11.dtd">
<svg xmlns:xlink="http://www.w3.org/1999/xlink" width="852.935312pt" height="276.864844pt" viewBox="0 0 852.935312 276.864844" xmlns="http://www.w3.org/2000/svg" version="1.1">
 <metadata>
  <rdf:RDF xmlns:dc="http://purl.org/dc/elements/1.1/" xmlns:cc="http://creativecommons.org/ns#" xmlns:rdf="http://www.w3.org/1999/02/22-rdf-syntax-ns#">
   <cc:Work>
    <dc:type rdf:resource="http://purl.org/dc/dcmitype/StillImage"/>
    <dc:date>2025-07-06T15:53:35.424294</dc:date>
    <dc:format>image/svg+xml</dc:format>
    <dc:creator>
     <cc:Agent>
      <dc:title>Matplotlib v3.10.1, https://matplotlib.org/</dc:title>
     </cc:Agent>
    </dc:creator>
   </cc:Work>
  </rdf:RDF>
 </metadata>
 <defs>
  <style type="text/css">*{stroke-linejoin: round; stroke-linecap: butt}</style>
 </defs>
 <g id="figure_1">
  <g id="patch_1">
   <path d="M 0 276.864844 
L 852.935312 276.864844 
L 852.935312 0 
L 0 0 
z
" style="fill: #ffffff"/>
  </g>
  <g id="axes_1">
   <g id="patch_2">
    <path d="M 44.195313 234.84375 
L 845.735312 234.84375 
L 845.735312 7.2 
L 44.195313 7.2 
z
" style="fill: #ffffff"/>
   </g>
   <g id="matplotlib.axis_1">
    <g id="xtick_1">
     <g id="line2d_1">
      <defs>
       <path id="m9e84f63001" d="M 0 0 
L 0 6 
" style="stroke: #262626; stroke-width: 1.25"/>
      </defs>
      <g>
       <use xlink:href="#m9e84f63001" x="80.628949" y="234.84375" style="fill: #262626; stroke: #262626; stroke-width: 1.25"/>
      </g>
     </g>
     <g id="text_1">
      <!-- 0h -->
      <g style="fill: #262626" transform="translate(74.511918 252.217344) scale(0.11 -0.11)">
       <defs>
        <path id="ArialMT-30" d="M 266 2259 
Q 266 3072 433 3567 
Q 600 4063 929 4331 
Q 1259 4600 1759 4600 
Q 2128 4600 2406 4451 
Q 2684 4303 2865 4023 
Q 3047 3744 3150 3342 
Q 3253 2941 3253 2259 
Q 3253 1453 3087 958 
Q 2922 463 2592 192 
Q 2263 -78 1759 -78 
Q 1097 -78 719 397 
Q 266 969 266 2259 
z
M 844 2259 
Q 844 1131 1108 757 
Q 1372 384 1759 384 
Q 2147 384 2411 759 
Q 2675 1134 2675 2259 
Q 2675 3391 2411 3762 
Q 2147 4134 1753 4134 
Q 1366 4134 1134 3806 
Q 844 3388 844 2259 
z
" transform="scale(0.015625)"/>
        <path id="ArialMT-68" d="M 422 0 
L 422 4581 
L 984 4581 
L 984 2938 
Q 1378 3394 1978 3394 
Q 2347 3394 2619 3248 
Q 2891 3103 3008 2847 
Q 3125 2591 3125 2103 
L 3125 0 
L 2563 0 
L 2563 2103 
Q 2563 2525 2380 2717 
Q 2197 2909 1863 2909 
Q 1613 2909 1392 2779 
Q 1172 2650 1078 2428 
Q 984 2206 984 1816 
L 984 0 
L 422 0 
z
" transform="scale(0.015625)"/>
       </defs>
       <use xlink:href="#ArialMT-30"/>
       <use xlink:href="#ArialMT-68" transform="translate(55.615234 0)"/>
      </g>
     </g>
    </g>
    <g id="xtick_2">
     <g id="line2d_2">
      <g>
       <use xlink:href="#m9e84f63001" x="270.717486" y="234.84375" style="fill: #262626; stroke: #262626; stroke-width: 1.25"/>
      </g>
     </g>
     <g id="text_2">
      <!-- 6h -->
      <g style="fill: #262626" transform="translate(264.600455 252.217344) scale(0.11 -0.11)">
       <defs>
        <path id="ArialMT-36" d="M 3184 3459 
L 2625 3416 
Q 2550 3747 2413 3897 
Q 2184 4138 1850 4138 
Q 1581 4138 1378 3988 
Q 1113 3794 959 3422 
Q 806 3050 800 2363 
Q 1003 2672 1297 2822 
Q 1591 2972 1913 2972 
Q 2475 2972 2870 2558 
Q 3266 2144 3266 1488 
Q 3266 1056 3080 686 
Q 2894 316 2569 119 
Q 2244 -78 1831 -78 
Q 1128 -78 684 439 
Q 241 956 241 2144 
Q 241 3472 731 4075 
Q 1159 4600 1884 4600 
Q 2425 4600 2770 4297 
Q 3116 3994 3184 3459 
z
M 888 1484 
Q 888 1194 1011 928 
Q 1134 663 1356 523 
Q 1578 384 1822 384 
Q 2178 384 2434 671 
Q 2691 959 2691 1453 
Q 2691 1928 2437 2201 
Q 2184 2475 1800 2475 
Q 1419 2475 1153 2201 
Q 888 1928 888 1484 
z
" transform="scale(0.015625)"/>
       </defs>
       <use xlink:href="#ArialMT-36"/>
       <use xlink:href="#ArialMT-68" transform="translate(55.615234 0)"/>
      </g>
     </g>
    </g>
    <g id="xtick_3">
     <g id="line2d_3">
      <g>
       <use xlink:href="#m9e84f63001" x="460.806024" y="234.84375" style="fill: #262626; stroke: #262626; stroke-width: 1.25"/>
      </g>
     </g>
     <g id="text_3">
      <!-- 12h -->
      <g style="fill: #262626" transform="translate(451.630477 252.217344) scale(0.11 -0.11)">
       <defs>
        <path id="ArialMT-31" d="M 2384 0 
L 1822 0 
L 1822 3584 
Q 1619 3391 1289 3197 
Q 959 3003 697 2906 
L 697 3450 
Q 1169 3672 1522 3987 
Q 1875 4303 2022 4600 
L 2384 4600 
L 2384 0 
z
" transform="scale(0.015625)"/>
        <path id="ArialMT-32" d="M 3222 541 
L 3222 0 
L 194 0 
Q 188 203 259 391 
Q 375 700 629 1000 
Q 884 1300 1366 1694 
Q 2113 2306 2375 2664 
Q 2638 3022 2638 3341 
Q 2638 3675 2398 3904 
Q 2159 4134 1775 4134 
Q 1369 4134 1125 3890 
Q 881 3647 878 3216 
L 300 3275 
Q 359 3922 746 4261 
Q 1134 4600 1788 4600 
Q 2447 4600 2831 4234 
Q 3216 3869 3216 3328 
Q 3216 3053 3103 2787 
Q 2991 2522 2730 2228 
Q 2469 1934 1863 1422 
Q 1356 997 1212 845 
Q 1069 694 975 541 
L 3222 541 
z
" transform="scale(0.015625)"/>
       </defs>
       <use xlink:href="#ArialMT-31"/>
       <use xlink:href="#ArialMT-32" transform="translate(55.615234 0)"/>
       <use xlink:href="#ArialMT-68" transform="translate(111.230469 0)"/>
      </g>
     </g>
    </g>
    <g id="xtick_4">
     <g id="line2d_4">
      <g>
       <use xlink:href="#m9e84f63001" x="650.894562" y="234.84375" style="fill: #262626; stroke: #262626; stroke-width: 1.25"/>
      </g>
     </g>
     <g id="text_4">
      <!-- 18h -->
      <g style="fill: #262626" transform="translate(641.719015 252.217344) scale(0.11 -0.11)">
       <defs>
        <path id="ArialMT-38" d="M 1131 2484 
Q 781 2613 612 2850 
Q 444 3088 444 3419 
Q 444 3919 803 4259 
Q 1163 4600 1759 4600 
Q 2359 4600 2725 4251 
Q 3091 3903 3091 3403 
Q 3091 3084 2923 2848 
Q 2756 2613 2416 2484 
Q 2838 2347 3058 2040 
Q 3278 1734 3278 1309 
Q 3278 722 2862 322 
Q 2447 -78 1769 -78 
Q 1091 -78 675 323 
Q 259 725 259 1325 
Q 259 1772 486 2073 
Q 713 2375 1131 2484 
z
M 1019 3438 
Q 1019 3113 1228 2906 
Q 1438 2700 1772 2700 
Q 2097 2700 2305 2904 
Q 2513 3109 2513 3406 
Q 2513 3716 2298 3927 
Q 2084 4138 1766 4138 
Q 1444 4138 1231 3931 
Q 1019 3725 1019 3438 
z
M 838 1322 
Q 838 1081 952 856 
Q 1066 631 1291 507 
Q 1516 384 1775 384 
Q 2178 384 2440 643 
Q 2703 903 2703 1303 
Q 2703 1709 2433 1975 
Q 2163 2241 1756 2241 
Q 1359 2241 1098 1978 
Q 838 1716 838 1322 
z
" transform="scale(0.015625)"/>
       </defs>
       <use xlink:href="#ArialMT-31"/>
       <use xlink:href="#ArialMT-38" transform="translate(55.615234 0)"/>
       <use xlink:href="#ArialMT-68" transform="translate(111.230469 0)"/>
      </g>
     </g>
    </g>
    <g id="xtick_5">
     <g id="line2d_5">
      <g>
       <use xlink:href="#m9e84f63001" x="809.301676" y="234.84375" style="fill: #262626; stroke: #262626; stroke-width: 1.25"/>
      </g>
     </g>
     <g id="text_5">
      <!-- 23h -->
      <g style="fill: #262626" transform="translate(800.126129 252.217344) scale(0.11 -0.11)">
       <defs>
        <path id="ArialMT-33" d="M 269 1209 
L 831 1284 
Q 928 806 1161 595 
Q 1394 384 1728 384 
Q 2125 384 2398 659 
Q 2672 934 2672 1341 
Q 2672 1728 2419 1979 
Q 2166 2231 1775 2231 
Q 1616 2231 1378 2169 
L 1441 2663 
Q 1497 2656 1531 2656 
Q 1891 2656 2178 2843 
Q 2466 3031 2466 3422 
Q 2466 3731 2256 3934 
Q 2047 4138 1716 4138 
Q 1388 4138 1169 3931 
Q 950 3725 888 3313 
L 325 3413 
Q 428 3978 793 4289 
Q 1159 4600 1703 4600 
Q 2078 4600 2393 4439 
Q 2709 4278 2876 4000 
Q 3044 3722 3044 3409 
Q 3044 3113 2884 2869 
Q 2725 2625 2413 2481 
Q 2819 2388 3044 2092 
Q 3269 1797 3269 1353 
Q 3269 753 2831 336 
Q 2394 -81 1725 -81 
Q 1122 -81 723 278 
Q 325 638 269 1209 
z
" transform="scale(0.015625)"/>
       </defs>
       <use xlink:href="#ArialMT-32"/>
       <use xlink:href="#ArialMT-33" transform="translate(55.615234 0)"/>
       <use xlink:href="#ArialMT-68" transform="translate(111.230469 0)"/>
      </g>
     </g>
    </g>
    <g id="text_6">
     <!-- Hour of the day -->
     <g style="fill: #262626" transform="translate(403.944062 267.139219) scale(0.12 -0.12)">
      <defs>
       <path id="ArialMT-48" d="M 513 0 
L 513 4581 
L 1119 4581 
L 1119 2700 
L 3500 2700 
L 3500 4581 
L 4106 4581 
L 4106 0 
L 3500 0 
L 3500 2159 
L 1119 2159 
L 1119 0 
L 513 0 
z
" transform="scale(0.015625)"/>
       <path id="ArialMT-6f" d="M 213 1659 
Q 213 2581 725 3025 
Q 1153 3394 1769 3394 
Q 2453 3394 2887 2945 
Q 3322 2497 3322 1706 
Q 3322 1066 3130 698 
Q 2938 331 2570 128 
Q 2203 -75 1769 -75 
Q 1072 -75 642 372 
Q 213 819 213 1659 
z
M 791 1659 
Q 791 1022 1069 705 
Q 1347 388 1769 388 
Q 2188 388 2466 706 
Q 2744 1025 2744 1678 
Q 2744 2294 2464 2611 
Q 2184 2928 1769 2928 
Q 1347 2928 1069 2612 
Q 791 2297 791 1659 
z
" transform="scale(0.015625)"/>
       <path id="ArialMT-75" d="M 2597 0 
L 2597 488 
Q 2209 -75 1544 -75 
Q 1250 -75 995 37 
Q 741 150 617 320 
Q 494 491 444 738 
Q 409 903 409 1263 
L 409 3319 
L 972 3319 
L 972 1478 
Q 972 1038 1006 884 
Q 1059 663 1231 536 
Q 1403 409 1656 409 
Q 1909 409 2131 539 
Q 2353 669 2445 892 
Q 2538 1116 2538 1541 
L 2538 3319 
L 3100 3319 
L 3100 0 
L 2597 0 
z
" transform="scale(0.015625)"/>
       <path id="ArialMT-72" d="M 416 0 
L 416 3319 
L 922 3319 
L 922 2816 
Q 1116 3169 1280 3281 
Q 1444 3394 1641 3394 
Q 1925 3394 2219 3213 
L 2025 2691 
Q 1819 2813 1613 2813 
Q 1428 2813 1281 2702 
Q 1134 2591 1072 2394 
Q 978 2094 978 1738 
L 978 0 
L 416 0 
z
" transform="scale(0.015625)"/>
       <path id="ArialMT-20" transform="scale(0.015625)"/>
       <path id="ArialMT-66" d="M 556 0 
L 556 2881 
L 59 2881 
L 59 3319 
L 556 3319 
L 556 3672 
Q 556 4006 616 4169 
Q 697 4388 901 4523 
Q 1106 4659 1475 4659 
Q 1713 4659 2000 4603 
L 1916 4113 
Q 1741 4144 1584 4144 
Q 1328 4144 1222 4034 
Q 1116 3925 1116 3625 
L 1116 3319 
L 1763 3319 
L 1763 2881 
L 1116 2881 
L 1116 0 
L 556 0 
z
" transform="scale(0.015625)"/>
       <path id="ArialMT-74" d="M 1650 503 
L 1731 6 
Q 1494 -44 1306 -44 
Q 1000 -44 831 53 
Q 663 150 594 308 
Q 525 466 525 972 
L 525 2881 
L 113 2881 
L 113 3319 
L 525 3319 
L 525 4141 
L 1084 4478 
L 1084 3319 
L 1650 3319 
L 1650 2881 
L 1084 2881 
L 1084 941 
Q 1084 700 1114 631 
Q 1144 563 1211 522 
Q 1278 481 1403 481 
Q 1497 481 1650 503 
z
" transform="scale(0.015625)"/>
       <path id="ArialMT-65" d="M 2694 1069 
L 3275 997 
Q 3138 488 2766 206 
Q 2394 -75 1816 -75 
Q 1088 -75 661 373 
Q 234 822 234 1631 
Q 234 2469 665 2931 
Q 1097 3394 1784 3394 
Q 2450 3394 2872 2941 
Q 3294 2488 3294 1666 
Q 3294 1616 3291 1516 
L 816 1516 
Q 847 969 1125 678 
Q 1403 388 1819 388 
Q 2128 388 2347 550 
Q 2566 713 2694 1069 
z
M 847 1978 
L 2700 1978 
Q 2663 2397 2488 2606 
Q 2219 2931 1791 2931 
Q 1403 2931 1139 2672 
Q 875 2413 847 1978 
z
" transform="scale(0.015625)"/>
       <path id="ArialMT-64" d="M 2575 0 
L 2575 419 
Q 2259 -75 1647 -75 
Q 1250 -75 917 144 
Q 584 363 401 755 
Q 219 1147 219 1656 
Q 219 2153 384 2558 
Q 550 2963 881 3178 
Q 1213 3394 1622 3394 
Q 1922 3394 2156 3267 
Q 2391 3141 2538 2938 
L 2538 4581 
L 3097 4581 
L 3097 0 
L 2575 0 
z
M 797 1656 
Q 797 1019 1065 703 
Q 1334 388 1700 388 
Q 2069 388 2326 689 
Q 2584 991 2584 1609 
Q 2584 2291 2321 2609 
Q 2059 2928 1675 2928 
Q 1300 2928 1048 2622 
Q 797 2316 797 1656 
z
" transform="scale(0.015625)"/>
       <path id="ArialMT-61" d="M 2588 409 
Q 2275 144 1986 34 
Q 1697 -75 1366 -75 
Q 819 -75 525 192 
Q 231 459 231 875 
Q 231 1119 342 1320 
Q 453 1522 633 1644 
Q 813 1766 1038 1828 
Q 1203 1872 1538 1913 
Q 2219 1994 2541 2106 
Q 2544 2222 2544 2253 
Q 2544 2597 2384 2738 
Q 2169 2928 1744 2928 
Q 1347 2928 1158 2789 
Q 969 2650 878 2297 
L 328 2372 
Q 403 2725 575 2942 
Q 747 3159 1072 3276 
Q 1397 3394 1825 3394 
Q 2250 3394 2515 3294 
Q 2781 3194 2906 3042 
Q 3031 2891 3081 2659 
Q 3109 2516 3109 2141 
L 3109 1391 
Q 3109 606 3145 398 
Q 3181 191 3288 0 
L 2700 0 
Q 2613 175 2588 409 
z
M 2541 1666 
Q 2234 1541 1622 1453 
Q 1275 1403 1131 1340 
Q 988 1278 909 1158 
Q 831 1038 831 891 
Q 831 666 1001 516 
Q 1172 366 1500 366 
Q 1825 366 2078 508 
Q 2331 650 2450 897 
Q 2541 1088 2541 1459 
L 2541 1666 
z
" transform="scale(0.015625)"/>
       <path id="ArialMT-79" d="M 397 -1278 
L 334 -750 
Q 519 -800 656 -800 
Q 844 -800 956 -737 
Q 1069 -675 1141 -563 
Q 1194 -478 1313 -144 
Q 1328 -97 1363 -6 
L 103 3319 
L 709 3319 
L 1400 1397 
Q 1534 1031 1641 628 
Q 1738 1016 1872 1384 
L 2581 3319 
L 3144 3319 
L 1881 -56 
Q 1678 -603 1566 -809 
Q 1416 -1088 1222 -1217 
Q 1028 -1347 759 -1347 
Q 597 -1347 397 -1278 
z
" transform="scale(0.015625)"/>
      </defs>
      <use xlink:href="#ArialMT-48"/>
      <use xlink:href="#ArialMT-6f" transform="translate(72.216797 0)"/>
      <use xlink:href="#ArialMT-75" transform="translate(127.832031 0)"/>
      <use xlink:href="#ArialMT-72" transform="translate(183.447266 0)"/>
      <use xlink:href="#ArialMT-20" transform="translate(216.748047 0)"/>
      <use xlink:href="#ArialMT-6f" transform="translate(244.53125 0)"/>
      <use xlink:href="#ArialMT-66" transform="translate(300.146484 0)"/>
      <use xlink:href="#ArialMT-20" transform="translate(327.929688 0)"/>
      <use xlink:href="#ArialMT-74" transform="translate(355.712891 0)"/>
      <use xlink:href="#ArialMT-68" transform="translate(383.496094 0)"/>
      <use xlink:href="#ArialMT-65" transform="translate(439.111328 0)"/>
      <use xlink:href="#ArialMT-20" transform="translate(494.726562 0)"/>
      <use xlink:href="#ArialMT-64" transform="translate(522.509766 0)"/>
      <use xlink:href="#ArialMT-61" transform="translate(578.125 0)"/>
      <use xlink:href="#ArialMT-79" transform="translate(633.740234 0)"/>
     </g>
    </g>
   </g>
   <g id="matplotlib.axis_2">
    <g id="ytick_1">
     <g id="line2d_6">
      <defs>
       <path id="m4ce2f17698" d="M 0 0 
L -6 0 
" style="stroke: #262626; stroke-width: 1.25"/>
      </defs>
      <g>
       <use xlink:href="#m4ce2f17698" x="44.195313" y="234.388174" style="fill: #262626; stroke: #262626; stroke-width: 1.25"/>
      </g>
     </g>
     <g id="text_7">
      <!-- 10 -->
      <g style="fill: #262626" transform="translate(22.46125 238.324971) scale(0.11 -0.11)">
       <use xlink:href="#ArialMT-31"/>
       <use xlink:href="#ArialMT-30" transform="translate(55.615234 0)"/>
      </g>
     </g>
    </g>
    <g id="ytick_2">
     <g id="line2d_7">
      <g>
       <use xlink:href="#m4ce2f17698" x="44.195313" y="187.859802" style="fill: #262626; stroke: #262626; stroke-width: 1.25"/>
      </g>
     </g>
     <g id="text_8">
      <!-- 20 -->
      <g style="fill: #262626" transform="translate(22.46125 191.796599) scale(0.11 -0.11)">
       <use xlink:href="#ArialMT-32"/>
       <use xlink:href="#ArialMT-30" transform="translate(55.615234 0)"/>
      </g>
     </g>
    </g>
    <g id="ytick_3">
     <g id="line2d_8">
      <g>
       <use xlink:href="#m4ce2f17698" x="44.195313" y="141.33143" style="fill: #262626; stroke: #262626; stroke-width: 1.25"/>
      </g>
     </g>
     <g id="text_9">
      <!-- 30 -->
      <g style="fill: #262626" transform="translate(22.46125 145.268227) scale(0.11 -0.11)">
       <use xlink:href="#ArialMT-33"/>
       <use xlink:href="#ArialMT-30" transform="translate(55.615234 0)"/>
      </g>
     </g>
    </g>
    <g id="ytick_4">
     <g id="line2d_9">
      <g>
       <use xlink:href="#m4ce2f17698" x="44.195313" y="94.803058" style="fill: #262626; stroke: #262626; stroke-width: 1.25"/>
      </g>
     </g>
     <g id="text_10">
      <!-- 40 -->
      <g style="fill: #262626" transform="translate(22.46125 98.739855) scale(0.11 -0.11)">
       <defs>
        <path id="ArialMT-34" d="M 2069 0 
L 2069 1097 
L 81 1097 
L 81 1613 
L 2172 4581 
L 2631 4581 
L 2631 1613 
L 3250 1613 
L 3250 1097 
L 2631 1097 
L 2631 0 
L 2069 0 
z
M 2069 1613 
L 2069 3678 
L 634 1613 
L 2069 1613 
z
" transform="scale(0.015625)"/>
       </defs>
       <use xlink:href="#ArialMT-34"/>
       <use xlink:href="#ArialMT-30" transform="translate(55.615234 0)"/>
      </g>
     </g>
    </g>
    <g id="ytick_5">
     <g id="line2d_10">
      <g>
       <use xlink:href="#m4ce2f17698" x="44.195313" y="48.274686" style="fill: #262626; stroke: #262626; stroke-width: 1.25"/>
      </g>
     </g>
     <g id="text_11">
      <!-- 50 -->
      <g style="fill: #262626" transform="translate(22.46125 52.211483) scale(0.11 -0.11)">
       <defs>
        <path id="ArialMT-35" d="M 266 1200 
L 856 1250 
Q 922 819 1161 601 
Q 1400 384 1738 384 
Q 2144 384 2425 690 
Q 2706 997 2706 1503 
Q 2706 1984 2436 2262 
Q 2166 2541 1728 2541 
Q 1456 2541 1237 2417 
Q 1019 2294 894 2097 
L 366 2166 
L 809 4519 
L 3088 4519 
L 3088 3981 
L 1259 3981 
L 1013 2750 
Q 1425 3038 1878 3038 
Q 2478 3038 2890 2622 
Q 3303 2206 3303 1553 
Q 3303 931 2941 478 
Q 2500 -78 1738 -78 
Q 1113 -78 717 272 
Q 322 622 266 1200 
z
" transform="scale(0.015625)"/>
       </defs>
       <use xlink:href="#ArialMT-35"/>
       <use xlink:href="#ArialMT-30" transform="translate(55.615234 0)"/>
      </g>
     </g>
    </g>
    <g id="text_12">
     <!-- MAE (€/MWh) -->
     <g style="fill: #262626" transform="translate(15.935625 158.687813) rotate(-90) scale(0.12 -0.12)">
      <defs>
       <path id="ArialMT-4d" d="M 475 0 
L 475 4581 
L 1388 4581 
L 2472 1338 
Q 2622 884 2691 659 
Q 2769 909 2934 1394 
L 4031 4581 
L 4847 4581 
L 4847 0 
L 4263 0 
L 4263 3834 
L 2931 0 
L 2384 0 
L 1059 3900 
L 1059 0 
L 475 0 
z
" transform="scale(0.015625)"/>
       <path id="ArialMT-41" d="M -9 0 
L 1750 4581 
L 2403 4581 
L 4278 0 
L 3588 0 
L 3053 1388 
L 1138 1388 
L 634 0 
L -9 0 
z
M 1313 1881 
L 2866 1881 
L 2388 3150 
Q 2169 3728 2063 4100 
Q 1975 3659 1816 3225 
L 1313 1881 
z
" transform="scale(0.015625)"/>
       <path id="ArialMT-45" d="M 506 0 
L 506 4581 
L 3819 4581 
L 3819 4041 
L 1113 4041 
L 1113 2638 
L 3647 2638 
L 3647 2100 
L 1113 2100 
L 1113 541 
L 3925 541 
L 3925 0 
L 506 0 
z
" transform="scale(0.015625)"/>
       <path id="ArialMT-28" d="M 1497 -1347 
Q 1031 -759 709 28 
Q 388 816 388 1659 
Q 388 2403 628 3084 
Q 909 3875 1497 4659 
L 1900 4659 
Q 1522 4009 1400 3731 
Q 1209 3300 1100 2831 
Q 966 2247 966 1656 
Q 966 153 1900 -1347 
L 1497 -1347 
z
" transform="scale(0.015625)"/>
       <path id="ArialMT-20ac" d="M 2469 4141 
Q 1944 4141 1588 3888 
Q 1375 3738 1203 3463 
Q 1028 3178 997 2922 
L 3128 2922 
L 3044 2503 
L 947 2503 
Q 944 2438 944 2378 
Q 944 2138 947 2091 
L 2959 2091 
L 2872 1672 
L 1013 1672 
Q 1144 956 1644 656 
Q 2003 441 2422 441 
Q 3006 441 3334 747 
L 3334 103 
Q 2944 -78 2472 -78 
Q 1059 -78 563 1097 
Q 463 1334 391 1672 
L -88 1672 
L 0 2091 
L 328 2091 
Q 319 2222 319 2375 
Q 319 2438 322 2503 
L -88 2503 
L 0 2922 
L 363 2922 
Q 556 3941 1372 4384 
Q 1875 4659 2481 4659 
Q 3063 4659 3459 4406 
L 3334 3825 
Q 2953 4141 2469 4141 
z
" transform="scale(0.015625)"/>
       <path id="ArialMT-2f" d="M 0 -78 
L 1328 4659 
L 1778 4659 
L 453 -78 
L 0 -78 
z
" transform="scale(0.015625)"/>
       <path id="ArialMT-57" d="M 1294 0 
L 78 4581 
L 700 4581 
L 1397 1578 
Q 1509 1106 1591 641 
Q 1766 1375 1797 1488 
L 2669 4581 
L 3400 4581 
L 4056 2263 
Q 4303 1400 4413 641 
Q 4500 1075 4641 1638 
L 5359 4581 
L 5969 4581 
L 4713 0 
L 4128 0 
L 3163 3491 
Q 3041 3928 3019 4028 
Q 2947 3713 2884 3491 
L 1913 0 
L 1294 0 
z
" transform="scale(0.015625)"/>
       <path id="ArialMT-29" d="M 791 -1347 
L 388 -1347 
Q 1322 153 1322 1656 
Q 1322 2244 1188 2822 
Q 1081 3291 891 3722 
Q 769 4003 388 4659 
L 791 4659 
Q 1378 3875 1659 3084 
Q 1900 2403 1900 1659 
Q 1900 816 1576 28 
Q 1253 -759 791 -1347 
z
" transform="scale(0.015625)"/>
      </defs>
      <use xlink:href="#ArialMT-4d"/>
      <use xlink:href="#ArialMT-41" transform="translate(83.300781 0)"/>
      <use xlink:href="#ArialMT-45" transform="translate(150 0)"/>
      <use xlink:href="#ArialMT-20" transform="translate(216.699219 0)"/>
      <use xlink:href="#ArialMT-28" transform="translate(244.482422 0)"/>
      <use xlink:href="#ArialMT-20ac" transform="translate(277.783203 0)"/>
      <use xlink:href="#ArialMT-2f" transform="translate(333.398438 0)"/>
      <use xlink:href="#ArialMT-4d" transform="translate(361.181641 0)"/>
      <use xlink:href="#ArialMT-57" transform="translate(444.482422 0)"/>
      <use xlink:href="#ArialMT-68" transform="translate(538.867188 0)"/>
      <use xlink:href="#ArialMT-29" transform="translate(594.482422 0)"/>
     </g>
    </g>
   </g>
   <g id="FillBetweenPolyCollection_1">
    <defs>
     <path id="m056fc77bcf" d="M 80.628949 -111.05959 
L 80.628949 -106.339781 
L 112.310372 -109.228606 
L 143.991795 -109.508088 
L 175.673218 -124.99172 
L 207.354641 -170.958088 
L 239.036063 -178.90117 
L 270.717486 -166.989802 
L 302.398909 -152.876904 
L 334.080332 -147.100215 
L 365.761755 -145.280681 
L 397.443178 -152.177383 
L 429.124601 -157.882489 
L 460.806024 -156.545755 
L 492.487447 -145.691648 
L 524.16887 -144.506994 
L 555.850293 -157.73108 
L 587.531716 -211.920843 
L 619.213139 -246.595311 
L 650.894562 -235.157358 
L 682.575984 -194.510175 
L 714.257407 -161.633237 
L 745.93883 -130.271576 
L 777.620253 -123.207267 
L 809.301676 -109.555539 
L 809.301676 -113.933256 
L 809.301676 -113.933256 
L 777.620253 -127.591475 
L 745.93883 -135.141112 
L 714.257407 -166.657365 
L 682.575984 -204.377676 
L 650.894562 -253.610449 
L 619.213139 -259.317401 
L 587.531716 -222.623302 
L 555.850293 -165.454784 
L 524.16887 -149.883392 
L 492.487447 -150.627081 
L 460.806024 -161.470847 
L 429.124601 -163.111655 
L 397.443178 -156.995385 
L 365.761755 -150.072944 
L 334.080332 -152.979358 
L 302.398909 -158.875653 
L 270.717486 -173.66868 
L 239.036063 -188.531001 
L 207.354641 -192.320268 
L 175.673218 -134.730953 
L 143.991795 -114.768043 
L 112.310372 -114.122759 
L 80.628949 -111.05959 
z
" style="stroke: #840853; stroke-opacity: 0.2"/>
    </defs>
    <g clip-path="url(#pee4a546754)">
     <use xlink:href="#m056fc77bcf" x="0" y="276.864844" style="fill: #840853; fill-opacity: 0.2; stroke: #840853; stroke-opacity: 0.2"/>
    </g>
   </g>
   <g id="FillBetweenPolyCollection_2">
    <defs>
     <path id="mfc2a92493f" d="M 80.628949 -77.600518 
L 80.628949 -63.961009 
L 112.310372 -66.758069 
L 143.991795 -77.275391 
L 175.673218 -78.073632 
L 207.354641 -104.922855 
L 239.036063 -140.262831 
L 270.717486 -135.887833 
L 302.398909 -132.7595 
L 334.080332 -88.600894 
L 365.761755 -95.585774 
L 397.443178 -104.115936 
L 429.124601 -116.279206 
L 460.806024 -116.655386 
L 492.487447 -93.02822 
L 524.16887 -105.143109 
L 555.850293 -90.234917 
L 587.531716 -110.496847 
L 619.213139 -133.643053 
L 650.894562 -123.606646 
L 682.575984 -92.706682 
L 714.257407 -82.659754 
L 745.93883 -61.52514 
L 777.620253 -52.482158 
L 809.301676 -55.057585 
L 809.301676 -68.629917 
L 809.301676 -68.629917 
L 777.620253 -67.551472 
L 745.93883 -77.682467 
L 714.257407 -103.571044 
L 682.575984 -120.207278 
L 650.894562 -152.224647 
L 619.213139 -162.364027 
L 587.531716 -138.667198 
L 555.850293 -114.315201 
L 524.16887 -127.069249 
L 492.487447 -124.843396 
L 460.806024 -151.46085 
L 429.124601 -147.420943 
L 397.443178 -131.64806 
L 365.761755 -122.516962 
L 334.080332 -111.362097 
L 302.398909 -154.159666 
L 270.717486 -166.700271 
L 239.036063 -165.624874 
L 207.354641 -125.572899 
L 175.673218 -93.202736 
L 143.991795 -90.422323 
L 112.310372 -79.634529 
L 80.628949 -77.600518 
z
" style="stroke: #840853; stroke-opacity: 0.2"/>
    </defs>
    <g clip-path="url(#pee4a546754)">
     <use xlink:href="#mfc2a92493f" x="0" y="276.864844" style="fill: #840853; fill-opacity: 0.2; stroke: #840853; stroke-opacity: 0.2"/>
    </g>
   </g>
   <g id="FillBetweenPolyCollection_3">
    <defs>
     <path id="mb779e8dabc" d="M 80.628949 -94.977432 
L 80.628949 -90.943037 
L 112.310372 -93.782532 
L 143.991795 -94.741881 
L 175.673218 -109.368228 
L 207.354641 -154.379037 
L 239.036063 -165.150097 
L 270.717486 -156.83083 
L 302.398909 -143.980164 
L 334.080332 -140.046009 
L 365.761755 -137.93821 
L 397.443178 -143.760351 
L 429.124601 -149.218538 
L 460.806024 -147.501127 
L 492.487447 -137.153261 
L 524.16887 -137.14049 
L 555.850293 -147.806615 
L 587.531716 -203.024993 
L 619.213139 -237.528846 
L 650.894562 -224.909801 
L 682.575984 -181.971224 
L 714.257407 -147.192553 
L 745.93883 -115.424043 
L 777.620253 -106.888937 
L 809.301676 -93.791308 
L 809.301676 -97.623316 
L 809.301676 -97.623316 
L 777.620253 -110.754147 
L 745.93883 -119.704361 
L 714.257407 -151.582785 
L 682.575984 -191.169676 
L 650.894562 -242.195412 
L 619.213139 -250.624386 
L 587.531716 -213.857001 
L 555.850293 -155.389516 
L 524.16887 -142.320072 
L 492.487447 -141.907766 
L 460.806024 -152.461448 
L 429.124601 -153.838272 
L 397.443178 -148.226692 
L 365.761755 -142.460465 
L 334.080332 -145.509818 
L 302.398909 -150.248703 
L 270.717486 -163.363846 
L 239.036063 -174.179458 
L 207.354641 -175.818045 
L 175.673218 -118.508731 
L 143.991795 -99.435268 
L 112.310372 -98.65442 
L 80.628949 -94.977432 
z
" style="stroke: #3a609c; stroke-opacity: 0.2"/>
    </defs>
    <g clip-path="url(#pee4a546754)">
     <use xlink:href="#mb779e8dabc" x="0" y="276.864844" style="fill: #3a609c; fill-opacity: 0.2; stroke: #3a609c; stroke-opacity: 0.2"/>
    </g>
   </g>
   <g id="FillBetweenPolyCollection_4">
    <defs>
     <path id="m85f639e01e" d="M 80.628949 -96.824828 
L 80.628949 -77.663435 
L 112.310372 -82.112258 
L 143.991795 -91.631491 
L 175.673218 -87.498327 
L 207.354641 -94.506633 
L 239.036063 -124.691786 
L 270.717486 -124.686409 
L 302.398909 -122.861735 
L 334.080332 -93.876124 
L 365.761755 -104.984228 
L 397.443178 -112.519574 
L 429.124601 -129.494386 
L 460.806024 -128.473592 
L 492.487447 -103.069209 
L 524.16887 -97.554777 
L 555.850293 -85.48942 
L 587.531716 -107.96251 
L 619.213139 -138.056822 
L 650.894562 -130.82451 
L 682.575984 -101.581176 
L 714.257407 -86.631153 
L 745.93883 -71.729352 
L 777.620253 -68.869741 
L 809.301676 -71.748109 
L 809.301676 -90.735092 
L 809.301676 -90.735092 
L 777.620253 -87.387894 
L 745.93883 -90.417692 
L 714.257407 -108.220431 
L 682.575984 -129.70113 
L 650.894562 -158.937455 
L 619.213139 -163.242447 
L 587.531716 -132.720361 
L 555.850293 -105.345172 
L 524.16887 -119.707236 
L 492.487447 -127.852869 
L 460.806024 -153.375908 
L 429.124601 -148.430554 
L 397.443178 -131.868219 
L 365.761755 -127.735867 
L 334.080332 -117.753942 
L 302.398909 -143.571503 
L 270.717486 -153.679563 
L 239.036063 -153.146885 
L 207.354641 -119.592439 
L 175.673218 -110.409095 
L 143.991795 -112.59402 
L 112.310372 -102.07461 
L 80.628949 -96.824828 
z
" style="stroke: #3a609c; stroke-opacity: 0.2"/>
    </defs>
    <g clip-path="url(#pee4a546754)">
     <use xlink:href="#m85f639e01e" x="0" y="276.864844" style="fill: #3a609c; fill-opacity: 0.2; stroke: #3a609c; stroke-opacity: 0.2"/>
    </g>
   </g>
   <g id="FillBetweenPolyCollection_5">
    <defs>
     <path id="mf86aa0098a" d="M 80.628949 -76.495676 
L 80.628949 -72.43877 
L 112.310372 -79.62995 
L 143.991795 -79.299596 
L 175.673218 -85.257105 
L 207.354641 -117.861568 
L 239.036063 -125.677561 
L 270.717486 -121.250267 
L 302.398909 -120.683382 
L 334.080332 -128.266712 
L 365.761755 -135.200438 
L 397.443178 -147.610973 
L 429.124601 -157.95781 
L 460.806024 -159.075624 
L 492.487447 -143.576651 
L 524.16887 -130.034302 
L 555.850293 -124.67423 
L 587.531716 -150.696376 
L 619.213139 -183.440329 
L 650.894562 -173.095384 
L 682.575984 -123.211629 
L 714.257407 -88.19757 
L 745.93883 -65.104635 
L 777.620253 -67.842806 
L 809.301676 -66.407717 
L 809.301676 -70.1585 
L 809.301676 -70.1585 
L 777.620253 -71.72927 
L 745.93883 -69.375597 
L 714.257407 -92.674958 
L 682.575984 -132.890176 
L 650.894562 -189.976665 
L 619.213139 -196.260288 
L 587.531716 -161.819153 
L 555.850293 -131.784761 
L 524.16887 -135.608966 
L 492.487447 -148.940037 
L 460.806024 -165.180501 
L 429.124601 -163.516972 
L 397.443178 -153.199909 
L 365.761755 -140.441007 
L 334.080332 -133.519519 
L 302.398909 -126.037928 
L 270.717486 -127.269434 
L 239.036063 -134.822945 
L 207.354641 -140.464093 
L 175.673218 -94.360739 
L 143.991795 -83.896007 
L 112.310372 -84.217976 
L 80.628949 -76.495676 
z
" style="stroke: #ffb14e; stroke-opacity: 0.2"/>
    </defs>
    <g clip-path="url(#pee4a546754)">
     <use xlink:href="#mf86aa0098a" x="0" y="276.864844" style="fill: #ffb14e; fill-opacity: 0.2; stroke: #ffb14e; stroke-opacity: 0.2"/>
    </g>
   </g>
   <g id="FillBetweenPolyCollection_6">
    <defs>
     <path id="mce2208bb3d" d="M 80.628949 -67.535115 
L 80.628949 -52.368537 
L 112.310372 -57.951774 
L 143.991795 -59.382083 
L 175.673218 -63.017962 
L 207.354641 -99.032275 
L 239.036063 -132.892821 
L 270.717486 -138.166559 
L 302.398909 -134.295528 
L 334.080332 -98.752215 
L 365.761755 -117.926111 
L 397.443178 -129.874652 
L 429.124601 -154.330995 
L 460.806024 -148.408376 
L 492.487447 -116.684597 
L 524.16887 -103.322627 
L 555.850293 -113.435903 
L 587.531716 -116.100828 
L 619.213139 -118.971955 
L 650.894562 -99.684829 
L 682.575984 -73.868176 
L 714.257407 -67.049161 
L 745.93883 -60.380338 
L 777.620253 -53.115819 
L 809.301676 -54.101058 
L 809.301676 -68.471963 
L 809.301676 -68.471963 
L 777.620253 -68.04027 
L 745.93883 -75.012829 
L 714.257407 -82.381367 
L 682.575984 -91.779722 
L 650.894562 -122.706497 
L 619.213139 -145.67458 
L 587.531716 -137.342361 
L 555.850293 -140.433867 
L 524.16887 -141.125885 
L 492.487447 -155.962134 
L 460.806024 -189.520789 
L 429.124601 -190.123041 
L 397.443178 -166.033097 
L 365.761755 -153.245212 
L 334.080332 -133.295873 
L 302.398909 -160.452066 
L 270.717486 -158.775074 
L 239.036063 -150.647352 
L 207.354641 -116.421129 
L 175.673218 -81.430926 
L 143.991795 -76.602969 
L 112.310372 -75.193596 
L 80.628949 -67.535115 
z
" style="stroke: #ffb14e; stroke-opacity: 0.2"/>
    </defs>
    <g clip-path="url(#pee4a546754)">
     <use xlink:href="#mce2208bb3d" x="0" y="276.864844" style="fill: #ffb14e; fill-opacity: 0.2; stroke: #ffb14e; stroke-opacity: 0.2"/>
    </g>
   </g>
   <g id="line2d_11">
    <path d="M 80.628949 168.208358 
L 112.310372 165.225038 
L 143.991795 164.633271 
L 175.673218 147.171221 
L 207.354641 95.574476 
L 239.036063 93.388754 
L 270.717486 106.81152 
L 302.398909 120.969841 
L 334.080332 126.776451 
L 365.761755 129.032456 
L 397.443178 122.288685 
L 429.124601 116.448794 
L 460.806024 117.749034 
L 492.487447 128.635122 
L 524.16887 129.667855 
L 555.850293 115.399718 
L 587.531716 59.599975 
L 619.213139 23.874677 
L 650.894562 33.101934 
L 682.575984 77.345213 
L 714.257407 112.766019 
L 745.93883 144.208524 
L 777.620253 151.487244 
L 809.301676 165.058343 
" clip-path="url(#pee4a546754)" style="fill: none; stroke: #840853; stroke-width: 1.5; stroke-linecap: round"/>
   </g>
   <g id="line2d_12">
    <path d="M 80.628949 206.065411 
L 112.310372 203.686098 
L 143.991795 193.219206 
L 175.673218 191.163847 
L 207.354641 161.857517 
L 239.036063 123.822064 
L 270.717486 125.545608 
L 302.398909 133.921948 
L 334.080332 176.972631 
L 365.761755 167.978657 
L 397.443178 159.457347 
L 429.124601 145.106557 
L 460.806024 143.752322 
L 492.487447 168.002573 
L 524.16887 161.400402 
L 555.850293 174.940932 
L 587.531716 152.158034 
L 619.213139 129.194115 
L 650.894562 139.543939 
L 682.575984 170.287653 
L 714.257407 184.174783 
L 745.93883 207.591941 
L 777.620253 217.317825 
L 809.301676 215.37367 
" clip-path="url(#pee4a546754)" style="fill: none; stroke-dasharray: 6,2.25; stroke-dashoffset: 0; stroke: #840853; stroke-width: 1.5"/>
   </g>
   <g id="line2d_13">
    <path d="M 80.628949 183.860678 
L 112.310372 180.615202 
L 143.991795 179.874031 
L 175.673218 162.99667 
L 207.354641 112.219579 
L 239.036063 107.244514 
L 270.717486 116.772473 
L 302.398909 129.711709 
L 334.080332 134.159209 
L 365.761755 136.600576 
L 397.443178 130.913984 
L 429.124601 125.367696 
L 460.806024 126.777442 
L 492.487447 137.367568 
L 524.16887 137.203518 
L 555.850293 125.34203 
L 587.531716 68.635285 
L 619.213139 33.08906 
L 650.894562 43.270702 
L 682.575984 90.696517 
L 714.257407 127.485636 
L 745.93883 159.36753 
L 777.620253 167.994755 
L 809.301676 181.173061 
" clip-path="url(#pee4a546754)" style="fill: none; stroke: #3a609c; stroke-width: 1.5; stroke-linecap: round"/>
   </g>
   <g id="line2d_14">
    <path d="M 80.628949 189.812822 
L 112.310372 184.499712 
L 143.991795 174.989679 
L 175.673218 177.883796 
L 207.354641 169.951983 
L 239.036063 137.862657 
L 270.717486 137.764244 
L 302.398909 144.234648 
L 334.080332 171.511571 
L 365.761755 161.019682 
L 397.443178 154.451859 
L 429.124601 137.989847 
L 460.806024 136.649539 
L 492.487447 161.588106 
L 524.16887 168.785867 
L 555.850293 181.356699 
L 587.531716 156.972941 
L 619.213139 126.452007 
L 650.894562 132.314568 
L 682.575984 160.984594 
L 714.257407 179.869399 
L 745.93883 196.109039 
L 777.620253 199.056389 
L 809.301676 196.197442 
" clip-path="url(#pee4a546754)" style="fill: none; stroke-dasharray: 6,2.25; stroke-dashoffset: 0; stroke: #3a609c; stroke-width: 1.5"/>
   </g>
   <g id="line2d_15">
    <path d="M 80.628949 202.442519 
L 112.310372 194.915853 
L 143.991795 195.231781 
L 175.673218 187.393364 
L 207.354641 149.160414 
L 239.036063 146.937778 
L 270.717486 152.737543 
L 302.398909 153.441355 
L 334.080332 145.958004 
L 365.761755 139.168393 
L 397.443178 126.527969 
L 429.124601 116.188306 
L 460.806024 114.650358 
L 492.487447 130.517589 
L 524.16887 143.86901 
L 555.850293 148.83478 
L 587.531716 120.670409 
L 619.213139 87.001394 
L 650.894562 95.581438 
L 682.575984 148.771937 
L 714.257407 186.447111 
L 745.93883 209.642238 
L 777.620253 207.137402 
L 809.301676 208.590468 
" clip-path="url(#pee4a546754)" style="fill: none; stroke: #ffb14e; stroke-width: 1.5; stroke-linecap: round"/>
   </g>
   <g id="line2d_16">
    <path d="M 80.628949 216.795298 
L 112.310372 210.668496 
L 143.991795 209.210818 
L 175.673218 205.002294 
L 207.354641 169.367312 
L 239.036063 135.111099 
L 270.717486 128.198949 
L 302.398909 130.252816 
L 334.080332 160.612069 
L 365.761755 141.08847 
L 397.443178 128.916541 
L 429.124601 105.152739 
L 460.806024 107.536163 
L 492.487447 140.820968 
L 524.16887 155.62504 
L 555.850293 150.038282 
L 587.531716 150.215755 
L 619.213139 144.882999 
L 650.894562 165.989368 
L 682.575984 194.445722 
L 714.257407 201.791106 
L 745.93883 209.33657 
L 777.620253 216.178958 
L 809.301676 215.764399 
" clip-path="url(#pee4a546754)" style="fill: none; stroke-dasharray: 6,2.25; stroke-dashoffset: 0; stroke: #ffb14e; stroke-width: 1.5"/>
   </g>
   <g id="line2d_17"/>
   <g id="line2d_18"/>
   <g id="line2d_19"/>
   <g id="line2d_20"/>
   <g id="line2d_21"/>
   <g id="line2d_22"/>
   <g id="line2d_23"/>
   <g id="patch_3">
    <path d="M 44.195313 234.84375 
L 44.195313 7.2 
" style="fill: none; stroke: #262626; stroke-width: 1.25; stroke-linejoin: miter; stroke-linecap: square"/>
   </g>
   <g id="patch_4">
    <path d="M 845.735312 234.84375 
L 845.735312 7.2 
" style="fill: none; stroke: #262626; stroke-width: 1.25; stroke-linejoin: miter; stroke-linecap: square"/>
   </g>
   <g id="patch_5">
    <path d="M 44.195312 234.84375 
L 845.735312 234.84375 
" style="fill: none; stroke: #262626; stroke-width: 1.25; stroke-linejoin: miter; stroke-linecap: square"/>
   </g>
   <g id="patch_6">
    <path d="M 44.195312 7.2 
L 845.735312 7.2 
" style="fill: none; stroke: #262626; stroke-width: 1.25; stroke-linejoin: miter; stroke-linecap: square"/>
   </g>
   <g id="legend_1">
    <g id="patch_7">
     <path d="M 51.895313 125.57375 
L 172.665 125.57375 
Q 174.865 125.57375 174.865 123.37375 
L 174.865 14.9 
Q 174.865 12.7 172.665 12.7 
L 51.895313 12.7 
Q 49.695313 12.7 49.695313 14.9 
L 49.695313 123.37375 
Q 49.695313 125.57375 51.895313 125.57375 
z
" style="fill: #ffffff; opacity: 0.8; stroke: #cccccc; stroke-linejoin: miter"/>
    </g>
    <g id="line2d_24">
     <path d="M 54.095313 21.123594 
L 65.095313 21.123594 
L 76.095313 21.123594 
" style="fill: none"/>
    </g>
    <g id="text_13">
     <!-- Model -->
     <g style="fill: #262626" transform="translate(84.895313 24.973594) scale(0.11 -0.11)">
      <defs>
       <path id="ArialMT-6c" d="M 409 0 
L 409 4581 
L 972 4581 
L 972 0 
L 409 0 
z
" transform="scale(0.015625)"/>
      </defs>
      <use xlink:href="#ArialMT-4d"/>
      <use xlink:href="#ArialMT-6f" transform="translate(83.300781 0)"/>
      <use xlink:href="#ArialMT-64" transform="translate(138.916016 0)"/>
      <use xlink:href="#ArialMT-65" transform="translate(194.53125 0)"/>
      <use xlink:href="#ArialMT-6c" transform="translate(250.146484 0)"/>
     </g>
    </g>
    <g id="line2d_25">
     <path d="M 54.095313 36.8175 
L 65.095313 36.8175 
L 76.095313 36.8175 
" style="fill: none; stroke: #840853; stroke-width: 1.5; stroke-linecap: round"/>
    </g>
    <g id="text_14">
     <!-- LSTM (VRE only) -->
     <g style="fill: #262626" transform="translate(84.895313 40.6675) scale(0.11 -0.11)">
      <defs>
       <path id="ArialMT-4c" d="M 469 0 
L 469 4581 
L 1075 4581 
L 1075 541 
L 3331 541 
L 3331 0 
L 469 0 
z
" transform="scale(0.015625)"/>
       <path id="ArialMT-53" d="M 288 1472 
L 859 1522 
Q 900 1178 1048 958 
Q 1197 738 1509 602 
Q 1822 466 2213 466 
Q 2559 466 2825 569 
Q 3091 672 3220 851 
Q 3350 1031 3350 1244 
Q 3350 1459 3225 1620 
Q 3100 1781 2813 1891 
Q 2628 1963 1997 2114 
Q 1366 2266 1113 2400 
Q 784 2572 623 2826 
Q 463 3081 463 3397 
Q 463 3744 659 4045 
Q 856 4347 1234 4503 
Q 1613 4659 2075 4659 
Q 2584 4659 2973 4495 
Q 3363 4331 3572 4012 
Q 3781 3694 3797 3291 
L 3216 3247 
Q 3169 3681 2898 3903 
Q 2628 4125 2100 4125 
Q 1550 4125 1298 3923 
Q 1047 3722 1047 3438 
Q 1047 3191 1225 3031 
Q 1400 2872 2139 2705 
Q 2878 2538 3153 2413 
Q 3553 2228 3743 1945 
Q 3934 1663 3934 1294 
Q 3934 928 3725 604 
Q 3516 281 3123 101 
Q 2731 -78 2241 -78 
Q 1619 -78 1198 103 
Q 778 284 539 648 
Q 300 1013 288 1472 
z
" transform="scale(0.015625)"/>
       <path id="ArialMT-54" d="M 1659 0 
L 1659 4041 
L 150 4041 
L 150 4581 
L 3781 4581 
L 3781 4041 
L 2266 4041 
L 2266 0 
L 1659 0 
z
" transform="scale(0.015625)"/>
       <path id="ArialMT-56" d="M 1803 0 
L 28 4581 
L 684 4581 
L 1875 1253 
Q 2019 853 2116 503 
Q 2222 878 2363 1253 
L 3600 4581 
L 4219 4581 
L 2425 0 
L 1803 0 
z
" transform="scale(0.015625)"/>
       <path id="ArialMT-52" d="M 503 0 
L 503 4581 
L 2534 4581 
Q 3147 4581 3465 4457 
Q 3784 4334 3975 4021 
Q 4166 3709 4166 3331 
Q 4166 2844 3850 2509 
Q 3534 2175 2875 2084 
Q 3116 1969 3241 1856 
Q 3506 1613 3744 1247 
L 4541 0 
L 3778 0 
L 3172 953 
Q 2906 1366 2734 1584 
Q 2563 1803 2427 1890 
Q 2291 1978 2150 2013 
Q 2047 2034 1813 2034 
L 1109 2034 
L 1109 0 
L 503 0 
z
M 1109 2559 
L 2413 2559 
Q 2828 2559 3062 2645 
Q 3297 2731 3419 2920 
Q 3541 3109 3541 3331 
Q 3541 3656 3305 3865 
Q 3069 4075 2559 4075 
L 1109 4075 
L 1109 2559 
z
" transform="scale(0.015625)"/>
       <path id="ArialMT-6e" d="M 422 0 
L 422 3319 
L 928 3319 
L 928 2847 
Q 1294 3394 1984 3394 
Q 2284 3394 2536 3286 
Q 2788 3178 2913 3003 
Q 3038 2828 3088 2588 
Q 3119 2431 3119 2041 
L 3119 0 
L 2556 0 
L 2556 2019 
Q 2556 2363 2490 2533 
Q 2425 2703 2258 2804 
Q 2091 2906 1866 2906 
Q 1506 2906 1245 2678 
Q 984 2450 984 1813 
L 984 0 
L 422 0 
z
" transform="scale(0.015625)"/>
      </defs>
      <use xlink:href="#ArialMT-4c"/>
      <use xlink:href="#ArialMT-53" transform="translate(55.615234 0)"/>
      <use xlink:href="#ArialMT-54" transform="translate(122.314453 0)"/>
      <use xlink:href="#ArialMT-4d" transform="translate(183.398438 0)"/>
      <use xlink:href="#ArialMT-20" transform="translate(266.699219 0)"/>
      <use xlink:href="#ArialMT-28" transform="translate(294.482422 0)"/>
      <use xlink:href="#ArialMT-56" transform="translate(327.783203 0)"/>
      <use xlink:href="#ArialMT-52" transform="translate(394.482422 0)"/>
      <use xlink:href="#ArialMT-45" transform="translate(466.699219 0)"/>
      <use xlink:href="#ArialMT-20" transform="translate(533.398438 0)"/>
      <use xlink:href="#ArialMT-6f" transform="translate(561.181641 0)"/>
      <use xlink:href="#ArialMT-6e" transform="translate(616.796875 0)"/>
      <use xlink:href="#ArialMT-6c" transform="translate(672.412109 0)"/>
      <use xlink:href="#ArialMT-79" transform="translate(694.628906 0)"/>
      <use xlink:href="#ArialMT-29" transform="translate(744.628906 0)"/>
     </g>
    </g>
    <g id="line2d_26">
     <path d="M 54.095313 52.640313 
L 65.095313 52.640313 
L 76.095313 52.640313 
" style="fill: none; stroke: #3a609c; stroke-width: 1.5; stroke-linecap: round"/>
    </g>
    <g id="text_15">
     <!-- GRU (VRE only) -->
     <g style="fill: #262626" transform="translate(84.895313 56.490313) scale(0.11 -0.11)">
      <defs>
       <path id="ArialMT-47" d="M 2638 1797 
L 2638 2334 
L 4578 2338 
L 4578 638 
Q 4131 281 3656 101 
Q 3181 -78 2681 -78 
Q 2006 -78 1454 211 
Q 903 500 622 1047 
Q 341 1594 341 2269 
Q 341 2938 620 3517 
Q 900 4097 1425 4378 
Q 1950 4659 2634 4659 
Q 3131 4659 3532 4498 
Q 3934 4338 4162 4050 
Q 4391 3763 4509 3300 
L 3963 3150 
Q 3859 3500 3706 3700 
Q 3553 3900 3268 4020 
Q 2984 4141 2638 4141 
Q 2222 4141 1919 4014 
Q 1616 3888 1430 3681 
Q 1244 3475 1141 3228 
Q 966 2803 966 2306 
Q 966 1694 1177 1281 
Q 1388 869 1791 669 
Q 2194 469 2647 469 
Q 3041 469 3416 620 
Q 3791 772 3984 944 
L 3984 1797 
L 2638 1797 
z
" transform="scale(0.015625)"/>
       <path id="ArialMT-55" d="M 3500 4581 
L 4106 4581 
L 4106 1934 
Q 4106 1244 3950 837 
Q 3794 431 3386 176 
Q 2978 -78 2316 -78 
Q 1672 -78 1262 144 
Q 853 366 678 786 
Q 503 1206 503 1934 
L 503 4581 
L 1109 4581 
L 1109 1938 
Q 1109 1341 1220 1058 
Q 1331 775 1601 622 
Q 1872 469 2263 469 
Q 2931 469 3215 772 
Q 3500 1075 3500 1938 
L 3500 4581 
z
" transform="scale(0.015625)"/>
      </defs>
      <use xlink:href="#ArialMT-47"/>
      <use xlink:href="#ArialMT-52" transform="translate(77.783203 0)"/>
      <use xlink:href="#ArialMT-55" transform="translate(150 0)"/>
      <use xlink:href="#ArialMT-20" transform="translate(222.216797 0)"/>
      <use xlink:href="#ArialMT-28" transform="translate(250 0)"/>
      <use xlink:href="#ArialMT-56" transform="translate(283.300781 0)"/>
      <use xlink:href="#ArialMT-52" transform="translate(350 0)"/>
      <use xlink:href="#ArialMT-45" transform="translate(422.216797 0)"/>
      <use xlink:href="#ArialMT-20" transform="translate(488.916016 0)"/>
      <use xlink:href="#ArialMT-6f" transform="translate(516.699219 0)"/>
      <use xlink:href="#ArialMT-6e" transform="translate(572.314453 0)"/>
      <use xlink:href="#ArialMT-6c" transform="translate(627.929688 0)"/>
      <use xlink:href="#ArialMT-79" transform="translate(650.146484 0)"/>
      <use xlink:href="#ArialMT-29" transform="translate(700.146484 0)"/>
     </g>
    </g>
    <g id="line2d_27">
     <path d="M 54.095313 68.329063 
L 65.095313 68.329063 
L 76.095313 68.329063 
" style="fill: none; stroke: #ffb14e; stroke-width: 1.5; stroke-linecap: round"/>
    </g>
    <g id="text_16">
     <!-- Best model -->
     <g style="fill: #262626" transform="translate(84.895313 72.179063) scale(0.11 -0.11)">
      <defs>
       <path id="ArialMT-42" d="M 469 0 
L 469 4581 
L 2188 4581 
Q 2713 4581 3030 4442 
Q 3347 4303 3526 4014 
Q 3706 3725 3706 3409 
Q 3706 3116 3547 2856 
Q 3388 2597 3066 2438 
Q 3481 2316 3704 2022 
Q 3928 1728 3928 1328 
Q 3928 1006 3792 729 
Q 3656 453 3456 303 
Q 3256 153 2954 76 
Q 2653 0 2216 0 
L 469 0 
z
M 1075 2656 
L 2066 2656 
Q 2469 2656 2644 2709 
Q 2875 2778 2992 2937 
Q 3109 3097 3109 3338 
Q 3109 3566 3000 3739 
Q 2891 3913 2687 3977 
Q 2484 4041 1991 4041 
L 1075 4041 
L 1075 2656 
z
M 1075 541 
L 2216 541 
Q 2509 541 2628 563 
Q 2838 600 2978 687 
Q 3119 775 3209 942 
Q 3300 1109 3300 1328 
Q 3300 1584 3169 1773 
Q 3038 1963 2805 2039 
Q 2572 2116 2134 2116 
L 1075 2116 
L 1075 541 
z
" transform="scale(0.015625)"/>
       <path id="ArialMT-73" d="M 197 991 
L 753 1078 
Q 800 744 1014 566 
Q 1228 388 1613 388 
Q 2000 388 2187 545 
Q 2375 703 2375 916 
Q 2375 1106 2209 1216 
Q 2094 1291 1634 1406 
Q 1016 1563 777 1677 
Q 538 1791 414 1992 
Q 291 2194 291 2438 
Q 291 2659 392 2848 
Q 494 3038 669 3163 
Q 800 3259 1026 3326 
Q 1253 3394 1513 3394 
Q 1903 3394 2198 3281 
Q 2494 3169 2634 2976 
Q 2775 2784 2828 2463 
L 2278 2388 
Q 2241 2644 2061 2787 
Q 1881 2931 1553 2931 
Q 1166 2931 1000 2803 
Q 834 2675 834 2503 
Q 834 2394 903 2306 
Q 972 2216 1119 2156 
Q 1203 2125 1616 2013 
Q 2213 1853 2448 1751 
Q 2684 1650 2818 1456 
Q 2953 1263 2953 975 
Q 2953 694 2789 445 
Q 2625 197 2315 61 
Q 2006 -75 1616 -75 
Q 969 -75 630 194 
Q 291 463 197 991 
z
" transform="scale(0.015625)"/>
       <path id="ArialMT-6d" d="M 422 0 
L 422 3319 
L 925 3319 
L 925 2853 
Q 1081 3097 1340 3245 
Q 1600 3394 1931 3394 
Q 2300 3394 2536 3241 
Q 2772 3088 2869 2813 
Q 3263 3394 3894 3394 
Q 4388 3394 4653 3120 
Q 4919 2847 4919 2278 
L 4919 0 
L 4359 0 
L 4359 2091 
Q 4359 2428 4304 2576 
Q 4250 2725 4106 2815 
Q 3963 2906 3769 2906 
Q 3419 2906 3187 2673 
Q 2956 2441 2956 1928 
L 2956 0 
L 2394 0 
L 2394 2156 
Q 2394 2531 2256 2718 
Q 2119 2906 1806 2906 
Q 1569 2906 1367 2781 
Q 1166 2656 1075 2415 
Q 984 2175 984 1722 
L 984 0 
L 422 0 
z
" transform="scale(0.015625)"/>
      </defs>
      <use xlink:href="#ArialMT-42"/>
      <use xlink:href="#ArialMT-65" transform="translate(66.699219 0)"/>
      <use xlink:href="#ArialMT-73" transform="translate(122.314453 0)"/>
      <use xlink:href="#ArialMT-74" transform="translate(172.314453 0)"/>
      <use xlink:href="#ArialMT-20" transform="translate(200.097656 0)"/>
      <use xlink:href="#ArialMT-6d" transform="translate(227.880859 0)"/>
      <use xlink:href="#ArialMT-6f" transform="translate(311.181641 0)"/>
      <use xlink:href="#ArialMT-64" transform="translate(366.796875 0)"/>
      <use xlink:href="#ArialMT-65" transform="translate(422.412109 0)"/>
      <use xlink:href="#ArialMT-6c" transform="translate(478.027344 0)"/>
     </g>
    </g>
    <g id="line2d_28">
     <path d="M 54.095313 83.888906 
L 65.095313 83.888906 
L 76.095313 83.888906 
" style="fill: none"/>
    </g>
    <g id="text_17">
     <!-- Holiday -->
     <g style="fill: #262626" transform="translate(84.895313 87.738906) scale(0.11 -0.11)">
      <defs>
       <path id="ArialMT-69" d="M 425 3934 
L 425 4581 
L 988 4581 
L 988 3934 
L 425 3934 
z
M 425 0 
L 425 3319 
L 988 3319 
L 988 0 
L 425 0 
z
" transform="scale(0.015625)"/>
      </defs>
      <use xlink:href="#ArialMT-48"/>
      <use xlink:href="#ArialMT-6f" transform="translate(72.216797 0)"/>
      <use xlink:href="#ArialMT-6c" transform="translate(127.832031 0)"/>
      <use xlink:href="#ArialMT-69" transform="translate(150.048828 0)"/>
      <use xlink:href="#ArialMT-64" transform="translate(172.265625 0)"/>
      <use xlink:href="#ArialMT-61" transform="translate(227.880859 0)"/>
      <use xlink:href="#ArialMT-79" transform="translate(283.496094 0)"/>
     </g>
    </g>
    <g id="line2d_29">
     <path d="M 54.095313 99.577656 
L 65.095313 99.577656 
L 76.095313 99.577656 
" style="fill: none; stroke: #333333; stroke-width: 1.5; stroke-linecap: round"/>
    </g>
    <g id="text_18">
     <!-- No -->
     <g style="fill: #262626" transform="translate(84.895313 103.427656) scale(0.11 -0.11)">
      <defs>
       <path id="ArialMT-4e" d="M 488 0 
L 488 4581 
L 1109 4581 
L 3516 984 
L 3516 4581 
L 4097 4581 
L 4097 0 
L 3475 0 
L 1069 3600 
L 1069 0 
L 488 0 
z
" transform="scale(0.015625)"/>
      </defs>
      <use xlink:href="#ArialMT-4e"/>
      <use xlink:href="#ArialMT-6f" transform="translate(72.216797 0)"/>
     </g>
    </g>
    <g id="line2d_30">
     <path d="M 54.095313 115.1375 
L 65.095313 115.1375 
L 76.095313 115.1375 
" style="fill: none; stroke-dasharray: 6,2.25; stroke-dashoffset: 0; stroke: #333333; stroke-width: 1.5"/>
    </g>
    <g id="text_19">
     <!-- Yes -->
     <g style="fill: #262626" transform="translate(84.895313 118.9875) scale(0.11 -0.11)">
      <defs>
       <path id="ArialMT-59" d="M 1784 0 
L 1784 1941 
L 19 4581 
L 756 4581 
L 1659 3200 
Q 1909 2813 2125 2425 
Q 2331 2784 2625 3234 
L 3513 4581 
L 4219 4581 
L 2391 1941 
L 2391 0 
L 1784 0 
z
" transform="scale(0.015625)"/>
      </defs>
      <use xlink:href="#ArialMT-59"/>
      <use xlink:href="#ArialMT-65" transform="translate(57.574219 0)"/>
      <use xlink:href="#ArialMT-73" transform="translate(113.189453 0)"/>
     </g>
    </g>
   </g>
  </g>
 </g>
 <defs>
  <clipPath id="pee4a546754">
   <rect x="44.195313" y="7.2" width="801.54" height="227.64375"/>
  </clipPath>
 </defs>
</svg>
